<svg width="71" height="70" viewBox="0 0 71 70" fill="none" xmlns="http://www.w3.org/2000/svg">
<g clip-path="url(#clip0_2414_99708)">
<path fill-rule="evenodd" clip-rule="evenodd" d="M7.67178 23.6552V23.6506C7.67178 21.5089 8.65251 19.5203 10.3438 18.2076L30.7884 2.29002C33.2815 0.351241 36.7883 0.346673 39.3166 2.29203L39.3187 2.29361L42.0584 4.42277L42.489 4.38325C42.5208 4.38033 42.5531 4.37883 42.5859 4.37883H55.436C56.0477 4.37883 56.5312 4.87128 56.5311 5.44477L56.6226 15.7413L59.7524 18.1735L59.755 18.1755C61.4222 19.4905 62.4307 21.5402 62.4307 23.6506V58.0981H63.9775C64.57 58.0981 65.0727 58.6008 65.0727 59.1933C65.0727 59.7858 64.57 60.2885 63.9775 60.2885H42.8041C42.2115 60.2885 41.7089 59.7858 41.7089 59.1933C41.7089 58.6008 42.2115 58.0981 42.8041 58.0981H60.2403V23.6798C60.2403 22.2312 59.5586 20.8382 58.4275 19.9333L37.972 4.03648C36.2581 2.70366 33.87 2.71272 32.1393 4.0296L11.6928 19.9487L11.6893 19.9514C10.5409 20.8336 9.8629 22.2352 9.86213 23.6774L9.86213 23.6798L9.71898 58.0981H19.4859C20.0785 58.0981 20.5811 58.6008 20.5811 59.1933C20.5811 59.7858 20.0785 60.2885 19.4859 60.2885H5.97874C5.38619 60.2885 4.88356 59.7858 4.88356 59.1933C4.88356 58.6008 5.38619 58.0981 5.97874 58.0981H7.52864L7.67178 23.6552ZM54.3325 6.56918H44.8203L54.389 14.0054L54.3325 6.56918Z" fill="#F05A3B"/>
<g clip-path="url(#clip1_2414_99708)">
<path fill-rule="evenodd" clip-rule="evenodd" d="M26.2558 37.238L26.2355 37.2372L26.2152 37.238C26.2013 37.2385 26.1872 37.2387 26.1731 37.2387H23.9827C21.43 37.2387 19.5341 36.5387 18.2753 35.2799C17.0165 34.0212 16.3165 32.1253 16.3165 29.5725C16.3165 27.0197 17.0165 25.1238 18.2753 23.865C19.5341 22.6063 21.43 21.9062 23.9827 21.9062H26.1731C26.1872 21.9062 26.2012 21.9065 26.2152 21.907L26.2355 21.9078L26.2558 21.907C26.2689 21.9065 26.2821 21.9062 26.2954 21.9062H37.2433C39.5193 21.9062 41.2728 22.4633 42.5159 23.473C43.7534 24.4782 44.5466 25.9819 44.8117 28.001L44.8742 28.4773H46.0065C49.7983 28.4773 51.6227 29.2527 52.5552 30.4579C53.5183 31.7027 53.6728 33.5599 53.6728 36.1436V40.5243C53.6728 43.108 53.5183 44.9652 52.5552 46.2099C51.6227 47.4151 49.7983 48.1905 46.0065 48.1905H37.2451C35.1984 48.1905 33.8278 48.4112 32.9681 49.0613C32.0568 49.7503 31.8519 50.8089 31.7932 52.0162L31.7672 52.5522L32.3025 52.5891C33.2941 52.6574 34.2454 52.9298 34.9447 53.5587C35.628 54.1733 36.1499 55.2004 36.1499 56.9519V63.523C36.1499 65.4297 35.5324 66.4822 34.7478 67.0791C33.935 67.6975 32.8438 67.9037 31.7692 67.9037H29.5789C28.5043 67.9037 27.4131 67.6975 26.6003 67.0791C25.8157 66.4822 25.1982 65.4297 25.1982 63.523V56.9519C25.1982 55.1873 25.7278 54.1577 26.4195 53.5443C27.128 52.9161 28.0909 52.6488 29.0904 52.5861L29.581 52.5554L29.6032 52.0643C29.6753 50.4675 29.9598 48.9898 30.9724 47.8985C31.9764 46.8164 33.807 46.0002 37.2451 46.0002H46.0065C47.2407 46.0002 48.2087 45.9599 48.9554 45.8216C49.7063 45.6825 50.3064 45.4318 50.7294 44.9524C51.1474 44.4787 51.32 43.8621 51.4017 43.1595C51.4824 42.4656 51.4824 41.5975 51.4824 40.5567V36.1111C51.4824 35.0703 51.4824 34.2022 51.4017 33.5084C51.32 32.8057 51.1474 32.1891 50.7294 31.7154C50.3064 31.2361 49.7063 30.9853 48.9554 30.8462C48.2087 30.708 47.2407 30.6677 46.0065 30.6677H44.8742L44.8117 31.144C44.5466 33.1631 43.7534 34.6668 42.5159 35.672C41.2728 36.6817 39.5193 37.2387 37.2433 37.2387H26.2954C26.2822 37.2387 26.2689 37.2385 26.2558 37.238ZM24.5159 24.8205L24.7691 24.0757L23.9827 24.0968C22.2833 24.1424 20.6673 24.5493 19.766 25.4994C18.8678 26.4463 18.5069 27.8247 18.5069 29.5725C18.5069 31.3103 18.8682 32.6872 19.762 33.636C20.6595 34.5888 22.2694 35.0025 23.9607 35.0482L24.7422 35.0693L24.495 34.3276C23.4373 31.1546 23.4376 27.9918 24.5159 24.8205ZM27.1007 35.0484H34.2733L34.3813 34.6412C35.26 31.3294 35.26 27.8156 34.3813 24.5038L34.2733 24.0966H27.1007L26.9927 24.5038C26.1141 27.8156 26.1141 31.3294 26.9927 34.6412L27.1007 35.0484ZM41.4579 25.5001C42.3537 26.4478 42.7084 27.8268 42.6973 29.5741C42.6971 31.3192 42.3424 32.6971 41.4504 33.6441C40.5543 34.5957 38.9427 34.9814 37.2433 35.0271L36.4619 35.048L36.7091 34.3065C37.7668 31.1334 37.7668 27.9694 36.7091 24.7962L36.4619 24.0547L37.2433 24.0757C38.9424 24.1213 40.5591 24.5491 41.4579 25.5001ZM29.5789 54.7616C29.1492 54.7616 28.7846 54.7922 28.4844 54.8745C28.1744 54.9594 27.9033 55.108 27.7083 55.3603C27.5198 55.604 27.4495 55.8849 27.4183 56.1386C27.3885 56.3807 27.3885 56.6573 27.3885 56.9291V63.5458C27.3885 63.8177 27.3885 64.0942 27.4183 64.3364C27.4495 64.59 27.5198 64.8709 27.7083 65.1147C27.9033 65.3669 28.1744 65.5155 28.4844 65.6004C28.7846 65.6827 29.1492 65.7133 29.5789 65.7133H31.7692C32.1989 65.7133 32.5635 65.6827 32.8637 65.6004C33.1737 65.5155 33.4448 65.3669 33.6398 65.1147C33.8283 64.8709 33.8986 64.59 33.9298 64.3364C33.9596 64.0942 33.9596 63.8177 33.9596 63.5458V56.9291C33.9596 56.6573 33.9596 56.3807 33.9298 56.1386C33.8986 55.8849 33.8283 55.604 33.6398 55.3603C33.4448 55.108 33.1737 54.9594 32.8637 54.8745C32.5635 54.7922 32.1989 54.7616 31.7692 54.7616H29.5789Z" fill="white"/>
</g>
</g>
<defs>
<clipPath id="clip0_2414_99708">
<rect width="70.0913" height="70" fill="white"/>
</clipPath>
<clipPath id="clip1_2414_99708">
<rect width="52.5685" height="52.5685" fill="white" transform="translate(8.77068 21.9082)"/>
</clipPath>
</defs>
</svg>
