<svg width="70" height="70" viewBox="0 0 70 70" fill="none" xmlns="http://www.w3.org/2000/svg">
<path d="M17.6569 6.03189C17.6569 5.09437 18.4169 4.33436 19.3544 4.33436H57.5761C58.5741 4.33436 59.3831 5.1434 59.3831 6.14141V57.5052C59.3831 58.4427 58.6231 59.2027 57.6856 59.2027H17.6569V6.03189Z" stroke="#F05A3B" stroke-width="2.08084"/>
<path d="M51.0627 10.3267L43.5506 10.3267L18.8913 10.3267L11.3792 10.3267C10.5218 10.3267 9.82779 11.0207 9.82779 11.8781L9.82779 64.2178C9.82779 65.0751 10.5218 65.7692 11.3792 65.7692L35.4454 65.7692L52.6141 65.6045L52.6141 11.8781C52.6141 11.0207 51.92 10.3267 51.0627 10.3267Z" fill="black"/>
<path d="M43.5506 10.3267L51.0627 10.3267C51.92 10.3267 52.6141 11.0207 52.6141 11.8781L52.6141 16.1729M44.0475 10.3267L11.3792 10.3267C10.5218 10.3267 9.82779 11.0207 9.82779 11.8781L9.82779 16.1729M9.82779 16.1729L9.82779 64.2178C9.82779 65.0751 10.5218 65.7692 11.3792 65.7692L35.4454 65.7692L50.9713 65.7692C51.8786 65.7692 52.6141 65.0337 52.6141 64.1264L52.6141 16.1729M9.82779 16.1729L52.6141 16.1729" stroke="#F05A3B" stroke-width="2.08084" stroke-linecap="round" stroke-linejoin="round"/>
<rect x="16.3653" y="27.3324" width="12.1565" height="12.1565" rx="1.14994" stroke="white" stroke-width="2.08084"/>
<path d="M35.2468 30.6685H46.1986" stroke="white" stroke-width="2.08084" stroke-linecap="round"/>
<path d="M35.2468 36.1436H46.1986" stroke="white" stroke-width="2.08084" stroke-linecap="round"/>
<path d="M16.6259 50.3877H46.1957" stroke="white" stroke-width="2.08084" stroke-linecap="round"/>
<path d="M16.6259 55.854H46.1957" stroke="white" stroke-width="2.08084" stroke-linecap="round"/>
</svg>
