<svg width="71" height="70" viewBox="0 0 71 70" fill="none" xmlns="http://www.w3.org/2000/svg">
<path d="M54.3439 7.03662L46.8318 7.03662L22.1726 7.03662L14.6605 7.03662C13.8031 7.03662 13.1091 7.73067 13.1091 8.58803L13.1091 60.9277C13.1091 61.7851 13.8031 62.4792 14.6605 62.4792L38.7266 62.4792L55.8954 44.0516L55.8954 8.58803C55.8954 7.73067 55.2013 7.03662 54.3439 7.03662Z" fill="black"/>
<path d="M46.8318 7.03662L54.3439 7.03662C55.2013 7.03662 55.8954 7.73067 55.8954 8.58803L55.8954 44.0516M22.1726 7.03662L14.6605 7.03662C13.8031 7.03662 13.1091 7.73067 13.1091 8.58803L13.1091 60.9277C13.1091 61.7851 13.8031 62.4792 14.6605 62.4792L38.7266 62.4792" stroke="#F05A3B" stroke-width="2.08084" stroke-linecap="round" stroke-linejoin="round"/>
<path fill-rule="evenodd" clip-rule="evenodd" d="M46.6657 6.67035C46.2575 5.77216 45.3593 5.11893 44.2978 5.11893L36.704 5.11894C36.5407 4.09827 35.6425 3.28174 34.5402 3.28174C33.4379 3.28174 32.5397 4.05744 32.3764 5.11894L24.701 5.11894C24.007 5.11894 23.3537 5.40472 22.8638 5.89464C22.6188 6.1396 22.4555 6.38456 22.3331 6.67035C22.2106 6.99696 22.1289 7.32357 22.1289 7.69101C22.1289 9.11994 23.2721 10.2631 24.701 10.2631L44.3386 10.2631C45.0735 10.2631 45.6859 9.9773 46.1758 9.48738C46.6249 9.03829 46.9515 8.38506 46.9515 7.65018C46.9107 7.32357 46.829 6.99696 46.6657 6.67035Z" stroke="#F05A3B" stroke-width="2.08084" stroke-linecap="round" stroke-linejoin="round"/>
<path d="M45.6953 46.1196L47.5734 46.1196" stroke="white" stroke-width="2.08084" stroke-linecap="round" stroke-linejoin="round"/>
<path d="M34.6335 46.1196L41.125 46.1196" stroke="white" stroke-width="2.08084" stroke-linecap="round" stroke-linejoin="round"/>
<path d="M24.7927 49.2197C26.9069 49.2197 28.6208 47.5058 28.6208 45.3916C28.6208 43.2774 26.9069 41.5635 24.7927 41.5635C22.6784 41.5635 20.9645 43.2774 20.9645 45.3916C20.9645 47.5058 22.6784 49.2197 24.7927 49.2197Z" stroke="white" stroke-width="2.08084" stroke-linecap="round" stroke-linejoin="round"/>
<path d="M45.6953 32.6699L47.5733 32.6699" stroke="white" stroke-width="2.08084" stroke-linecap="round" stroke-linejoin="round"/>
<path d="M34.6335 32.6699L41.125 32.6699" stroke="white" stroke-width="2.08084" stroke-linecap="round" stroke-linejoin="round"/>
<path d="M28.6239 30.6284L24.8505 34.6534C24.6044 34.9159 24.3583 35.0034 24.0302 35.0034C23.7021 35.0034 23.456 34.9159 23.2099 34.6534L22.0614 33.4284" stroke="white" stroke-width="1.97132" stroke-linecap="round" stroke-linejoin="round"/>
<path d="M28.6239 17.499L24.8505 21.524C24.6044 21.7865 24.3583 21.874 24.0302 21.874C23.7021 21.874 23.456 21.7865 23.2099 21.524L22.0614 20.299" stroke="white" stroke-width="1.97132" stroke-linecap="round" stroke-linejoin="round"/>
<path d="M45.6869 19.2373L47.5649 19.2373" stroke="white" stroke-width="2.08084" stroke-linecap="round" stroke-linejoin="round"/>
<path d="M34.6251 19.2373L41.1165 19.2373" stroke="white" stroke-width="2.08084" stroke-linecap="round" stroke-linejoin="round"/>
<path fill-rule="evenodd" clip-rule="evenodd" d="M47.4982 65.2639L42.92 67.0554C42.3228 67.2942 41.7256 66.6971 41.9645 66.0999L43.756 61.5216C43.9551 61.0439 44.2337 60.606 44.592 60.2078L61.3923 43.4075C61.8302 42.9696 62.507 42.9696 62.945 43.4075L65.5725 46.0351C66.0104 46.473 66.0104 47.1498 65.5725 47.5877L48.7722 64.388C48.4537 64.7861 47.976 65.0648 47.4982 65.2639Z" stroke="white" stroke-width="2.08084" stroke-linecap="round" stroke-linejoin="round"/>
</svg>
