<svg width="70" height="70" viewBox="0 0 70 70" fill="none" xmlns="http://www.w3.org/2000/svg">
<path fill-rule="evenodd" clip-rule="evenodd" d="M35.0442 64.1041C50.8308 64.1041 63.6283 51.3065 63.6283 35.5199C63.6283 19.7334 50.8308 6.93582 35.0442 6.93582C19.2576 6.93582 6.46008 19.7334 6.46008 35.5199C6.46008 51.3065 19.2576 64.1041 35.0442 64.1041ZM35.0442 66.1849C51.98 66.1849 65.7092 52.4557 65.7092 35.5199C65.7092 18.5842 51.98 4.85498 35.0442 4.85498C18.1084 4.85498 4.37924 18.5842 4.37924 35.5199C4.37924 52.4557 18.1084 66.1849 35.0442 66.1849Z" fill="#F05A3B"/>
<path d="M27.8838 21.5405C25.9609 22.8215 24.4653 24.6467 23.5861 26.7848C22.7069 28.9228 22.484 31.2769 22.9439 33.5492C23.0579 34.1124 23.6068 34.4766 24.17 34.3626C24.7332 34.2486 25.0974 33.6996 24.9834 33.1364C24.6048 31.2663 24.7888 29.3314 25.5106 27.5761C25.6943 27.1293 25.9109 26.6991 26.1576 26.2887C26.2222 26.2309 26.2805 26.1639 26.3307 26.0883C27.3854 24.4983 28.8837 23.2602 30.6352 22.5293C32.3867 21.7986 34.3135 21.6075 36.1723 21.9799C38.0312 22.3524 39.7398 23.2719 41.0815 24.6235C42.4233 25.9751 43.3379 27.698 43.7085 29.5749C44.0792 31.4518 43.8889 33.3971 43.1621 35.1647C42.4353 36.9321 41.205 38.4416 39.628 39.503C38.051 40.5644 36.1979 41.1304 34.3028 41.1304C33.7282 41.1304 33.2624 41.5962 33.2624 42.1708V49.6343C33.2624 50.2089 33.7282 50.6747 34.3028 50.6747C34.8774 50.6747 35.3432 50.2089 35.3432 49.6343V43.1645C37.286 42.9895 39.1598 42.3264 40.7898 41.2293C41.4583 40.7794 42.0752 40.2636 42.6327 39.6917C42.6658 39.6658 42.6978 39.6376 42.7283 39.6071C44.3617 37.9736 45.4701 35.8894 45.9138 33.6186C46.3575 31.3478 46.1167 28.993 45.2233 26.8516C44.3299 24.7103 42.8237 22.8778 40.8952 21.5853C38.9667 20.2928 36.7015 19.5979 34.3855 19.5894C32.0695 19.581 29.8067 20.2596 27.8838 21.5405Z" fill="white"/>
<circle cx="34.306" cy="53.1769" r="1.15293" fill="white"/>
</svg>
