<svg width="71" height="70" viewBox="0 0 71 70" fill="none" xmlns="http://www.w3.org/2000/svg">
<path fill-rule="evenodd" clip-rule="evenodd" d="M54.9587 24.1416C52.7165 23.1854 50.2665 22.8209 47.8431 23.0829C45.4197 23.345 43.1042 24.2248 41.1183 25.6382C40.6255 25.9889 39.9417 25.8737 39.591 25.3809C39.2403 24.8881 39.3555 24.2043 39.8483 23.8536C42.1397 22.2228 44.8114 21.2076 47.6076 20.9053C50.4038 20.6029 53.2308 21.0235 55.8179 22.1268C58.4049 23.2301 60.6654 24.9791 62.3829 27.2063C64.1003 29.4335 65.2171 32.0644 65.6264 34.847C66.0358 37.6295 65.7238 40.4705 64.7205 43.098C63.7172 45.7255 62.0561 48.0513 59.8964 49.8528C57.7366 51.6544 55.1505 52.8712 52.3856 53.3869C51.791 53.4978 51.2191 53.1057 51.1082 52.5111C50.9973 51.9165 51.3894 51.3446 51.984 51.2337C54.3802 50.7868 56.6215 49.7322 58.4933 48.1708C60.3651 46.6095 61.8047 44.5938 62.6743 42.3166C63.5438 40.0395 63.8141 37.5773 63.4594 35.1657C63.1047 32.7542 62.1367 30.4741 60.6483 28.5438C59.1599 26.6136 57.2008 25.0978 54.9587 24.1416Z" fill="#F05A3B"/>
<path fill-rule="evenodd" clip-rule="evenodd" d="M16.2414 32.8852C14.3529 32.7286 12.4592 33.1197 10.7873 34.0117C9.11536 34.9036 7.73598 36.2586 6.81436 37.9144C5.89275 39.5702 5.46797 41.4565 5.59091 43.3475C5.71384 45.2385 6.37927 47.054 7.50751 48.5765C8.63575 50.099 10.179 51.264 11.9523 51.932C13.7257 52.6 15.654 52.7426 17.5063 52.3428C18.0975 52.2152 18.6803 52.591 18.8079 53.1823C18.9355 53.7735 18.5597 54.3563 17.9684 54.4839C15.7045 54.9725 13.3476 54.7982 11.1802 53.9818C9.01278 53.1654 7.12664 51.7415 5.74768 49.8806C4.36873 48.0197 3.55542 45.8008 3.40517 43.4896C3.25491 41.1784 3.77408 38.8729 4.9005 36.8491C6.02692 34.8254 7.71283 33.1693 9.75631 32.0791C11.7998 30.9889 14.1142 30.5109 16.4224 30.7024C18.7306 30.8938 20.9346 31.7465 22.7706 33.1584C23.2501 33.5271 23.3398 34.2147 22.9711 34.6942C22.6024 35.1736 21.9148 35.2634 21.4354 34.8947C19.9332 33.7395 18.1299 33.0418 16.2414 32.8852Z" fill="#F05A3B"/>
<path fill-rule="evenodd" clip-rule="evenodd" d="M34.5762 8.89631C32.3014 8.60178 29.9905 8.77133 27.7831 9.39472C25.5756 10.0181 23.5174 11.0824 21.7327 12.5234C19.948 13.9643 18.4739 15.752 17.3993 17.7785C16.3247 19.8051 15.672 22.0283 15.4805 24.3141C15.2891 26.5999 15.5629 28.9008 16.2853 31.0778L14.2065 31.7677C13.3908 29.3098 13.0817 26.712 13.2978 24.1313C13.514 21.5506 14.2509 19.0404 15.4642 16.7524C16.6774 14.4644 18.3418 12.446 20.3568 10.8192C22.3717 9.19228 24.6955 7.99065 27.1878 7.28681C29.6801 6.58298 32.2892 6.39155 34.8575 6.72408C37.4258 7.05662 39.9001 7.90622 42.1309 9.22159C44.3618 10.537 46.3029 12.2908 47.8371 14.3772C49.3713 16.4636 50.4667 18.8393 51.0572 21.3609L48.9246 21.8603C48.4016 19.6269 47.4313 17.5227 46.0725 15.6748C44.7136 13.8268 42.9943 12.2734 41.0184 11.1084C39.0425 9.94334 36.851 9.19084 34.5762 8.89631Z" fill="#F05A3B"/>
<path fill-rule="evenodd" clip-rule="evenodd" d="M31.885 41.5722C31.4657 41.1529 30.7572 41.1529 30.338 41.5722L24.497 47.4131C24.0778 47.8324 24.0778 48.5408 24.497 48.96C24.7189 49.1819 24.9903 49.2817 25.2704 49.2817C25.5954 49.2817 25.8444 49.1728 26.0177 48.9871L26.0305 48.9733L31.885 43.1191C31.885 43.1191 31.885 43.1191 31.885 43.1191C32.3042 42.6998 32.3042 41.9914 31.885 41.5722ZM28.7891 40.0234C30.0638 38.7487 32.1591 38.7487 33.4338 40.0234C34.7084 41.298 34.7084 43.3932 33.4338 44.6679L27.6046 50.4969C26.9618 51.1766 26.1075 51.4721 25.2704 51.4721C24.4408 51.4721 23.6025 51.1631 22.9482 50.5088C21.6736 49.2342 21.6736 47.1389 22.9482 45.8643L28.7891 40.0234ZM43.5671 53.2533C43.1478 52.8341 42.4394 52.8341 42.0202 53.2533L36.1793 59.0943C35.76 59.5135 35.76 60.2219 36.1793 60.6412C36.4011 60.863 36.6726 60.9629 36.9527 60.9629C37.2776 60.9629 37.5266 60.854 37.6999 60.6683L37.7128 60.6545L43.5671 54.8002C43.9863 54.381 43.9863 53.6726 43.5671 53.2533ZM40.4714 51.7045C41.746 50.4299 43.8413 50.4299 45.1159 51.7045C46.3905 52.9792 46.3905 55.0744 45.1159 56.349L39.2869 62.1781C38.644 62.8577 37.7897 63.1533 36.9527 63.1533C36.123 63.1533 35.2847 62.8443 34.6304 62.19C33.3558 60.9154 33.3558 58.8201 34.6304 57.5455L40.4714 51.7045Z" fill="white"/>
<path fill-rule="evenodd" clip-rule="evenodd" d="M40.4714 40.0234C41.746 38.7487 43.8413 38.7487 45.1159 40.0234C46.3905 41.298 46.3905 43.3932 45.1159 44.6679L39.2869 50.4969C38.6441 51.1765 37.7898 51.4721 36.9527 51.4721C36.123 51.4721 35.2847 51.1631 34.6304 50.5088C33.3558 49.2342 33.3558 47.1389 34.6304 45.8643L40.4714 40.0234ZM43.5671 41.5722C43.1478 41.1529 42.4394 41.1529 42.0202 41.5722L36.1793 47.4131C35.76 47.8324 35.76 48.5408 36.1793 48.96C36.4011 49.1819 36.6726 49.2817 36.9527 49.2817C37.2776 49.2817 37.5266 49.1728 37.6999 48.9871L37.7128 48.9733L43.5671 43.1191C43.9863 42.6998 43.9863 41.9914 43.5671 41.5722ZM28.7891 51.7045C30.0638 50.4299 32.1591 50.4299 33.4338 51.7045C34.7084 52.9792 34.7084 55.0744 33.4338 56.349L27.6046 62.1781C26.9618 62.8577 26.1075 63.1533 25.2704 63.1533C24.4408 63.1533 23.6025 62.8443 22.9482 62.19C21.6736 60.9154 21.6736 58.8201 22.9482 57.5455L28.7891 51.7045ZM31.885 53.2533C31.4657 52.8341 30.7572 52.8341 30.338 53.2533L24.497 59.0943C24.0778 59.5135 24.0778 60.2219 24.497 60.6412C24.7189 60.863 24.9903 60.9629 25.2704 60.9629C25.5954 60.9629 25.8444 60.854 26.0177 60.6683L26.0305 60.6545L31.885 54.8002C31.885 54.8002 31.885 54.8002 31.885 54.8002C32.3042 54.381 32.3042 53.6726 31.885 53.2533Z" fill="white"/>
</svg>
