<svg width="70" height="70" viewBox="0 0 70 70" fill="none" xmlns="http://www.w3.org/2000/svg">
<path d="M20.3391 53.1044H15.3157C14.7232 53.1044 14.2206 52.6018 14.2206 52.0092C14.2206 51.4167 14.7232 50.914 15.3157 50.914H20.3391C20.9316 50.914 21.4343 51.4167 21.4343 52.0092C21.4343 52.6113 20.9513 53.1044 20.3391 53.1044Z" fill="#F05A3B"/>
<path d="M36.6616 53.1044H26.6151C26.0226 53.1044 25.5199 52.6018 25.5199 52.0092C25.5199 51.4167 26.0226 50.914 26.6151 50.914H36.6616C37.2541 50.914 37.7568 51.4167 37.7568 52.0092C37.7568 52.6113 37.2739 53.1044 36.6616 53.1044Z" fill="#F05A3B"/>
<path fill-rule="evenodd" clip-rule="evenodd" d="M57.4556 51.8085L56.582 51.9366L56.5219 52.8175C56.2572 56.6951 55.3085 58.9724 53.5908 60.3457C51.8252 61.7575 49.0012 62.4221 44.4614 62.4221H16.8922C11.933 62.4221 9.01816 61.6182 7.29108 59.9095C5.56754 58.2044 4.75755 55.3304 4.75755 50.4336V30.0194C4.75755 26.4285 5.14331 23.7511 6.2747 21.8558C7.35402 20.0477 9.22213 18.7811 12.6578 18.277L13.5318 18.1487L13.5915 17.2673C13.8537 13.3922 14.8007 11.1151 16.5182 9.74126C18.2838 8.329 21.1094 7.66309 25.6536 7.66309H53.2228C58.1821 7.66309 61.0968 8.46701 62.8239 10.1757C64.5474 11.8808 65.3574 14.7547 65.3574 19.6516V40.0657C65.3574 43.6569 64.9716 46.3345 63.84 48.2299C62.7605 50.038 60.892 51.3045 57.4556 51.8085ZM56.5959 30.0194V49.7879L57.8862 49.5544C59.7595 49.2152 61.2311 48.5015 62.1201 46.8201C62.9319 45.2848 63.167 43.0831 63.167 40.0657V19.6516C63.167 17.7695 63.0914 16.2005 62.8348 14.9222C62.5757 13.6312 62.1144 12.5442 61.2745 11.7164C60.4362 10.8903 59.3373 10.4373 58.0311 10.1822C56.7352 9.92913 55.1414 9.85344 53.2228 9.85344H25.6536C23.9745 9.85344 22.5533 9.90978 21.3677 10.0862C20.1832 10.2625 19.1571 10.5689 18.3167 11.1213C16.5478 12.2842 15.994 14.2586 15.8001 16.854L15.7122 18.0308H44.4614C48.3403 18.0308 50.9836 18.5222 52.7793 19.5677C54.5014 20.5705 55.5805 22.1663 56.1401 24.7643C56.4503 26.2042 56.5959 27.9377 56.5959 30.0194ZM14.6543 20.2807L14.6445 20.2812L14.6347 20.2818C12.0564 20.4402 9.91578 20.7897 8.56912 22.4134C7.90449 23.2148 7.50885 24.2358 7.27287 25.4641C7.0376 26.6886 6.94791 28.1912 6.94791 30.0194V35.0425H54.4056V30.0193C54.4056 28.1372 54.33 26.5681 54.0734 25.2898C53.8794 24.3232 53.572 23.4687 53.0726 22.7499C52.5637 22.0172 51.8942 21.4818 51.0668 21.103C49.4889 20.3807 47.2992 20.2213 44.4614 20.2213H16.8922C16.078 20.2213 15.3274 20.2515 14.6543 20.2807ZM54.4056 37.2329H6.94791V50.4336C6.94791 52.3157 7.02352 53.8847 7.28009 55.163C7.5392 56.454 8.0005 57.5409 8.84051 58.3688C9.67879 59.1949 10.7777 59.6478 12.0839 59.903C13.3798 60.156 14.9736 60.2317 16.8922 60.2317H44.4614C46.3577 60.2317 47.9315 60.1596 49.2122 59.9196C50.5009 59.678 51.5888 59.2497 52.4271 58.4649C53.2714 57.6744 53.7456 56.6322 54.0197 55.3936C54.2903 54.1706 54.3835 52.6732 54.4056 50.8851V37.2329Z" fill="#F05A3B"/>
<rect x="6.95312" y="35" width="47.457" height="2.23438" fill="white"/>
<path d="M20.3393 53.1054H15.316C14.7235 53.1054 14.2208 52.6028 14.2208 52.0102C14.2208 51.4177 14.7235 50.915 15.316 50.915H20.3393C20.9319 50.915 21.4345 51.4177 21.4345 52.0102C21.4345 52.6123 20.9516 53.1054 20.3393 53.1054Z" fill="white"/>
<path d="M36.6618 53.1054H26.6154C26.0228 53.1054 25.5202 52.6028 25.5202 52.0102C25.5202 51.4177 26.0228 50.915 26.6154 50.915H36.6618C37.2544 50.915 37.757 51.4177 37.757 52.0102C37.757 52.6123 37.2741 53.1054 36.6618 53.1054Z" fill="white"/>
</svg>
