<svg width="71" height="70" viewBox="0 0 71 70" fill="none" xmlns="http://www.w3.org/2000/svg">
<g clip-path="url(#clip0_2414_99740)">
<path d="M43.4796 18.395H51.8179C54.058 18.395 55.8833 20.2203 55.8833 22.4604V24.1613" stroke="#F05A3B" stroke-width="2.08084" stroke-linecap="round" stroke-linejoin="round"/>
<path d="M8.9245 36.6972L8.9245 22.4682C8.9245 20.1866 10.7498 18.3613 13.0314 18.3613H26.1404" stroke="#F05A3B" stroke-width="2.08084" stroke-linecap="round" stroke-linejoin="round"/>
<path fill-rule="evenodd" clip-rule="evenodd" d="M49.1208 24.0397L37.1319 12.0508C37.049 11.9678 36.966 11.8849 36.883 11.8434C36.7586 11.7604 36.6756 11.6775 36.5512 11.5945C36.5097 11.5945 36.5097 11.553 36.4682 11.553C36.4267 11.5115 36.3852 11.5115 36.3437 11.47C36.2608 11.4286 36.1363 11.3871 36.0534 11.3456C35.2652 11.0137 34.394 11.0137 33.6058 11.3456C33.5228 11.3871 33.3984 11.4286 33.3154 11.47C33.2739 11.5115 33.2324 11.5115 33.191 11.553C32.9421 11.6775 32.7346 11.8434 32.5272 12.0508L20.4554 24.1227" fill="#212121"/>
<path d="M49.1208 24.0397L37.1319 12.0508C37.049 11.9678 36.966 11.8849 36.883 11.8434C36.7586 11.7604 36.6756 11.6775 36.5512 11.5945C36.5097 11.5945 36.5097 11.553 36.4682 11.553C36.4267 11.5115 36.3852 11.5115 36.3437 11.47C36.2608 11.4286 36.1363 11.3871 36.0534 11.3456C35.2652 11.0137 34.394 11.0137 33.6058 11.3456C33.5228 11.3871 33.3984 11.4286 33.3154 11.47C33.2739 11.5115 33.2324 11.5115 33.191 11.553C32.9421 11.6775 32.7346 11.8434 32.5272 12.0508L20.4554 24.1227" stroke="white" stroke-width="2.08084" stroke-linecap="round" stroke-linejoin="round"/>
<path d="M60.4282 32.4764L60.3992 58.3898C60.3992 60.8374 58.4079 62.7871 56.0019 62.7871H13.3978C10.9503 62.7871 9.00052 60.7959 9.00052 58.3898L9.00052 24.1655" stroke="#F05A3B" stroke-width="2.08084" stroke-linecap="round" stroke-linejoin="round"/>
<path d="M13.9008 24.1655L55.9655 24.1655C58.4131 24.1655 60.3628 26.1568 60.3628 28.5628V38.7679" stroke="#F05A3B" stroke-width="2.08084" stroke-linecap="round" stroke-linejoin="round"/>
<path fill-rule="evenodd" clip-rule="evenodd" d="M60.4141 49.2941H48.9188C46.1742 49.2941 43.9865 46.8211 43.9865 43.8182C43.9865 40.7711 46.214 38.3423 48.9188 38.3423H60.4141V49.2941Z" stroke="#F05A3B" stroke-width="2.08084" stroke-linecap="round" stroke-linejoin="round"/>
<path d="M49.5769 45.772C50.6766 45.772 51.5681 44.8805 51.5681 43.7808C51.5681 42.6811 50.6766 41.7896 49.5769 41.7896C48.4771 41.7896 47.5856 42.6811 47.5856 43.7808C47.5856 44.8805 48.4771 45.772 49.5769 45.772Z" stroke="white" stroke-width="2.08084" stroke-linecap="round" stroke-linejoin="round"/>
<path d="M42.0686 9.93572V5.20654" stroke="white" stroke-width="2.08084" stroke-linecap="round" stroke-linejoin="round"/>
<path d="M47.7968 13.7945L53.6461 9.85352" stroke="white" stroke-width="2.08084" stroke-linecap="round" stroke-linejoin="round"/>
<path d="M45.7185 10.23L50.1158 3.09473" stroke="white" stroke-width="2.08084" stroke-linecap="round" stroke-linejoin="round"/>
</g>
<defs>
<clipPath id="clip0_2414_99740">
<rect width="54.7589" height="61.8111" fill="white" transform="translate(7.85303 2.05518)"/>
</clipPath>
</defs>
</svg>
