<svg width="136" height="135" viewBox="0 0 136 135" fill="none" xmlns="http://www.w3.org/2000/svg">
<path d="M95.5414 45.5879C95.5414 51.7843 90.5948 56.8098 84.4904 56.8098H74.363C74.2394 56.8227 74.1144 56.807 73.9978 56.7638C73.8812 56.7206 73.7761 56.6512 73.6906 56.5609C73.6051 56.4706 73.5416 56.3618 73.5049 56.243C73.4682 56.1242 73.4593 55.9985 73.4789 55.8758C73.9473 50.1135 78.6992 45.5879 84.4904 45.5879H95.5414Z" fill="#73E6D2"/>
<path d="M31.3893 70.8402H104.359L104.326 87.7195H31.3564L31.3893 70.8402Z" fill="#73E6D2"/>
<path fill-rule="evenodd" clip-rule="evenodd" d="M97.3329 37.8826H38.4C34.9127 37.8826 32.0857 40.7096 32.0857 44.1968V91.9051C32.0857 95.3924 34.9127 98.2194 38.4 98.2194H97.3329C100.82 98.2194 103.647 95.3924 103.647 91.9051V44.1968C103.647 40.7096 100.82 37.8826 97.3329 37.8826ZM38.4 31.5684C31.4254 31.5684 25.7715 37.2223 25.7715 44.1968V91.9051C25.7715 98.8796 31.4254 104.534 38.4 104.534H97.3329C104.307 104.534 109.961 98.8796 109.961 91.9051V44.1968C109.961 37.2223 104.307 31.5684 97.3329 31.5684H38.4Z" fill="#177EE5"/>
</svg>
