<svg width="136" height="135" viewBox="0 0 136 135" fill="none" xmlns="http://www.w3.org/2000/svg">
<path d="M59.3268 70.453C58.5191 70.4592 57.731 70.2038 57.0805 69.7248C56.4301 69.2458 55.9522 68.5691 55.7184 67.7959C55.42 66.8432 55.5114 65.8111 55.9725 64.9256C56.4337 64.0402 57.227 63.3737 58.1787 63.0721L75.7617 57.5938C76.1355 57.4886 76.5216 57.4335 76.9099 57.4297C77.7133 57.4253 78.4965 57.682 79.1414 58.1613C79.7863 58.6405 80.258 59.3163 80.4855 60.0869C80.639 60.5553 80.695 61.0502 80.6498 61.541C80.6047 62.0319 80.4595 62.5083 80.2231 62.9408C79.7589 63.8241 78.9715 64.494 78.0252 64.8107L60.4422 70.289C60.079 70.3917 59.7041 70.4468 59.3268 70.453Z" fill="white"/>
<rect x="79.3623" y="56.4727" width="7.53381" height="25.9416" rx="3.7669" transform="rotate(72.5846 79.3623 56.4727)" fill="#73E6D2"/>
<rect x="78.2588" y="69.4844" width="6.801" height="23.0481" rx="3.4005" transform="rotate(72.5846 78.2588 69.4844)" fill="#73E6D2"/>
<rect x="76.4453" y="82.918" width="6.04343" height="19.2166" rx="3.02171" transform="rotate(72.5846 76.4453 82.918)" fill="#73E6D2"/>
<rect x="74.8008" y="96.1777" width="5.48463" height="15.7122" rx="2.74231" transform="rotate(72.5846 74.8008 96.1777)" fill="#73E6D2"/>
<path d="M66.4541 84.9855L69.8985 83.8702L70.0625 80.2617L66.29 81.4427L66.4541 84.9855Z" fill="#73E6D2"/>
<path d="M66.9453 97.6127L69.34 96.8911L69.5368 92.4297L66.7812 93.2826L66.9453 97.6127Z" fill="#73E6D2"/>
<path d="M67.4097 109.032C67.4256 109.399 67.7276 109.688 68.0948 109.688C68.4614 109.688 68.7632 109.4 68.7798 109.033L68.9798 104.604L67.2412 105.128L67.4097 109.032Z" fill="#73E6D2"/>
<path d="M65.9207 72.3196L70.4805 70.8762L70.6117 68.0879L65.8223 69.5969L65.9207 72.3196Z" fill="#73E6D2"/>
<path fill-rule="evenodd" clip-rule="evenodd" d="M41.3198 32.7171C47.2168 32.7171 52.8726 35.059 57.0434 39.228C61.2142 43.3969 63.5587 49.0515 63.5614 54.9486L41.3198 54.9486C35.4209 54.9486 29.7637 52.6053 25.5926 48.4342C21.4214 44.2631 19.0781 38.6059 19.0781 32.707L41.3198 32.7171Z" fill="#177EE5"/>
<path fill-rule="evenodd" clip-rule="evenodd" d="M95.2056 32.7171C89.3085 32.7171 83.6528 35.0591 79.482 39.228C75.3112 43.3969 72.9667 49.0516 72.964 54.9486L95.2056 54.9486C101.104 54.9486 106.762 52.6053 110.933 48.4342C115.104 44.2631 117.447 38.6059 117.447 32.707L95.2056 32.7171Z" fill="#177EE5"/>
<path fill-rule="evenodd" clip-rule="evenodd" d="M68.3849 39.8773C69.7596 39.8773 71.1034 39.4697 72.2463 38.7059C73.3893 37.9422 74.2802 36.8567 74.8062 35.5867C75.3323 34.3167 75.4699 32.9192 75.2017 31.571C74.9335 30.2228 74.2716 28.9843 73.2996 28.0123C72.3275 27.0403 71.0891 26.3783 69.7409 26.1101C68.3926 25.8419 66.9952 25.9796 65.7251 26.5056C64.4551 27.0317 63.3696 27.9226 62.6059 29.0655C61.8422 30.2085 61.4346 31.5523 61.4346 32.9269C61.4346 34.7703 62.1668 36.5381 63.4703 37.8416C64.7737 39.145 66.5416 39.8773 68.3849 39.8773Z" fill="#73E6D2"/>
</svg>
