<svg width="135" height="135" viewBox="0 0 135 135" fill="none" xmlns="http://www.w3.org/2000/svg">
<path fill-rule="evenodd" clip-rule="evenodd" d="M37.006 41.6932C31.1313 48.6541 27.5906 57.6488 27.5906 67.4704C27.5906 76.7779 30.7703 85.3427 36.1027 92.1379C45.0324 87.7548 55.5314 85.2457 66.7324 85.2457C78.4425 85.2457 89.3858 87.9881 98.5708 92.7476C104.197 85.8585 107.571 77.0585 107.571 67.4704C107.571 57.3392 103.804 48.088 97.5933 41.0412C88.6273 46.3269 78.047 49.3728 66.7324 49.3728C55.8915 49.3728 45.7246 46.5765 37.006 41.6932ZM41.6519 37.0242C44.8319 38.6683 48.2151 40.01 51.7584 41.0072C53.2503 37.3799 55.0537 33.9154 57.1349 30.6474C56.4627 30.279 55.813 29.8749 55.1885 29.4374C50.1665 31.0727 45.581 33.6749 41.6519 37.0242ZM80.0414 28.7656C79.8287 28.9324 79.6127 29.0951 79.3935 29.2536C84.362 30.7876 88.9169 33.2638 92.8496 36.4736C89.6582 38.2141 86.2513 39.646 82.6745 40.725C81.0522 37.2289 79.124 33.9056 76.9248 30.7897C77.7852 30.3341 78.6099 29.8204 79.3935 29.2536M70.6592 32.9154C69.5217 33.1073 68.3532 33.2073 67.1619 33.2073C65.8235 33.2073 64.514 33.0811 63.2448 32.8401C61.2329 35.8386 59.4846 39.0295 58.0327 42.3795C60.8607 42.826 63.7669 43.0586 66.7324 43.0586C70.0342 43.0586 73.2625 42.7703 76.3911 42.2194C74.7728 38.9281 72.8499 35.8143 70.6592 32.9154ZM93.975 97.5137C90.4139 95.8182 86.5659 94.4422 82.4969 93.442C80.7532 97.1204 78.7079 100.61 76.4581 103.863C77.1829 104.289 78.4744 105.251 79.1326 105.767M70.3348 101.584C72.4611 98.6536 74.4016 95.5115 76.0716 92.207C73.0444 91.7822 69.9235 91.5599 66.7324 91.5599C64.0799 91.5599 61.4759 91.7135 58.9338 92.0093C60.5147 95.3017 62.3963 98.3915 64.596 101.421C65.3618 101.326 66.1417 101.277 66.9328 101.277C68.0939 101.277 69.231 101.382 70.3348 101.584ZM58.26 103.391C56.0243 100.122 54.097 96.7322 52.478 93.0903C48.2774 94.0146 44.2976 95.3362 40.6087 96.9957C44.7352 100.767 49.6551 103.686 55.0889 105.471C55.0933 105.467 55.0977 105.464 55.1021 105.46C56.0783 104.67 57.1361 103.976 58.26 103.391ZM93.975 97.5137C89.7291 101.247 84.6854 104.094 79.1326 105.767L93.975 97.5137ZM79.1326 105.767C78.9369 105.6 79.3354 105.926 79.1326 105.767V105.767ZM21.2764 67.4704C21.2764 41.8972 42.0076 21.166 67.5808 21.166C93.154 21.166 113.885 41.8972 113.885 67.4704C113.885 93.0437 93.154 113.775 67.5808 113.775C42.0076 113.775 21.2764 93.0437 21.2764 67.4704Z" fill="#177EE5"/>
<path fill-rule="evenodd" clip-rule="evenodd" d="M78.4197 56.2227L67.4724 52.918L56.5251 56.2319C56.3471 56.2909 56.193 56.4041 56.085 56.555C55.9771 56.706 55.9211 56.8867 55.925 57.071V69.3564C55.9145 71.2117 56.6289 73.0005 57.9211 74.3548C60.5953 77.1577 63.8528 79.363 67.4724 80.8209C71.0922 79.361 74.3489 77.1524 77.0205 74.3456C78.3128 72.9914 79.0271 71.2026 79.0166 69.3472V57.0619C79.0213 56.8778 78.9658 56.6971 78.8584 56.5462C78.751 56.3952 78.5973 56.2819 78.4197 56.2227ZM73.1248 60.2963C73.5957 60.2963 74.0475 60.4796 74.3809 60.8061C74.5472 60.9681 74.6792 61.1608 74.7695 61.373C74.8597 61.5852 74.9063 61.8129 74.9065 62.0428C74.9068 62.2728 74.8608 62.5006 74.7711 62.713C74.6815 62.9255 74.5499 63.1185 74.384 63.2809L65.5913 71.9105C65.3377 72.1607 65.0123 72.3288 64.6586 72.3926L64.4503 72.417H64.2389C63.805 72.3929 63.3954 72.2125 63.0885 71.9105L60.5763 69.4449C60.2431 69.1179 60.056 68.6745 60.056 68.2121C60.056 67.7497 60.2431 67.3062 60.5763 66.9792C60.9094 66.6523 61.3612 66.4686 61.8324 66.4686C62.3035 66.4686 62.7553 66.6523 63.0885 66.9792L64.3321 68.1998L71.8687 60.8061C72.2021 60.4796 72.6538 60.2963 73.1248 60.2963Z" fill="#73E6D2"/>
</svg>
