<svg width="136" height="135" viewBox="0 0 136 135" fill="none" xmlns="http://www.w3.org/2000/svg">
<path fill-rule="evenodd" clip-rule="evenodd" d="M25.6553 37.8804C25.6553 30.9059 31.3092 25.252 38.2838 25.252H97.2167C104.191 25.252 109.845 30.9059 109.845 37.8804V96.8133C109.845 103.788 104.191 109.442 97.2167 109.442H38.2838C31.3092 109.442 25.6553 103.788 25.6553 96.8133V37.8804ZM31.9695 37.8804C31.9695 34.3932 34.7965 31.5662 38.2838 31.5662H97.2167C100.704 31.5662 103.531 34.3932 103.531 37.8804V96.8133C103.531 100.301 100.704 103.128 97.2167 103.128H38.2838C34.7965 103.128 31.9695 100.301 31.9695 96.8133V37.8804Z" fill="#177EE5"/>
<path d="M44.5952 39.9857L81.8529 76.4793L85.1862 81.5415L81.8529 88.3837L82.9867 92.2158C73.5633 93.3647 68.5464 93.9382 67.9361 93.9363C67.3257 93.9344 64.7502 90.6276 60.2095 84.0159L59.6937 83.2648L47.5993 79.1691L41.3439 62.3441L38.5576 60.0086L39.2634 54.8358L34.7284 51.8824L29.8623 42.0916C29.8623 42.0916 35.868 19.5586 41.3626 29.4631C44.5952 39.9857 41.3626 29.4631 44.5952 39.9857Z" fill="#177EE5"/>
<path d="M87.9576 42.1963C87.5953 42.1951 87.2363 42.2653 86.9011 42.4029C86.566 42.5405 86.2612 42.7428 86.0042 42.9982C85.7473 43.2536 85.5432 43.5572 85.4035 43.8915C85.2639 44.2258 85.1915 44.5844 85.1905 44.9467V46.3205H90.722V44.9454C90.7196 44.2143 90.4271 43.5142 89.9088 42.9987C89.3904 42.4832 88.6886 42.1946 87.9576 42.1963ZM87.9576 39.4473C89.4202 39.4435 90.8245 40.0207 91.8617 41.0519C92.899 42.0831 93.4843 43.484 93.4891 44.9467V46.3205H94.8308C95.56 46.3209 96.2592 46.6108 96.7747 47.1265C97.2903 47.6423 97.5798 48.3417 97.5798 49.0709V61.4447C97.5798 62.1738 97.2902 62.8731 96.7747 63.3886C96.2591 63.9042 95.5599 64.1938 94.8308 64.1938H81.083C80.3539 64.1938 79.6547 63.9042 79.1392 63.3886C78.6236 62.8731 78.334 62.1738 78.334 61.4447V49.0709C78.334 48.3417 78.6236 47.6423 79.1391 47.1265C79.6546 46.6108 80.3538 46.3209 81.083 46.3205H82.4222V44.9454C82.4273 43.4823 83.0133 42.0811 84.0514 41.0501C85.0894 40.019 86.4945 39.4425 87.9576 39.4473Z" fill="#73E6D2"/>
</svg>
