<svg width="96" height="96" viewBox="0 0 96 96" fill="none" xmlns="http://www.w3.org/2000/svg">
<path d="M20.6988 84.4073C20.6988 63.6583 15.5156 31.498 19.5152 10.998H59.0152L78.0152 28.998V56.7027V84.4073H59.0152C51.8937 84.4073 37.0156 81.498 28.3981 84.8478C27.4756 84.8478 20.6988 85.9641 20.6988 84.4073Z" stroke="white" stroke-width="2" stroke-linecap="round" stroke-linejoin="round"/>
<path d="M31.0176 62.377C42.352 62.377 35.9968 62.377 47.3176 62.377" stroke="white" stroke-width="2" stroke-linecap="round"/>
<path d="M42.1439 20.0514C41.542 20.8538 40.9803 21.6834 40.4081 22.5075C37.7089 26.3943 34.8626 30.2553 32.4223 34.3043C31.6035 35.9418 30.2597 37.6867 29.3672 39.5529C28.9503 40.4246 28.4158 42.3871 29.2019 43.2194C29.5984 43.6392 30.1304 43.9963 30.6307 44.2822C32.4218 45.3056 33.8448 46.9215 35.8146 47.7657C36.9988 48.2732 38.1861 48.8199 39.3453 49.3834C40.3588 49.8761 41.4307 50.1925 42.4332 50.706C42.9302 50.9605 43.4703 51.1619 43.9919 51.3613C44.681 51.6248 45.2504 52.1161 45.9285 52.4005C46.1913 52.5107 47.401 53.1092 47.6702 52.8669C47.892 52.6673 48.0041 52.2737 48.2252 52.0403C48.6056 51.6388 48.8969 51.1672 49.288 50.765C53.8204 46.1031 57.9291 40.8324 61.2735 35.2724C61.4176 35.0327 63.1226 32.4372 62.5724 32.3793C61.9494 32.3138 61.0321 31.7323 60.5 31.417C59.6355 30.9046 58.7042 30.5073 57.8431 29.9822C57.1955 29.5873 56.6161 29.0857 56.0306 28.6066C55.3438 28.0447 54.5567 27.6279 53.846 27.101C51.3943 25.2834 48.9695 23.4317 46.572 21.5451C45.7398 20.8902 44.8416 20.2364 43.9329 19.6912C43.6665 19.5314 43.245 19.2012 42.9114 19.2012C42.6427 19.2012 42.2883 19.8588 42.1439 20.0514Z" stroke="white" stroke-width="2" stroke-linecap="round"/>
<path d="M55.5 42.9988C54.4932 42.0639 51.9845 40.2545 50.8617 39.4567C49.9273 38.7927 48.7362 38.3212 47.9055 37.5367C47.5093 37.1624 46.7944 36.5717 46.2659 36.4396C46.0949 36.3968 37.5674 48.1348 37.5 48" stroke="white" stroke-width="2" stroke-linecap="round"/>
<path d="M31.0176 69.9538C44.2301 69.9538 54.3108 69.9531 67.5176 69.9531" stroke="white" stroke-width="2" stroke-linecap="round"/>
</svg>
