<svg width="96" height="96" viewBox="0 0 96 96" fill="none" xmlns="http://www.w3.org/2000/svg">
<path d="M33.2689 29.9787C32.7518 30.1727 32.4898 30.7491 32.6837 31.2662C32.8776 31.7833 33.454 32.0453 33.9711 31.8514L33.2689 29.9787ZM34.2061 16.8161L33.3319 16.3304L34.2061 16.8161ZM38.106 10.5115L38.9445 11.0565L38.106 10.5115ZM47.0836 18.5086L47.1338 19.5074C47.4879 19.4896 47.8061 19.2856 47.9701 18.9713C48.1342 18.657 48.1195 18.2793 47.9316 17.9786L47.0836 18.5086ZM35.318 18.8646L35.2221 19.86L35.318 18.8646ZM33.5214 19.788C34.0737 19.788 34.5214 19.3402 34.5214 18.788C34.5214 18.2357 34.0737 17.788 33.5214 17.788V19.788ZM33.9711 31.8514C34.353 31.7082 34.5292 31.4075 34.5978 31.2623C34.6732 31.1027 34.7066 30.9471 34.724 30.8423C34.7597 30.6268 34.7629 30.395 34.7598 30.2161C34.7566 30.0263 34.7447 29.8392 34.7347 29.6981C34.7291 29.6186 34.7255 29.5725 34.7219 29.5198C34.718 29.4629 34.7186 29.4584 34.7186 29.4745H32.7186C32.7186 29.5389 32.7236 29.6128 32.7266 29.6565C32.7299 29.7044 32.7356 29.7811 32.7397 29.8386C32.749 29.9715 32.7578 30.1156 32.7601 30.2504C32.7626 30.3961 32.7563 30.4825 32.7509 30.5154C32.7477 30.5349 32.7526 30.486 32.7895 30.4078C32.8197 30.344 32.9474 30.0993 33.2689 29.9787L33.9711 31.8514ZM34.3242 18.7387C34.3242 18.6042 34.364 18.4654 34.4945 18.2389C34.5637 18.1186 34.6436 17.998 34.7494 17.8371C34.8489 17.6859 34.9686 17.5027 35.0802 17.3017L33.3319 16.3304C33.2606 16.4589 33.1785 16.5859 33.0783 16.7384C32.9844 16.8811 32.8667 17.0578 32.7613 17.2409C32.5423 17.6211 32.3242 18.1142 32.3242 18.7387H34.3242ZM35.0802 17.3017C36.2642 15.1706 37.5894 13.1412 38.9445 11.0565L37.2676 9.96653C35.9212 12.0379 34.5558 14.1274 33.3319 16.3304L35.0802 17.3017ZM38.9445 11.0565C39.4621 10.2602 40.1561 9.38266 40.8124 8.72638L39.3982 7.31216C38.6306 8.07978 37.8508 9.06937 37.2676 9.96653L38.9445 11.0565ZM40.8124 8.72638C40.7032 8.83557 40.5575 8.92948 40.3799 8.97914C40.2059 9.02779 40.0465 9.0214 39.9227 8.99689C39.7 8.95279 39.5569 8.84402 39.5117 8.80822C39.4522 8.76107 39.4136 8.71837 39.3977 8.70011C39.379 8.67871 39.3671 8.66258 39.3625 8.65622C39.3522 8.64202 39.3621 8.65471 39.3936 8.7127C39.4534 8.82298 39.4996 8.92349 39.5341 8.99232L41.3229 8.09789C41.3233 8.09873 41.3224 8.09688 41.3187 8.0893C41.3153 8.08229 41.3115 8.07434 41.3061 8.06322C41.2958 8.04201 41.2822 8.01415 41.2667 7.98271C41.2363 7.92102 41.1954 7.83985 41.1517 7.75927C41.1133 7.68839 41.0524 7.57991 40.9823 7.48315C40.9565 7.44745 40.8772 7.33833 40.7532 7.24017C40.6965 7.19533 40.5431 7.08089 40.3113 7.03499C40.0132 6.97597 39.6608 7.04962 39.3982 7.31216L40.8124 8.72638ZM35.414 17.8693C35.0733 17.8364 34.4345 17.8167 33.9978 17.8051C33.7637 17.7989 33.589 17.795 33.4941 17.7923C33.4833 17.792 33.4748 17.7917 33.4682 17.7915C33.4611 17.7912 33.4585 17.7911 33.4588 17.7911C33.4589 17.7911 33.4619 17.7913 33.4668 17.7916C33.4687 17.7917 33.4845 17.7926 33.5056 17.7948C33.513 17.7955 33.5432 17.7986 33.5815 17.8057C33.5975 17.8086 33.6446 17.8174 33.7031 17.836C33.7343 17.8464 33.8121 17.8776 33.8579 17.8997C33.9321 17.942 34.1209 18.0952 34.2212 18.2174C34.3459 18.4624 34.3722 19.0266 34.2603 19.3003C34.1542 19.4467 33.9447 19.6283 33.8608 19.6771C33.7322 19.7436 33.6182 19.7652 33.6074 19.7675C33.5468 19.7803 33.498 19.7843 33.4926 19.7848C33.4403 19.7896 33.4061 19.788 33.5214 19.788V17.788C33.4869 17.788 33.3778 17.787 33.3114 17.793C33.3052 17.7936 33.2558 17.7977 33.1948 17.8105C33.1838 17.8128 33.0696 17.8345 32.941 17.9011C32.857 17.9499 32.6474 18.1315 32.5414 18.2779C32.4294 18.5517 32.4557 19.1159 32.5804 19.361C32.6808 19.4831 32.8696 19.6364 32.9439 19.6787C32.9897 19.7008 33.0675 19.732 33.0988 19.7425C33.1574 19.7611 33.2048 19.7699 33.221 19.7729C33.2599 19.78 33.2908 19.7832 33.2992 19.7841C33.3346 19.7878 33.3669 19.789 33.3682 19.7891C33.3883 19.79 33.4134 19.7908 33.4366 19.7914C33.5291 19.7941 33.7292 19.7986 33.9445 19.8044C34.4068 19.8167 34.9661 19.8354 35.2221 19.86L35.414 17.8693ZM39.5341 8.99232C40.4712 10.8665 41.6476 12.5673 42.8279 14.1937C44.0221 15.839 45.2031 17.3866 46.2356 19.0386L47.9316 17.9786C46.8508 16.2493 45.6026 14.6117 44.4466 13.0189C43.2768 11.4072 42.1824 9.81688 41.3229 8.09789L39.5341 8.99232ZM34.7186 29.4745C34.7186 27.6509 34.6182 25.8359 34.5199 24.0526C34.421 22.2602 34.3242 20.4994 34.3242 18.7387H32.3242C32.3242 20.5637 32.4246 22.3794 32.5229 24.1628C32.6218 25.9552 32.7186 27.7152 32.7186 29.4745H34.7186ZM47.0836 18.5086C47.0335 17.5099 47.0334 17.5099 47.0334 17.5099C47.0333 17.5099 47.0332 17.5099 47.033 17.5099C47.0328 17.5099 47.0323 17.5099 47.0317 17.51C47.0305 17.51 47.0287 17.5101 47.0263 17.5102C47.0214 17.5105 47.0142 17.5108 47.0046 17.5113C46.9855 17.5123 46.957 17.5137 46.9197 17.5155C46.8451 17.5192 46.7354 17.5246 46.5952 17.5314C46.3147 17.545 45.9121 17.5643 45.424 17.587C44.4474 17.6324 43.1293 17.6912 41.7617 17.7453C40.3932 17.7993 38.9792 17.8484 37.8096 17.8744C36.6103 17.901 35.7421 17.9009 35.414 17.8693L35.2221 19.86C35.6944 19.9056 36.6971 19.8995 37.854 19.8739C39.0405 19.8475 40.4678 19.798 41.8406 19.7437C43.2143 19.6894 44.5374 19.6304 45.5168 19.5849C46.0065 19.5621 46.4106 19.5427 46.6922 19.5291C46.8331 19.5222 46.9433 19.5168 47.0184 19.5131C47.056 19.5112 47.0848 19.5098 47.1042 19.5088C47.1139 19.5083 47.1212 19.508 47.1262 19.5077C47.1287 19.5076 47.1305 19.5075 47.1318 19.5075C47.1324 19.5074 47.1329 19.5074 47.1332 19.5074C47.1334 19.5074 47.1335 19.5074 47.1336 19.5074C47.1337 19.5074 47.1338 19.5074 47.0836 18.5086Z" fill="white"/>
<path d="M47.127 19C47.127 22.6729 47.3241 26.331 47.3241 30.0047C47.3241 30.2512 47.3241 30.4977 47.3241 30.7442C47.3241 31.1352 47.35 31.1346 47.127 30.7442" stroke="white" stroke-width="2" stroke-linecap="round"/>
<path d="M53.9297 30.8166C53.9297 23.5894 53.9297 16.346 53.9297 9.12587C53.9297 8.74945 66.981 9.13963 68.4231 9.22446C68.86 9.25016 68.8174 28.8748 68.8174 30.8166" stroke="white" stroke-width="2" stroke-linecap="round"/>
<path d="M26.9009 31.3088C26.9009 31.8611 27.3486 32.3088 27.9009 32.3088C28.4532 32.3088 28.9009 31.8611 28.9009 31.3088H26.9009ZM27.8023 20.8578L28.8006 20.7991L27.8023 20.8578ZM13.8786 27.4637L14.8421 27.196L13.8786 27.4637ZM15.5766 29.6875L14.9588 30.4738L15.5766 29.6875ZM20.4077 31.4294L20.2854 32.4218L20.4077 31.4294ZM29.9823 31.5006L29.9485 30.5011L29.9823 31.5006ZM78.0077 75.3765C77.9394 75.9245 78.3284 76.4241 78.8765 76.4923C79.4246 76.5606 79.9241 76.1716 79.9923 75.6235L78.0077 75.3765ZM28.9009 31.3088C28.9009 29.8074 28.8761 28.3081 28.8515 26.8181C28.8268 25.3254 28.8023 23.8421 28.8023 22.3587H26.8023C26.8023 23.8613 26.8271 25.3612 26.8518 26.8512C26.8764 28.3439 26.9009 29.8266 26.9009 31.3088H28.9009ZM28.8023 22.3587C28.8023 21.9443 28.8318 21.3297 28.8006 20.7991L26.804 20.9166C26.8312 21.3785 26.8023 21.7789 26.8023 22.3587H28.8023ZM12.9151 27.7313C13.3079 29.1456 14.0829 29.7856 14.9588 30.4738L16.1944 28.9012C15.3787 28.2602 15.0537 27.9576 14.8421 27.196L12.9151 27.7313ZM14.9588 30.4738C16.5973 31.7613 18.4258 32.1926 20.2854 32.4218L20.5301 30.4369C18.8044 30.2241 17.4079 29.8546 16.1944 28.9012L14.9588 30.4738ZM20.2854 32.4218C23.5942 32.8298 26.8501 32.6073 30.0162 32.5L29.9485 30.5011C26.6849 30.6118 23.6399 30.8203 20.5301 30.4369L20.2854 32.4218ZM30.0162 32.5C38.0578 32.2274 48.6831 32.2419 58.0578 32.3092C67.4095 32.3765 75.546 32.4969 78.5501 32.4339L78.5081 30.4343C75.5414 30.4966 67.469 30.3768 58.0722 30.3093C48.6985 30.2419 38.0359 30.227 29.9485 30.5011L30.0162 32.5ZM78.5501 32.4339C78.5706 32.4335 78.6377 32.426 78.7781 32.5807C78.9389 32.7577 79.1311 33.0857 79.3204 33.6236C79.6973 34.6945 79.9646 36.3058 80.1247 38.3449C80.4433 42.4001 80.319 47.857 80.0053 53.3632C79.6921 58.859 79.1927 64.3629 78.7712 68.4956C78.5606 70.5613 78.3695 72.2827 78.2312 73.4873C78.162 74.0896 78.1061 74.5626 78.0674 74.8846C78.0481 75.0457 78.0331 75.169 78.023 75.2519C78.0179 75.2933 78.0141 75.3246 78.0115 75.3455C78.0102 75.356 78.0092 75.3638 78.0086 75.369C78.0083 75.3716 78.008 75.3735 78.0079 75.3747C78.0078 75.3754 78.0077 75.3758 78.0077 75.3761C78.0077 75.3764 78.0077 75.3765 79 75.5C79.9923 75.6235 79.9924 75.6233 79.9924 75.6229C79.9925 75.6225 79.9925 75.6219 79.9926 75.6212C79.9928 75.6198 79.9931 75.6177 79.9934 75.6149C79.9941 75.6094 79.9951 75.6012 79.9964 75.5904C79.9991 75.5688 80.003 75.5368 80.0082 75.4946C80.0185 75.4103 80.0337 75.2855 80.0532 75.1229C80.0922 74.7977 80.1486 74.3213 80.2181 73.7155C80.3573 72.5039 80.5493 70.7739 80.7609 68.6986C81.1841 64.5494 81.6865 59.0133 82.002 53.477C82.3169 47.9511 82.4481 42.3836 82.1186 38.1883C81.9547 36.102 81.6721 34.2814 81.2069 32.9596C80.9752 32.3011 80.6732 31.6925 80.2586 31.236C79.8236 30.7571 79.2339 30.4191 78.5081 30.4343L78.5501 32.4339ZM28.8006 20.7991C28.7795 20.44 28.5955 20.1901 28.4595 20.0532C28.3243 19.9172 28.1754 19.8285 28.0636 19.7717C27.8378 19.6568 27.5725 19.5771 27.3188 19.5179C26.7968 19.396 26.1054 19.3116 25.329 19.2706C23.7697 19.1883 21.731 19.2743 19.7579 19.6684C17.8091 20.0575 15.7904 20.7732 14.3991 22.0472C13.6896 22.6969 13.1328 23.5021 12.8523 24.4817C12.5717 25.4613 12.5865 26.5483 12.9151 27.7313L14.8421 27.196C14.5954 26.308 14.6119 25.6015 14.7749 25.0324C14.938 24.4632 15.2668 23.9645 15.7498 23.5222C16.7436 22.6121 18.3377 21.9915 20.1495 21.6296C21.937 21.2727 23.8067 21.193 25.2236 21.2678C25.9354 21.3054 26.499 21.3802 26.864 21.4655C26.9527 21.4862 27.0226 21.5059 27.0753 21.5233C27.1013 21.5319 27.1211 21.5392 27.1355 21.545C27.1426 21.5479 27.1479 21.5502 27.1516 21.5518C27.1552 21.5535 27.1569 21.5543 27.1567 21.5542C27.1566 21.5542 27.1542 21.5529 27.1497 21.5503C27.1453 21.5478 27.1382 21.5434 27.1289 21.5371C27.1117 21.5255 27.0793 21.5017 27.041 21.4632C26.9698 21.3915 26.8212 21.2082 26.804 20.9166L28.8006 20.7991Z" fill="white"/>
<path d="M77.5 81C64.9108 81 15.4998 83.5 13.7445 79C6.36522 60.0818 13.7445 35.2881 13.7445 27.002" stroke="white" stroke-width="2" stroke-linecap="round" stroke-linejoin="round"/>
<path d="M37 13C37.972 13.729 41.3188 13.0713 42.5 13.0713" stroke="white" stroke-width="2" stroke-linecap="round"/>
<path d="M54.4219 17.8017C56.7268 17.8017 59.0218 17.7031 61.3235 17.7031" stroke="white" stroke-width="2" stroke-linecap="round"/>
<path d="M54.127 13.168C55.0128 13.5476 56.1859 13.3652 57.1286 13.3652" stroke="white" stroke-width="2" stroke-linecap="round"/>
<path d="M54.6191 22.4345C55.8394 22.4345 57.0526 22.3359 58.2671 22.3359" stroke="white" stroke-width="2" stroke-linecap="round"/>
<path d="M54.916 27.1679C56.6728 27.0947 58.4405 26.9707 60.1963 26.9707C60.9122 26.9707 61.6002 27.0693 62.3106 27.0693" stroke="white" stroke-width="2" stroke-linecap="round"/>
<path d="M57 39.2949H64.5554L65.0483 69.8592H49.8874L49.8867 60.2955" stroke="white" stroke-width="2" stroke-linecap="round" stroke-linejoin="round"/>
<path d="M42.6886 69.7605H28.3978C26 65.5 28.3979 39.0977 28.3979 39.0977H49.886" stroke="white" stroke-width="2" stroke-linecap="round" stroke-linejoin="round"/>
<path d="M39.7312 39.5C39.6243 43.1464 39.7308 48.0673 39.7308 51.7174" stroke="white" stroke-width="2" stroke-linecap="round"/>
<path d="M34.1113 52.1133H46.1398" stroke="white" stroke-width="2" stroke-linecap="round"/>
<path d="M53.7324 52.5048L63.789 52.4062" stroke="white" stroke-width="2" stroke-linecap="round"/>
<path d="M42 59.9004C47.752 59.9004 53.504 59.9004 59.254 59.9004" stroke="white" stroke-width="2" stroke-linecap="round"/>
<path d="M35.7874 59.9004C33.6355 59.9004 29.6538 59.9004 27.5 59.9004" stroke="white" stroke-width="2" stroke-linecap="round"/>
</svg>
