<svg width="72" height="72" viewBox="0 0 72 72" fill="none" xmlns="http://www.w3.org/2000/svg">
<g clip-path="url(#clip0_2277_34847)">
<path d="M33.4987 40.9831V40.9831L33.5031 40.983L33.6181 40.9805L33.6181 40.9805L33.6231 40.9803C34.3821 40.9449 35.0897 40.5906 35.5754 40.0026L48.0754 24.8722L48.0755 24.8721C49.0277 23.7185 48.8742 22.0047 47.7301 21.0412L47.7297 21.0409C46.5794 20.0767 44.8802 20.235 43.9247 21.3894L43.9246 21.3896L33.3178 34.2289L29.6758 30.5553C28.62 29.4904 26.9125 29.4904 25.8567 30.5553C24.8019 31.6193 24.8019 33.3387 25.8567 34.4026L31.5892 40.185C32.0966 40.6968 32.7827 40.9831 33.4987 40.9831Z" fill="#CAB2FF" stroke="#CAB2FF" stroke-width="0.4"/>
<path d="M27.7284 65.5708L27.7287 65.5706L41.9779 53.5913H61.01C63.8721 53.5913 66.2 51.2406 66.2 48.3579V13.0334C66.2 10.1507 63.8721 7.8 61.01 7.8H10.99C8.12791 7.8 5.8 10.1507 5.8 13.0334V48.3579C5.8 51.2407 8.12798 53.5913 10.9925 53.5913H23.3V63.4783C23.3 64.5333 23.9064 65.4941 24.8542 65.9411C25.2193 66.1156 25.6112 66.2 26 66.2C26.6186 66.2 27.2343 65.9848 27.7284 65.5708ZM26 48.1478H25.9999L11.1999 48.1578L11.1901 13.2434L60.8001 13.2334L60.8099 48.1478H41C40.3679 48.1478 39.7551 48.3712 39.2693 48.7768L39.2688 48.7773L28.7 57.6648V50.8696C28.7 49.3661 27.492 48.1478 26 48.1478Z" fill="#773CF7" stroke="#773CF7" stroke-width="0.4"/>
</g>
<defs>
<clipPath id="clip0_2277_34847">
<rect width="72" height="72" fill="white"/>
</clipPath>
</defs>
</svg>
