<svg width="72" height="72" viewBox="0 0 72 72" fill="none" xmlns="http://www.w3.org/2000/svg">
<g clip-path="url(#clip0_2277_34830)">
<path d="M35.5001 3C34.5829 3 33.7033 3.36434 33.0548 4.01286C32.4063 4.66139 32.0419 5.54098 32.0419 6.45813C32.0419 7.37529 32.4063 8.25488 33.0548 8.9034C33.7033 9.55193 34.5829 9.91627 35.5001 9.91627C42.5494 9.92203 49.3085 12.7244 54.2938 17.7084C59.2791 22.6923 62.0834 29.4507 62.091 36.5C62.091 37.4172 62.4554 38.2967 63.1039 38.9453C63.7524 39.5938 64.632 39.9581 65.5492 39.9581C66.4663 39.9581 67.3459 39.5938 67.9945 38.9453C68.643 38.2967 69.0073 37.4172 69.0073 36.5C68.9977 27.6169 65.4642 19.1006 59.1822 12.82C52.9003 6.53937 44.3831 3.00768 35.5001 3ZM31.9948 66.5382C31.9938 66.9919 32.0822 67.4413 32.2549 67.8608C32.4277 68.2803 32.6813 68.6616 33.0014 68.9831C33.3215 69.3045 33.7018 69.5598 34.1206 69.7343C34.5393 69.9088 34.9884 69.999 35.442 70C36.1249 70 36.7925 69.7976 37.3605 69.4183C37.9284 69.039 38.3712 68.5 38.6329 67.8691C38.8945 67.2383 38.9634 66.5441 38.8307 65.8742C38.698 65.2043 38.3697 64.5888 37.8873 64.1054C37.4049 63.6219 36.79 63.2924 36.1204 63.1582C35.4508 63.0241 34.7564 63.0915 34.125 63.3519C33.4937 63.6122 32.9537 64.0539 32.5732 64.621C32.1928 65.1881 31.9889 65.8553 31.9875 66.5382H31.9948ZM5.45457 39.9327C6.13874 39.9327 6.80749 39.7296 7.37604 39.349C7.94459 38.9684 8.38734 38.4276 8.64815 37.7951C8.90896 37.1626 8.97609 36.4669 8.84102 35.7962C8.70596 35.1255 8.37478 34.5101 7.88948 34.0278C7.40417 33.5456 6.78661 33.2183 6.11507 33.0875C5.44353 32.9566 4.74827 33.0282 4.11744 33.293C3.4866 33.5578 2.9486 34.0039 2.57164 34.5749C2.19469 35.1458 1.99576 35.8158 2.00007 36.5C2.00582 37.4124 2.37231 38.2855 3.01954 38.9286C3.66676 39.5718 4.54214 39.9328 5.45457 39.9327ZM18.7065 65.4932C19.2976 65.8355 19.9769 65.995 20.6585 65.9514C21.3402 65.9078 21.9936 65.6631 22.5362 65.2482C23.0788 64.8334 23.4863 64.2669 23.7071 63.6206C23.9279 62.9742 23.9521 62.2769 23.7767 61.6167C23.6012 60.9566 23.234 60.3633 22.7215 59.9118C22.2089 59.4603 21.5741 59.1708 20.8971 59.0801C20.2201 58.9893 19.5314 59.1013 18.918 59.4018C18.3046 59.7024 17.7941 60.178 17.451 60.7686C16.9943 61.5624 16.87 62.5046 17.1052 63.3896C17.3404 64.2747 17.916 65.0308 18.7065 65.4932ZM17.4945 12.2096C17.8394 12.7982 18.3508 13.2716 18.9643 13.57C19.5778 13.8684 20.2659 13.9784 20.9418 13.8863C21.6178 13.7941 22.2513 13.5039 22.7625 13.0522C23.2738 12.6005 23.6398 12.0076 23.8145 11.3481C23.9892 10.6887 23.9648 9.99225 23.7442 9.34667C23.5237 8.7011 23.117 8.13528 22.5753 7.72056C22.0336 7.30583 21.3813 7.06077 20.7005 7.01628C20.0198 6.97179 19.3411 7.12985 18.7501 7.47054C18.3545 7.69741 18.008 8.00049 17.7304 8.36224C17.4528 8.72398 17.2498 9.1372 17.133 9.57796C17.0162 10.0187 16.988 10.4783 17.0501 10.93C17.1122 11.3817 17.2632 11.8167 17.4945 12.2096ZM7.74064 48.4964C7.14701 48.838 6.66802 49.3479 6.36429 49.9618C6.06056 50.5756 5.94574 51.2658 6.03435 51.9449C6.12296 52.624 6.41102 53.2616 6.86208 53.7769C7.31314 54.2923 7.90694 54.6623 8.56834 54.8401C9.22973 55.0179 9.92901 54.9955 10.5777 54.7758C11.2263 54.556 11.7953 54.1488 12.2124 53.6057C12.6296 53.0625 12.8763 52.4078 12.9213 51.7244C12.9663 51.041 12.8076 50.3596 12.4652 49.7665C12.0054 48.9732 11.2498 48.3948 10.364 48.1581C9.47832 47.9213 8.53485 48.0456 7.74064 48.5037V48.4964ZM61.4814 55.028C62.3194 55.0318 63.1302 54.7308 63.7627 54.1811C64.3953 53.6315 64.8064 52.8707 64.9197 52.0404C65.0329 51.21 64.8405 50.3669 64.3782 49.6679C63.9159 48.969 63.2153 48.4619 62.407 48.2411C61.5986 48.0203 60.7375 48.1009 59.9841 48.4679C59.2308 48.8348 58.6365 49.4631 58.3119 50.2357C57.9874 51.0083 57.9547 51.8725 58.2201 52.6674C58.4854 53.4623 59.0306 54.1336 59.7542 54.5563C60.2764 54.8684 60.8731 55.0339 61.4814 55.0353V55.028ZM11.2169 18.4727C10.6253 18.1315 9.9459 17.9732 9.26443 18.018C8.58296 18.0628 7.93005 18.3085 7.3882 18.7242C6.84634 19.1399 6.43985 19.7068 6.22009 20.3535C6.00033 21.0001 5.97716 21.6973 6.1535 22.3571C6.32985 23.0169 6.6978 23.6096 7.21086 24.0603C7.72393 24.5111 8.35908 24.7996 9.03607 24.8895C9.71306 24.9794 10.4015 24.8667 11.0144 24.5654C11.6274 24.2642 12.1373 23.7881 12.4797 23.1972C12.7075 22.8042 12.8555 22.3702 12.9153 21.9199C12.9751 21.4696 12.9455 21.0119 12.8282 20.5731C12.7109 20.1342 12.5082 19.7228 12.2317 19.3624C11.9553 19.002 11.6104 18.6997 11.2169 18.4727ZM47.5037 64.2739C47.8065 64.8013 48.2431 65.2393 48.7694 65.5439C49.2956 65.8484 49.893 66.0087 50.501 66.0084C51.0969 65.9992 51.6799 65.8341 52.192 65.5295C52.7841 65.1886 53.2619 64.6797 53.5648 64.0673C53.8677 63.4549 53.9823 62.7664 53.8939 62.0889C53.8056 61.4114 53.5183 60.7753 53.0684 60.2611C52.6185 59.7468 52.0262 59.3776 51.3665 59.1999C50.7067 59.0223 50.0091 59.0443 49.3619 59.2632C48.7146 59.482 48.1468 59.8879 47.7303 60.4295C47.3137 60.971 47.0671 61.6239 47.0216 62.3057C46.9761 62.9874 47.1338 63.6673 47.4747 64.2594L47.5037 64.2739Z" fill="#773CF7"/>
<path d="M38.3175 19.0246L36.2274 31.754L45.1975 32.1459H45.4733C45.8335 32.206 46.1749 32.3486 46.4708 32.5626C46.7667 32.7767 47.009 33.0563 47.1788 33.3796C47.3439 33.7058 47.43 34.0663 47.43 34.4319C47.43 34.7976 47.3439 35.1581 47.1788 35.4843L35.9444 57.0386C35.7571 57.4083 35.4437 57.6987 35.0609 57.8572C34.6781 58.0158 34.2512 58.0321 33.8574 57.9032C33.4636 57.7743 33.129 57.5086 32.9141 57.1544C32.6992 56.8001 32.6182 56.3806 32.6858 55.9718L34.7759 43.2206L25.7986 42.8069H25.5228C25.1639 42.7458 24.8239 42.6027 24.5294 42.3887C24.2348 42.1747 23.9936 41.8956 23.8246 41.5732C23.66 41.2468 23.5742 40.8864 23.5742 40.5209C23.5742 40.1553 23.66 39.7949 23.8246 39.4686L35.0444 17.9505C35.2386 17.588 35.5542 17.3056 35.9359 17.1527C36.3176 16.9999 36.7409 16.9863 37.1315 17.1145C37.5222 17.2427 37.8552 17.5045 38.0721 17.8537C38.289 18.203 38.3759 18.6176 38.3175 19.0246Z" fill="#CAB2FF"/>
</g>
<defs>
<clipPath id="clip0_2277_34830">
<rect width="72" height="72" fill="white"/>
</clipPath>
</defs>
</svg>
