<svg width="72" height="72" viewBox="0 0 72 72" fill="none" xmlns="http://www.w3.org/2000/svg">
<g clip-path="url(#clip0_2277_34869)">
<path d="M19.4902 15.7998C21.3786 15.7998 22.9764 14.2746 22.9764 12.3135V5.48626C22.9764 3.59787 21.4512 2 19.4902 2C17.5291 2 16.0039 3.52524 16.0039 5.48626V12.3862C16.0039 14.2746 17.6018 15.7998 19.4902 15.7998Z" fill="#CAB2FF"/>
<path d="M42.4355 15.7998C44.3239 15.7998 45.9217 14.2746 45.9217 12.3135V5.48626C45.9217 3.59787 44.3965 2 42.4355 2C40.5471 2 38.9492 3.52524 38.9492 5.48626V12.3862C38.9492 14.2746 40.4745 15.7998 42.4355 15.7998Z" fill="#CAB2FF"/>
<path d="M58.9255 38.7516V17.6887C58.9255 13.4761 55.5119 10.0625 51.2993 10.0625H48.4667V12.314C48.4667 15.5824 45.7794 18.3424 42.4384 18.3424C39.0974 18.3424 36.41 15.655 36.41 12.314V10.0625H25.5155V12.314C25.5155 15.5824 22.8281 18.3424 19.4871 18.3424C16.1461 18.3424 13.4588 15.655 13.4588 12.314V10.0625H10.6262C6.41363 10.0625 3 13.4761 3 17.6887V51.9703C3 56.1829 6.41363 59.5965 10.6262 59.5965H36.5553C38.8068 66.2059 45.0531 70.9995 52.3887 70.9995C61.6128 70.9995 69.1664 63.4459 69.1664 54.2219C69.239 47.2493 64.9538 41.2936 58.9255 38.7516ZM35.6837 54.2219C35.6837 54.3671 35.6837 54.4397 35.6837 54.585H10.6262C9.17359 54.585 8.08414 53.4229 8.08414 52.0429V25.7507H53.8414V37.5168C53.4056 37.4442 52.8972 37.4442 52.4614 37.4442C43.1647 37.4442 35.6837 44.9978 35.6837 54.2219ZM52.4614 65.9154C45.9973 65.9154 40.7679 60.686 40.7679 54.2219C40.7679 47.7577 45.9973 42.5283 52.4614 42.5283C58.9255 42.5283 64.1549 47.7577 64.1549 54.2219C64.1549 60.686 58.8529 65.9154 52.4614 65.9154Z" fill="#773CF7"/>
<path d="M55.2225 49.6433L50.7921 54.0737L49.2668 52.5485C48.25 51.5317 46.6521 51.5317 45.7079 52.5485C44.6911 53.5653 44.6911 55.1632 45.7079 56.1074L48.9763 59.3758C49.4847 59.8842 50.0658 60.1021 50.7921 60.1021C51.4457 60.1021 52.0994 59.8115 52.6078 59.3758L58.8541 53.1295C59.8709 52.1127 59.8709 50.5148 58.8541 49.5706C57.8372 48.6991 56.2394 48.6991 55.2225 49.6433Z" fill="#CAB2FF"/>
</g>
<defs>
<clipPath id="clip0_2277_34869">
<rect width="72" height="72" fill="white"/>
</clipPath>
</defs>
</svg>
