<svg width="135" height="135" viewBox="0 0 135 135" fill="none" xmlns="http://www.w3.org/2000/svg">
<path fill-rule="evenodd" clip-rule="evenodd" d="M25.2529 101.028C25.2529 108.002 30.9069 113.656 37.8814 113.656H96.8143C103.789 113.656 109.443 108.002 109.443 101.028V49.4307C109.443 46.0814 108.112 42.8693 105.744 40.501L92.0941 26.8511C89.7258 24.4828 86.5137 23.1523 83.1644 23.1523H37.8814C30.9069 23.1523 25.2529 28.8063 25.2529 35.7808V101.028ZM101.279 44.9659C102.463 46.15 103.129 47.7561 103.129 49.4307V101.028C103.129 104.515 100.302 107.342 96.8143 107.342H37.8814C34.3942 107.342 31.5672 104.515 31.5672 101.028V35.7808C31.5672 32.2936 34.3942 29.4666 37.8814 29.4666H83.1644C84.8391 29.4666 86.4451 30.1318 87.6293 31.316L101.279 44.9659Z" fill="#177EE5"/>
<path fill-rule="evenodd" clip-rule="evenodd" d="M83.4843 42.4008C83.3366 42.1978 83.1252 42.0453 82.881 41.9658L67.8284 37.5215L52.7759 41.9781C52.5312 42.0575 52.3193 42.2098 52.1709 42.4127C52.0225 42.6157 51.9454 42.8587 51.9508 43.1066V59.6283C51.9364 62.1235 52.9186 64.5291 54.6954 66.3503C58.3725 70.1198 62.8515 73.0855 67.8284 75.0461C72.8057 73.0828 77.2837 70.1126 80.9572 66.338C82.734 64.5168 83.7162 62.1111 83.7018 59.616V43.0943C83.7082 42.8468 83.632 42.6038 83.4843 42.4008ZM67.8269 68.7526C71.2064 67.133 74.2518 64.9506 76.82 62.3116L76.825 62.3065C77.5651 61.5479 77.9343 60.5934 77.9289 59.6493L77.9288 59.6327V46.523L67.8307 43.5415L57.7238 46.5339V59.645L57.7237 59.6617C57.7183 60.6057 58.0875 61.5602 58.8276 62.3189C61.399 64.9549 64.4464 67.1349 67.8269 68.7526Z" fill="#73E6D2"/>
<path d="M43.291 82.7435C43.291 81.1493 44.5833 79.857 46.1775 79.857H88.513C90.1072 79.857 91.3995 81.1493 91.3995 82.7435C91.3995 84.3376 90.1072 85.63 88.513 85.63H46.1775C44.5833 85.63 43.291 84.3376 43.291 82.7435Z" fill="#73E6D2"/>
<path d="M46.1775 92.3652C44.5833 92.3652 43.291 93.6575 43.291 95.2517C43.291 96.8458 44.5833 98.1382 46.1775 98.1382H88.513C90.1072 98.1382 91.3995 96.8458 91.3995 95.2517C91.3995 93.6575 90.1072 92.3652 88.513 92.3652H46.1775Z" fill="#73E6D2"/>
</svg>
