<svg width="136" height="135" viewBox="0 0 136 135" fill="none" xmlns="http://www.w3.org/2000/svg">
<path fill-rule="evenodd" clip-rule="evenodd" d="M68.0515 107.338C90.1375 107.338 108.042 89.4334 108.042 67.3474C108.042 45.2614 90.1375 27.3572 68.0515 27.3572C45.9655 27.3572 28.0613 45.2614 28.0613 67.3474C28.0613 89.4334 45.9655 107.338 68.0515 107.338ZM68.0515 113.652C93.6247 113.652 114.356 92.9206 114.356 67.3474C114.356 41.7742 93.6247 21.043 68.0515 21.043C42.4783 21.043 21.7471 41.7742 21.7471 67.3474C21.7471 92.9206 42.4783 113.652 68.0515 113.652Z" fill="#177EE5"/>
<path d="M68.3834 33.6269L70.2141 37.8027L74.8595 38.2083C74.9322 38.2146 75.0013 38.2415 75.0584 38.2858C75.1155 38.33 75.158 38.3897 75.1807 38.4573C75.2034 38.5249 75.2052 38.5975 75.186 38.6661C75.1668 38.7347 75.1274 38.7963 75.0727 38.8433L71.5569 41.8343L72.5956 46.2645C72.6124 46.3352 72.6072 46.4092 72.5805 46.4769C72.5538 46.5447 72.5069 46.6031 72.4459 46.6446C72.3849 46.6862 72.3126 46.709 72.2382 46.7101C72.1638 46.7111 72.0908 46.6905 72.0285 46.6507L68.0399 44.3266L64.0396 46.6598C63.9769 46.6963 63.9047 46.7141 63.8318 46.7108C63.7589 46.7076 63.6885 46.6836 63.6295 46.6417C63.5704 46.5999 63.5253 46.542 63.4997 46.4754C63.474 46.4087 63.469 46.3362 63.4853 46.2668L64.5241 41.8365L61.0118 38.8433C60.9563 38.7958 60.9165 38.7333 60.8974 38.6638C60.8783 38.5942 60.8809 38.5207 60.9047 38.4526C60.9285 38.3845 60.9726 38.3248 61.0312 38.2811C61.0899 38.2374 61.1605 38.2116 61.2342 38.2071L65.8622 37.8027L67.6963 33.6269C67.7248 33.561 67.7725 33.5046 67.8336 33.465C67.8948 33.4254 67.9665 33.4043 68.0399 33.4043C68.1133 33.4043 68.185 33.4254 68.2461 33.465C68.3072 33.5046 68.355 33.561 68.3834 33.6269Z" fill="#73E6D2"/>
<path d="M68.3834 89.8769L70.2141 94.0527L74.8595 94.4583C74.9322 94.4646 75.0013 94.4915 75.0584 94.5358C75.1155 94.58 75.158 94.6397 75.1807 94.7073C75.2034 94.7749 75.2052 94.8475 75.186 94.9161C75.1668 94.9847 75.1274 95.0463 75.0727 95.0933L71.5569 98.0843L72.5956 102.515C72.6124 102.585 72.6072 102.659 72.5805 102.727C72.5538 102.795 72.5069 102.853 72.4459 102.895C72.3849 102.936 72.3126 102.959 72.2382 102.96C72.1638 102.961 72.0908 102.94 72.0285 102.901L68.0399 100.577L64.0396 102.91C63.9769 102.946 63.9047 102.964 63.8318 102.961C63.7589 102.958 63.6885 102.934 63.6295 102.892C63.5704 102.85 63.5253 102.792 63.4997 102.725C63.474 102.659 63.469 102.586 63.4853 102.517L64.5241 98.0865L61.0118 95.0933C60.9563 95.0458 60.9165 94.9833 60.8974 94.9138C60.8783 94.8442 60.8809 94.7707 60.9047 94.7026C60.9285 94.6345 60.9726 94.5748 61.0312 94.5311C61.0899 94.4874 61.1605 94.4616 61.2342 94.4571L65.8622 94.0527L67.6963 89.8769C67.7248 89.811 67.7725 89.7546 67.8336 89.715C67.8948 89.6754 67.9665 89.6543 68.0399 89.6543C68.1133 89.6543 68.185 89.6754 68.2461 89.715C68.3072 89.7546 68.355 89.811 68.3834 89.8769Z" fill="#73E6D2"/>
<path d="M92.7555 47.6875L94.5862 51.8633L99.2316 52.2688C99.3042 52.2751 99.3734 52.3021 99.4305 52.3463C99.4875 52.3906 99.5301 52.4502 99.5527 52.5178C99.5754 52.5854 99.5773 52.658 99.5581 52.7266C99.5389 52.7952 99.4995 52.8568 99.4447 52.9038L95.9289 55.8948L96.9677 60.3251C96.9845 60.3958 96.9792 60.4697 96.9526 60.5375C96.9259 60.6052 96.879 60.6637 96.818 60.7052C96.757 60.7467 96.6846 60.7695 96.6102 60.7706C96.5358 60.7717 96.4628 60.751 96.4006 60.7113L92.412 58.3871L88.4117 60.7204C88.349 60.7569 88.2767 60.7746 88.2038 60.7714C88.1309 60.7682 88.0606 60.7441 88.0016 60.7023C87.9425 60.6604 87.8974 60.6026 87.8717 60.5359C87.8461 60.4693 87.8411 60.3967 87.8574 60.3273L88.8961 55.8971L85.3838 52.9038C85.3283 52.8564 85.2885 52.7939 85.2695 52.7243C85.2504 52.6548 85.253 52.5813 85.2768 52.5131C85.3006 52.445 85.3446 52.3853 85.4033 52.3416C85.462 52.2979 85.5326 52.2722 85.6063 52.2677L90.2342 51.8633L92.0684 47.6875C92.0968 47.6215 92.1446 47.5652 92.2057 47.5256C92.2668 47.486 92.3386 47.4648 92.412 47.4648C92.4853 47.4648 92.5571 47.486 92.6182 47.5256C92.6793 47.5652 92.7271 47.6215 92.7555 47.6875Z" fill="#73E6D2"/>
<path d="M44.0348 75.8125L45.8655 79.9883L50.5109 80.3938C50.5835 80.4001 50.6527 80.4271 50.7098 80.4713C50.7668 80.5156 50.8094 80.5752 50.832 80.6428C50.8547 80.7104 50.8566 80.783 50.8374 80.8516C50.8182 80.9202 50.7788 80.9818 50.724 81.0288L47.2082 84.0198L48.247 88.4501C48.2638 88.5208 48.2585 88.5947 48.2319 88.6625C48.2052 88.7302 48.1583 88.7887 48.0973 88.8302C48.0363 88.8717 47.9639 88.8945 47.8895 88.8956C47.8151 88.8967 47.7421 88.876 47.6799 88.8363L43.6912 86.5121L39.691 88.8454C39.6283 88.8819 39.556 88.8996 39.4831 88.8964C39.4102 88.8932 39.3399 88.8691 39.2808 88.8273C39.2218 88.7854 39.1767 88.7276 39.151 88.6609C39.1254 88.5943 39.1204 88.5217 39.1367 88.4523L40.1754 84.0221L36.6631 81.0288C36.6076 80.9814 36.5678 80.9189 36.5488 80.8493C36.5297 80.7798 36.5323 80.7063 36.5561 80.6381C36.5799 80.57 36.6239 80.5103 36.6826 80.4666C36.7413 80.4229 36.8119 80.3972 36.8856 80.3927L41.5135 79.9883L43.3477 75.8125C43.3761 75.7465 43.4239 75.6902 43.485 75.6506C43.5461 75.611 43.6179 75.5898 43.6912 75.5898C43.7646 75.5898 43.8364 75.611 43.8975 75.6506C43.9586 75.6902 44.0064 75.7465 44.0348 75.8125Z" fill="#73E6D2"/>
<path d="M92.7555 75.8184L94.5862 79.9941L99.2316 80.3997C99.3042 80.406 99.3734 80.4329 99.4305 80.4772C99.4875 80.5214 99.5301 80.5811 99.5527 80.6487C99.5754 80.7163 99.5773 80.7889 99.5581 80.8575C99.5389 80.9261 99.4995 80.9877 99.4447 81.0347L95.9289 84.0257L96.9677 88.4559C96.9845 88.5266 96.9792 88.6006 96.9526 88.6684C96.9259 88.7361 96.879 88.7945 96.818 88.8361C96.757 88.8776 96.6846 88.9004 96.6102 88.9015C96.5358 88.9026 96.4628 88.8819 96.4006 88.8421L92.412 86.518L88.4117 88.8512C88.349 88.8877 88.2767 88.9055 88.2038 88.9022C88.1309 88.899 88.0606 88.875 88.0016 88.8331C87.9425 88.7913 87.8974 88.7334 87.8717 88.6668C87.8461 88.6001 87.8411 88.5276 87.8574 88.4582L88.8961 84.0279L85.3838 81.0347C85.3283 80.9872 85.2885 80.9248 85.2695 80.8552C85.2504 80.7856 85.253 80.7121 85.2768 80.644C85.3006 80.5759 85.3446 80.5162 85.4033 80.4725C85.462 80.4288 85.5326 80.403 85.6063 80.3985L90.2342 79.9941L92.0684 75.8184C92.0968 75.7524 92.1446 75.696 92.2057 75.6564C92.2668 75.6168 92.3386 75.5957 92.412 75.5957C92.4853 75.5957 92.5571 75.6168 92.6182 75.6564C92.6793 75.696 92.7271 75.7524 92.7555 75.8184Z" fill="#73E6D2"/>
<path d="M44.0348 47.6934L45.8655 51.8691L50.5109 52.2747C50.5835 52.281 50.6527 52.3079 50.7098 52.3522C50.7668 52.3964 50.8094 52.4561 50.832 52.5237C50.8547 52.5913 50.8566 52.6639 50.8374 52.7325C50.8182 52.8011 50.7788 52.8627 50.724 52.9097L47.2082 55.9007L48.247 60.3309C48.2638 60.4016 48.2585 60.4756 48.2319 60.5434C48.2052 60.6111 48.1583 60.6695 48.0973 60.7111C48.0363 60.7526 47.9639 60.7754 47.8895 60.7765C47.8151 60.7776 47.7421 60.7569 47.6799 60.7171L43.6912 58.393L39.691 60.7262C39.6283 60.7627 39.556 60.7805 39.4831 60.7772C39.4102 60.774 39.3399 60.75 39.2808 60.7081C39.2218 60.6663 39.1767 60.6084 39.151 60.5418C39.1254 60.4751 39.1204 60.4026 39.1367 60.3332L40.1754 55.9029L36.6631 52.9097C36.6076 52.8622 36.5678 52.7998 36.5488 52.7302C36.5297 52.6606 36.5323 52.5871 36.5561 52.519C36.5799 52.4509 36.6239 52.3912 36.6826 52.3475C36.7413 52.3038 36.8119 52.278 36.8856 52.2735L41.5135 51.8691L43.3477 47.6934C43.3761 47.6274 43.4239 47.571 43.485 47.5314C43.5461 47.4918 43.6179 47.4707 43.6912 47.4707C43.7646 47.4707 43.8364 47.4918 43.8975 47.5314C43.9586 47.571 44.0064 47.6274 44.0348 47.6934Z" fill="#73E6D2"/>
<path d="M68.0503 57.9834C67.688 57.9822 67.329 58.0525 66.9939 58.19C66.6587 58.3276 66.354 58.5299 66.097 58.7853C65.8401 59.0407 65.6359 59.3443 65.4963 59.6786C65.3567 60.0129 65.2843 60.3715 65.2833 60.7338V62.1076H70.8148V60.7325C70.8124 60.0014 70.5199 59.3013 70.0015 58.7858C69.4832 58.2703 68.7814 57.9817 68.0503 57.9834ZM68.0503 55.2344C69.513 55.2306 70.9173 55.8078 71.9545 56.839C72.9918 57.8702 73.5771 59.2711 73.5819 60.7338V62.1076H74.9236C75.6528 62.108 76.352 62.3979 76.8675 62.9136C77.383 63.4294 77.6726 64.1288 77.6726 64.858V77.2319C77.6726 77.9609 77.383 78.6602 76.8674 79.1757C76.3519 79.6913 75.6527 79.9809 74.9236 79.9809H61.1758C60.4467 79.9809 59.7475 79.6913 59.232 79.1757C58.7164 78.6602 58.4268 77.9609 58.4268 77.2319V64.858C58.4268 64.1288 58.7163 63.4294 59.2319 62.9136C59.7474 62.3979 60.4466 62.108 61.1758 62.1076H62.5149V60.7325C62.5201 59.2694 63.1061 57.8682 64.1441 56.8372C65.1822 55.8061 66.5873 55.2296 68.0503 55.2344Z" fill="#177EE5"/>
</svg>
