<svg width="96" height="96" viewBox="0 0 96 96" fill="none" xmlns="http://www.w3.org/2000/svg">
<path d="M12.6602 76.1932C13.0345 76.0571 13.3953 75.458 13.6729 75.1805C14.2001 74.6532 14.6572 74.0634 15.141 73.4966C16.183 72.276 17.3096 71.1487 18.3529 69.9371C19.9489 68.0838 21.6049 66.2892 23.2308 64.4601C25.2405 62.1991 27.6058 60.1185 30.0142 58.2999C32.0128 56.7907 33.9631 55.4295 35.7429 53.6498C36.1868 53.2059 37.0801 51.7429 37.7923 51.8221C39.9664 52.0636 42.1638 52.1397 44.36 52.1397C47.1191 52.1397 49.8718 52.1397 52.6236 52.1397C55.7811 52.1397 58.9298 52.0318 62.0856 52.0318C67.7304 52.0318 73.3753 52.0318 79.0201 52.0318C80.4631 52.0318 81.9088 51.8689 83.3347 51.8161C83.7834 51.7995 83.967 51.83 83.5025 52.1397C82.5451 52.7779 81.7913 53.6965 80.8838 54.4048C78.4129 56.3333 76.5081 58.8605 74.382 61.1223C71.9602 63.6987 70.1477 66.7183 67.8862 69.4038C66.8433 70.6423 65.7236 71.7889 64.6503 73.0112C63.8008 73.9787 62.9606 75.0114 61.9478 75.8157C61.1413 76.4561 60.3706 76.9166 59.4849 77.4277C59.1676 77.6107 58.1359 77.919 58.5021 77.919" stroke="white" stroke-width="2" stroke-linecap="round"/>
<path d="M11.9062 44.8056C14.4091 42.3723 16.7713 39.8327 19.241 37.3631C20.4196 36.1844 21.4586 34.8669 22.6447 33.7017C23.7619 32.6041 24.8815 31.5633 25.8746 30.3459C26.8078 29.202 27.6136 27.98 28.685 26.9542C29.7484 25.9361 30.6874 24.8054 31.6932 23.7303C32.6837 22.6715 33.6399 21.6906 34.7733 20.8C35.474 20.2495 35.8998 20.3206 36.8227 20.3206C48 16 58.1663 20.3206 68.942 20.3206C71.3949 20.3206 73.8478 20.3206 76.3007 20.3206C78.1565 20.3206 80.0083 20.2128 81.8677 20.2128C82.4357 20.2128 83.2291 19.9503 83.7912 20.1109C83.9667 20.1611 83.8526 21.3179 83.8512 21.4472C83.8266 23.7079 83.7433 25.966 83.7433 28.2306C83.7433 30.9602 83.6208 33.6875 83.6354 36.4163C83.6458 38.3521 83.8512 40.2812 83.8512 42.2169C83.8512 44.6401 83.7471 47.1725 84.0429 49.5756C84.1205 50.2061 84.1747 50.8822 84.1747 51.4932" stroke="white" stroke-width="2" stroke-linecap="round"/>
<path d="M57.8555 45.8829C59.0394 44.699 60.1987 43.4455 61.4389 42.3234C63.0873 40.832 64.6366 39.1892 66.3407 37.7691C68.2112 36.2104 70.0014 34.5271 71.638 32.7235C73.0427 31.1755 74.5975 29.788 76.0784 28.3071C77.4476 26.938 78.8209 25.5682 80.1592 24.1784C80.5301 23.7932 80.8281 23.3417 81.2079 22.9619C81.3215 22.8483 83.21 20.3939 82.999 20.4994" stroke="white" stroke-width="2" stroke-linecap="round"/>
<path d="M36.5 20.8594C36.5 23.9163 37.0891 26.8743 37.2491 29.9139C37.435 33.4473 37.5786 36.9887 37.5786 40.5325C37.5786 44.0058 37.5786 47.5238 37.5786 50.9533" stroke="white" stroke-width="2" stroke-linecap="round"/>
<path d="M11.5823 44.9133C17.5318 44.9133 23.5353 44.4005 29.4876 44.7814C30.4474 44.8429 31.4148 44.7973 32.376 44.8054C33.4678 44.8146 34.5428 45.0135 35.6358 45.0211C38.1187 45.0385 40.5997 45.0592 43.0784 45.2129C46.6561 45.4347 50.3031 45.2368 53.8887 45.2368C55.247 45.2368 56.6053 45.2368 57.9636 45.2368C58.5375 45.2368 58.3997 45.9898 58.395 46.4473C58.374 48.5023 58.3771 50.5397 58.395 52.5955C58.4263 56.191 58.7979 59.7812 58.8265 63.3819C58.8538 66.824 59.0344 70.273 58.8325 73.7068C58.7853 74.5086 59.1021 76.6452 59.1021 77.4487C59.1021 77.9757 58.8331 77.854 58.395 78C57.9369 78.1527 57.334 78.1174 56.855 78.1678C55.6938 78.29 54.5401 78.4206 53.3734 78.4854C35.6358 82 28.7951 77.2723 16.6039 77.2723C15.1299 77.2723 13.6552 77.2723 12.1755 77.2723C11.5014 77.2723 11.6736 76.5595 11.6961 76.0079C11.7989 73.4914 11.5823 70.9945 11.5823 68.4754C11.5823 65.9697 11.4744 63.4593 11.4744 60.9489C11.4744 58.2966 11.2451 55.6694 11.1568 53.021C11.1036 51.425 11.2541 49.794 11.1448 48.2091C11.113 47.7472 11.0306 47.3239 11.049 46.8548C11.061 46.5468 11.3531 45.3919 11.043 45.2368" stroke="white" stroke-width="2" stroke-linecap="round"/>
</svg>
