<svg width="96" height="96" viewBox="0 0 96 96" fill="none" xmlns="http://www.w3.org/2000/svg">
<path d="M20.7715 30.1069C21.5096 29.9727 22.3746 29.0024 23.0077 28.6161C24.3588 27.7917 25.6295 26.9052 27.0735 26.2444C28.8657 25.4242 30.5433 24.3571 32.2612 23.3908C33.9634 22.4333 35.5232 21.3335 37.1703 20.2812C39.173 19.0017 41.1932 17.8652 43.3142 16.7725C44.3083 16.2604 45.2874 15.8103 46.2205 15.1989C46.7169 14.8737 47.4916 14.6642 47.877 14.1824C48.2101 13.7661 49.0981 14.1574 49.3979 14.4159C50.3666 15.2509 51.7679 15.9039 52.8614 16.5843C59.0304 20.4228 65.1344 24.5422 71.5943 27.8331C72.6896 28.3911 73.7473 29.015 74.8469 29.5648C75.164 29.7233 76.2971 30.116 75.8634 30.4533C74.6217 31.419 73.1151 32.0671 71.7223 32.8099C68.5244 34.5155 65.385 36.2337 62.2881 38.1106C59.7861 39.6269 57.049 40.7395 54.5479 42.2743C52.918 43.2744 51.3072 44.4328 49.6388 45.3161C49.0301 45.6384 48.2287 46.6413 47.5382 46.6413C46.7638 46.6413 45.7856 46.0462 45.1363 45.6625C44.0106 44.9973 42.9234 44.2883 41.7782 43.6521C38.3239 41.7331 35.264 39.2925 31.945 37.1845C30.7469 36.4235 29.4709 35.771 28.2933 34.9859C27.0948 34.1869 25.9547 33.3232 24.6943 32.6142C23.9399 32.1899 23.1623 31.8344 22.3978 31.4321C22.0182 31.2323 21.4627 30.7846 21.0425 30.7846" stroke="white" stroke-width="2" stroke-linecap="round"/>
<path d="M76.2802 67.0207L76.774 67.8903L77.2802 67.6028V67.0207H76.2802ZM48.1384 83.0005L47.6566 83.8768C47.9609 84.0441 48.3302 84.0415 48.6322 83.87L48.1384 83.0005ZM20.5332 67.0207H19.5332C19.5332 67.3605 19.7058 67.677 19.9914 67.8612L20.5332 67.0207ZM77.2802 55.6844C77.2802 55.1321 76.8325 54.6844 76.2802 54.6844C75.7279 54.6844 75.2802 55.1321 75.2802 55.6844H77.2802ZM21.5332 55.127C21.5332 54.5747 21.0855 54.127 20.5332 54.127C19.9809 54.127 19.5332 54.5747 19.5332 55.127H21.5332ZM19.5332 58.1004C19.5332 58.6527 19.9809 59.1004 20.5332 59.1004C21.0855 59.1004 21.5332 58.6527 21.5332 58.1004H19.5332ZM21.5332 64.0472C21.5332 63.495 21.0855 63.0472 20.5332 63.0472C19.9809 63.0472 19.5332 63.495 19.5332 64.0472H21.5332ZM21.6888 68.9353C22.1575 69.2273 22.7743 69.084 23.0663 68.6152C23.3583 68.1464 23.2149 67.5297 22.7462 67.2377L21.6888 68.9353ZM26.133 69.3023C25.6593 69.0185 25.0451 69.1725 24.7613 69.6463C24.4775 70.12 24.6314 70.7342 25.1052 71.018L26.133 69.3023ZM28.5475 73.0551C29.0241 73.3342 29.6367 73.1741 29.9158 72.6975C30.1948 72.2209 30.0347 71.6083 29.5581 71.3292L28.5475 73.0551ZM33.0025 73.3294C32.524 73.0536 31.9126 73.2179 31.6368 73.6964C31.361 74.1749 31.5253 74.7864 32.0038 75.0622L33.0025 73.3294ZM35.4703 77.0479C35.9502 77.3212 36.5608 77.1538 36.8342 76.6739C37.1075 76.194 36.94 75.5833 36.4601 75.31L35.4703 77.0479ZM39.9264 77.2743C39.4453 77.003 38.8354 77.173 38.5641 77.6541C38.2928 78.1351 38.4628 78.745 38.9439 79.0164L39.9264 77.2743ZM42.4278 80.9728C42.9099 81.2423 43.5192 81.07 43.7887 80.588C44.0582 80.106 43.886 79.4967 43.4039 79.2271L42.4278 80.9728ZM46.8832 81.1643C46.4001 80.8965 45.7915 81.0711 45.5237 81.5541C45.256 82.0372 45.4305 82.6458 45.9136 82.9135L46.8832 81.1643ZM50.391 82.8713C50.8713 82.5986 51.0395 81.9882 50.7668 81.5079C50.4941 81.0277 49.8837 80.8594 49.4035 81.1321L50.391 82.8713ZM52.9212 79.1347C52.4409 79.4074 52.2727 80.0178 52.5454 80.498C52.8181 80.9783 53.4285 81.1465 53.9088 80.8738L52.9212 79.1347ZM57.4265 78.8764C57.9067 78.6037 58.075 77.9933 57.8023 77.513C57.5296 77.0327 56.9192 76.8645 56.4389 77.1372L57.4265 78.8764ZM59.9567 75.1397C59.4764 75.4124 59.3081 76.0228 59.5809 76.5031C59.8536 76.9833 60.464 77.1516 60.9442 76.8789L59.9567 75.1397ZM64.4619 74.8814C64.9422 74.6087 65.1105 73.9983 64.8378 73.5181C64.565 73.0378 63.9546 72.8695 63.4744 73.1422L64.4619 74.8814ZM66.9921 71.1448C66.5119 71.4175 66.3436 72.0279 66.6163 72.5081C66.889 72.9884 67.4994 73.1567 67.9797 72.8839L66.9921 71.1448ZM71.4974 70.8865C71.9777 70.6138 72.1459 70.0034 71.8732 69.5231C71.6005 69.0428 70.9901 68.8746 70.5098 69.1473L71.4974 70.8865ZM74.0276 67.1498C73.5473 67.4225 73.3791 68.0329 73.6518 68.5132C73.9245 68.9934 74.5349 69.1617 75.0151 68.889L74.0276 67.1498ZM77.2802 64.1866C77.2802 63.6343 76.8325 63.1866 76.2802 63.1866C75.7279 63.1866 75.2802 63.6343 75.2802 64.1866H77.2802ZM75.2802 58.5185C75.2802 59.0708 75.7279 59.5185 76.2802 59.5185C76.8325 59.5185 77.2802 59.0708 77.2802 58.5185H75.2802ZM19.5332 55.127V58.1004H21.5332V55.127H19.5332ZM19.5332 64.0472V67.0207H21.5332V64.0472H19.5332ZM19.9914 67.8612C20.5195 68.2016 21.0877 68.5609 21.6888 68.9353L22.7462 67.2377C22.1522 66.8677 21.5929 66.514 21.075 66.1802L19.9914 67.8612ZM25.1052 71.018C26.2086 71.679 27.3654 72.363 28.5475 73.0551L29.5581 71.3292C28.3806 70.6398 27.2296 69.9593 26.133 69.3023L25.1052 71.018ZM32.0038 75.0622C33.1689 75.7338 34.3329 76.4001 35.4703 77.0479L36.4601 75.31C35.3253 74.6637 34.1643 73.9991 33.0025 73.3294L32.0038 75.0622ZM38.9439 79.0164C40.194 79.7214 41.3694 80.3809 42.4278 80.9728L43.4039 79.2271C42.3474 78.6364 41.1741 77.9781 39.9264 77.2743L38.9439 79.0164ZM45.9136 82.9135C46.4637 83.2185 46.8993 83.4591 47.1974 83.6237C47.3464 83.7059 47.4611 83.7691 47.5386 83.8118C47.5774 83.8332 47.6068 83.8494 47.6266 83.8602C47.6365 83.8657 47.644 83.8698 47.649 83.8726C47.6515 83.8739 47.6534 83.875 47.6547 83.8757C47.6553 83.876 47.6558 83.8763 47.6561 83.8765C47.6563 83.8766 47.6564 83.8766 47.6565 83.8767C47.6565 83.8767 47.6566 83.8767 47.6566 83.8767C47.6566 83.8767 47.6566 83.8767 47.6566 83.8767C47.6566 83.8768 47.6566 83.8768 48.1384 83.0005C48.6202 82.1242 48.6202 82.1242 48.6202 82.1242C48.6202 82.1242 48.6202 82.1242 48.6201 82.1242C48.6201 82.1241 48.6201 82.1241 48.6201 82.1241C48.62 82.1241 48.6199 82.124 48.6197 82.1239C48.6194 82.1238 48.619 82.1235 48.6184 82.1232C48.6172 82.1225 48.6153 82.1215 48.6129 82.1201C48.608 82.1175 48.6006 82.1134 48.5908 82.108C48.5713 82.0973 48.542 82.0812 48.5035 82.06C48.4265 82.0175 48.3123 81.9546 48.1637 81.8726C47.8666 81.7086 47.4321 81.4685 46.8832 81.1643L45.9136 82.9135ZM48.6322 83.87L50.391 82.8713L49.4035 81.1321L47.6446 82.1309L48.6322 83.87ZM53.9088 80.8738L57.4265 78.8764L56.4389 77.1372L52.9212 79.1347L53.9088 80.8738ZM60.9442 76.8789L64.4619 74.8814L63.4744 73.1422L59.9567 75.1397L60.9442 76.8789ZM67.9797 72.8839L71.4974 70.8865L70.5098 69.1473L66.9921 71.1448L67.9797 72.8839ZM75.0151 68.889L76.774 67.8903L75.7864 66.1511L74.0276 67.1498L75.0151 68.889ZM77.2802 67.0207V64.1866H75.2802V67.0207H77.2802ZM77.2802 58.5185V55.6844H75.2802V58.5185H77.2802Z" fill="white"/>
<path d="M47.8496 60.1445V76.8686" stroke="white" stroke-width="2" stroke-linecap="round" stroke-dasharray="4 5"/>
<path d="M20.5 55.1256C20.5 53.0425 20.5 48.0156 20.5 45.9325C20.5 43.0037 20.5 40.0885 20.5 37.1533C20.5 34.8945 20.5 32.6357 20.5 30.377" stroke="white" stroke-width="2" stroke-linecap="round"/>
<path d="M75.9316 30.5156C75.9316 39.0913 76.2801 46.5518 76.2801 55.1271" stroke="white" stroke-width="2" stroke-linecap="round"/>
<path d="M6 55.8245C34.2695 53.8952 62.6735 55.5534 90.9757 55.5534" stroke="white" stroke-width="2" stroke-linecap="round"/>
<path d="M47.6074 47.3203C47.6074 49.2446 47.8785 51.1464 47.8785 53.0802C47.8785 53.9371 48.014 54.7215 48.014 55.5875" stroke="white" stroke-width="2" stroke-linecap="round"/>
</svg>
