<svg width="96" height="96" viewBox="0 0 96 96" fill="none" xmlns="http://www.w3.org/2000/svg">
<path d="M19.3766 17.72C17.2847 17.7197 12.0312 16.9973 12.0312 22.0001C12.0312 22.0001 11 33.8742 11 41.5C11 49.1238 12.0307 60.9948 12.0307 60.9948C12.0307 65.3591 11.2847 72.1078 17.1477 72.3903C17.1477 72.3903 27.0839 73.6724 34 72.3903C41.5 71 54 71 54 71" stroke="white" stroke-width="2" stroke-linecap="round"/>
<path d="M12 65.5C12 61.1131 14.7852 60.1263 18.9534 60.1263C19.244 60.004 19.5184 60.2496 19.5184 59.8124C19.5184 46.0681 19.5184 31.7311 19.5184 18" stroke="white" stroke-width="2" stroke-linecap="round"/>
<path d="M19.7852 26.6594C19.7852 26.6594 22.0524 26.54 52.5 26M73.0584 53C73.0584 53 73.0584 44 71.9989 39.5C70.835 34.5566 73.0584 26.6594 73.0584 26.6594C73.0584 25.6306 72.9278 25.7333 71.9989 25.7333C70.2764 25.7639 68.6107 25.7934 67 25.822" stroke="white" stroke-width="2" stroke-linecap="round"/>
<path d="M28.418 52.3144C30.8876 52.3144 33.329 52.0319 35.7952 52.0319C39.1455 52.0319 42.4767 51.8906 45.8252 51.8906C49.255 51.8906 52.6731 51.8906 56.1063 51.8906" stroke="white" stroke-width="2" stroke-linecap="round"/>
<path d="M43.7852 82V83H43.8463L43.907 82.9925L43.7852 82ZM82.7847 44L83.7846 43.9868C83.7794 43.5898 83.5397 43.2334 83.1739 43.0788C82.8081 42.9243 82.3855 43.0008 82.0971 43.2739L82.7847 44ZM83.2847 82L83.3965 82.9937C83.9074 82.9362 84.2914 82.5008 84.2846 81.9868L83.2847 82ZM64 82L64.1843 81.0171L64 82ZM43.7852 81C43.9319 81 44.2734 81.0396 44.5345 81.353C44.783 81.6512 44.769 81.9738 44.7551 82.0906C44.7397 82.22 44.7012 82.3107 44.6892 82.3382C44.6731 82.3751 44.6595 82.398 44.657 82.4023C44.6561 82.4037 44.6922 82.3489 44.8052 82.2132C45.0146 81.9619 45.3684 81.5738 45.8606 81.0567C46.8388 80.0291 48.3047 78.5535 50.105 76.7736C53.7028 73.2164 58.6088 68.4705 63.5537 63.7212C68.4977 58.9727 73.4774 54.2239 77.2213 50.662C79.0932 48.8811 80.6561 47.397 81.7509 46.3582C82.2983 45.8388 82.7287 45.4308 83.0222 45.1525C83.169 45.0134 83.2815 44.9068 83.3574 44.835C83.3953 44.799 83.424 44.7718 83.4433 44.7536C83.4529 44.7445 83.4602 44.7376 83.465 44.733C83.4674 44.7307 83.4693 44.729 83.4705 44.7278C83.4711 44.7273 83.4715 44.7268 83.4718 44.7265C83.4721 44.7263 83.4723 44.7261 82.7847 44C82.0971 43.2739 82.097 43.274 82.0967 43.2743C82.0964 43.2746 82.0959 43.2751 82.0953 43.2756C82.0941 43.2768 82.0922 43.2785 82.0898 43.2808C82.0849 43.2855 82.0776 43.2924 82.068 43.3015C82.0487 43.3198 82.0199 43.3471 81.9819 43.3831C81.9059 43.455 81.7933 43.5617 81.6464 43.701C81.3526 43.9794 80.922 44.3877 80.3743 44.9074C79.2789 45.9467 77.7154 47.4314 75.8428 49.213C72.0976 52.7761 67.1155 57.5273 62.1683 62.2788C57.222 67.0295 52.3074 71.7836 48.6988 75.3514C46.8959 77.134 45.4121 78.6271 44.412 79.6777C43.9152 80.1997 43.5228 80.6279 43.2685 80.9332C43.1497 81.0759 43.0246 81.2345 42.9382 81.3797C42.9151 81.4184 42.7986 81.6062 42.7691 81.8544C42.753 81.9893 42.7417 82.3257 42.9979 82.6331C43.2666 82.9557 43.6207 83 43.7852 83V81ZM81.7848 44.0132L82.2848 82.0132L84.2846 81.9868L83.7846 43.9868L81.7848 44.0132ZM83.2847 82C83.1729 81.0063 83.1729 81.0063 83.1729 81.0063C83.1729 81.0063 83.1728 81.0063 83.1727 81.0063C83.1724 81.0063 83.172 81.0064 83.1714 81.0064C83.1702 81.0066 83.1682 81.0068 83.1655 81.0071C83.1602 81.0077 83.1519 81.0086 83.1409 81.0098C83.1189 81.0122 83.0856 81.0158 83.0416 81.0205C82.9535 81.0299 82.8227 81.0436 82.653 81.0606C82.3138 81.0946 81.8197 81.1418 81.2037 81.1943C79.9712 81.2994 78.253 81.4255 76.3116 81.5095C72.4052 81.6786 67.6811 81.6728 64.1843 81.0171L63.8157 82.9829C67.5521 83.6834 72.4704 83.6776 76.398 83.5076C78.3736 83.4221 80.1204 83.2939 81.3736 83.1871C82.0004 83.1337 82.5044 83.0855 82.8525 83.0506C83.0265 83.0332 83.1616 83.0191 83.2537 83.0093C83.2997 83.0044 83.3349 83.0005 83.3589 82.9979C83.3709 82.9966 83.3801 82.9956 83.3864 82.9949C83.3895 82.9945 83.392 82.9942 83.3937 82.9941C83.3945 82.994 83.3952 82.9939 83.3956 82.9938C83.3959 82.9938 83.3961 82.9938 83.3962 82.9938C83.3964 82.9937 83.3965 82.9937 83.2847 82ZM64.1843 81.0171C60.0659 80.2449 54.9169 80.2503 50.8464 80.4386C48.801 80.5332 47.0085 80.675 45.7269 80.7933C45.0858 80.8524 44.5719 80.9057 44.2174 80.9444C44.0401 80.9637 43.9026 80.9793 43.8089 80.9902C43.7621 80.9956 43.7262 80.9999 43.7017 81.0028C43.6895 81.0043 43.6802 81.0054 43.6737 81.0062C43.6705 81.0066 43.668 81.0069 43.6663 81.0071C43.6654 81.0072 43.6647 81.0073 43.6642 81.0073C43.664 81.0074 43.6637 81.0074 43.6636 81.0074C43.6634 81.0074 43.6633 81.0075 43.7852 82C43.907 82.9925 43.907 82.9925 43.907 82.9925C43.9071 82.9925 43.9071 82.9925 43.9072 82.9925C43.9075 82.9925 43.9079 82.9924 43.9085 82.9924C43.9097 82.9922 43.9117 82.992 43.9144 82.9917C43.9197 82.991 43.928 82.99 43.9392 82.9887C43.9614 82.986 43.9951 82.982 44.0397 82.9768C44.1289 82.9665 44.2616 82.9514 44.4339 82.9326C44.7786 82.895 45.2815 82.8429 45.9106 82.7848C47.1692 82.6687 48.9305 82.5293 50.9388 82.4364C54.9756 82.2497 59.9341 82.2551 63.8157 82.9829L64.1843 81.0171Z" fill="white"/>
<path d="M73.7852 63.5L74.7852 63.5C74.7852 63.1053 74.553 62.7475 74.1925 62.5867C73.8321 62.4259 73.4107 62.4922 73.117 62.7559L73.7852 63.5ZM73.7851 75.5V76.5C74.3373 76.5 74.7851 76.0523 74.7851 75.5L73.7851 75.5ZM60.7928 74.5C60.9321 74.5 61.2785 74.5341 61.547 74.8484C61.8112 75.1578 61.7937 75.4986 61.776 75.6276C61.7567 75.7675 61.7116 75.8681 61.6946 75.9045C61.6729 75.9509 61.6524 75.9844 61.6421 76.0007C61.6108 76.0502 61.5916 76.0673 61.6276 76.0264C61.6821 75.9646 61.7869 75.8551 61.9495 75.6933C62.2683 75.3763 62.7508 74.9159 63.3497 74.3547C64.5449 73.2348 66.1762 71.7387 67.8228 70.2394C69.4685 68.7408 71.1262 67.2419 72.3726 66.1175C72.9958 65.5554 73.5161 65.0869 73.8805 64.759C74.0627 64.5951 74.2059 64.4663 74.3036 64.3785C74.3524 64.3346 74.3899 64.301 74.4151 64.2783C74.4277 64.267 74.4373 64.2584 74.4437 64.2527C74.4469 64.2498 74.4493 64.2477 74.4509 64.2462C74.4517 64.2455 74.4523 64.245 74.4527 64.2446C74.4529 64.2444 74.453 64.2443 74.4531 64.2442C74.4532 64.2441 74.4533 64.2441 73.7852 63.5C73.117 62.7559 73.117 62.756 73.1169 62.7561C73.1168 62.7562 73.1166 62.7563 73.1164 62.7565C73.116 62.7569 73.1154 62.7574 73.1146 62.7582C73.1129 62.7596 73.1105 62.7618 73.1073 62.7647C73.1008 62.7705 73.0912 62.7791 73.0786 62.7905C73.0532 62.8133 73.0157 62.847 72.9667 62.891C72.8688 62.979 72.7253 63.108 72.5428 63.2722C72.1778 63.6006 71.6569 64.0696 71.033 64.6325C69.7853 65.7581 68.1251 67.2592 66.4762 68.7606C64.8282 70.2613 63.1882 71.7652 61.9822 72.8953C61.3806 73.4591 60.88 73.9362 60.539 74.2754C60.3718 74.4418 60.2276 74.5901 60.1272 74.7041C60.0857 74.7511 60.0126 74.8356 59.9525 74.9305C59.945 74.9423 59.8279 75.1134 59.7946 75.355C59.7761 75.4897 59.7595 75.835 60.0261 76.1472C60.2971 76.4645 60.6476 76.5 60.7928 76.5V74.5ZM73.7851 74.5H60.7928V76.5H73.7851V74.5ZM72.7852 63.5L72.7851 75.5L74.7851 75.5L74.7852 63.5L72.7852 63.5Z" fill="white"/>
<path d="M77.7852 57.5C81.7852 57.5 80.7874 57.5 81.7852 57.5" stroke="white" stroke-width="2" stroke-linecap="round"/>
<path d="M79.2852 62.9219H82.2852" stroke="white" stroke-width="2" stroke-linecap="round"/>
<path d="M78.7852 73.5H81.7852" stroke="white" stroke-width="2" stroke-linecap="round"/>
<path d="M77.7852 68.5586H82.4697" stroke="white" stroke-width="2" stroke-linecap="round"/>
<path d="M36.7852 41.5L36.0938 40.7775L35.8952 40.9675L35.8216 41.2324L36.7852 41.5ZM65 14.5L65.6624 13.7509C65.2729 13.4064 64.6843 13.418 64.3086 13.7775L65 14.5ZM71.7852 20.5L72.4871 21.2122C72.6845 21.0177 72.7923 20.75 72.7848 20.473C72.7773 20.196 72.6552 19.9345 72.4476 19.7509L71.7852 20.5ZM43.7852 47.5L44.0863 48.4536L44.2992 48.3863L44.4633 48.2349L43.7852 47.5ZM34.2852 50.5L33.3216 50.2324C33.2235 50.5858 33.3267 50.9646 33.5905 51.2193C33.8544 51.4741 34.2365 51.564 34.5863 51.4536L34.2852 50.5ZM64.3376 15.2491L71.1227 21.2491L72.4476 19.7509L65.6624 13.7509L64.3376 15.2491ZM37.4765 42.2225L65.6914 15.2225L64.3086 13.7775L36.0938 40.7775L37.4765 42.2225ZM43.484 46.5464L33.984 49.5464L34.5863 51.4536L44.0863 48.4536L43.484 46.5464ZM35.2487 50.7676L37.7487 41.7676L35.8216 41.2324L33.3216 50.2324L35.2487 50.7676ZM36.1344 42.2593L43.1344 48.2593L44.4359 46.7407L37.4359 40.7407L36.1344 42.2593ZM71.7852 20.5C71.0832 19.7878 71.0832 19.7878 71.083 19.788C71.0829 19.7881 71.0827 19.7883 71.0824 19.7886C71.0818 19.7891 71.081 19.7899 71.0799 19.791C71.0777 19.7932 71.0743 19.7965 71.0699 19.8009C71.061 19.8097 71.0476 19.8228 71.03 19.8402C70.9948 19.8749 70.9423 19.9266 70.8734 19.9944C70.7357 20.13 70.5323 20.3301 70.2701 20.5879C69.7458 21.1035 68.986 21.85 68.0446 22.7732C66.1617 24.6195 63.5524 27.1725 60.6468 29.9989C54.8328 35.6545 47.8413 42.3961 43.107 46.7651L44.4633 48.2349C49.2193 43.8459 56.2279 37.0875 62.0413 31.4326C64.9493 28.6038 67.5606 26.0489 69.4449 24.2012C70.387 23.2773 71.1475 22.5302 71.6724 22.014C71.9349 21.7559 72.1385 21.5555 72.2765 21.4196C72.3455 21.3517 72.3981 21.2999 72.4335 21.265C72.4512 21.2476 72.4646 21.2344 72.4735 21.2256C72.478 21.2212 72.4814 21.2178 72.4837 21.2156C72.4848 21.2145 72.4857 21.2137 72.4862 21.2131C72.4865 21.2128 72.4867 21.2126 72.4869 21.2125C72.487 21.2123 72.4871 21.2122 71.7852 20.5Z" fill="white"/>
<path d="M60.6289 19.5L67.001 25" stroke="white" stroke-width="2" stroke-linecap="round"/>
<path d="M55.7852 23.5L62.5 29.5" stroke="white" stroke-width="2" stroke-linecap="round"/>
</svg>
