<svg width="96" height="96" viewBox="0 0 96 96" fill="none" xmlns="http://www.w3.org/2000/svg">
<path d="M62.6556 64.4204C62.5489 68.5835 59.1524 71.8571 54.9613 71.8887C48.3176 71.9388 38.8528 71.9622 30.8646 71.799C24.0058 71.6589 18.3743 70.8548 14.4216 67.5041C10.5093 64.1875 8 58.1509 8 46.8994C8 35.6685 10.6939 29.5572 14.7657 26.1982C18.8792 22.8046 24.6452 22 31.3409 22C35.421 22 41.2377 22.2966 46.7726 23.9881C52.305 25.6788 57.4475 28.7277 60.3645 34.1596C60.9356 35.2231 61.4102 36.992 61.7758 39.3066C62.137 41.5934 62.3778 44.314 62.5302 47.2133C62.835 53.01 62.783 59.4502 62.6556 64.4204Z" stroke="white" stroke-width="2"/>
<path d="M43.4348 48.1689C43.4348 49.7485 42.6883 51.4934 41.3994 52.8412C40.1193 54.1797 38.3742 55.0547 36.4446 55.0177C32.6057 54.944 29.7363 51.589 29.7363 48.1689C29.7363 44.7659 32.8361 41.3203 36.5856 41.3203C40.3976 41.3203 43.4348 44.0713 43.4348 48.1689Z" stroke="white" stroke-width="2"/>
<path d="M56.7192 62.0584C56.7192 62.9166 56.309 63.8986 55.5733 64.6679C54.8465 65.4279 53.8714 65.9089 52.8095 65.8885C50.6729 65.8475 49.0586 63.9703 49.0586 62.0584C49.0586 60.1636 50.8068 58.2285 52.8889 58.2285C55.0336 58.2285 56.7192 59.7603 56.7192 62.0584Z" stroke="white" stroke-width="2"/>
<path d="M58 31C62.204 34.1175 69 40.2649 69 46.972C69 49.5832 64.5612 49.5936 63 50.5" stroke="white" stroke-width="2" stroke-linecap="round"/>
<path d="M49 72.0008C55 71.5002 62.1742 72.5082 67.7891 72.5082C73.004 72.5082 82.725 72.5091 87.9093 72.5091" stroke="white" stroke-width="2" stroke-linecap="round"/>
<path d="M63 60C71.3865 60 79.1801 60.5442 87.5436 60.5442" stroke="white" stroke-width="2" stroke-linecap="round"/>
<path d="M88.55 60.5C88.55 62.3351 88.1512 65.2739 88.5508 67.0719C89.0814 69.4597 88.9939 72.2365 88.9939 74.685" stroke="white" stroke-width="2" stroke-linecap="round"/>
<path d="M66.1562 60.9062V64.4724" stroke="white" stroke-width="2" stroke-linecap="round"/>
<path d="M71.2305 61.6328L71.0017 68.0952" stroke="white" stroke-width="2" stroke-linecap="round"/>
<path d="M76.6699 61.6328C76.6699 61.6328 76.6699 63.506 76.6699 64.7807" stroke="white" stroke-width="2" stroke-linecap="round"/>
<path d="M81.7461 61.9941L81.8711 68.6995" stroke="white" stroke-width="2" stroke-linecap="round"/>
</svg>
