<svg xmlns="http://www.w3.org/2000/svg" width="96" height="96" fill="none" xmlns:v="https://vecta.io/nano"><path d="M19.651 14.545l-.07.998.035.002h.035v-1zm21.609-.264l.105-.994-.105.994zm3.486.048l.014-1-.014 1zm3.934.432l-.012 1 .012-1zm8.982.384l.102-.995-.102.995zm18.485 2.47l-1-.006 1 .006zm0 12.3l1-.005-1 .005zm.521 21.579l1-.005-1 .005zm.007 20.656l-.999-.035.999.035zm-.528 8.589l.484.875-.484-.875zm-1.859.336l.172.985-.172-.985zm-4.202.635l.092.996-.092-.996zm-50.298-4.957l1 .025-1-.025zm-.651-45.987l-1 .02 1-.02zm-.014-9.627l.999-.042-.999.042zm-.116-2.709l-1-.024 1 .024zM19 14.5l.07-.998A1 1 0 0 0 18 14.5h1zm.651 1.045c3.62 0 7.277-.259 10.848-.419 3.595-.161 7.141-.224 10.656.149l.211-1.989c-3.669-.389-7.337-.32-10.956-.159-3.642.163-7.198.417-10.759.417v2zm21.504-.269c1.211.129 2.548.039 3.577.053l.028-2c-1.291-.018-2.289.075-3.394-.042l-.211 1.989zm3.577.053c.575.008 1.157.099 1.824.205.642.102 1.368.218 2.113.227l.023-2c-.575-.007-1.157-.097-1.823-.202-.641-.102-1.366-.219-2.109-.229l-.028 2zm3.937.432c3.002.035 5.952.076 8.891.379l.205-1.99c-3.043-.313-6.082-.354-9.073-.389l-.023 2zm8.891.379c4.381.45 8.948.053 13.149.053v-2c-4.454 0-8.689.395-12.944-.043l-.205 1.99zm13.149.053h.029.029.029.029.029.029.029.029.029.029.029.029.029.029.029.029.029.029.029.029.029.029.029.029.029.029.029.029.029.029.029.029.029.029.029.029.029.029.029.029.029.029.029.029.029.029.029.029.029.029.029.029.029.029.029.029.029.029.029.029.029.029.029.029.029.029.029.029.029.029.029.029.029.029.029.029.029.029.029.029.029.029.029.029.029.029.029.029.029.029.029.029.029.029.029.029.029.029.029.029.029.029.029.029.029.029.029.029.029.029.029.029.029.029.029.029.029.029.029.029.029.029.029.029.029.029.029.029.029.029.029.029.029.029.029.029.029.029.029.029.029.029.029.029.029.029.029.029.029.029.029.029.029.029.029.029.029.029.029.029.029.029.029.029.029.029.029.029.029.029l.019-2h-.029-.029-.029-.029-.029-.029-.029-.029-.029-.029-.029-.029-.029-.029-.029-.029-.029-.029-.029-.029-.029-.029-.029-.029-.029-.029-.029-.029-.029-.029-.029-.029-.029-.029-.029-.029-.029-.029-.029-.029-.029-.029-.029-.029-.029-.029-.029-.029-.029-.029-.029-.029-.029-.029-.029-.029-.029-.029-.029-.029-.029-.029-.029-.029-.029-.029-.029-.029-.029-.029-.029-.029-.029-.029-.029-.029-.029-.029-.029-.029-.029-.029-.029-.029-.029-.029-.029-.029-.029-.029-.029-.029-.029-.029-.029-.029-.029-.029-.029-.029-.029-.029-.029-.029-.029-.029-.029-.029-.029-.029-.029-.029-.029-.029-.029-.029-.029-.029-.029-.029-.029-.029-.029-.029-.029-.029-.029-.029-.029-.029-.029-.029-.029-.029-.029-.029-.029-.029-.029-.029-.029-.029-.029-.029-.029-.029-.029-.029-.029-.029-.029-.029-.029-.029-.029-.029-.029-.029-.029-.029-.029-.029-.029-.029-.029-.029-.029-.029-.029-.029l-.019 2zm4.918 0c-.107 0-.236-.033-.35-.113a.51.51 0 0 1-.161-.172c-.012-.023.018.033.037.243a6.45 6.45 0 0 1 .013.679l-.019.779 2 .012c.002-.352.047-1.098-.002-1.65-.025-.281-.083-.659-.259-.993-.205-.39-.62-.784-1.26-.784v2zm-.479 1.416V29.92l2-.011V17.621l-2-.012zm0 12.311c.019 3.613.141 7.221.262 10.814l.259 10.765 2-.01c-.017-3.619-.139-7.229-.26-10.822l-.261-10.757-2 .011zm.521 21.579c.033 6.922.251 13.772.008 20.616l1.999.071c.245-6.896.026-13.846-.007-20.696l-2 .01zm.008 20.616c-.031.861.055 2.389.142 3.837L76 79.635h2c0-.843-.099-2.358-.186-3.804-.09-1.492-.167-2.904-.14-3.646l-1.999-.071zM76 79.635c0 .108-.004.183-.01.234s-.011.066-.008.056.018-.055.056-.111.091-.111.144-.15c.025-.018.046-.03.061-.038a.28.28 0 0 1 .024-.012c0 0-.005.002-.019.007l-.06.02c-.105.035-.304.099-.526.221l.967 1.751c.043-.024.083-.039.187-.073.068-.022.319-.096.543-.26.584-.426.639-1.116.639-1.645h-2zm-.337.228c-.095.052-.249.096-.538.125-.201.021-.684.044-1.009.101l.344 1.97c.254-.044.423-.036.869-.081.358-.037.843-.111 1.302-.364l-.967-1.751zm-1.547.226c-1.421.248-2.764.5-4.122.625l.183 1.992c1.459-.134 2.9-.405 4.282-.646l-.344-1.97zm-48.405-1.806h-.021-.021-.021-.021-.021-.021-.021-.021-.021-.021-.021-.021-.021-.021-.021-.021-.021-.021-.021-.021-.021-.021-.021-.021-.021-.021-.021-.021-.021-.021-.021-.021-.021-.021-.021-.021-.021-.021-.021-.021-.021-.021-.021-.021-.021-.021-.021-.021-.021-.021-.021-.021-.021-.021-.021-.021-.021-.021-.021-.021-.021-.021-.021-.021-.021-.021-.021-.021-.021-.021-.021-.021-.021-.021-.021-.021-.021-.021-.021-.021-.021-.021-.021-.021-.021-.021-.021-.021-.021-.021-.021-.021-.021-.021-.021-.021-.021-.021-.021-.021-.021-.021-.021-.021-.021-.021-.021-.021-.021-.021-.021-.021-.021-.021-.021-.021-.021-.021-.021-.021-.021-.021-.021-.021-.021-.021-.021-.021-.021H23h-.021-.021-.021-.021-.021-.021-.021-.021-.021-.021-.021-.021-.021-.021-.021-.021-.021-.021-.021-.021-.021-.021-.021-.021-.021-.021-.021-.021-.021-.021-.021-.021-.021-.021-.021-.021-.021-.021-.021-.021-.021-.021-.021-.021-.021-.021-.021-.021-.021-.021-.021-.021-.021-.021-.021-.021-.021-.021-.021-.021-.021-.021-.021-.021-.021-.021-.021-.021-.021-.021-.021-.021-.021-.021-.021-.021-.021-.021-.021-.021-.021-.021-.021-.021-.021-.021-.021-.021-.021-.021-.021-.021-.021-.021-.021-.021-.021-.021-.021-.021-.021-.021-.021-.021-.021-.021-.021-.021-.021-.021-.021-.021-.021-.021-.021-.021-.021-.021-.021-.021-.021-.021-.021-.021-.021-.021v2h.021.021.021.021.021.021.021.021.021.021.021.021.021.021.021.021.021.021.021.021.021.021.021.021.021.021.021.021.021.021.021.021.021.021.021.021.021.021.021.021.021.021.021.021.021.021.021.021.021.021.021.021.021.021.021.021.021.021.021.021.021.021.021.021.021.021.021.021.021.021.021.021.021.021.021.021.021.021.021.021.021.021.021.021.021.021.021.021.021.021.021.021.021.021.021.021.021.021.021.021.021.021.021.021.021.021.021.021.021.021.021.021.021.021.021.021.021.021.021.021.021.021.021.021.021H23h.021.021.021.021.021.021.021.021.021.021.021.021.021.021.021.021.021.021.021.021.021.021.021.021.021.021.021.021.021.021.021.021.021.021.021.021.021.021.021.021.021.021.021.021.021.021.021.021.021.021.021.021.021.021.021.021.021.021.021.021.021.021.021.021.021.021.021.021.021.021.021.021.021.021.021.021.021.021.021.021.021.021.021.021.021.021.021.021.021.021.021.021.021.021.021.021.021.021.021.021.021.021.021.021.021.021.021.021.021.021.021.021.021.021.021.021.021.021.021.021.021.021.021.021.021.021.021.021.021.021v-2zm-5.344 0a.49.49 0 0 1 .236.068c.095.054.15.122.174.161.031.05 0 .027-.019-.174-.017-.179-.016-.407-.006-.688l.036-.873-1.999-.049c-.011.439-.075 1.225-.022 1.796.028.294.095.696.315 1.048a1.48 1.48 0 0 0 1.285.709v-2zm.421-1.505c.124-5.029-.137-10.145-.137-15.094h-2c0 5.13.262 10.005.138 15.045l1.999.049zm-.137-15.094l-.065-7.538-.065-7.519h-2l.065 7.545.065 7.512h2zm-.13-15.057c0-5.311-.278-10.634-.384-15.881l-2 .04.383 15.84h2zm-.384-15.881c-.032-1.576-.003-3.169.018-4.788.021-1.611.034-3.244-.034-4.86l-1.998.083c.065 1.555.053 3.14.032 4.75l-.018 4.855 2-.04zm-.015-9.648c-.043-1.025-.136-1.742-.115-2.644l-1.999-.047c-.023.975.082 1.951.116 2.775l1.998-.083zm-.115-2.644c.015-.631-.007-3.175-.007-3.953h-2l.007 3.906 1.999.047zm49.988 62.26c-7.209.664-14.539.068-21.961-.707-7.392-.772-14.899-1.724-22.322-1.724v2c7.29 0 14.656.935 22.115 1.713 7.43.775 14.931 1.393 22.352.709l-.183-1.992zM18.93 15.498l.651.045.139-1.995-.651-.045-.139 1.995z" fill="#fff"/><g stroke="#fff" stroke-width="2" stroke-linecap="round"><path d="M23 19h9m37 1h3M27.168 35.096l5.589-.047c.299.022.601.006.901.008.341.003.676.073 1.017.076l2.323.068c1.117.078 2.255.009 3.374.009h1.272c.179 0 .136.266.135.427v2.171l.135 3.808.002 3.645c-.015.283.084 1.037.084 1.321 0 .186-.084.143-.221.195-.143.054-.331.042-.481.059l-1.087.112c-3.784.238-7.671-.428-11.476-.428h-1.382c-.21 0-.157-.252-.15-.446.032-.888-.036-1.77-.036-2.659l-.034-2.657c0-.936-.072-1.864-.099-2.799-.017-.563.03-1.139-.004-1.699-.01-.163-.036-.312-.03-.478.004-.109.095-.517-.002-.571m.17 18.885l5.589-.047c.299.022.601.006.901.008.341.003.676.073 1.017.076l2.323.068c1.117.078 2.255.009 3.374.009h1.272c.179 0 .136.266.135.427v2.171l.135 3.808.002 3.645c-.015.283.084 1.037.084 1.321 0 .186-.084.143-.221.195-.143.054-.331.041-.481.059l-1.087.112c-3.784.238-7.671-.428-11.476-.428h-1.382c-.21 0-.157-.252-.15-.446.032-.888-.036-1.77-.036-2.659l-.034-2.657c0-.936-.072-1.864-.099-2.799-.017-.563.03-1.139-.004-1.699-.01-.163-.036-.312-.03-.478.004-.109.095-.517-.002-.571M48 44h21M48 63h21M48 38h9"/><path d="M48 57h9M20 23.999C38.5 22.998 57.155 25 75.5 25"/></g></svg>