<svg width="96" height="96" viewBox="0 0 96 96" fill="none" xmlns="http://www.w3.org/2000/svg">
<path d="M14.293 28.4936C13.9193 28.9003 13.946 29.5329 14.3527 29.9066C14.7593 30.2803 15.3919 30.2535 15.7656 29.8469L14.293 28.4936ZM47.501 10.9941L47.9991 10.127C47.7371 9.97653 47.4211 9.95255 47.1394 10.0618L47.501 10.9941ZM79.848 28.3045L80.4027 29.1365C80.6956 28.9413 80.8643 28.6063 80.8468 28.2547C80.8293 27.9031 80.6281 27.5866 80.3173 27.4214L79.848 28.3045ZM64.986 37.2826L64.3528 36.5086L64.986 37.2826ZM63.7836 37.459L63.2622 38.3122L63.7836 37.459ZM46.8455 29.2424L47.2604 28.3326C46.8807 28.1594 46.4334 28.2402 46.1384 28.5353L46.8455 29.2424ZM30.9013 38.2285L30.4334 39.1123L30.8847 39.3512L31.3429 39.1257L30.9013 38.2285ZM16.6886 30.036L17.0948 29.1222L16.6886 30.036ZM15.3179 28.4588C14.7656 28.4588 14.3179 28.9065 14.3179 29.4588C14.3179 30.0111 14.7656 30.4588 15.3179 30.4588V28.4588ZM64.3528 36.5086C64.3183 36.5368 64.2857 36.5638 64.2566 36.5877C64.2269 36.6122 64.2011 36.6334 64.1772 36.6529C64.1278 36.693 64.0968 36.7171 64.0749 36.7329C64.0531 36.7487 64.0539 36.7462 64.0709 36.7374C64.0902 36.7273 64.132 36.7081 64.192 36.6945C64.2548 36.6803 64.318 36.6767 64.3759 36.6817C64.4305 36.6865 64.4659 36.6977 64.476 36.7011C64.4847 36.7041 64.4761 36.7019 64.444 36.6854C64.4124 36.6691 64.3678 36.644 64.3051 36.6057L63.2622 38.3122C63.5363 38.4798 64.0337 38.7809 64.6334 38.6452C64.9088 38.5829 65.1166 38.4477 65.2464 38.3539C65.3691 38.2652 65.5123 38.1441 65.6193 38.0566L64.3528 36.5086ZM17.0948 29.1222C17.0336 29.095 16.9555 29.0542 16.8414 28.9916C16.7391 28.9356 16.5999 28.8576 16.4639 28.7882C16.2216 28.6644 15.7929 28.4588 15.3179 28.4588V30.4588C15.2771 30.4588 15.2759 30.4506 15.3309 30.4694C15.3833 30.4874 15.4551 30.5187 15.5544 30.5694C15.6562 30.6214 15.7538 30.6762 15.8803 30.7456C15.995 30.8084 16.1377 30.8855 16.2825 30.9498L17.0948 29.1222ZM15.7656 29.8469C17.6656 27.7792 20.5994 25.6158 23.9919 23.5208C27.3712 21.434 31.1486 19.4494 34.6918 17.7281C38.2331 16.0078 41.5283 14.5563 43.9386 13.5348C45.1434 13.0242 46.1262 12.6214 46.807 12.3466C47.1474 12.2092 47.4122 12.1038 47.5915 12.0329C47.6811 11.9975 47.7494 11.9707 47.795 11.9529C47.8177 11.9439 47.8349 11.9373 47.8462 11.9328C47.8518 11.9306 47.856 11.929 47.8588 11.9279C47.8601 11.9274 47.8611 11.927 47.8618 11.9268C47.8621 11.9267 47.8623 11.9266 47.8624 11.9265C47.8625 11.9265 47.8625 11.9265 47.501 10.9941C47.1394 10.0618 47.1393 10.0619 47.139 10.062C47.1388 10.062 47.1384 10.0622 47.138 10.0624C47.1371 10.0627 47.1359 10.0632 47.1342 10.0638C47.131 10.0651 47.1263 10.0669 47.1202 10.0693C47.1079 10.0741 47.0898 10.0811 47.066 10.0905C47.0183 10.1091 46.948 10.1367 46.8563 10.173C46.6728 10.2455 46.4035 10.3527 46.0584 10.492C45.3682 10.7706 44.3748 11.1778 43.1582 11.6934C40.7259 12.7242 37.398 14.19 33.8179 15.9292C30.2398 17.6674 26.3976 19.6846 22.941 21.8192C19.4977 23.9456 16.3793 26.2232 14.293 28.4936L15.7656 29.8469ZM31.3692 37.3447C29.0148 36.0983 26.7914 34.6499 24.4583 33.1909C22.1414 31.7421 19.736 30.2961 17.0948 29.1222L16.2825 30.9498C18.7872 32.063 21.0926 33.445 23.3978 34.8866C25.6868 36.318 27.9967 37.8223 30.4334 39.1123L31.3692 37.3447ZM46.1384 28.5353C45.6824 28.9912 44.5204 29.7717 42.8982 30.7324C41.3178 31.6685 39.4105 32.7133 37.5635 33.6933C35.7183 34.6723 33.9417 35.5821 32.6259 36.2475C31.9682 36.58 31.4261 36.8513 31.0486 37.0393C30.8599 37.1332 30.7124 37.2064 30.6122 37.256C30.5621 37.2808 30.5238 37.2997 30.4981 37.3123C30.4853 37.3187 30.4756 37.3235 30.4692 37.3266C30.466 37.3282 30.4636 37.3294 30.462 37.3302C30.4612 37.3306 30.4606 37.3308 30.4602 37.331C30.4601 37.3311 30.4599 37.3312 30.4598 37.3312C30.4598 37.3313 30.4597 37.3313 30.9013 38.2285C31.3429 39.1257 31.343 39.1257 31.3431 39.1256C31.3432 39.1256 31.3434 39.1255 31.3436 39.1254C31.3441 39.1251 31.3447 39.1248 31.3456 39.1244C31.3473 39.1235 31.3499 39.1223 31.3533 39.1206C31.36 39.1173 31.3701 39.1123 31.3832 39.1059C31.4095 39.0929 31.4485 39.0736 31.4993 39.0485C31.6009 38.9982 31.7499 38.9243 31.9402 38.8295C32.3208 38.64 32.8666 38.3669 33.5284 38.0323C34.8516 37.3632 36.6405 36.4471 38.5009 35.46C40.3595 34.4739 42.298 33.4124 43.9174 32.4532C45.4951 31.5188 46.8869 30.6152 47.5526 29.9495L46.1384 28.5353ZM64.3051 36.6057C62.6633 35.6024 58.369 33.5216 54.5531 31.7202C52.6306 30.8126 50.8077 29.9658 49.4657 29.346C48.7946 29.0361 48.2435 28.7829 47.8602 28.607C47.6685 28.5191 47.5187 28.4506 47.4167 28.404C47.3658 28.3806 47.3268 28.3628 47.3005 28.3508C47.2873 28.3448 47.2773 28.3403 47.2706 28.3372C47.2673 28.3357 47.2648 28.3345 47.263 28.3337C47.2622 28.3334 47.2615 28.3331 47.2611 28.3329C47.2609 28.3328 47.2607 28.3327 47.2606 28.3326C47.2605 28.3326 47.2604 28.3326 46.8455 29.2424C46.4305 30.1522 46.4305 30.1522 46.4306 30.1523C46.4307 30.1523 46.4309 30.1524 46.4311 30.1525C46.4315 30.1527 46.4321 30.1529 46.4329 30.1533C46.4345 30.1541 46.437 30.1552 46.4403 30.1567C46.4468 30.1597 46.4567 30.1642 46.4697 30.1701C46.4957 30.182 46.5344 30.1997 46.585 30.2228C46.6863 30.2691 46.8355 30.3374 47.0264 30.425C47.4084 30.6002 47.9579 30.8527 48.6272 31.1618C49.9659 31.78 51.7834 32.6243 53.6993 33.5288C57.5603 35.3515 61.735 37.3789 63.2622 38.3122L64.3051 36.6057ZM79.2933 27.4724C76.9763 29.0171 74.4153 30.3344 71.8091 31.7527C69.229 33.1567 66.6238 34.6506 64.3528 36.5086L65.6193 38.0566C67.7328 36.3273 70.193 34.9091 72.7651 33.5094C75.311 32.124 77.9887 30.7459 80.4027 29.1365L79.2933 27.4724ZM47.0029 11.8612C48.4382 12.6858 56.547 17.025 64.2669 21.1423C68.1335 23.2046 71.9115 25.2159 74.7227 26.7116C76.1284 27.4594 77.2924 28.0784 78.1049 28.5104C78.5112 28.7265 78.8297 28.8957 79.0466 29.011C79.155 29.0686 79.2381 29.1128 79.294 29.1425C79.322 29.1574 79.3432 29.1686 79.3574 29.1762C79.3645 29.18 79.3698 29.1828 79.3734 29.1847C79.3752 29.1857 79.3765 29.1864 79.3774 29.1868C79.3779 29.1871 79.3782 29.1873 79.3784 29.1874C79.3787 29.1875 79.3788 29.1876 79.848 28.3045C80.3173 27.4214 80.3171 27.4214 80.3169 27.4212C80.3167 27.4211 80.3164 27.4209 80.3159 27.4207C80.315 27.4202 80.3137 27.4195 80.3119 27.4186C80.3083 27.4167 80.303 27.4138 80.2959 27.4101C80.2817 27.4025 80.2605 27.3913 80.2326 27.3764C80.1766 27.3467 80.0936 27.3026 79.9852 27.245C79.7684 27.1297 79.45 26.9605 79.0438 26.7445C78.2314 26.3126 77.0676 25.6937 75.6621 24.9459C72.8512 23.4504 69.0739 21.4394 65.2081 19.3776C57.4632 15.247 49.3985 10.931 47.9991 10.127L47.0029 11.8612Z" fill="white"/>
<path d="M15.9999 29.4812C15.9928 28.9289 15.5393 28.4871 14.987 28.4942C14.4348 28.5014 13.9929 28.9549 14.0001 29.5071L15.9999 29.4812ZM15.4928 67.5185L14.4929 67.5315L14.4978 67.9078L14.7495 68.1875L15.4928 67.5185ZM49 84.4941L48.6708 85.4384C48.942 85.5329 49.2407 85.5063 49.4909 85.3654L49 84.4941ZM80.2394 66.8933L80.7302 67.7645L81.0881 67.5629L81.2009 67.168L80.2394 66.8933ZM81.3917 28.7363C81.3917 28.184 80.944 27.7363 80.3917 27.7363C79.8394 27.7363 79.3917 28.184 79.3917 28.7363H81.3917ZM81.2009 67.168C81.318 66.7582 81.3087 66.3237 81.2931 66.0212C81.2733 65.6355 81.2474 65.4618 81.2474 65.242H79.2474C79.2474 65.5118 79.2856 65.9255 79.2958 66.1239C79.3102 66.4055 79.2969 66.5518 79.2778 66.6186L81.2009 67.168ZM14.0001 29.5071L14.4929 67.5315L16.4927 67.5056L15.9999 29.4812L14.0001 29.5071ZM81.2474 65.242C81.2474 59.1524 81.2834 53.0683 81.3195 46.9844C81.3556 40.9015 81.3917 34.8186 81.3917 28.7363H79.3917C79.3917 34.8117 79.3556 40.8886 79.3195 46.9725C79.2835 53.0555 79.2474 59.1455 79.2474 65.242H81.2474ZM14.7495 68.1875C16.6001 70.2437 19.6829 72.3343 23.1668 74.297C26.6742 76.2731 30.6793 78.1691 34.45 79.8159C38.2233 81.4639 41.7764 82.8687 44.3854 83.8613C45.6903 84.3577 46.76 84.7514 47.5042 85.0213C47.8763 85.1562 48.1671 85.2602 48.3653 85.3306C48.4644 85.3658 48.5403 85.3926 48.5917 85.4107C48.6174 85.4197 48.637 85.4266 48.6502 85.4312C48.6568 85.4335 48.6619 85.4353 48.6653 85.4365C48.667 85.4371 48.6684 85.4375 48.6693 85.4379C48.6697 85.438 48.6701 85.4382 48.6703 85.4382C48.6706 85.4383 48.6708 85.4384 49 84.4941C49.3292 83.5499 49.3292 83.5499 49.329 83.5498C49.3289 83.5498 49.3287 83.5497 49.3283 83.5496C49.3276 83.5493 49.3265 83.5489 49.325 83.5484C49.322 83.5474 49.3174 83.5458 49.3112 83.5436C49.2989 83.5393 49.2802 83.5327 49.2555 83.524C49.2059 83.5066 49.1319 83.4804 49.0347 83.4459C48.8404 83.3769 48.5537 83.2744 48.1859 83.1411C47.4503 82.8743 46.3905 82.4843 45.0965 81.992C42.5078 81.0071 38.986 79.6146 35.2505 77.9831C31.5123 76.3504 27.5746 74.4847 24.1485 72.5545C20.6988 70.6111 17.8573 68.651 16.2361 66.8496L14.7495 68.1875ZM49.4909 85.3654L80.7302 67.7645L79.7485 66.022L48.5091 83.6229L49.4909 85.3654Z" fill="white"/>
<path d="M64.5 37.4922C67 48.9922 65 74.9922 65 74.9922" stroke="white" stroke-width="2" stroke-linecap="round"/>
<path d="M47.2031 29.457C44.998 42.4922 50.498 53.9922 48.498 65.9922" stroke="white" stroke-width="2" stroke-linecap="round"/>
<path d="M30.7559 38.2617C32.5 44.9961 30.7559 76.4961 30.7559 76.4961" stroke="white" stroke-width="2" stroke-linecap="round"/>
<path d="M31.9141 75.7706C37.0039 71.4894 43.0039 68.9894 48.1869 66.5039L65.0039 74.9901" stroke="white" stroke-width="2" stroke-linecap="round"/>
</svg>
