<svg width="96" height="96" viewBox="0 0 96 96" fill="none" xmlns="http://www.w3.org/2000/svg">
<path d="M14.4793 18.4016C19.7667 18.4016 25.102 17.6462 30.392 18.2074C31.245 18.2979 32.1046 18.2308 32.9589 18.2427C33.9292 18.2563 34.8845 18.5493 35.856 18.5605C38.0625 18.5861 40.2674 18.6166 42.4703 18.843C45.6498 19.1699 48.8909 18.8784 52.0775 18.8784C53.2846 18.8784 54.4917 18.8784 55.6989 18.8784C56.2089 18.8784 56.0864 19.9876 56.0823 20.6616C56.0637 23.6891 56.0664 29.4219 56.0823 32.4506M14 18.8784C14.2756 19.1068 14.0161 20.8083 14.0053 21.2619C13.989 21.9531 14.0622 22.5766 14.0905 23.2571C14.1877 25.592 14.0539 27.9948 14.1012 30.3461C14.1796 34.2478 14.3834 38.1182 14.3834 42.0257C14.3834 45.7239 14.4793 49.4223 14.4793 53.1138C14.4793 56.825 14.6718 60.5034 14.5805 64.2107C14.5605 65.0234 14.4074 66.0734 15.0065 66.0734C16.3215 66.0734 17.6321 66.0734 18.9421 66.0734C26.2688 66.0734 33.7028 67.3444 41.0802 67.8606" stroke="white" stroke-width="2" stroke-linecap="round"/>
<path d="M18.5832 24.6978C20.4065 24.6978 22.2463 24.5645 24.0704 24.6636C24.3645 24.6795 24.6609 24.6677 24.9555 24.6698C25.2901 24.6722 25.6195 24.7239 25.9545 24.7259C26.7154 24.7304 27.4757 24.7358 28.2353 24.7757C29.3317 24.8334 30.4493 24.782 31.5481 24.782C31.9644 24.782 32.3806 24.782 32.7969 24.782C32.9728 24.782 32.9305 24.9777 32.9291 25.0967C32.9227 25.6309 32.9236 26.1606 32.9291 26.6951C32.9387 27.6298 33.0526 28.5632 33.0613 29.4993C33.0697 30.3942 33.1251 31.2908 33.0632 32.1835C33.0487 32.392 33.1458 32.9475 33.1458 33.1564C33.1458 33.2934 33.0634 33.2617 32.9291 33.2997C32.7887 33.3394 32.6039 33.3302 32.4572 33.3433C32.1013 33.3751 31.7478 33.409 31.3902 33.4259C27.6752 33.601 23.8582 33.1105 20.1221 33.1105C19.6704 33.1105 19.2185 33.1105 18.765 33.1105C18.5584 33.1105 18.6112 32.9252 18.6181 32.7818C18.6496 32.1276 18.5832 31.4784 18.5832 30.8235C18.5832 30.1721 18.5502 29.5194 18.5502 28.8668C18.5502 28.1772 18.4799 27.4942 18.4529 26.8057C18.4366 26.3907 18.4827 25.9667 18.4492 25.5547C18.4394 25.4346 18.4142 25.3246 18.4198 25.2026C18.4235 25.1225 18.513 24.8223 18.418 24.782" stroke="white" stroke-width="2" stroke-linecap="round"/>
<path d="M18.418 45.248C29.2231 45.248 23.624 45.248 34.4311 45.248" stroke="white" stroke-width="2" stroke-linecap="round"/>
<path d="M18.418 39.3555C23.3294 39.3555 28.2335 39.3555 33.1458 39.3555" stroke="white" stroke-width="2" stroke-linecap="round"/>
<path d="M81.2841 55.3259C81.2841 60.699 78.8661 66.4472 74.8415 70.8241C70.8243 75.1928 65.2789 78.1195 59.0784 77.9957C46.865 77.7519 37.7617 66.6879 37.7617 55.3259C37.7617 43.9802 47.5737 32.6562 59.5229 32.6562C71.5334 32.6562 81.2841 41.7603 81.2841 55.3259Z" stroke="white" stroke-width="2"/>
<path d="M58.1562 56.2378V39.3945" stroke="white" stroke-width="2" stroke-linecap="round"/>
<path d="M58.1562 56.2383L70.9025 63.0666" stroke="white" stroke-width="2" stroke-linecap="round"/>
</svg>
