<svg width="96" height="96" viewBox="0 0 96 96" fill="none" xmlns="http://www.w3.org/2000/svg">
<path d="M27 48.0001C27 55.7609 28 61.1474 28 68.8752C28 70.0457 28.6016 70.6416 29.7236 70.9503C31.2728 71.3766 32.1583 72.9669 32.83 74.2607C33.0442 74.6732 33.3449 75.7384 33.6818 75.998C33.8208 76.1051 35.2481 72.046 38.1912 70.7862C39.3861 70.2747 40.5079 70.0913 41.7986 70.0913C53.1219 70.0913 64.5106 71.3074 75.6189 71.3074C78.4986 71.3074 80.9753 71.4696 82.2927 68.6146C84.9146 62.9328 83.7357 50.6224 83.7357 44.5536C83.7357 41.685 80.938 42.1214 78.6852 42.1214C75.6867 42.1214 69.0319 42.1214 66 42.1214" stroke="white" stroke-width="2" stroke-linecap="round"/>
<path d="M19.2315 48.1693C16.4032 48.1693 13.9707 48.3363 12.6768 45.3973C10.1017 39.5484 11.2596 26.8759 11.2596 20.6286C11.2596 17.6756 14.0074 18.1249 16.2199 18.1249H25.2547C35.5847 18.1249 46.3676 17.6164 56.6207 18.6515C59.3276 18.9247 65.1142 17.6482 65.1142 21.9699C65.1142 29.9589 66 37.7104 66 45.6656C66 46.8705 65.4091 47.4839 64.3072 47.8017C62.7856 48.2405 61.9159 49.8776 61.2562 51.2095C61.0459 51.6341 60.7506 52.7306 60.4197 52.9979C60.2832 53.1081 58.8813 48.9297 55.9908 47.6328C54.8172 47.1062 53.7154 46.9174 52.4478 46.9174C41.3267 46.9174 30.1414 48.1693 19.2315 48.1693Z" stroke="white" stroke-width="2" stroke-linecap="round"/>
<path d="M20 28C20.9047 28.1145 21.8165 28.0296 22.7225 28.0447C23.7516 28.0618 24.7649 28.4324 25.7952 28.4466C28.1355 28.479 30.4741 28.5175 32.8104 28.8039C36.1827 29.2173 39.6202 28.8486 43 28.8486" stroke="white" stroke-width="2" stroke-linecap="round"/>
<path d="M37 55C37.59 55.1145 38.1847 55.0296 38.7755 55.0447C39.4467 55.0618 40.1075 55.4324 40.7795 55.4466C42.3058 55.479 43.8309 55.5175 45.3546 55.8039C47.5539 56.2173 49.7958 55.8486 52 55.8486" stroke="white" stroke-width="2" stroke-linecap="round"/>
<path d="M20 36C21.4554 36 22.9222 36 24.3797 36C26.0352 36 27.6653 36 29.3227 36C33.0875 36 36.8496 36 40.6081 36C46.033 36 51.563 36 57 36" stroke="white" stroke-width="2" stroke-linecap="round"/>
<path d="M37 62C38.4554 62 39.9222 62 41.3797 62C43.0352 62 44.6653 62 46.3227 62C50.0875 62 53.8496 62 57.6081 62C63.033 62 68.563 62 74 62" stroke="white" stroke-width="2" stroke-linecap="round"/>
</svg>
