<svg width="72" height="72" viewBox="0 0 72 72" fill="none" xmlns="http://www.w3.org/2000/svg">
<g clip-path="url(#clip0_2277_34838)">
<path d="M7.22085 41.8928L8.54423 42.767C9.9779 43.7505 10.6396 45.499 10.0882 47.1381L9.64705 48.668C8.98536 50.9629 10.5293 53.367 12.8452 53.6948L14.3892 53.9134C16.0434 54.1319 17.477 55.4433 17.6976 57.1917L17.9182 58.7216C18.3593 61.1257 20.6752 62.5464 22.9911 61.8907L24.5351 61.4536C26.1893 60.9072 27.9538 61.5629 28.9463 62.9835L29.8286 64.2948C31.2623 66.2618 34.0193 66.5896 35.7838 64.9505L36.9969 63.8577C38.3203 62.6556 40.0848 62.4371 41.6287 63.3113L43.0624 64.0762C45.1577 65.2783 47.8045 64.2948 48.6868 62.1092L49.2382 60.6886C49.8999 59.0495 51.4438 58.0659 53.2083 58.1752L54.7523 58.2845C57.1785 58.3938 59.1635 56.4268 58.943 54.0227L58.8327 52.4928C58.7224 50.7443 59.7149 49.2144 61.2589 48.5587L62.6925 48.0124C64.8982 47.1381 65.7804 44.4062 64.6776 42.3299L63.9056 41.0186C63.0234 39.4887 63.2439 37.6309 64.3468 36.4289L65.4496 35.2268C67.1038 33.4784 66.773 30.6371 64.6776 29.3258L63.6851 28.1237C62.2514 27.1402 61.5897 25.3918 62.1411 23.7526L62.5822 22.2227C63.2439 19.9279 61.7 17.5237 59.3841 17.1959L57.8401 16.9773C56.1859 16.7588 54.7523 15.4475 54.5317 13.699L54.3111 12.1691C53.7597 9.87426 51.3335 8.34437 49.0176 9.10932L47.4737 9.54643C45.8194 10.0928 44.0549 9.43715 43.0624 8.01653L42.1801 6.7052C40.7465 4.73819 37.9894 4.41035 36.2249 6.04953L35.0118 7.14231C33.6885 8.34437 31.9239 8.56292 30.38 7.6887L28.9463 6.92375C26.851 5.72169 24.2042 6.7052 23.322 8.89076L22.7706 10.3114C22.1089 11.9505 20.5649 12.9341 18.8004 12.8248L17.2565 12.7155C14.8303 12.6062 12.8452 14.5732 13.0658 16.9773L13.1761 18.5072C13.2863 20.2557 12.2938 21.7856 10.7499 22.4413L9.31621 22.9876C7.11057 23.8619 6.22832 26.5938 7.33113 28.6701L8.10311 29.9815C8.98536 31.5113 8.7648 33.3691 7.66198 34.5711L6.55916 35.7732C4.90494 37.7402 5.23578 40.5814 7.22085 41.8928Z" stroke="#773CF7" stroke-width="6"/>
<path d="M27.3148 40.9722L31.8116 40.8732C32.3112 40.8732 32.7109 41.1702 32.7109 41.6653C32.8108 42.8535 33.1106 43.6457 33.7102 44.2398C34.4097 44.9329 35.309 45.2299 36.4082 45.2299C37.3076 45.2299 38.007 44.9329 38.5067 44.4378C39.0063 43.9427 39.2062 43.2496 39.2062 42.3584C39.2062 41.3682 39.0063 40.5761 38.5067 40.081C38.007 39.4869 37.2076 38.9918 35.9086 38.4967C32.9108 37.3085 30.7124 36.1203 29.4133 34.9321C28.0143 33.7439 27.4148 31.9615 27.4148 29.5851C27.4148 27.5057 28.1142 25.7234 29.6132 24.3372C30.9122 23.0499 32.611 22.3568 34.7094 22.0597V18.7921C34.7094 18.3961 35.0092 18 35.5089 18H38.3068C38.7065 18 39.1062 18.2971 39.1062 18.7921V22.1588C41.1048 22.5548 42.7036 23.446 43.9028 24.8322C45.1019 26.1195 45.7014 27.8028 45.8014 29.7831C45.8014 30.2782 45.4017 30.6743 44.902 30.6743L40.3054 30.7733C39.8057 30.7733 39.406 30.4763 39.406 29.9812C39.3061 28.991 39.1062 28.1989 38.6066 27.7038C38.107 27.0106 37.4075 26.7136 36.5081 26.7136C35.6088 26.7136 34.9093 27.0106 34.5096 27.5057C34.1099 28.0998 33.91 28.793 33.91 29.5851C33.91 30.4763 34.1099 31.1694 34.6095 31.6645C35.1092 32.1596 35.9086 32.7537 37.2076 33.3478C40.1055 34.635 42.3039 35.8232 43.7029 37.1105C45.1019 38.2987 45.8014 40.081 45.8014 42.3584C45.8014 44.5368 45.1019 46.3192 43.7029 47.6064C42.5038 48.6956 41.0049 49.4877 39.1062 49.7848V52.9534C39.1062 53.3494 38.8065 53.7455 38.3068 53.7455H35.5089C35.1092 53.7455 34.7094 53.4484 34.7094 52.9534V49.8838C32.4111 49.5867 30.4126 48.7946 28.8137 47.4083C27.4148 46.1211 26.6153 44.2398 26.5154 41.8633C26.4155 41.3683 26.8152 40.9722 27.3148 40.9722Z" fill="#CAB2FF"/>
</g>
<defs>
<clipPath id="clip0_2277_34838">
<rect width="72" height="72" fill="white"/>
</clipPath>
</defs>
</svg>
