<svg width="72" height="72" viewBox="0 0 72 72" fill="none" xmlns="http://www.w3.org/2000/svg">
<g clip-path="url(#clip0_2277_34821)">
<path d="M7.00088 22.3283H7.00092H10.5546V45.6717H7.00092C5.62812 45.6718 4.5 46.7674 4.5 48.1375V60.0342C4.5 61.4043 5.6281 62.5 7.00092 62.5H19.11C20.4829 62.5 21.6108 61.4043 21.6109 60.0342V56.5517H32.0919C32.9868 56.5608 33.8222 56.0972 34.2768 55.3303C34.7326 54.5615 34.7326 53.6102 34.2768 52.8414C33.8222 52.0745 32.9868 51.611 32.0919 51.62H21.6109V48.1375C21.6108 46.7674 20.4828 45.6718 19.1101 45.6717H15.5564V22.3283L19.11 22.3283L19.1101 22.3283C20.4828 22.3282 21.6108 21.2326 21.6109 19.8625V19.8625V16.38H45.3891V19.8625C45.3892 21.2326 46.5172 22.3282 47.8899 22.3283H51.4435V32.6168C51.4348 33.5074 51.9133 34.3297 52.6895 34.7736C53.4656 35.2175 54.4234 35.2175 55.1995 34.7736C55.9757 34.3297 56.4541 33.5074 56.4455 32.6168V22.3283L59.999 22.3283C61.3718 22.3282 62.5 21.2326 62.5 19.8625V7.96584C62.5 6.59568 61.3718 5.5 59.999 5.5H47.89C46.5171 5.5 45.3892 6.59576 45.3891 7.9658V11.4483H21.6109V7.96584V7.9658C21.6108 6.59575 20.4829 5.5 19.11 5.5H7.00092C5.6281 5.5 4.5 6.59573 4.5 7.96584V19.8625C4.5 21.2326 5.62812 22.3282 7.00088 22.3283ZM9.50183 10.4317H16.609V17.3966H9.50183V10.4317ZM50.3909 10.4317H57.4981V17.3966H50.3909V10.4317ZM9.50183 50.6034H16.609V57.5683H9.50183V50.6034Z" fill="#773CF7" stroke="#773CF7"/>
<path d="M39.6579 37.5005L39.6578 37.5005C38.9707 37.486 38.3194 37.8065 37.9118 38.3599C37.5042 38.9132 37.3911 39.6301 37.6086 40.282C37.6086 40.282 37.6087 40.2821 37.6087 40.2821L46.1992 66.0557L46.1992 66.056C46.468 66.8609 47.1921 67.427 48.0381 67.4935C48.884 67.56 49.6877 67.114 50.079 66.3611L55.6478 55.6481L66.3611 50.0794C66.3611 50.0794 66.3611 50.0794 66.3612 50.0794C67.1141 49.6881 67.56 48.8845 67.4935 48.0385C67.427 47.1926 66.8609 46.4685 66.056 46.1998L66.0557 46.1997L40.2813 37.6094L40.2808 37.6092C40.0825 37.5433 39.8716 37.505 39.6579 37.5005ZM52.205 53.1075L48.6306 59.9842L42.9539 42.9545L59.984 48.6311L53.1071 52.2054C52.7208 52.4059 52.4057 52.7209 52.2051 53.1072C52.2051 53.1073 52.205 53.1074 52.205 53.1075Z" fill="#CAB2FF" stroke="#CAB2FF"/>
</g>
<defs>
<clipPath id="clip0_2277_34821">
<rect width="72" height="72" fill="white"/>
</clipPath>
</defs>
</svg>
