<svg width="72" height="72" viewBox="0 0 72 72" fill="none" xmlns="http://www.w3.org/2000/svg">
<g clip-path="url(#clip0_2277_34855)">
<path d="M22.2905 49.7252L22.2904 49.7253L22.2945 49.7322C23.023 50.9708 23.608 51.7755 24.1925 52.5064C24.7016 53.1609 25.0161 53.5789 25.214 54.0653C25.4091 54.5451 25.4984 55.1135 25.4984 56.0708V57.0804C25.4984 58.8055 26.4454 60.2368 27.8324 61.0228C28.2058 63.3679 28.9561 65.3298 30.2584 66.7153C31.5967 68.1391 33.485 68.9193 36.0391 68.9193C38.5932 68.9193 40.4815 68.1391 41.8198 66.7153C43.1221 65.3298 43.8724 63.3679 44.2458 61.0228C45.6328 60.2368 46.5799 58.8055 46.5799 57.0804V56.0708C46.5799 55.1135 46.6691 54.5451 46.8643 54.0653C47.0623 53.5785 47.3772 53.1602 47.887 52.5048C48.3958 51.8505 49.0534 50.9738 49.7838 49.7322L49.7848 49.7304C51.3728 46.9875 52.4754 44.7901 52.991 42.1467C53.3573 40.7512 53.5033 39.3583 53.5033 38.0412L53.5032 38.0366C53.3565 28.4279 45.581 20.6492 35.967 20.6492C26.4268 20.6492 18.575 28.4272 18.575 38.0412C18.575 39.3595 18.7213 40.7538 19.0882 42.1505C19.6755 44.7893 20.7755 46.9838 22.2905 49.7252ZM41.5807 56.6361H30.4976V56.0708C30.4976 54.3422 30.2213 53.0932 29.7884 52.0768C29.3573 51.0646 28.7763 50.2982 28.2005 49.5426L28.2006 49.5425L28.1987 49.5402C27.6952 48.8929 27.2063 48.2636 26.7157 47.2824L26.7118 47.2745L26.7074 47.2669C25.3442 44.8993 24.4317 43.1386 24.0069 41.1114V41.0702V41.0282L23.9954 40.9878C23.7179 40.0166 23.6463 38.9664 23.6463 38.0412C23.6463 31.2103 29.2105 25.5763 36.1112 25.5763C43.0055 25.5763 48.5639 31.1271 48.5761 38.0184C48.5553 38.1543 48.5344 38.2915 48.5133 38.4299C48.3896 39.2434 48.2592 40.1009 48.0773 41.0105C47.6554 43.0491 46.7415 44.8138 45.3721 47.2647C44.9388 47.9684 44.5481 48.547 44.1946 49.0704C44.0834 49.235 43.976 49.3942 43.872 49.5501C43.2981 50.3033 42.7195 51.0679 42.2898 52.0768C41.8569 53.0932 41.5807 54.3422 41.5807 56.0708V56.6361ZM35.967 63.9201C35.3432 63.9201 34.741 63.914 34.2001 63.5926C33.7203 63.3075 33.2419 62.7416 32.8961 61.5632H38.9751C38.6582 62.7453 38.1938 63.3099 37.7232 63.5936C37.1923 63.9137 36.5918 63.9201 35.967 63.9201Z" fill="#773CF7" stroke="#773CF7" stroke-width="0.6"/>
<path d="M35.4232 28.6558L35.4232 28.6557L35.4166 28.6567C30.8865 29.325 27.3221 32.8895 26.6537 37.4196L26.6536 37.4196L26.6528 37.4262C26.4907 38.7233 27.3776 40.0457 28.7163 40.213L28.7348 40.2154H28.7535H28.7539H28.7543H28.7547H28.7552H28.7556H28.756H28.7565H28.7569H28.7573H28.7578H28.7582H28.7586H28.7591H28.7595H28.76H28.7604H28.7609H28.7613H28.7618H28.7622H28.7627H28.7631H28.7636H28.7641H28.7645H28.765H28.7655H28.7659H28.7664H28.7669H28.7673H28.7678H28.7683H28.7687H28.7692H28.7697H28.7702H28.7707H28.7711H28.7716H28.7721H28.7726H28.7731H28.7736H28.7741H28.7745H28.775H28.7755H28.776H28.7765H28.777H28.7775H28.778H28.7785H28.779H28.7795H28.78H28.7805H28.781H28.7816H28.7821H28.7826H28.7831H28.7836H28.7841H28.7846H28.7852H28.7857H28.7862H28.7867H28.7872H28.7878H28.7883H28.7888H28.7893H28.7899H28.7904H28.7909H28.7915H28.792H28.7925H28.7931H28.7936H28.7941H28.7947H28.7952H28.7958H28.7963H28.7969H28.7974H28.7979H28.7985H28.799H28.7996H28.8001H28.8007H28.8012H28.8018H28.8023H28.8029H28.8035H28.804H28.8046H28.8051H28.8057H28.8062H28.8068H28.8074H28.8079H28.8085H28.8091H28.8096H28.8102H28.8108H28.8113H28.8119H28.8125H28.8131H28.8136H28.8142H28.8148H28.8154H28.8159H28.8165H28.8171H28.8177H28.8182H28.8188H28.8194H28.82H28.8206H28.8212H28.8217H28.8223H28.8229H28.8235H28.8241H28.8247H28.8253H28.8259H28.8264H28.827H28.8276H28.8282H28.8288H28.8294H28.83H28.8306H28.8312H28.8318H28.8324H28.833H28.8336H28.8342H28.8348H28.8354H28.836H28.8366H28.8372H28.8378H28.8384H28.839H28.8396H28.8402H28.8408H28.8414H28.842H28.8427H28.8433H28.8439H28.8445H28.8451H28.8457H28.8463H28.8469H28.8475H28.8482H28.8488H28.8494H28.85H28.8506H28.8512H28.8519H28.8525H28.8531H28.8537H28.8543H28.8549H28.8556H28.8562H28.8568H28.8574H28.858H28.8587H28.8593H28.8599H28.8605H28.8612H28.8618H28.8624H28.863H28.8636H28.8643H28.8649H28.8655H28.8661H28.8668H28.8674H28.868H28.8687H28.8693H28.8699H28.8705H28.8712H28.8718H28.8724H28.873H28.8737H28.8743H28.8749H28.8756H28.8762H28.8768H28.8775H28.8781H28.8787H28.8793H28.88H28.8806H28.8812H28.8819H28.8825H28.8831H28.8838H28.8844H28.885H28.8857H28.8863H28.8869H28.8876H28.8882H28.8888H28.8895H28.8901H28.8907H28.8914H28.892H28.8926H28.8933H28.8939H28.8945H28.8952H28.8958H28.8964H28.8971H28.8977H28.8983H28.899H28.8996H28.9002H28.9009H28.9015H28.9021H28.9028H28.9034H28.904H28.9047H28.9053H28.9059H28.9066H28.9072H28.9078H28.9085H28.9091H28.9097H28.9104H28.911H28.9116H28.9123H28.9129H28.9135H28.9142H28.9148H28.9154H28.9161H28.9167H28.9173H28.918H28.9186H28.9192H28.9198H28.9205H28.9211H28.9217H28.9224H28.923H28.9236H28.9243H28.9249H28.9255H28.9261H28.9268H28.9274H28.928H28.9286H28.9293H28.9299H28.9305H28.9311H28.9318H28.9324H28.933H28.9336H28.9343H28.9349H28.9355H28.9361H28.9368H28.9374H28.938H28.9386H28.9392H28.9399H28.9405H28.9411H28.9417H28.9423H28.9429H28.9436H28.9442H28.9448H28.9454H28.946H28.9466H28.9473H28.9479H28.9485H28.9491H28.9497H28.9503H28.9509H28.9515H28.9521H28.9528H28.9534H28.954H28.9546H28.9552H28.9558H28.9564H28.957H28.9576H28.9582H28.9588H28.9594H28.96H28.9606H28.9612H28.9618H28.9624H28.963H28.9636H28.9642H28.9648H28.9654H28.966H28.9666H28.9672H28.9678H28.9684H28.969H28.9696H28.9702H28.9707H28.9713H28.9719H28.9725H28.9731H28.9737H28.9743H28.9748H28.9754H28.976H28.9766H28.9772H28.9778H28.9783H28.9789H28.9795H28.9801H28.9806H28.9812H28.9818H28.9824H28.9829H28.9835H28.9841H28.9846H28.9852H28.9858H28.9863H28.9869H28.9875H28.988H28.9886H28.9892H28.9897H28.9903H28.9908H28.9914H28.992H28.9925H28.9931H28.9936H28.9942H28.9947H28.9953H28.9958H28.9964H28.9969H28.9975H28.998H28.9986H28.9991H28.9996H29.0002H29.0007H29.0013H29.0018H29.0023H29.0029H29.0034H29.0039H29.0045H29.005H29.0055H29.0061H29.0066H29.0071H29.0076H29.0082H29.0087H29.0092H29.0097H29.0103H29.0108H29.0113H29.0118H29.0123H29.0128H29.0133H29.0139H29.0144H29.0149H29.0154H29.0159H29.0164H29.0169H29.0174H29.0179H29.0184H29.0189H29.0194H29.0199H29.0204H29.0209H29.0214H29.0219H29.0223H29.0228H29.0233H29.0238H29.0243H29.0248H29.0252H29.0257H29.0262H29.0267H29.0271H29.0276H29.0281H29.0286H29.029H29.0295H29.03H29.0304H29.0309H29.0313H29.0318H29.0323H29.0327H29.0332H29.0336H29.0341H29.0345H29.035H29.0354H29.0359H29.0363H29.0368H29.0372H29.0376H29.0381H29.0385H29.039H29.0394H29.0398H29.0402H29.0407H29.0411H29.0415H29.042C30.2847 40.2154 31.2589 39.3028 31.4997 38.0991L31.5013 38.091L31.5025 38.0827C31.8436 35.6948 33.7551 33.8486 36.078 33.5056C37.3919 33.3394 38.3749 32.0394 38.1385 30.7192C38.0426 29.3701 36.7082 28.4951 35.4232 28.6558Z" fill="#CAB2FF" stroke="#CAB2FF" stroke-width="0.6"/>
<path d="M67.8402 35.5047H59.6909C58.2992 35.5047 57.2273 36.5765 57.2273 37.9682C57.2273 39.3599 58.2992 40.4318 59.6909 40.4318H67.8402C69.2319 40.4318 70.3038 39.3599 70.3038 37.9682C70.3038 36.5701 69.1533 35.5047 67.8402 35.5047Z" fill="#CAB2FF" stroke="#CAB2FF" stroke-width="0.6"/>
<path d="M60.1948 13.6694C59.2192 12.6938 57.6548 12.6783 56.7371 13.6738L50.9721 19.4388C49.9964 20.4144 49.9811 21.9789 50.9767 22.8966C51.4653 23.3827 52.1163 23.6289 52.6987 23.6289C53.283 23.6289 53.9362 23.3811 54.4253 22.892L60.1903 17.127C61.1858 16.2093 61.1704 14.6449 60.1948 13.6694Z" fill="#CAB2FF" stroke="#CAB2FF" stroke-width="0.6"/>
<path d="M35.9682 16.7774C37.3599 16.7774 38.4318 15.7056 38.4318 14.3139V6.16452C38.4318 4.77283 37.3599 3.70098 35.9682 3.70098C34.5765 3.70098 33.5047 4.77283 33.5047 6.16452V14.3139C33.5047 15.6269 34.5701 16.7774 35.9682 16.7774Z" fill="#CAB2FF" stroke="#CAB2FF" stroke-width="0.6"/>
<path d="M20.9565 22.9643C21.9321 21.9887 21.9475 20.4244 20.952 19.5066L15.187 13.7416C14.2114 12.766 12.6469 12.7506 11.7292 13.7462C10.7582 14.7221 10.7443 16.283 11.7383 17.1993L17.5033 22.9643C17.9923 23.4534 18.6456 23.7013 19.2299 23.7013C19.8141 23.7013 20.4674 23.4534 20.9565 22.9643Z" fill="#CAB2FF" stroke="#CAB2FF" stroke-width="0.6"/>
<path d="M12.3129 35.5047H4.16354C2.77185 35.5047 1.7 36.5765 1.7 37.9682C1.7 39.3599 2.77185 40.4318 4.16354 40.4318H12.3129C13.7046 40.4318 14.7764 39.3599 14.7764 37.9682C14.7764 36.5701 13.6259 35.5047 12.3129 35.5047Z" fill="#CAB2FF" stroke="#CAB2FF" stroke-width="0.6"/>
</g>
<defs>
<clipPath id="clip0_2277_34855">
<rect width="72" height="72" fill="white"/>
</clipPath>
</defs>
</svg>
