<svg width="70" height="70" viewBox="0 0 70 70" fill="none" xmlns="http://www.w3.org/2000/svg">
<path fill-rule="evenodd" clip-rule="evenodd" d="M18.5553 42.8214L12.0311 36.4677L23.6495 25.1528L26.7329 28.1557C27.3138 28.7214 28.2522 28.7214 28.8331 28.1557L28.9671 28.0251C30.3524 26.676 32.5867 26.676 33.972 28.0251L34.5082 28.5473L34.553 28.7214L35.3126 27.9816C35.3573 27.938 35.402 27.8946 35.4466 27.851C35.5807 27.7204 35.7595 27.5463 35.9829 27.4159C36.0276 27.3723 36.1169 27.3288 36.1617 27.2853C36.385 27.1548 36.6085 27.0242 36.9213 26.8936C37.0107 26.8501 37.0553 26.8501 37.1447 26.8065C37.5469 26.6325 38.0385 26.502 38.6194 26.4148C38.7088 26.4148 38.7535 26.3714 38.8429 26.3714C39.2897 26.3278 39.7812 26.2843 40.3174 26.2843L48.6738 26.2843L57.9686 35.3362L50.3272 42.778L51.2656 43.6483C52.2487 44.6493 52.2487 46.216 51.2656 47.2169L51.0868 47.3909C50.0591 48.3484 48.4504 48.3484 47.4673 47.3909L48.8079 48.6965C49.8356 49.6974 49.8356 51.2641 48.8079 52.265L48.6291 52.4392C47.6014 53.4401 45.9926 53.4401 45.0095 52.4392L44.9648 52.3956C45.9926 53.3965 45.9926 54.9632 44.9648 55.9642L44.7861 56.1382C43.7583 57.1392 42.1496 57.1392 41.1665 56.1382L40.8536 55.8336C41.8815 56.8345 41.8815 58.4012 40.8536 59.4021C39.8259 60.4031 38.2172 60.4031 37.1894 59.4021L34.7317 57.0086" fill="black"/>
<path d="M18.5553 42.8214L12.0311 36.4677L23.6495 25.1528L26.7329 28.1557C27.3138 28.7214 28.2522 28.7214 28.8331 28.1557L28.9671 28.0251C30.3524 26.676 32.5867 26.676 33.972 28.0251L34.5082 28.5473L34.553 28.7214L35.3126 27.9816C35.3573 27.938 35.402 27.8946 35.4466 27.851C35.5807 27.7204 35.7595 27.5463 35.9829 27.4159C36.0276 27.3723 36.1169 27.3288 36.1617 27.2853C36.385 27.1548 36.6085 27.0242 36.9213 26.8936C37.0107 26.8501 37.0553 26.8501 37.1447 26.8065C37.5469 26.6325 38.0385 26.502 38.6194 26.4148C38.7088 26.4148 38.7535 26.3714 38.8429 26.3714C39.2897 26.3278 39.7813 26.2843 40.3174 26.2843L48.6738 26.2843L57.9686 35.3362L50.3272 42.778L51.2656 43.6483C52.2487 44.6493 52.2487 46.216 51.2656 47.2169L51.0869 47.3909C50.0591 48.3484 48.4504 48.3484 47.4673 47.3909L48.8079 48.6965C49.8356 49.6974 49.8356 51.2641 48.8079 52.265L48.6291 52.4392C47.6014 53.4401 45.9926 53.4401 45.0095 52.4392L44.9648 52.3956C45.9926 53.3965 45.9926 54.9632 44.9648 55.9642L44.7861 56.1382C43.7583 57.1392 42.1496 57.1392 41.1665 56.1382L40.8536 55.8336C41.8815 56.8345 41.8815 58.4012 40.8536 59.4021C39.8259 60.4031 38.2172 60.4031 37.1894 59.4021L34.7317 57.0086" stroke="#F05A3B" stroke-width="2.08084" stroke-linecap="round" stroke-linejoin="round"/>
<path fill-rule="evenodd" clip-rule="evenodd" d="M57.962 35.2451L50.4161 42.6475L41.5022 33.9032C40.3107 32.7344 38.3249 32.7344 37.1335 33.9032L35.5449 35.4616L34.9271 36.0676C33.868 37.0632 32.5001 37.5827 31.1321 37.5827C29.7641 37.5827 28.3961 37.0632 27.337 36.0244L34.8389 28.6653L35.5891 27.9294C35.6331 27.8861 35.6773 27.8428 35.7214 27.7996C35.8538 27.6697 36.0303 27.4965 36.251 27.3667C36.2951 27.3234 36.3833 27.2801 36.4275 27.2368C36.6481 27.1069 36.8687 26.9771 37.1777 26.8472C37.2659 26.804 37.31 26.804 37.3982 26.7606C37.7954 26.5875 38.2808 26.4576 38.8545 26.371C38.9428 26.371 38.9868 26.3278 39.0752 26.3278C39.5165 26.2844 40.0019 26.2412 40.5314 26.2412H48.7833L57.962 35.2451Z" stroke="#F05A3B" stroke-width="2.08084" stroke-linecap="round" stroke-linejoin="round"/>
<path fill-rule="evenodd" clip-rule="evenodd" d="M23.4164 45.172L20.5273 48.4739C19.6605 49.4644 18.2159 49.4644 17.3492 48.4739L17.0603 48.1438C16.1935 47.1531 16.1935 45.5022 17.0603 44.5117L19.9495 41.2098C20.8162 40.2191 22.2607 40.2191 23.1275 41.2098L23.4164 41.5399C24.2832 42.5777 24.2832 44.1815 23.4164 45.172Z" fill="black" stroke="#F05A3B" stroke-width="2.08084" stroke-linecap="round" stroke-linejoin="round"/>
<path fill-rule="evenodd" clip-rule="evenodd" d="M28.8582 47.9701L22.8077 54.0206C21.9191 54.9091 20.4383 54.9091 19.5497 54.0206L19.2535 53.7244C18.365 52.8359 18.365 51.355 19.2535 50.4664L25.3041 44.4159C26.1926 43.5274 27.6735 43.5274 28.562 44.4159L28.8582 44.7121C29.7468 45.6006 29.7468 47.0392 28.8582 47.9701Z" fill="black" stroke="#F05A3B" stroke-width="2.08084" stroke-linecap="round" stroke-linejoin="round"/>
<path fill-rule="evenodd" clip-rule="evenodd" d="M32.7696 50.2226C32.9134 50.9872 32.6737 51.7943 32.0505 52.3889L27.7841 56.1693C26.7294 57.1037 25.0037 57.1037 23.949 56.1693L23.7573 55.9994C22.7026 55.0649 22.7026 53.5358 23.7573 52.6013L28.0237 48.821C29.0784 47.8865 30.8041 47.8865 31.8588 48.821L32.0505 48.9909C32.434 49.3732 32.6737 49.7979 32.7696 50.2226Z" fill="black" stroke="#F05A3B" stroke-width="2.08084" stroke-linecap="round" stroke-linejoin="round"/>
<path fill-rule="evenodd" clip-rule="evenodd" d="M34.3281 57.3081L32.5644 59.3657C31.662 60.4185 30.2265 60.4185 29.3651 59.3657L29.119 59.0786C28.2168 58.0258 28.2168 56.3511 29.119 55.3462L30.8827 53.2886C31.7851 52.2358 33.2206 52.2358 34.0819 53.2886L34.3281 53.5757C35.2304 54.5806 35.2304 56.2554 34.3281 57.3081Z" fill="black" stroke="#F05A3B" stroke-width="2.08084" stroke-linecap="round" stroke-linejoin="round"/>
<path fill-rule="evenodd" clip-rule="evenodd" d="M18.6769 16.9405L3.82292 31.1709C3.0894 31.8694 3.0894 32.9606 3.82292 33.659L7.12382 36.802L8.13243 37.7623C8.86597 38.4608 10.0121 38.4608 10.7456 37.7623L25.6913 23.5319C26.4249 22.8335 26.4249 21.7422 25.6913 21.0438L21.2901 16.8969C20.5566 16.2421 19.4105 16.2421 18.6769 16.9405ZM8.86597 34.2265C8.04074 34.2265 7.35306 33.5717 7.35306 32.7861C7.35306 32.0003 8.04074 31.3455 8.86597 31.3455C9.69119 31.3455 10.3789 32.0003 10.3789 32.7861C10.3789 33.6154 9.69119 34.2265 8.86597 34.2265Z" stroke="white" stroke-width="2.08084" stroke-linecap="round" stroke-linejoin="round"/>
<path fill-rule="evenodd" clip-rule="evenodd" d="M50.4486 16.958L46.4256 21.0663C45.7696 21.7655 45.7696 22.8581 46.4256 23.5137L60.681 37.7616C61.3806 38.461 62.4738 38.461 63.1734 37.7616L67.2839 33.6533C67.9835 32.9541 67.9835 31.8615 67.2839 31.1622L52.9411 16.9142C52.2414 16.215 51.1045 16.2586 50.4486 16.958ZM62.5175 34.2215C61.7305 34.2215 61.0745 33.5659 61.0745 32.7793C61.0745 31.9925 61.7305 31.337 62.5175 31.337C63.3047 31.337 63.9606 31.9925 63.9606 32.7793C63.9168 33.6097 63.3047 34.2215 62.5175 34.2215Z" stroke="white" stroke-width="2.08084" stroke-linecap="round" stroke-linejoin="round"/>
<path d="M37.1837 6.55615V7.6499" stroke="white" stroke-width="2.08084" stroke-linecap="round" stroke-linejoin="round"/>
<path d="M37.1837 10.9351V17.4976" stroke="white" stroke-width="2.08084" stroke-linecap="round" stroke-linejoin="round"/>
<path d="M45.9336 12.0249L50.3086 6.55615" stroke="white" stroke-width="2.08084" stroke-linecap="round" stroke-linejoin="round"/>
<path d="M43.7482 17.5049V16.4111" stroke="white" stroke-width="2.08084" stroke-linecap="round" stroke-linejoin="round"/>
<path d="M30.6182 17.501L27.337 12.0322" stroke="white" stroke-width="2.08084" stroke-linecap="round" stroke-linejoin="round"/>
</svg>
