<svg width="71" height="70" viewBox="0 0 71 70" fill="none" xmlns="http://www.w3.org/2000/svg">
<path d="M35.0147 26.5664H62.3703" stroke="white" stroke-width="2.2"/>
<path fill-rule="evenodd" clip-rule="evenodd" d="M15.4865 51.8342V38.0139L11.3121 35.3082C8.35394 33.3801 6.58781 30.1366 6.58781 26.5994C6.58781 23.0628 8.3535 19.8196 11.311 17.8914L11.3121 17.8907L28.898 6.45845C30.6435 5.3252 32.9278 4.73197 35.2534 4.73537C37.5792 4.73876 39.8536 5.33869 41.5822 6.48243L59.0275 17.9351C61.9636 19.8665 63.7544 23.1257 63.7544 26.6286C63.7544 26.979 63.7368 27.3267 63.7022 27.6705L63.6967 27.7251V43.7493C63.6967 44.3411 63.1948 44.8431 62.603 44.8431C62.0112 44.8431 61.5092 44.3411 61.5092 43.7493V33.4422L59.7433 34.8178C59.5221 34.9901 59.2924 35.1548 59.0555 35.3106L54.8908 38.0431V51.8565C54.8908 56.022 51.7515 60.3886 47.7913 61.7276L47.7887 61.7285L38.5026 64.8142C37.5764 65.0954 36.3797 65.2585 35.1887 65.2585C33.9905 65.2585 32.7991 65.0931 31.8877 64.7893L22.5824 61.6973C18.6256 60.3871 15.4603 55.9948 15.4865 51.8342ZM17.7003 39.4785L28.864 46.7665L28.8674 46.7687C30.6166 47.8902 32.9104 48.489 35.2149 48.489C37.5609 48.489 39.8482 47.9135 41.5857 46.7725L52.7033 39.4783V51.8565C52.7033 53.4995 52.0244 55.1845 51.034 56.5549C50.0431 57.926 48.6533 59.1028 47.088 59.6304L47.0836 59.6319L37.7726 62.7258C37.0369 62.9649 36.0782 63.0638 35.1887 63.0638C34.2991 63.0638 33.3405 62.9649 32.6048 62.7258L32.5979 62.7236L23.2892 59.6304C21.7237 59.1027 20.3336 57.9257 19.3423 56.5501C18.3512 55.1746 17.674 53.4827 17.674 51.8273V51.825L17.7003 39.4785ZM61.5092 27.5327C61.5092 24.5939 60.7788 21.6498 57.8655 19.7354L40.382 8.26453L40.3697 8.25695C38.9352 7.3689 37.0621 6.92651 35.2149 6.92651C33.4194 6.92651 31.5221 7.33046 30.0876 8.30576L12.5389 19.7329L12.5351 19.7354C10.1935 21.2741 8.80448 23.7719 8.80448 26.5994C8.80448 29.4189 10.1579 31.9226 12.5394 33.4663L12.541 33.4674L30.0976 44.9288C31.5335 45.8629 33.4281 46.287 35.244 46.287C37.06 46.287 38.9546 45.8629 40.3905 44.9288L57.8655 33.4635C59.9074 32.1217 61.2022 30.0515 61.5007 27.6686L61.5092 27.6009V27.5327Z" fill="#F05A3B"/>
<mask id="path-3-inside-1_2414_99736" fill="white">
<rect x="62.5928" y="42.3359" width="8.47423" height="8.47423" rx="1" transform="rotate(45 62.5928 42.3359)"/>
</mask>
<rect x="62.5928" y="42.3359" width="8.47423" height="8.47423" rx="1" transform="rotate(45 62.5928 42.3359)" stroke="white" stroke-width="4.6" mask="url(#path-3-inside-1_2414_99736)"/>
</svg>
