<svg width="70" height="70" viewBox="0 0 70 70" fill="none" xmlns="http://www.w3.org/2000/svg">
<path d="M7.82493 33.7524H26.4684V35.6168H7.82493V33.7524Z" fill="#F05A3B"/>
<path d="M58.3516 60.4104L54.4365 50.9022C54.1568 50.2497 53.5975 49.6904 52.945 49.4108C52.5721 49.2243 52.106 49.2243 51.7332 49.2243L50.1485 45.4024C51.0806 44.7499 51.9196 44.0042 52.7586 43.1652H53.5043C55.089 43.1652 56.3008 41.9534 56.3008 40.3687V12.3097C56.3008 10.725 55.089 9.51318 53.5043 9.51318H6.89558C5.31089 9.51318 4.09906 10.725 4.09906 12.3097V40.2749C4.09906 41.8596 5.31089 43.0714 6.89558 43.0714H31.9716C34.4885 45.9612 38.2172 47.7323 42.3187 47.7323C43.2509 47.7323 44.0899 47.6391 44.9288 47.4527L46.5135 51.2746C46.2339 51.5542 45.9542 51.8339 45.861 52.3C45.5813 52.9525 45.5813 53.7914 45.861 54.444L49.7761 63.9521C50.0558 64.6047 50.6151 65.164 51.2676 65.4436C51.6405 65.6301 52.0133 65.6301 52.3862 65.6301C52.7591 65.6301 53.0387 65.5368 53.4116 65.4436L56.8607 64.0454C58.3521 63.3928 58.9109 61.9019 58.3516 60.4104ZM54.4365 26.7584C54.3433 26.572 54.25 26.3855 54.1568 26.2923H54.4365V26.7584ZM5.96341 12.3102C5.96341 11.7509 6.33628 11.3781 6.89558 11.3781H53.5043C54.0636 11.3781 54.4365 11.7509 54.4365 12.3102V16.9711H5.96341V12.3102ZM5.96341 18.8355H54.4365V24.4285H52.6653C50.1485 21.5388 46.4198 19.7676 42.3182 19.7676C38.2166 19.7676 34.4879 21.5388 31.9711 24.4285H5.96394L5.96341 18.8355ZM6.89558 41.2076C6.33628 41.2076 5.96341 40.8348 5.96341 40.2755V26.2928H30.4791C29.7333 27.4115 29.174 28.7165 28.8011 30.0215H7.82669V31.592H28.4283C28.3351 32.2445 28.3351 33.0977 28.3351 33.7502C28.3351 36.4535 29.174 39.0636 30.4791 41.2076H6.89558ZM42.3182 45.8685C35.6066 45.8685 30.1999 40.4619 30.1999 33.7502C30.1999 27.0386 35.6066 21.632 42.3182 21.632C49.0299 21.632 54.4365 27.0386 54.4365 33.7502C54.4365 40.4619 49.0299 45.8685 42.3182 45.8685ZM47.6316 46.7075C47.7248 46.7075 47.7248 46.6142 47.818 46.6142L48.4706 46.3346L49.8688 49.7836L48.0977 50.5294L46.6994 47.0803L47.6316 46.7075ZM56.1144 62.368L52.6653 63.7662C52.4789 63.8595 52.1992 63.8595 51.9196 63.7662C51.6399 63.673 51.5467 63.4866 51.4535 63.3002L47.5384 53.792C47.4452 53.6055 47.4452 53.3259 47.5384 53.0462C47.6316 52.8598 47.7248 52.7666 47.9112 52.6734L51.5467 51.1819C51.6399 51.1819 51.7332 51.0887 51.8264 51.0887C51.9196 51.0887 52.106 51.0887 52.1993 51.1819C52.4789 51.2751 52.5721 51.4615 52.6653 51.648L56.5805 61.1562C56.8601 61.6222 56.6737 62.0883 56.1144 62.368Z" fill="#F05A3B"/>
<path fill-rule="evenodd" clip-rule="evenodd" d="M67.6527 6.64817L7.51211 67.1955L6.20673 65.8989L66.3473 5.35156L67.6527 6.64817Z" fill="white"/>
</svg>
