<svg width="70" height="70" viewBox="0 0 70 70" fill="none" xmlns="http://www.w3.org/2000/svg">
<path fill-rule="evenodd" clip-rule="evenodd" d="M34.386 54.3966V47.8409L33.375 47.763C25.4092 47.1495 18.6298 42.1699 15.4448 35.2165L15.2654 34.8248L14.8672 34.6603C13.0615 33.9145 11.3626 32.7698 9.9025 31.3146C6.7113 27.7823 5.18094 23.9838 5.18094 20.0083C5.18094 15.2979 8.86689 11.612 13.5773 11.612H14.938L15.2556 11.0718C17.4792 7.28864 21.5891 4.75 26.2799 4.75H43.8027C48.4493 4.75 52.5259 7.24103 54.7638 10.9654L55.0829 11.4965H56.5095C61.1023 11.4965 64.9059 15.3564 64.9059 20.1849C64.9059 24.3571 63.1856 28.4872 60.2083 31.4672L60.2057 31.4696C60.1994 31.4754 60.1902 31.4836 60.1778 31.4946C60.1525 31.517 60.1229 31.5426 60.0912 31.57L60.0867 31.5739L60.0837 31.5765C60.0658 31.5919 60.0296 31.6231 59.9943 31.6551C58.5253 32.8749 57.02 34.0986 55.14 34.8462L54.7374 35.0063L54.5533 35.3985C51.4484 42.013 45.0771 46.8046 37.5448 47.6821L36.5764 47.7949V54.3966H44.2419C48.0762 54.3966 51.1781 57.4985 51.1781 61.3327V63.158H53.0041C53.5966 63.158 54.0992 63.6607 54.0992 64.2532C54.0992 64.8458 53.5966 65.3484 53.0041 65.3484H17.9584C17.3658 65.3484 16.8632 64.8458 16.8632 64.2532C16.8632 63.6607 17.3658 63.158 17.9584 63.158H19.7829V61.3327C19.7829 57.4985 22.8848 54.3966 26.7191 54.3966H34.386ZM52.6252 34.367L52.6997 34.2051L52.7191 34.0278C52.7304 33.9238 52.758 33.8228 52.8019 33.7276L52.8068 33.717L52.8115 33.7063C53.8198 31.393 54.345 28.939 54.3892 26.3791L54.3893 26.3645L54.3894 26.2885V17.5271C54.3894 11.6946 49.6352 6.94035 43.8027 6.94035H26.2799C20.5103 6.94035 15.7963 11.5922 15.6948 17.3382L15.6946 17.3479V25.8493C15.6946 28.5082 16.099 31.1005 17.1832 33.5787C17.2956 33.8317 17.3196 33.9515 17.3962 34.2363L17.4969 34.4523C20.5759 41.0538 27.2751 45.6366 35.0413 45.6366C42.8409 45.6366 49.5642 41.0144 52.6252 34.367ZM56.3626 29.3488L55.96 32.1614L58.1462 30.3467C58.2173 30.2877 58.2843 30.2328 58.3542 30.1756L58.3578 30.1727C58.4375 30.1074 58.5212 30.039 58.6128 29.9626L58.6508 29.9309L58.6857 29.8959C61.2255 27.3561 62.7155 23.8074 62.7155 20.1849C62.7155 17.0741 60.603 14.3715 57.6855 13.7952L56.1026 13.4825L56.3964 15.069C56.5277 15.7783 56.5825 16.5274 56.5825 17.2644V26.0258C56.5825 26.1496 56.5815 26.2726 56.5795 26.3949L56.5794 26.4065C56.5741 27.405 56.5002 28.3872 56.3626 29.3488ZM13.5042 17.3376L13.5043 17.3296V17.0879C13.5043 16.4466 13.5578 15.7935 13.6419 15.121L13.8298 13.617L12.3429 13.9107C9.46478 14.4792 7.37129 16.9731 7.37129 20.0083C7.37129 23.5016 8.7844 26.8135 11.4614 29.7758C11.6257 29.9744 11.8034 30.1237 11.9267 30.224L14.0799 31.9751L13.7027 29.2254C13.5709 28.2653 13.5028 27.2849 13.5028 26.2885V17.5271C13.5028 17.4638 13.5033 17.4006 13.5042 17.3376ZM21.9733 63.158H48.9877V61.3327C48.9877 58.7128 46.8619 56.587 44.2419 56.587H26.7191C24.0991 56.587 21.9733 58.7128 21.9733 61.3327V63.158Z" fill="#F05A3B"/>
<path d="M39.4615 20.695C39.4615 20.9555 39.6735 21.1667 39.935 21.1667C40.1965 21.1667 40.4085 20.9555 40.4085 20.695C40.4064 19.2766 39.8701 17.9103 38.9057 16.8667C37.9412 15.8231 36.6189 15.1779 35.1999 15.0585V13.6196C35.1999 13.3592 34.9879 13.1479 34.7264 13.1479C34.4649 13.1479 34.2529 13.3592 34.2529 13.6196V15.0585C32.3426 15.2164 30.6412 16.3239 29.7288 18.0032C28.8165 19.6827 28.8165 21.7072 29.7288 23.3867C30.6411 25.0661 32.3426 26.1735 34.2529 26.3314V35.7421C33.0882 35.6275 32.0076 35.0865 31.2204 34.224C30.4329 33.3613 29.9951 32.2383 29.9914 31.0723C29.9914 30.8118 29.7793 30.6006 29.5178 30.6006C29.2564 30.6006 29.0443 30.8118 29.0443 31.0723C29.0465 32.4907 29.5827 33.857 30.5471 34.9006C31.5117 35.9442 32.8339 36.5894 34.2529 36.7088V38.1477C34.2529 38.4082 34.4649 38.6194 34.7264 38.6194C34.9879 38.6194 35.1999 38.4082 35.1999 38.1477V36.7088C37.1103 36.5509 38.8117 35.4435 39.7241 33.7641C40.6364 32.0846 40.6364 30.0601 39.7241 28.3806C38.8117 26.7012 37.1103 25.5938 35.1999 25.4359V16.0258C36.3647 16.1404 37.4451 16.6813 38.2325 17.5438C39.0197 18.4063 39.4577 19.5293 39.4615 20.6951V20.695ZM29.9914 20.695C29.9952 19.5292 30.4332 18.4062 31.2204 17.5437C32.0078 16.6812 33.0882 16.1402 34.2529 16.0257V25.3646C33.0882 25.2501 32.0076 24.7091 31.2204 23.8466C30.4329 22.9838 29.9951 21.8608 29.9914 20.6949V20.695ZM39.4615 31.0722C39.4577 32.2381 39.0199 33.3611 38.2325 34.2239C37.4453 35.0864 36.3647 35.6273 35.1999 35.7419V26.4035C36.3645 26.5181 37.4451 27.0588 38.2323 27.9213C39.0195 28.7839 39.4575 29.9066 39.4615 31.0724V31.0722Z" fill="white" stroke="white" stroke-width="0.876142"/>
</svg>
