<svg width="70" height="70" viewBox="0 0 70 70" fill="none" xmlns="http://www.w3.org/2000/svg">
<path fill-rule="evenodd" clip-rule="evenodd" d="M25.8912 33.4563C22.8786 33.4563 20.4225 31.0002 20.4225 27.9875C20.4225 24.9749 22.8786 22.5188 25.8912 22.5188C28.9039 22.5188 31.36 24.9749 31.36 27.9875C31.36 31.0002 28.9039 33.4563 25.8912 33.4563ZM25.8912 24.7063C24.0914 24.7063 22.61 26.1877 22.61 27.9875C22.61 29.7874 24.0914 31.2688 25.8912 31.2688C27.6911 31.2688 29.1725 29.7874 29.1725 27.9875C29.1725 26.1877 27.6911 24.7063 25.8912 24.7063Z" fill="#F05A3B"/>
<path fill-rule="evenodd" clip-rule="evenodd" d="M8.23852 60.8451L8.1476 60.8297H5.47481C4.88304 60.8297 4.38106 60.3277 4.38106 59.736C4.38106 59.1442 4.88304 58.6422 5.47481 58.6422H7.32599L7.31116 40.5645L7.30422 40.5033C7.29979 40.4643 7.2975 40.4246 7.2975 40.3841C7.2975 40.3441 7.29974 40.3048 7.30406 40.2663L7.31092 40.2051L7.2975 24.5464C7.29761 22.2596 8.45527 20.0912 10.3704 18.8055L10.3715 18.8049L22.0354 11.0192C24.3825 9.45449 27.4015 9.45818 29.7133 11.0162L41.384 18.8064L41.3873 18.8085C43.3234 20.0909 44.4558 22.2264 44.4558 24.5475L44.4692 40.1906L44.4772 40.2562C44.4823 40.298 44.485 40.3406 44.485 40.3841C44.485 40.4271 44.4824 40.4693 44.4774 40.5106L44.4695 40.5762L44.4843 58.6422H56.8239L56.8239 48.7236L56.0351 48.4946C53.1511 47.6571 51.0475 44.9967 51.0475 41.8417V36.0084C51.0475 32.1791 54.1453 29.0813 57.9746 29.0813C61.8039 29.0813 64.9017 32.1791 64.9017 36.0084V41.8417C64.9017 45.0325 62.75 47.7174 59.8157 48.5223L59.0114 48.743L59.0114 58.6422H63.8081C64.3999 58.6422 64.9019 59.1442 64.9019 59.736C64.9019 60.3277 64.3999 60.8297 63.8081 60.8297H58.192L58.103 60.8445C58.0438 60.8543 57.982 60.8596 57.9177 60.8596C57.8577 60.8596 57.7992 60.8545 57.7423 60.8449L57.652 60.8297H26.8583L8.42049 60.8605H8.41916C8.35796 60.8604 8.2976 60.8552 8.23852 60.8451ZM40.2008 20.6288C41.509 21.4788 42.2972 22.9653 42.2975 24.5467L42.311 38.925H9.49848L9.485 24.5467C9.485 22.9561 10.2804 21.4757 11.608 20.6017L11.6114 20.5994L23.272 12.8158C24.0663 12.2863 24.9778 12.0197 25.8912 12.0197C26.7919 12.0197 27.7419 12.2796 28.5536 12.8542L40.2008 20.6288ZM42.3275 58.6125L42.3125 41.1125H9.50003L9.51499 58.6422H24.7975L24.7975 48.4035C24.7975 47.8117 25.2995 47.3098 25.8912 47.3098C26.483 47.3098 26.985 47.8117 26.985 48.4035L26.985 58.6418L42.3275 58.6125ZM57.9746 31.2688C55.358 31.2688 53.235 33.3918 53.235 36.0084V41.8417C53.235 44.4583 55.358 46.5813 57.9746 46.5813C60.5911 46.5813 62.7142 44.4583 62.7142 41.8417V36.0084C62.7142 33.3918 60.5911 31.2688 57.9746 31.2688Z" fill="#F05A3B"/>
<path fill-rule="evenodd" clip-rule="evenodd" d="M25.8913 33.4561C22.8786 33.4561 20.4225 30.9999 20.4225 27.9873C20.4225 24.9747 22.8786 22.5186 25.8913 22.5186C28.9039 22.5186 31.36 24.9747 31.36 27.9873C31.36 30.9999 28.9039 33.4561 25.8913 33.4561ZM25.8913 24.7061C24.0914 24.7061 22.61 26.1874 22.61 27.9873C22.61 29.7872 24.0914 31.2686 25.8913 31.2686C27.6911 31.2686 29.1725 29.7872 29.1725 27.9873C29.1725 26.1874 27.6911 24.7061 25.8913 24.7061Z" fill="white"/>
<path fill-rule="evenodd" clip-rule="evenodd" d="M56.0367 48.4943L56.8254 48.7234L59.0129 48.7427L59.8173 48.5221C62.7515 47.7171 64.9032 45.0323 64.9032 41.8415V36.0081C64.9032 32.1789 61.8054 29.0811 57.9761 29.0811C54.1468 29.0811 51.049 32.1789 51.049 36.0081V41.8415C51.049 44.9965 53.1526 47.6568 56.0367 48.4943ZM57.9761 31.2686C55.3596 31.2686 53.2365 33.3916 53.2365 36.0081V41.8415C53.2365 44.458 55.3596 46.5811 57.9761 46.5811C60.5927 46.5811 62.7157 44.458 62.7157 41.8415V36.0081C62.7157 33.3916 60.5927 31.2686 57.9761 31.2686Z" fill="white"/>
</svg>
