<svg width="56" height="56" viewBox="0 0 56 56" fill="none" xmlns="http://www.w3.org/2000/svg">
<path d="M38.9573 43.3541C35.8561 43.3541 32.8246 42.4345 30.246 40.7116C27.6674 38.9887 25.6577 36.5398 24.4709 33.6746C23.2841 30.8095 22.9736 27.6568 23.5786 24.6151C24.1837 21.5735 25.677 18.7796 27.8699 16.5867C30.0628 14.3938 32.8567 12.9005 35.8983 12.2954C38.94 11.6904 42.0927 12.0009 44.9578 13.1877C47.823 14.3745 50.2719 16.3842 51.9948 18.9628C53.7177 21.5414 54.6374 24.5729 54.6374 27.6741C54.6325 31.8313 52.979 35.8167 50.0394 38.7562C47.0999 41.6958 43.1145 43.3493 38.9573 43.3541ZM38.9573 14.1911C36.2906 14.1911 33.6838 14.9818 31.4665 16.4634C29.2493 17.9449 27.5211 20.0507 26.5006 22.5144C25.4801 24.9781 25.2131 27.6891 25.7333 30.3046C26.2536 32.92 27.5377 35.3225 29.4234 37.2081C31.309 39.0938 33.7115 40.3779 36.3269 40.8982C38.9424 41.4184 41.6534 41.1514 44.1171 40.1309C46.5808 39.1104 48.6866 37.3822 50.1681 35.165C51.6497 32.9477 52.4404 30.3409 52.4404 27.6741C52.4364 24.0994 51.0146 20.6723 48.4869 18.1446C45.9592 15.6169 42.5321 14.1951 38.9573 14.1911Z" fill="#CAB2FF" stroke="#CAB2FF" stroke-width="1.5"/>
<circle cx="18.235" cy="27.86" r="15.36" fill="black" stroke="#773CF7" stroke-width="4"/>
</svg>
