<svg width="56" height="56" viewBox="0 0 56 56" fill="none" xmlns="http://www.w3.org/2000/svg">
<path d="M22.6914 15.0381C23.2184 14.9641 23.7552 14.9981 24.2676 15.1367C24.7799 15.2753 25.2554 15.5153 25.6641 15.8398C26.0723 16.1641 26.4049 16.5654 26.6436 17.0166C26.8823 17.468 27.0225 17.9613 27.0566 18.4648C27.0908 18.9684 27.0187 19.4744 26.8438 19.9512C26.6687 20.4279 26.3936 20.8674 26.0342 21.2402L25.9307 21.3477L25.8438 21.4697C25.8777 21.4218 25.7144 21.6239 25.2529 22.1846C24.8417 22.6842 24.2628 23.3873 23.5703 24.2256C22.1854 25.902 20.3515 28.119 18.5166 30.335C16.6817 32.5509 14.8457 34.7653 13.457 36.4385C12.7626 37.2752 12.1808 37.9763 11.7666 38.4736C11.3047 39.0283 11.1318 39.2313 11.1689 39.1924L11.0674 39.2988L10.9824 39.4189C10.6861 39.8387 10.3024 40.1967 9.85352 40.4688C9.40454 40.7408 8.90083 40.9211 8.37402 40.9951C7.84718 41.069 7.31008 41.035 6.79785 40.8965C6.28557 40.7579 5.80999 40.5178 5.40137 40.1934C4.99284 39.8689 4.65966 39.4671 4.4209 39.0156C4.18235 38.5644 4.04201 38.0718 4.00781 37.5684C3.97363 37.0648 4.04669 36.5588 4.22168 36.082C4.39671 35.6053 4.67085 35.1658 5.03027 34.793L5.13477 34.6855L5.22168 34.5625C5.18723 34.611 5.35056 34.4092 5.8125 33.8477C6.22375 33.3477 6.80266 32.6443 7.49512 31.8057C8.87996 30.1285 10.714 27.9109 12.5488 25.6943C14.3836 23.478 16.219 21.2633 17.6074 19.5908C18.3018 18.7544 18.884 18.0538 19.2979 17.5576C19.5049 17.3094 19.6691 17.1142 19.7832 16.9785C19.8671 16.8788 19.9037 16.8355 19.9111 16.8262L19.9834 16.7549L20.082 16.6143C20.3785 16.1944 20.7629 15.8356 21.2119 15.5635C21.6609 15.2915 22.1646 15.112 22.6914 15.0381Z" fill="black" stroke="#CAB2FF" stroke-width="4"/>
<path d="M47.6826 14.9443C48.2095 14.8704 48.7465 14.9044 49.2588 15.043C49.7709 15.1816 50.2458 15.4217 50.6543 15.7461C51.0627 16.0704 51.396 16.4715 51.6348 16.9229C51.8735 17.3742 52.0137 17.8675 52.0479 18.3711C52.082 18.8746 52.0099 19.3807 51.835 19.8574C51.6599 20.3342 51.3848 20.7736 51.0254 21.1465L50.9209 21.2539L50.835 21.376C50.8684 21.3288 50.7049 21.5311 50.2441 22.0908C49.8329 22.5905 49.2531 23.2935 48.5605 24.1318C47.1757 25.8083 45.3417 28.0253 43.5068 30.2412C41.6721 32.457 39.8368 34.6717 38.4482 36.3447C37.7538 37.1814 37.171 37.8826 36.7568 38.3799C36.2946 38.9349 36.1225 39.1381 36.1602 39.0986L36.0498 39.2139L35.959 39.3457C35.6657 39.7725 35.283 40.1386 34.833 40.417C34.3831 40.6953 33.8764 40.8794 33.3457 40.957C32.8148 41.0346 32.2728 41.0037 31.7559 40.8652C31.2389 40.7267 30.7594 40.4848 30.3477 40.1572C29.9361 39.8298 29.602 39.4239 29.3633 38.9678C29.1246 38.5117 28.9865 38.0139 28.9561 37.5059C28.9256 36.9979 29.0027 36.4886 29.1846 36.0098C29.3665 35.5308 29.6494 35.0907 30.0176 34.7197L30.1699 34.5674L30.2383 34.459C30.2633 34.4277 30.2973 34.3865 30.3398 34.334C30.4507 34.1973 30.6117 34.0008 30.8164 33.751C31.2253 33.252 31.803 32.5494 32.4941 31.7109C33.8762 30.0342 35.7083 27.817 37.542 25.6006C39.3755 23.3844 41.2105 21.1695 42.5986 19.4971C43.2929 18.6607 43.8753 17.9601 44.2891 17.4639C44.4959 17.2159 44.6594 17.0205 44.7734 16.8848C44.8579 16.7844 44.8952 16.7414 44.9023 16.7324L44.9736 16.6611L45.0732 16.5205C45.3697 16.1007 45.7532 15.7418 46.2021 15.4697C46.6512 15.1976 47.1557 15.0183 47.6826 14.9443Z" fill="black" stroke="#CAB2FF" stroke-width="4"/>
<path d="M22.9932 15.0059C23.5247 14.9763 24.0563 15.0547 24.5537 15.2354C25.0511 15.416 25.5021 15.6952 25.8799 16.0518C26.2576 16.4082 26.5538 16.8347 26.752 17.3037L26.8135 17.4492L26.8975 17.583C26.8612 17.5249 26.9561 17.7006 27.2529 18.2715C27.5104 18.7667 27.8711 19.4629 28.3008 20.2939C29.1599 21.9558 30.2927 24.1531 31.4248 26.3516C32.5569 28.5501 33.688 30.7492 34.542 32.415C34.9691 33.2481 35.3266 33.9464 35.5801 34.4443C35.707 34.6937 35.8069 34.8909 35.876 35.0283C35.9164 35.1087 35.9381 35.1525 35.9473 35.1709L35.9873 35.2725L36.0781 35.4189C36.3462 35.8549 36.5185 36.3385 36.5859 36.8389C36.6533 37.3392 36.6142 37.848 36.4717 38.334C36.3292 38.82 36.0853 39.2749 35.7529 39.6689C35.4203 40.0632 35.0057 40.3891 34.5342 40.623C34.0626 40.857 33.5447 40.9935 33.0137 41.0234C32.4828 41.0533 31.9521 40.9758 31.4551 40.7959C30.958 40.616 30.5069 40.338 30.1289 39.9824C29.751 39.6269 29.4538 39.2015 29.2549 38.7334L29.2002 38.6035L29.1279 38.4834L28.9883 38.2344C28.9448 38.1499 28.9048 38.0636 28.8672 37.9766L28.8057 37.8359L28.7568 37.7578C28.7531 37.7502 28.7309 37.7089 28.6797 37.6113C28.6109 37.4804 28.5124 37.2929 28.3887 37.0547C28.1415 36.579 27.7956 35.9108 27.3838 35.1133C26.5604 33.5188 25.4756 31.412 24.3916 29.3047C23.3076 27.1974 22.2243 25.0904 21.4062 23.4951C20.5692 21.8628 20.0684 20.8783 20.0576 20.8584L20.002 20.7324L19.9297 20.6152L19.833 20.4502C19.6186 20.0585 19.4794 19.6327 19.4199 19.1943C19.352 18.6937 19.3899 18.1847 19.5322 17.6982C19.6746 17.2116 19.9183 16.7559 20.251 16.3613C20.5839 15.9666 20.9996 15.6403 21.4717 15.4062C21.9437 15.1723 22.4618 15.0354 22.9932 15.0059Z" fill="black" stroke="#773CF7" stroke-width="4"/>
</svg>
