<svg width="56" height="56" viewBox="0 0 56 56" fill="none" xmlns="http://www.w3.org/2000/svg">
<g clip-path="url(#clip0_4403_76255)">
<path d="M51.7345 28.9098L37.9164 42.605C37.1319 43.3826 35.8599 43.3826 35.0754 42.605L21.2572 28.9098C20.4727 28.1323 20.4727 26.8716 21.2572 26.0941L35.0754 12.3989C35.8599 11.6213 37.1319 11.6213 37.9164 12.3989L51.7345 26.0941C52.5191 26.8716 52.5191 28.1323 51.7345 28.9098Z" stroke="#CAB2FF" stroke-width="4" stroke-linejoin="round"/>
<path d="M34.7424 28.9098L20.9221 42.6071C20.1376 43.3845 18.8656 43.3846 18.0811 42.6071L4.26085 28.9098C3.47651 28.1323 3.47651 26.8716 4.26085 26.0941L18.0811 12.3968C18.8656 11.6193 20.1376 11.6194 20.9221 12.3968L34.7424 26.0941C35.5269 26.8716 35.5269 28.1323 34.7424 28.9098Z" fill="black" stroke="#773CF7" stroke-width="4" stroke-linejoin="round"/>
</g>
<defs>
<clipPath id="clip0_4403_76255">
<rect width="56" height="37" fill="white" transform="translate(0 9)"/>
</clipPath>
</defs>
</svg>
