<svg width="56" height="56" viewBox="0 0 56 56" fill="none" xmlns="http://www.w3.org/2000/svg">
<path d="M28.4707 8.48047C29.1483 8.87126 30.0975 9.40297 31.1846 9.96875C33.312 11.076 36.1388 12.4037 38.5166 12.9766C40.8359 13.5352 43.7368 13.593 45.916 13.5371C46.8575 13.5132 47.5536 14.2501 47.5537 15.0117V21.1338C47.5537 33.422 39.8942 44.3786 28.415 48.626C16.9363 44.3784 9.27734 33.4217 9.27734 21.1338V15.0117C9.27741 14.2501 9.97349 13.5132 10.915 13.5371C13.0942 13.593 15.9951 13.5352 18.3145 12.9766C20.6923 12.4037 23.519 11.076 25.6465 9.96875C26.7336 9.40296 27.6828 8.87126 28.3604 8.48047C28.379 8.46974 28.3968 8.45779 28.415 8.44727C28.4335 8.45792 28.4519 8.4696 28.4707 8.48047Z" stroke="#CAB2FF" stroke-width="4"/>
<path d="M28.4141 18.8223C28.757 19.0412 29.1604 19.2938 29.6025 19.5527C30.8718 20.296 32.682 21.249 34.2822 21.5977C35.8361 21.9362 37.6861 21.7883 39.001 21.6113V23.3594C39.001 30.1132 34.7381 36.1041 28.4141 38.3438C22.0906 36.1038 17.8281 30.1128 17.8281 23.3594V21.6113C19.143 21.7883 20.993 21.9361 22.5469 21.5977C24.147 21.2491 25.9573 20.296 27.2266 19.5527C27.6684 19.294 28.0713 19.0411 28.4141 18.8223Z" stroke="#773CF7" stroke-width="4"/>
</svg>
