<svg width="290" height="361" viewBox="0 0 290 361" fill="none" xmlns="http://www.w3.org/2000/svg">
<path fill-rule="evenodd" clip-rule="evenodd" d="M25.7979 32.8293H25.8168H29.1064H31.7353V30.2003V29.5309V26.902H32.339C35.2362 26.902 37.5851 24.5533 37.5851 21.6561C37.5851 18.7589 35.2365 16.4102 32.3393 16.4102L31.7353 16.4102V13.7909V13.7812L31.7353 11.1619L29.1064 11.1619L28.4275 11.1619L25.7983 11.1619C25.799 11.1133 25.799 11.0648 25.7983 11.0165C25.7982 11.0071 25.798 10.9977 25.7979 10.9883V13.7909H25.7983L29.1064 13.7909L29.1064 16.4102V19.0392H31.7353H32.3393C33.7845 19.0392 34.9562 20.2108 34.9562 21.6561C34.9562 23.1012 33.7845 24.273 32.339 24.273H31.7353H29.1064L29.1064 26.902V30.2003H25.7979V32.8293Z" fill="#177EE5"/>
<path fill-rule="evenodd" clip-rule="evenodd" d="M25.7982 11.155H25.7938C25.7945 11.1064 25.7945 11.0579 25.7938 11.0096C25.7543 8.19248 23.4215 5.91211 20.5862 5.91211C17.6906 5.91211 15.3057 8.25943 15.3057 11.155L12.6767 11.155L11.9913 11.155H9.3623V13.784V16.411V16.4265H13.1072C12.9736 16.4162 12.8386 16.411 12.7023 16.411H11.9913L11.9913 13.784H15.3057L17.9347 13.784V11.155C17.9347 9.73577 19.1181 8.5411 20.5862 8.5411C22.0287 8.5411 23.1846 9.72564 23.1651 11.1182L23.1278 13.784H25.7938H25.7982V11.155Z" fill="#73E6D2"/>
<path fill-rule="evenodd" clip-rule="evenodd" d="M25.7964 32.8204V30.1914H25.7957C25.5537 27.5092 23.2993 25.4074 20.5541 25.4074C17.8089 25.4074 15.5546 27.5092 15.3126 30.1914H11.9962V26.8737H12.7072C15.597 26.8737 17.9396 24.5311 17.9396 21.6414C17.9396 18.7517 15.597 16.4091 12.7072 16.4091L11.9962 16.4091V15.7715H9.36719V16.4091V19.038H11.9962H12.7072C14.145 19.038 15.3106 20.2036 15.3106 21.6414C15.3106 23.0792 14.145 24.2447 12.7072 24.2447H11.9962H9.36719V26.8737V30.1914V32.8204H11.9962H15.2911L17.9201 32.8204V30.6704C17.9201 29.2157 19.0994 28.0364 20.5541 28.0364C22.0089 28.0364 23.1882 29.2157 23.1882 30.6704V32.8204H25.7964Z" fill="#73E6D2"/>
<path d="M114.435 9.85945L111.806 12.4884L106.548 12.4884L106.548 9.85944L101.29 9.85945L101.29 12.4884L96.0316 12.4884L93.4026 9.85944L98.6606 9.85945L98.6606 7.23047L109.177 7.23047L109.177 9.85944L114.435 9.85945Z" fill="#177EE5"/>
<path d="M93.4023 9.85938L96.0313 12.4884V32.2058L93.4023 34.8348V9.85938Z" fill="#73E6D2"/>
<path d="M93.4023 34.8359L96.0313 32.2069L111.805 32.2069L114.434 34.8359L93.4023 34.8359Z" fill="#177EE5"/>
<path d="M98.6611 19.7207H109.177" stroke="#177EE5" stroke-width="2.62899"/>
<path d="M98.6611 24.9746L109.177 24.9746" stroke="#73E6D2" stroke-width="2.62899"/>
<path d="M114.435 34.8359L111.806 32.2069L111.806 14.4612L114.435 14.4612L114.435 34.8359Z" fill="#73E6D2"/>
<path d="M114.435 14.4609L111.806 14.4609L111.806 12.4892L114.435 9.8602L114.435 14.4609Z" fill="#73E6D2"/>
<path d="M185.984 7.88086C184.258 7.88086 182.548 8.22086 180.953 8.88146C179.359 9.54206 177.91 10.5103 176.689 11.7309C175.468 12.9516 174.5 14.4006 173.839 15.9955C173.179 17.5903 172.839 19.2996 172.839 21.0258L175.468 21.0258C175.468 19.6448 175.74 18.2774 176.268 17.0015C176.797 15.7257 177.571 14.5664 178.548 13.5899C179.524 12.6134 180.684 11.8388 181.96 11.3103C183.235 10.7819 184.603 10.5099 185.984 10.5099L185.984 7.88086Z" fill="#177EE5"/>
<path d="M172.839 21.0258C172.839 24.3608 174.106 27.5711 176.385 30.0064L178.305 28.2103C176.482 26.262 175.468 23.6938 175.468 21.0258L172.839 21.0258Z" fill="#73E6D2"/>
<path d="M199.004 19.2201C198.729 17.2393 198.006 15.3473 196.89 13.6881C195.774 12.029 194.294 10.6463 192.563 9.64553L191.247 11.9216C192.632 12.7222 193.816 13.8283 194.709 15.1557C195.602 16.483 196.18 17.9966 196.4 19.5812L199.004 19.2201Z" fill="#177EE5"/>
<path d="M176.363 29.9828C177.834 31.5628 179.671 32.7561 181.713 33.4576C183.754 34.159 185.937 34.3468 188.069 34.0044C190.2 33.6621 192.214 32.8001 193.933 31.4946C195.653 30.1891 197.024 28.4803 197.926 26.5192L195.537 25.4205C194.816 26.9894 193.719 28.3565 192.343 29.4008C190.968 30.4452 189.357 31.1348 187.652 31.4087C185.947 31.6826 184.2 31.5323 182.567 30.9712C180.934 30.4101 179.464 29.4554 178.287 28.1914L176.363 29.9828Z" fill="#73E6D2"/>
<rect x="182.04" y="21.6855" width="2.62899" height="3.28624" fill="#177EE5"/>
<rect x="184.667" y="19.7129" width="2.62899" height="5.25799" fill="#73E6D2"/>
<rect x="187.296" y="16.5039" width="2.62899" height="8.47134" fill="#177EE5"/>
<path fill-rule="evenodd" clip-rule="evenodd" d="M268.046 33.027L277.905 27.9308V19.7168H275.276V26.3303L268.046 30.0675V33.027Z" fill="#73E6D2"/>
<path fill-rule="evenodd" clip-rule="evenodd" d="M268.046 33.027L258.187 27.9308V19.7168H260.816V26.3303L268.046 30.0675V33.027Z" fill="#73E6D2"/>
<path fill-rule="evenodd" clip-rule="evenodd" d="M268.046 12.1405L277.941 17.0882H283.82L268.046 9.20117V12.1405Z" fill="#177EE5"/>
<path fill-rule="evenodd" clip-rule="evenodd" d="M268.046 22.0353L277.941 17.0876H283.82L268.046 24.9746V22.0353Z" fill="#177EE5"/>
<path fill-rule="evenodd" clip-rule="evenodd" d="M268.046 12.1405L258.151 17.0882H252.272L268.046 9.20117V12.1405Z" fill="#177EE5"/>
<path fill-rule="evenodd" clip-rule="evenodd" d="M268.046 22.0353L258.151 17.0876H252.272L268.046 24.9746V22.0353Z" fill="#177EE5"/>
<path d="M36.7256 127.098L33.0076 127.098L21.8538 115.944L21.8538 112.226L36.7256 127.098Z" fill="#177EE5"/>
<path d="M21.8535 112.225V115.943L10.6996 127.096H6.98168L21.8535 112.225Z" fill="#177EE5"/>
<path d="M6.9834 127.098L10.7014 127.098L21.8552 138.252L21.8552 141.969L6.9834 127.098Z" fill="#73E6D2"/>
<path d="M21.8535 141.969L21.8535 138.251L33.0074 127.097L36.7253 127.097L21.8535 141.969Z" fill="#73E6D2"/>
<rect x="20.54" y="121.838" width="2.62899" height="5.25927" fill="#73E6D2"/>
<rect x="20.54" y="129.066" width="2.62899" height="2.62899" fill="#177EE5"/>
<path d="M114.435 116.576L111.806 119.205L96.0316 119.205L93.4026 116.576L114.435 116.576Z" fill="#177EE5"/>
<path d="M114.435 128.406L111.806 131.035L96.0316 131.035L93.4026 128.406L114.435 128.406Z" fill="#177EE5"/>
<path d="M93.4023 116.576L96.0313 119.205V123.149L93.4023 125.778V116.576Z" fill="#177EE5"/>
<path d="M93.4023 128.406L96.0313 131.035V134.979L93.4023 137.608V128.406Z" fill="#177EE5"/>
<path d="M93.4023 125.777L96.0313 123.148L111.805 123.148L114.434 125.777L93.4023 125.777Z" fill="#73E6D2"/>
<path d="M93.4023 137.611L96.0313 134.982L111.805 134.982L114.434 137.611L93.4023 137.611Z" fill="#73E6D2"/>
<path d="M114.435 125.777L111.806 123.148L111.806 119.205L114.435 116.576L114.435 125.777Z" fill="#73E6D2"/>
<path d="M114.435 137.611L111.806 134.982L111.806 131.039L114.435 128.41L114.435 137.611Z" fill="#73E6D2"/>
<rect x="97.3496" y="119.859" width="2.62899" height="2.62899" fill="#177EE5"/>
<rect x="97.3496" y="131.691" width="2.62899" height="2.62899" fill="#177EE5"/>
<rect x="193.37" y="121.996" width="2.62899" height="13.3931" transform="rotate(45 193.37 121.996)" fill="#177EE5"/>
<rect x="181.146" y="128.713" width="2.62899" height="6.5206" transform="rotate(-45 181.146 128.713)" fill="#73E6D2"/>
<path d="M196.498 115.258L193.869 117.887L178.095 117.887L175.466 115.258L196.498 115.258Z" fill="#73E6D2"/>
<path d="M175.466 115.258L178.095 117.887V137.604L175.466 140.233V115.258Z" fill="#177EE5"/>
<path d="M175.466 140.232L178.095 137.603L193.869 137.603L196.498 140.232L175.466 140.232Z" fill="#73E6D2"/>
<path d="M196.498 140.232L193.869 137.603L193.869 128.402L196.498 128.402L196.498 140.232Z" fill="#177EE5"/>
<path d="M196.498 119.859L193.869 119.859L193.869 117.888L196.498 115.259L196.498 119.859Z" fill="#177EE5"/>
<path d="M255.478 136.293L258.978 129.721H275.846L279.847 136.293H255.478Z" stroke="#177EE5" stroke-width="2.62899"/>
<path d="M259.505 117.891V127.092H275.279V117.891H259.505Z" stroke="#73E6D2" stroke-width="2.62899"/>
<path d="M21.9135 244.985C24.9155 244.985 27.8053 243.844 29.9972 241.793L28.2084 239.881C26.5015 241.479 24.2512 242.367 21.9135 242.367L21.9135 244.985Z" fill="#177EE5"/>
<path d="M33.6602 233.847C33.7564 232.206 33.5094 230.562 32.935 229.022C32.3606 227.481 31.4713 226.077 30.3239 224.899C29.1765 223.721 27.7962 222.796 26.2711 222.181C24.746 221.567 23.1095 221.277 21.4662 221.33C19.8228 221.384 18.2085 221.779 16.7265 222.491C15.2444 223.203 13.9271 224.217 12.8585 225.466C11.7899 226.716 10.9936 228.175 10.5203 229.749C10.047 231.324 9.90709 232.98 10.1096 234.612L12.7153 234.288C12.5577 233.019 12.6666 231.73 13.0348 230.505C13.4031 229.28 14.0227 228.145 14.8541 227.173C15.6855 226.2 16.7105 225.412 17.8636 224.858C19.0167 224.304 20.2727 223.996 21.5513 223.955C22.83 223.913 24.1032 224.139 25.2899 224.617C26.4765 225.095 27.5504 225.815 28.4432 226.731C29.3359 227.648 30.0278 228.74 30.4748 229.939C30.9217 231.138 31.1139 232.416 31.039 233.693L33.6602 233.847Z" fill="#177EE5"/>
<path d="M15.9375 233.154L13.3085 235.783L9.36502 235.783L6.73602 233.154L15.9375 233.154Z" fill="#73E6D2"/>
<path d="M36.9707 233.154L34.3417 235.783L30.3982 235.783L27.7692 233.154L36.9707 233.154Z" fill="#73E6D2"/>
<path d="M6.73633 233.154L9.36532 235.783L9.36532 240.384L6.73633 243.013L6.73633 233.154Z" fill="#73E6D2"/>
<path d="M27.7686 233.154L30.3975 235.783V240.384L27.7686 243.013V233.154Z" fill="#73E6D2"/>
<path d="M6.73633 243.012L9.36532 240.383L13.3088 240.383L15.9378 243.012L6.73633 243.012Z" fill="#177EE5"/>
<path d="M27.7686 243.012L30.3975 240.383L34.341 240.383L36.97 243.012L27.7686 243.012Z" fill="#177EE5"/>
<path d="M15.9375 243.012L13.3085 241.04L13.3085 235.782L15.9375 233.153L15.9375 243.012Z" fill="#177EE5"/>
<path d="M36.9707 243.012L34.3417 241.04L34.3417 235.782L36.9707 233.153L36.9707 243.012Z" fill="#177EE5"/>
<path fill-rule="evenodd" clip-rule="evenodd" d="M106.55 230.074L113.122 227.427V230.385L106.55 233.014V230.074Z" fill="#73E6D2"/>
<path fill-rule="evenodd" clip-rule="evenodd" d="M94.7188 230.365L101.291 233.012V230.055L94.7188 227.426V230.365Z" fill="#73E6D2"/>
<path fill-rule="evenodd" clip-rule="evenodd" d="M94.7188 236.283L101.291 238.93V235.973L94.7188 233.344V236.283Z" fill="#73E6D2"/>
<path fill-rule="evenodd" clip-rule="evenodd" d="M106.55 235.992L113.122 233.345V236.303L106.55 238.932V235.992Z" fill="#73E6D2"/>
<path fill-rule="evenodd" clip-rule="evenodd" d="M103.92 223.832L90.775 219.213V222.171L103.92 226.771V223.832Z" fill="#177EE5"/>
<path fill-rule="evenodd" clip-rule="evenodd" d="M103.92 244.207L114.436 239.26L117.065 240.574L103.92 247.146V244.207Z" fill="#177EE5"/>
<path fill-rule="evenodd" clip-rule="evenodd" d="M103.92 223.832L117.065 219.213V222.171L103.92 226.771V223.832Z" fill="#177EE5"/>
<path d="M114.438 221.839L117.066 220.854V240.571H114.438V221.839Z" fill="#177EE5"/>
<path fill-rule="evenodd" clip-rule="evenodd" d="M103.92 244.207L93.4039 239.26L90.775 240.574L103.92 247.146V244.207Z" fill="#177EE5"/>
<path d="M90.7764 219.223L93.4054 220.089V240.571H90.7764V219.223Z" fill="#177EE5"/>
<path d="M102.606 223.371L103.926 223.833L105.235 223.371V246.487L103.922 247.163L102.606 246.487V223.371Z" fill="#177EE5"/>
<path d="M188.939 220.67L191.896 223.299L178.094 223.299L175.465 220.67L188.939 220.67Z" fill="#177EE5"/>
<path d="M175.468 220.67L178.097 223.299V243.016L175.468 245.645V220.67Z" fill="#177EE5"/>
<path d="M175.468 245.646L178.097 243.017L193.871 243.017L196.5 245.646L175.468 245.646Z" fill="#73E6D2"/>
<path d="M189.928 233.16H184.67V238.418H189.928V233.16Z" stroke="#73E6D2" stroke-width="2.62899"/>
<path d="M182.04 234.475V227.902H187.298V231.846" stroke="#177EE5" stroke-width="2.62899"/>
<path d="M196.498 245.646L193.869 243.017L193.869 233.816L196.498 233.816L196.498 245.646Z" fill="#73E6D2"/>
<path d="M196.498 233.814L193.869 233.814L193.869 228.405L186.144 220.669L189.926 220.669L196.498 227.242L196.498 233.814Z" fill="#177EE5"/>
<rect x="261.293" y="224.963" width="12.767" height="2.41539" fill="#73E6D2"/>
<rect x="277.384" y="230.367" width="11.0874" height="2.29815" transform="rotate(130 277.384 230.367)" fill="#73E6D2"/>
<rect width="11.3446" height="2.39893" transform="matrix(0.642788 0.766044 0.766044 -0.642788 258.305 230.387)" fill="#73E6D2"/>
<path fill-rule="evenodd" clip-rule="evenodd" d="M274.191 223.128L274.191 223.127L275.585 224.522L275.585 224.522C274.558 225.549 274.558 227.213 275.585 228.24L274.191 229.634C272.394 227.837 272.394 224.924 274.191 223.128Z" fill="#177EE5"/>
<path fill-rule="evenodd" clip-rule="evenodd" d="M280.699 229.635L280.7 229.634L279.306 228.24L279.304 228.241C278.278 229.268 276.613 229.268 275.586 228.241C275.586 228.241 275.586 228.241 275.585 228.24L274.191 229.634C274.191 229.635 274.192 229.635 274.192 229.635C275.989 231.432 278.902 231.432 280.699 229.635Z" fill="#177EE5"/>
<path fill-rule="evenodd" clip-rule="evenodd" d="M274.192 223.126L274.191 223.128L275.585 224.522L275.586 224.52C276.613 223.494 278.278 223.494 279.304 224.52L280.698 223.126C278.902 221.33 275.989 221.33 274.192 223.126Z" fill="#177EE5"/>
<path fill-rule="evenodd" clip-rule="evenodd" d="M280.698 229.634L280.698 229.634L279.304 228.24L279.304 228.24C280.33 227.213 280.33 225.549 279.304 224.522C279.304 224.522 279.304 224.522 279.303 224.522L280.698 223.127C280.698 223.127 280.698 223.128 280.698 223.128C282.495 224.924 282.495 227.837 280.698 229.634Z" fill="#177EE5"/>
<path fill-rule="evenodd" clip-rule="evenodd" d="M271.238 237.581L271.239 237.583L269.845 238.977L269.843 238.976C268.817 237.949 267.152 237.949 266.125 238.976C266.125 238.976 266.125 238.976 266.125 238.976L264.731 237.582C264.731 237.582 264.731 237.582 264.731 237.581C266.528 235.785 269.441 235.785 271.238 237.581Z" fill="#177EE5"/>
<path fill-rule="evenodd" clip-rule="evenodd" d="M264.73 244.087L264.731 244.089L266.125 242.694L266.124 242.693C265.098 241.667 265.097 240.003 266.123 238.976L264.728 237.582C262.933 239.379 262.934 242.291 264.73 244.087Z" fill="#177EE5"/>
<path fill-rule="evenodd" clip-rule="evenodd" d="M271.239 237.581L271.238 237.579L269.843 238.974L269.845 238.975C270.871 240.002 270.871 241.666 269.845 242.693C269.844 242.693 269.844 242.694 269.844 242.694L271.238 244.088C271.238 244.088 271.239 244.088 271.239 244.087C273.036 242.29 273.036 239.377 271.239 237.581Z" fill="#177EE5"/>
<path fill-rule="evenodd" clip-rule="evenodd" d="M264.731 244.089L264.73 244.087L266.124 242.693L266.125 242.694C267.152 243.721 268.816 243.721 269.843 242.695L271.237 244.089C269.441 245.885 266.528 245.885 264.731 244.089Z" fill="#177EE5"/>
<path fill-rule="evenodd" clip-rule="evenodd" d="M261.378 223.13L261.38 223.132L259.985 224.526L259.984 224.524C258.958 223.498 257.294 223.498 256.267 224.523L254.873 223.129C256.67 221.333 259.582 221.334 261.378 223.13Z" fill="#177EE5"/>
<path fill-rule="evenodd" clip-rule="evenodd" d="M254.867 229.642L254.869 229.643L256.263 228.249L256.262 228.248C255.235 227.221 255.235 225.556 256.262 224.53C256.262 224.529 256.263 224.529 256.263 224.528L254.869 223.134C254.868 223.135 254.868 223.135 254.867 223.135C253.071 224.932 253.071 227.845 254.867 229.642Z" fill="#177EE5"/>
<path fill-rule="evenodd" clip-rule="evenodd" d="M261.377 223.135L261.375 223.134L259.981 224.528L259.982 224.53C261.009 225.556 261.009 227.219 259.984 228.246L261.378 229.64C263.173 227.843 263.173 224.932 261.377 223.135Z" fill="#177EE5"/>
<path fill-rule="evenodd" clip-rule="evenodd" d="M254.872 229.634L254.87 229.632L256.265 228.238L256.266 228.239C257.292 229.265 258.955 229.266 259.982 228.241L261.377 229.635C259.58 231.43 256.668 231.43 254.872 229.634Z" fill="#177EE5"/>
<path d="M36.3145 329.508L33.6855 332.137L24.484 332.137L24.484 329.508L19.226 329.508L19.226 332.137L10.0245 332.137L7.39553 329.508L16.597 329.508L16.597 326.879L27.113 326.879L27.113 329.508L36.3145 329.508Z" fill="#177EE5"/>
<path d="M7.39648 329.508L10.0255 332.137L10.0255 346.596L7.39648 349.225L7.39648 329.508Z" fill="#73E6D2"/>
<path d="M7.39648 349.225L10.0255 346.596L33.6864 346.596L36.3154 349.225L7.39648 349.225Z" fill="#177EE5"/>
<path d="M8.70996 337.395H19.2259M34.9999 337.395H24.8125M19.2259 337.395V341.667H24.8125V337.395M19.2259 337.395H24.8125" stroke="#73E6D2" stroke-width="2.62899"/>
<path d="M36.3145 349.225L33.6855 346.596L33.6855 334.108L36.3145 334.108L36.3145 349.225Z" fill="#73E6D2"/>
<path d="M36.3145 334.109L33.6855 334.109L33.6855 332.138L36.3145 329.509L36.3145 334.109Z" fill="#73E6D2"/>
<path d="M114.435 326.877L111.806 329.506L96.0316 329.506L93.4026 326.877L114.435 326.877Z" fill="#73E6D2"/>
<path d="M93.4023 326.877L96.0313 329.506V349.223L93.4023 351.852V326.877Z" fill="#177EE5"/>
<path d="M93.4023 351.852L96.0313 349.223L111.805 349.223L114.434 351.852L93.4023 351.852Z" fill="#73E6D2"/>
<path d="M98.6611 334.107H103.919" stroke="#177EE5" stroke-width="2.62899"/>
<path d="M98.6611 339.365H109.177" stroke="#73E6D2" stroke-width="2.62899"/>
<path d="M98.6611 344.623H109.177" stroke="#73E6D2" stroke-width="2.62899"/>
<path d="M114.435 351.852L111.806 349.223L111.806 331.477L114.435 331.477L114.435 351.852Z" fill="#177EE5"/>
<path d="M114.435 331.475L111.806 331.475L111.806 329.503L114.435 326.874L114.435 331.475Z" fill="#177EE5"/>
<path fill-rule="evenodd" clip-rule="evenodd" d="M186.562 343.545C188.162 344.472 189.489 345.804 190.41 347.407L188.13 348.717C187.44 347.514 186.444 346.515 185.244 345.82C184.044 345.125 182.683 344.759 181.296 344.758C179.909 344.757 178.547 345.122 177.346 345.815C176.146 346.509 175.149 347.507 174.457 348.708L172.179 347.396C173.102 345.794 174.43 344.463 176.031 343.539C177.632 342.614 179.449 342.128 181.298 342.129C183.146 342.13 184.962 342.619 186.562 343.545Z" fill="#73E6D2"/>
<path d="M186.95 335.16C186.95 338.283 184.418 340.814 181.296 340.814C178.173 340.814 175.642 338.283 175.642 335.16C175.642 332.037 178.173 329.506 181.296 329.506C184.418 329.506 186.95 332.037 186.95 335.16ZM178.266 335.16C178.266 336.833 179.622 338.189 181.296 338.189C182.969 338.189 184.325 336.833 184.325 335.16C184.325 333.487 182.969 332.13 181.296 332.13C179.622 332.13 178.266 333.487 178.266 335.16Z" fill="#73E6D2"/>
<rect x="198.366" y="333.672" width="2.62899" height="11.8987" transform="rotate(45 198.366 333.672)" fill="#177EE5"/>
<rect x="187.674" y="339.799" width="2.62899" height="5.86336" transform="rotate(-45 187.674 339.799)" fill="#73E6D2"/>
<mask id="path-110-inside-1_933_101330" fill="white">
<path d="M280.538 337.249C280.538 334.635 279.499 332.127 277.651 330.278C275.802 328.429 273.294 327.391 270.679 327.391L270.679 337.249L280.538 337.249Z"/>
</mask>
<path d="M280.538 337.249C280.538 334.635 279.499 332.127 277.651 330.278C275.802 328.429 273.294 327.391 270.679 327.391L270.679 337.249L280.538 337.249Z" stroke="#177EE5" stroke-width="5.25799" mask="url(#path-110-inside-1_933_101330)"/>
<path fill-rule="evenodd" clip-rule="evenodd" d="M259.219 348.709C260.965 350.456 263.19 351.645 265.612 352.127C268.035 352.609 270.546 352.361 272.827 351.416C275.109 350.471 277.06 348.87 278.432 346.817C279.31 345.502 279.927 344.039 280.256 342.508C280.442 341.648 280.536 340.767 280.536 339.879H277.907H270.678H268.049L265.42 342.508H268.049H277.55C277.272 343.515 276.833 344.478 276.246 345.356C275.163 346.977 273.623 348.241 271.821 348.987C270.02 349.733 268.038 349.929 266.125 349.548C264.213 349.168 262.456 348.229 261.078 346.85L259.219 348.709Z" fill="#73E6D2"/>
<path fill-rule="evenodd" clip-rule="evenodd" d="M259.215 348.711C259.215 348.711 259.214 348.71 259.214 348.71C257.468 346.964 256.278 344.739 255.796 342.316C255.315 339.894 255.562 337.383 256.507 335.101C257.452 332.819 259.053 330.869 261.106 329.497C262.421 328.618 263.884 328.002 265.415 327.672C266.275 327.487 267.156 327.392 268.044 327.392L268.044 330.021L268.044 337.251L268.044 339.88L268.046 339.88L265.417 342.509L265.415 342.509L265.415 339.88L265.415 330.378C264.408 330.657 263.445 331.096 262.567 331.683C260.946 332.766 259.682 334.306 258.936 336.107C258.19 337.909 257.994 339.891 258.375 341.803C258.755 343.716 259.694 345.472 261.073 346.851C261.073 346.851 261.074 346.852 261.074 346.852L259.215 348.711Z" fill="#177EE5"/>
</svg>
