<svg width="197" height="136" viewBox="0 0 197 136" fill="none" xmlns="http://www.w3.org/2000/svg">
<path d="M132.451 38.8636C131.597 35.5231 125.263 35.8784 118.929 35.8784C118.645 33.4616 117.72 28.6291 116.652 25.1465C115.585 21.664 113.143 14.912 108.587 14.912C104.032 14.912 104.055 16.8064 98.8597 16.8064C93.6642 16.8064 93.6872 14.912 89.132 14.912C84.5767 14.912 82.1358 21.664 81.0676 25.1465C80.0004 28.6291 79.0745 33.4626 78.79 35.8784C72.4561 35.8784 66.1222 35.5231 65.2685 38.8636C64.4148 42.2041 71.0242 45.4735 77.8561 47.1797C79.2258 42.9156 92.4126 42.4202 98.8587 42.4202C105.305 42.4202 118.456 43.1287 119.861 47.1797C126.693 45.4735 133.304 42.2041 132.449 38.8636H132.451Z" fill="#9E9E9E"/>
<path d="M97.7304 51.596C97.9629 50.5312 97.1522 49.5225 96.061 49.5225H76.0985C75.2468 49.5225 74.6005 50.29 74.7468 51.1286L75.375 54.1188C75.5644 55.2036 76.5073 55.9952 77.6106 55.9952L76.9893 52.5077C76.8681 51.9913 77.2789 51.4539 77.835 51.5429C78.1727 51.597 78.4262 51.8862 78.4944 52.2204C78.9773 54.5892 79.2579 56.2594 79.6838 58.457C80.0445 60.3184 81.6778 61.6634 83.5757 61.6634H92.3224C94.1932 61.6634 95.8085 60.3604 96.1993 58.5331C96.6192 56.5706 97.1543 54.2319 97.7314 51.596H97.7304Z" fill="#9E9E9E"/>
<path d="M99.5702 51.596C99.3377 50.5312 100.148 49.5225 101.24 49.5225H121.202C122.054 49.5225 122.7 50.29 122.554 51.1286L121.926 54.1188C121.736 55.2036 120.793 55.9952 119.69 55.9952L120.311 52.5077C120.434 51.9893 120.02 51.4509 119.461 51.5439C119.127 51.6 118.874 51.8842 118.807 52.2154C118.323 54.5882 118.043 56.2594 117.617 58.461C117.257 60.3204 115.625 61.6644 113.729 61.6644H104.975C103.106 61.6644 101.493 60.3624 101.102 58.5371C100.682 56.5736 100.147 54.2339 99.5702 51.597V51.596Z" fill="#9E9E9E"/>
<path d="M29.055 85.0105L22.651 72.092H15.4844V90.8728H21.7612V82.2955L26.1832 90.8728H31.9519L36.0943 82.3966V90.8728H42.346V72.092H35.3568L29.055 85.0105Z" fill="#9E9E9E"/>
<path d="M50.5276 72.092H44.2509V90.8738H50.5276V72.092Z" fill="#9E9E9E"/>
<path d="M68.481 73.31C66.7445 72.4974 64.7324 72.0911 62.4458 72.0911H52.4074V90.8729H57.4136V90.8989H62.4708V90.8729C64.7585 90.8729 66.7656 90.4666 68.4941 89.655C70.2216 88.8424 71.5563 87.7256 72.4962 86.3045C73.4361 84.8835 73.9071 83.2843 73.9071 81.508C73.9071 79.7317 73.4371 78.0815 72.4962 76.6604C71.5563 75.2394 70.2176 74.1226 68.481 73.31ZM66.2706 84.7694C65.2956 85.4889 64.0721 85.8482 62.5981 85.8482H58.6852V77.1428H62.5981C63.4959 77.1428 64.3386 77.3329 65.1272 77.7142C65.9148 78.0945 66.5461 78.6199 67.0201 79.2874C67.494 79.9558 67.7315 80.6954 67.7315 81.508C67.7315 82.9631 67.2445 84.0509 66.2706 84.7694Z" fill="#9E9E9E"/>
<path d="M93.0429 83.5895L81.5556 72.092H75.2789V90.8728H81.5556V79.3764L93.0429 90.8728H99.2946V72.092H93.0429V83.5895Z" fill="#9E9E9E"/>
<path d="M107.476 72.092H101.199V90.8738H107.476V72.092Z" fill="#9E9E9E"/>
<path d="M133.448 80.9495H121.53V84.3H126.46C125.952 85.0455 125.248 85.6119 124.35 86.0002C123.452 86.3895 122.487 86.5836 121.454 86.5836C120.421 86.5836 119.471 86.3845 118.607 85.9872C117.743 85.5899 117.057 85.0055 116.549 84.2359C116.041 83.4663 115.786 82.5567 115.786 81.5079C115.786 80.4591 116.036 79.5745 116.536 78.8049C117.035 78.0343 117.717 77.4429 118.582 77.0276C119.446 76.6133 120.402 76.4061 121.454 76.4061C122.724 76.4061 123.864 76.6343 124.872 77.0916C125.88 77.548 126.553 78.2675 126.892 79.2492L133.423 79.2232C133.1 77.616 132.389 76.241 131.288 75.0992C130.186 73.9573 128.789 73.0907 127.094 72.4983C125.4 71.9058 123.511 71.6096 121.428 71.6096C119.107 71.6096 116.989 72.0369 115.075 72.8916C113.16 73.7462 111.645 74.9261 110.525 76.4322C109.407 77.9383 108.848 79.6305 108.848 81.5079C108.848 83.3853 109.403 85.0275 110.512 86.5336C111.622 88.0397 113.134 89.2236 115.049 90.0872C116.962 90.9498 119.089 91.3822 121.427 91.3822C124.375 91.3822 126.916 90.7307 129.05 89.4277L129.533 90.8738H133.472L133.446 83.1581V80.9495H133.448Z" fill="#9E9E9E"/>
<path d="M151.744 78.767H141.706V72.092H135.429V90.8728H141.706V83.6906H151.744V90.8728H157.996V72.092H151.744V78.767Z" fill="#9E9E9E"/>
<path d="M160.053 72.092V77.1678V77.1938H168.084V90.8728H174.335V77.1938H182.264V72.092H160.053Z" fill="#9E9E9E"/>
<path d="M78.2784 108.438H75.7898C75.7443 108.116 75.6515 107.83 75.5114 107.58C75.3712 107.326 75.1913 107.11 74.9716 106.932C74.7519 106.754 74.4981 106.617 74.2102 106.523C73.9261 106.428 73.6174 106.381 73.2841 106.381C72.6818 106.381 72.1572 106.53 71.7102 106.83C71.2633 107.125 70.9167 107.557 70.6705 108.125C70.4242 108.689 70.3011 109.375 70.3011 110.182C70.3011 111.011 70.4242 111.708 70.6705 112.273C70.9205 112.837 71.2689 113.263 71.7159 113.551C72.1629 113.839 72.6799 113.983 73.267 113.983C73.5966 113.983 73.9015 113.939 74.1818 113.852C74.4659 113.765 74.7178 113.638 74.9375 113.472C75.1572 113.301 75.339 113.095 75.483 112.852C75.6307 112.61 75.733 112.333 75.7898 112.023L78.2784 112.034C78.214 112.568 78.053 113.083 77.7955 113.58C77.5417 114.072 77.1989 114.513 76.767 114.903C76.339 115.29 75.8277 115.597 75.233 115.824C74.642 116.047 73.9735 116.159 73.2273 116.159C72.1894 116.159 71.2614 115.924 70.4432 115.455C69.6288 114.985 68.9848 114.305 68.5114 113.415C68.0417 112.525 67.8068 111.447 67.8068 110.182C67.8068 108.913 68.0455 107.833 68.5227 106.943C69 106.053 69.6477 105.375 70.4659 104.909C71.2841 104.439 72.2045 104.205 73.2273 104.205C73.9015 104.205 74.5265 104.299 75.1023 104.489C75.6818 104.678 76.1951 104.955 76.642 105.318C77.089 105.678 77.4527 106.119 77.733 106.642C78.017 107.165 78.1989 107.763 78.2784 108.438ZM90.7358 110.182C90.7358 111.451 90.4953 112.53 90.0142 113.42C89.5369 114.311 88.8854 114.991 88.0597 115.46C87.2377 115.926 86.3134 116.159 85.2869 116.159C84.2528 116.159 83.3248 115.924 82.5028 115.455C81.6809 114.985 81.0313 114.305 80.554 113.415C80.0767 112.525 79.8381 111.447 79.8381 110.182C79.8381 108.913 80.0767 107.833 80.554 106.943C81.0313 106.053 81.6809 105.375 82.5028 104.909C83.3248 104.439 84.2528 104.205 85.2869 104.205C86.3134 104.205 87.2377 104.439 88.0597 104.909C88.8854 105.375 89.5369 106.053 90.0142 106.943C90.4953 107.833 90.7358 108.913 90.7358 110.182ZM88.2415 110.182C88.2415 109.36 88.1184 108.667 87.8722 108.102C87.6297 107.538 87.2869 107.11 86.8438 106.818C86.4006 106.527 85.8816 106.381 85.2869 106.381C84.6922 106.381 84.1733 106.527 83.7301 106.818C83.2869 107.11 82.9422 107.538 82.696 108.102C82.4536 108.667 82.3324 109.36 82.3324 110.182C82.3324 111.004 82.4536 111.697 82.696 112.261C82.9422 112.826 83.2869 113.254 83.7301 113.545C84.1733 113.837 84.6922 113.983 85.2869 113.983C85.8816 113.983 86.4006 113.837 86.8438 113.545C87.2869 113.254 87.6297 112.826 87.8722 112.261C88.1184 111.697 88.2415 111.004 88.2415 110.182ZM92.5582 116V104.364H100.263V106.392H95.0185V109.165H99.7514V111.193H95.0185V116H92.5582ZM101.918 116V104.364H109.622V106.392H104.378V109.165H109.111V111.193H104.378V116H101.918ZM111.277 116V104.364H119.118V106.392H113.737V109.165H118.714V111.193H113.737V113.972H119.141V116H111.277ZM121.074 116V104.364H128.915V106.392H123.534V109.165H128.511V111.193H123.534V113.972H128.938V116H121.074Z" fill="#9E9E9E"/>
</svg>
