<svg width="312" height="62" viewBox="0 0 312 62" fill="none" xmlns="http://www.w3.org/2000/svg">
<path fill-rule="evenodd" clip-rule="evenodd" d="M94.384 18.5879C100.776 18.5879 104.377 21.9297 105.188 28.6131C105.318 29.4242 105.383 30.3327 105.383 31.3384L105.334 32.8471C105.334 33.2364 105.139 33.4311 104.75 33.4311H89.5174C89.3552 33.4311 89.2741 33.5122 89.2741 33.6744L89.3032 33.971C89.3083 34.0189 89.3135 34.066 89.3188 34.1124L89.3519 34.3812C89.3576 34.4245 89.3634 34.467 89.3694 34.5087L89.4065 34.7497C89.4897 35.2518 89.5915 35.6233 89.712 35.8644C90.4907 38.2003 92.3887 39.3845 95.406 39.417C97.5584 39.417 99.2784 38.5523 100.566 36.823L100.662 36.6917C100.792 36.497 100.954 36.3997 101.149 36.3997C101.278 36.3997 101.392 36.4483 101.489 36.5457L104.506 39.0277C104.798 39.2547 104.847 39.5143 104.653 39.8063C103.647 41.2338 102.3 42.3369 100.613 43.1156C98.9586 43.8942 97.1093 44.2836 95.0653 44.2836C92.5347 44.2836 90.3772 43.7158 88.5927 42.5802C86.8992 41.4826 85.6452 39.9604 84.8308 38.0139L84.7482 37.811C84.0019 36.059 83.6288 33.6257 83.6288 30.5111C83.6288 28.6294 83.8235 27.1045 84.2128 25.9365C84.8617 23.6654 86.0783 21.881 87.8627 20.5833C89.6796 19.2531 91.8533 18.5879 94.384 18.5879ZM300.99 18.5879C307.382 18.5879 310.984 21.9297 311.794 28.6131C311.924 29.4242 311.989 30.3327 311.989 31.3384L311.94 32.8471C311.94 33.2364 311.746 33.4311 311.357 33.4311H296.124C295.962 33.4311 295.881 33.5122 295.881 33.6744L295.895 33.825L295.925 34.1124L295.958 34.3812L295.994 34.6315C296.081 35.1938 296.189 35.6048 296.319 35.8644C297.097 38.2003 298.995 39.3845 302.012 39.417C304.165 39.417 305.885 38.5523 307.173 36.823L307.268 36.6917C307.398 36.497 307.56 36.3997 307.755 36.3997C307.885 36.3997 307.999 36.4483 308.096 36.5457L311.113 39.0277C311.405 39.2547 311.454 39.5143 311.259 39.8063C310.253 41.2338 308.907 42.3369 307.22 43.1156C305.565 43.8942 303.716 44.2836 301.672 44.2836C299.141 44.2836 296.984 43.7158 295.199 42.5802C293.447 41.4447 292.166 39.855 291.355 37.811C290.609 36.059 290.236 33.6257 290.236 30.5111C290.236 28.6294 290.43 27.1045 290.819 25.9365C291.468 23.6654 292.685 21.881 294.469 20.5833C296.286 19.2531 298.46 18.5879 300.99 18.5879ZM182.93 18.5879C189.322 18.5879 192.923 21.9297 193.734 28.6131C193.864 29.4242 193.929 30.3327 193.929 31.3384L193.88 32.8471C193.88 33.2364 193.685 33.4311 193.296 33.4311H178.064C177.901 33.4311 177.82 33.5122 177.82 33.6744L177.835 33.825L177.865 34.1124L177.898 34.3812L177.934 34.6315C178.02 35.1938 178.129 35.6048 178.258 35.8644C179.037 38.2003 180.935 39.3845 183.952 39.417C186.105 39.417 187.824 38.5523 189.112 36.823L189.208 36.6917C189.338 36.497 189.5 36.3997 189.695 36.3997C189.825 36.3997 189.938 36.4483 190.035 36.5457L193.053 39.0277C193.345 39.2547 193.393 39.5143 193.199 39.8063C192.193 41.2338 190.847 42.3369 189.16 43.1156C187.505 43.8942 185.656 44.2836 183.612 44.2836C181.081 44.2836 178.924 43.7158 177.139 42.5802C175.387 41.4447 174.106 39.855 173.294 37.811C172.548 36.059 172.175 33.6257 172.175 30.5111C172.175 28.6294 172.37 27.1045 172.759 25.9365C173.408 23.6654 174.625 21.881 176.409 20.5833C178.226 19.2531 180.4 18.5879 182.93 18.5879ZM118.958 18.5879C121.489 18.5879 123.695 19.2206 125.577 20.4859C127.459 21.7512 128.708 23.341 129.324 25.2552C129.486 25.7743 129.6 26.2934 129.665 26.8125V26.9098C129.665 27.2343 129.486 27.4289 129.13 27.4938L124.75 28.1265H124.652C124.36 28.1265 124.166 27.9643 124.068 27.6398C124.068 27.4776 124.052 27.3478 124.019 27.2505C123.955 26.9909 123.89 26.7638 123.825 26.5692C123.533 25.6607 122.949 24.9145 122.073 24.3305C121.197 23.7465 120.159 23.4545 118.958 23.4545C117.725 23.4545 116.671 23.779 115.795 24.4279C114.951 25.0443 114.384 25.904 114.092 27.0072C113.767 28.0453 113.605 29.4891 113.605 31.3384C113.605 33.1228 113.751 34.5666 114.043 35.6697C114.367 36.8052 114.951 37.7137 115.795 38.395C116.639 39.0439 117.693 39.3683 118.958 39.3683C120.191 39.3683 121.246 39.0601 122.122 38.4437C123.03 37.7948 123.614 36.935 123.874 35.8644C123.906 35.7995 123.922 35.7184 123.922 35.621C123.955 35.5886 123.971 35.5399 123.971 35.475C124.062 35.1086 124.269 34.9434 124.591 34.9793L129.032 35.6697C129.194 35.7022 129.324 35.7832 129.422 35.913C129.551 36.0104 129.6 36.1563 129.567 36.351L129.482 36.7887L129.424 37.0626L129.372 37.2898L129.339 37.4153C129.334 37.4345 129.329 37.4529 129.324 37.4703C128.708 39.5467 127.459 41.2014 125.577 42.4343C123.695 43.6347 121.489 44.2349 118.958 44.2349C116.46 44.2349 114.303 43.6022 112.486 42.3369C110.669 41.0392 109.404 39.3034 108.69 37.1297C108.171 35.6697 107.911 33.7231 107.911 31.2898C107.911 28.9538 108.171 27.0396 108.69 25.5472C109.371 23.4059 110.62 21.7188 112.437 20.4859C114.286 19.2206 116.46 18.5879 118.958 18.5879ZM238.616 18.5879C240.66 18.5879 242.461 18.9448 244.018 19.6586C245.575 20.3724 246.776 21.3619 247.619 22.6272C248.463 23.8601 248.885 25.2714 248.885 26.8611V43.2616C248.885 43.4238 248.82 43.5698 248.69 43.6996C248.593 43.7969 248.463 43.8456 248.301 43.8456H243.824C243.661 43.8456 243.515 43.7969 243.385 43.6996C243.288 43.5698 243.239 43.4238 243.239 43.2616V41.7043C243.239 41.6069 243.207 41.5583 243.142 41.5583C243.077 41.5258 243.012 41.5421 242.947 41.6069C241.358 43.3589 239.054 44.2349 236.037 44.2349C233.604 44.2349 231.592 43.6185 230.002 42.3856C228.445 41.1527 227.666 39.3196 227.666 36.8864C227.666 34.3557 228.542 32.3928 230.294 30.9978C232.079 29.5702 234.577 28.8565 237.789 28.8565H242.996C243.158 28.8565 243.239 28.7754 243.239 28.6131V27.4451C243.239 26.1798 242.866 25.2065 242.12 24.5252C241.374 23.8114 240.255 23.4545 238.762 23.4545C237.529 23.4545 236.524 23.6817 235.745 24.1359C234.999 24.5576 234.528 25.1579 234.334 25.9365C234.236 26.3258 234.009 26.488 233.652 26.4232L228.932 25.8392C228.769 25.8067 228.624 25.7581 228.494 25.6932C228.396 25.5958 228.364 25.4823 228.396 25.3525C228.656 23.3734 229.71 21.7512 231.56 20.4859C233.441 19.2206 235.793 18.5879 238.616 18.5879ZM137.269 18.9773C137.431 18.9773 137.561 19.0422 137.659 19.1719C137.788 19.2693 137.853 19.399 137.853 19.5613V34.3557C137.853 35.8806 138.243 37.0972 139.021 38.0056C139.832 38.9141 140.952 39.3683 142.379 39.3683C143.839 39.3683 145.007 38.9141 145.883 38.0056C146.759 37.0972 147.197 35.8806 147.197 34.3557V19.5613C147.197 19.399 147.246 19.2693 147.343 19.1719C147.473 19.0422 147.619 18.9773 147.781 18.9773H152.21C152.372 18.9773 152.502 19.0422 152.599 19.1719C152.729 19.2693 152.794 19.399 152.794 19.5613V43.2616C152.794 43.4238 152.729 43.5698 152.599 43.6996C152.502 43.7969 152.372 43.8456 152.21 43.8456H147.781C147.619 43.8456 147.473 43.7969 147.343 43.6996C147.246 43.5698 147.197 43.4238 147.197 43.2616V41.7043C147.197 41.6069 147.165 41.5421 147.1 41.5096C147.035 41.4772 146.97 41.5096 146.905 41.6069C145.575 43.3265 143.58 44.1862 140.919 44.1862C138.453 44.1862 136.377 43.4724 134.69 42.0449C133.035 40.6174 132.208 38.5896 132.208 35.9617V19.5613C132.208 19.399 132.256 19.2693 132.354 19.1719C132.484 19.0422 132.63 18.9773 132.792 18.9773H137.269ZM71.1601 18.6853C73.0531 18.6853 74.7236 18.9821 76.1713 19.5758L76.3674 19.6586C77.8598 20.275 79.0115 21.151 79.8227 22.2866C80.6338 23.3897 81.0393 24.6549 81.0393 26.0825C81.0393 26.2447 80.9744 26.3907 80.8446 26.5205C80.7473 26.6178 80.6175 26.6665 80.4553 26.6665H76.3187C76.1565 26.6665 76.0105 26.6178 75.8807 26.5205C75.7834 26.3907 75.7347 26.2447 75.7347 26.0825C75.7347 25.2389 75.3129 24.5414 74.4694 23.9899C73.6583 23.4059 72.539 23.1139 71.1115 23.1139C69.8461 23.1139 68.8079 23.3572 67.9968 23.8439C67.2182 24.2981 66.8289 24.9469 66.8289 25.7905C66.8289 26.5692 67.202 27.1694 67.9482 27.5911C68.0058 27.62 68.0663 27.6491 68.1295 27.6785L68.3273 27.7674C68.3961 27.7973 68.4675 27.8275 68.5418 27.8579L68.7727 27.95L69.0203 28.0438L69.2844 28.1391L69.565 28.236L69.8622 28.3346L70.176 28.4347C70.2297 28.4515 70.284 28.4684 70.3391 28.4854L70.6777 28.5879L71.0328 28.692L71.4045 28.7978L71.7928 28.9051L72.8634 29.1971C74.583 29.7162 76.0267 30.2515 77.1947 30.8031C78.3627 31.3222 79.3522 32.0684 80.1633 33.0417C80.9744 33.9826 81.38 35.2155 81.38 36.7403C81.38 39.0439 80.4715 40.8607 78.6547 42.1909C76.8378 43.4887 74.4207 44.1376 71.4034 44.1376C69.3595 44.1376 67.5588 43.8456 66.0015 43.2616C64.4767 42.6451 63.2925 41.8178 62.4489 40.7796C61.6054 39.709 61.1836 38.5247 61.1836 37.227V36.789C61.1836 36.6268 61.2323 36.497 61.3296 36.3997C61.4594 36.2699 61.6054 36.205 61.7676 36.205H66.0502C66.2124 36.205 66.3422 36.2699 66.4395 36.3997C66.5693 36.497 66.6342 36.6268 66.6342 36.789V36.8863C66.6342 37.6974 67.0722 38.4112 67.9482 39.0276C68.8566 39.6116 69.9921 39.9036 71.3548 39.9036C72.6525 39.9036 73.7069 39.6441 74.5181 39.125C75.3292 38.5734 75.7347 37.8921 75.7347 37.081C75.7347 36.3348 75.3941 35.7832 74.7127 35.4264C74.4694 35.2804 74.1667 35.1321 73.8048 34.9815L73.5547 34.8808C73.4684 34.8471 73.3792 34.8133 73.2871 34.7794L73.0018 34.6774C72.9528 34.6603 72.9031 34.6432 72.8526 34.6261L72.541 34.523L72.2119 34.4192C72.1555 34.4019 72.0985 34.3845 72.0407 34.3671L71.6851 34.2623C71.6244 34.2448 71.563 34.2273 71.5008 34.2097L69.6515 33.6257C67.9968 33.1391 66.6017 32.62 65.4662 32.0684C64.3307 31.5169 63.3736 30.7707 62.5949 29.8298C61.8162 28.8565 61.4269 27.6236 61.4269 26.1312C61.4269 23.8601 62.3191 22.0595 64.1036 20.7292C65.888 19.3666 68.2402 18.6853 71.1601 18.6853ZM279.23 18.5879C281.664 18.5879 283.575 19.3118 284.961 20.7595L285.07 20.8753C286.498 22.3677 287.211 24.4603 287.211 27.1531V43.2616C287.211 43.4238 287.146 43.5698 287.016 43.6996C286.919 43.7969 286.789 43.8456 286.627 43.8456H282.199C282.036 43.8456 281.89 43.7969 281.76 43.6996C281.663 43.5698 281.615 43.4238 281.615 43.2616V28.3212C281.615 26.8287 281.209 25.6445 280.398 24.7685C279.619 23.8925 278.565 23.4545 277.235 23.4545C275.904 23.4545 274.817 23.8925 273.974 24.7685C273.13 25.6445 272.709 26.8125 272.709 28.2725V43.2616C272.709 43.4238 272.644 43.5698 272.514 43.6996C272.417 43.7969 272.287 43.8456 272.125 43.8456H267.696C267.534 43.8456 267.388 43.7969 267.258 43.6996C267.161 43.5698 267.112 43.4238 267.112 43.2616V28.3212C267.112 26.8287 266.707 25.6445 265.895 24.7685C265.084 23.8925 264.014 23.4545 262.683 23.4545C261.451 23.4545 260.429 23.8114 259.617 24.5252C258.839 25.2389 258.384 26.2123 258.255 27.4451V43.2616C258.255 43.4238 258.19 43.5698 258.06 43.6996C257.963 43.7969 257.833 43.8456 257.671 43.8456H253.194C253.031 43.8456 252.886 43.7969 252.756 43.6996C252.658 43.5698 252.61 43.4238 252.61 43.2616V19.5613C252.61 19.399 252.658 19.2693 252.756 19.1719C252.886 19.0422 253.031 18.9773 253.194 18.9773H257.671C257.833 18.9773 257.963 19.0422 258.06 19.1719C258.19 19.2693 258.255 19.399 258.255 19.5613V21.1673C258.255 21.2646 258.287 21.3295 258.352 21.3619C258.417 21.3944 258.482 21.3619 258.547 21.2646C259.261 20.3561 260.137 19.6911 261.175 19.2693C262.245 18.815 263.43 18.5879 264.728 18.5879C266.317 18.5879 267.712 18.9124 268.913 19.5613C270.113 20.2102 271.038 21.151 271.687 22.3839C271.784 22.5137 271.897 22.5137 272.027 22.3839C272.741 21.0861 273.731 20.129 274.996 19.5126C276.261 18.8962 277.673 18.5879 279.23 18.5879ZM168.464 18.6853C169.503 18.6853 170.411 18.8962 171.19 19.3179C171.449 19.4477 171.546 19.6911 171.482 20.0479L170.654 24.4279C170.622 24.8172 170.395 24.9308 169.973 24.7685C169.486 24.6063 168.918 24.5252 168.27 24.5252L168.146 24.5257L167.916 24.5296L167.71 24.5374C167.548 24.5455 167.41 24.5576 167.296 24.5739C165.934 24.6387 164.798 25.1254 163.89 26.0338C162.981 26.9098 162.527 28.0616 162.527 29.4891V43.2616C162.527 43.4238 162.462 43.5698 162.332 43.6996C162.235 43.7969 162.105 43.8456 161.943 43.8456H157.466C157.304 43.8456 157.157 43.7969 157.028 43.6996C156.931 43.5698 156.882 43.4238 156.882 43.2616V19.5613C156.882 19.399 156.931 19.2693 157.028 19.1719C157.157 19.0422 157.304 18.9773 157.466 18.9773H161.943C162.105 18.9773 162.235 19.0422 162.332 19.1719C162.462 19.2693 162.527 19.399 162.527 19.5613V21.7512C162.527 21.881 162.543 21.9621 162.576 21.9946C162.641 21.9946 162.705 21.9459 162.77 21.8486C164.133 19.7397 166.031 18.6853 168.464 18.6853ZM207.812 9.77941H209.515C209.677 9.77941 209.807 9.8443 209.904 9.97407C210.034 10.0714 210.099 10.2012 210.099 10.3634V13.77C210.099 13.9322 210.034 14.0782 209.904 14.208C209.807 14.3053 209.677 14.354 209.515 14.354H208.25C206.855 14.354 205.881 14.6298 205.33 15.1813C204.811 15.7329 204.551 16.7386 204.551 18.1986V18.6853C204.551 18.8475 204.632 18.9286 204.795 18.9286H209.612C209.775 18.9286 209.904 18.9935 210.002 19.1233C210.132 19.2206 210.196 19.3504 210.196 19.5126V23.3572C210.196 23.5194 210.132 23.6654 210.002 23.7952C209.904 23.8925 209.775 23.9412 209.612 23.9412H204.795C204.632 23.9412 204.551 24.0223 204.551 24.1845V43.2616C204.551 43.4238 204.487 43.5698 204.356 43.6996C204.259 43.7969 204.13 43.8456 203.967 43.8456H199.49C199.328 43.8456 199.182 43.7969 199.052 43.6996C198.955 43.5698 198.906 43.4238 198.906 43.2616V24.1845C198.906 24.0223 198.825 23.9412 198.663 23.9412H195.645C195.483 23.9412 195.337 23.8925 195.208 23.7952C195.11 23.6654 195.061 23.5194 195.061 23.3572V19.5126C195.061 19.3504 195.11 19.2206 195.208 19.1233C195.337 18.9935 195.483 18.9286 195.645 18.9286H198.663C198.825 18.9286 198.906 18.8475 198.906 18.6853V17.8093C198.906 15.7004 199.182 14.0782 199.733 12.9427C200.285 11.7747 201.193 10.9474 202.459 10.4607C203.724 9.97407 205.508 9.74697 207.812 9.77941ZM224.597 18.6853C225.635 18.6853 226.544 18.8962 227.322 19.3179C227.582 19.4477 227.679 19.6911 227.615 20.0479L226.787 24.4279C226.755 24.8172 226.528 24.9308 226.106 24.7685C225.619 24.6063 225.051 24.5252 224.402 24.5252L224.279 24.5257L224.049 24.5296L223.843 24.5374C223.681 24.5455 223.543 24.5576 223.429 24.5739C222.067 24.6387 220.931 25.1254 220.023 26.0338C219.114 26.9098 218.66 28.0616 218.66 29.4891V43.2616C218.66 43.4238 218.595 43.5698 218.465 43.6996C218.368 43.7969 218.238 43.8456 218.076 43.8456H213.599C213.437 43.8456 213.29 43.7969 213.161 43.6996C213.063 43.5698 213.015 43.4238 213.015 43.2616V19.5613C213.015 19.399 213.063 19.2693 213.161 19.1719C213.29 19.0422 213.437 18.9773 213.599 18.9773H218.076C218.238 18.9773 218.368 19.0422 218.465 19.1719C218.595 19.2693 218.66 19.399 218.66 19.5613V21.7512C218.66 21.881 218.676 21.9621 218.709 21.9946C218.773 21.9946 218.838 21.9459 218.903 21.8486C220.266 19.7397 222.164 18.6853 224.597 18.6853ZM242.999 32.7497H238.911C237.192 32.7497 235.829 33.0742 234.823 33.7231C233.85 34.3719 233.363 35.2966 233.363 36.497C233.363 37.5352 233.736 38.3463 234.482 38.9303C235.261 39.4818 236.251 39.7576 237.451 39.7576C239.041 39.7576 240.403 39.3359 241.539 38.4923C242.675 37.6488 243.242 36.5781 243.242 35.2804V32.9931C243.242 32.8309 243.161 32.7497 242.999 32.7497ZM94.382 23.4545C93.1816 23.4545 92.1758 23.7627 91.3647 24.3792C90.5861 24.9632 90.0345 25.7905 89.7101 26.8611C89.5154 27.4127 89.3856 28.1265 89.3208 29.0024C89.2559 29.1647 89.3208 29.2458 89.5154 29.2458H99.3946C99.5569 29.2458 99.6379 29.1647 99.6379 29.0024C99.5731 28.1914 99.4757 27.5749 99.346 27.1531C99.054 25.9852 98.47 25.0767 97.594 24.4278C96.7505 23.779 95.6798 23.4545 94.382 23.4545ZM182.928 23.4545C181.728 23.4545 180.722 23.7627 179.911 24.3792C179.133 24.9632 178.581 25.7905 178.257 26.8611C178.062 27.4127 177.932 28.1265 177.867 29.0024C177.802 29.1647 177.867 29.2458 178.062 29.2458H187.941C188.103 29.2458 188.184 29.1647 188.184 29.0024L188.157 28.6884L188.126 28.3951C188.12 28.3479 188.114 28.3017 188.109 28.2562L188.072 27.9941C188.022 27.6584 187.962 27.3781 187.892 27.1531C187.6 25.9852 187.016 25.0767 186.14 24.4278C185.297 23.779 184.226 23.4545 182.928 23.4545ZM300.993 23.4545C299.793 23.4545 298.788 23.7627 297.976 24.3792C297.198 24.9632 296.646 25.7905 296.322 26.8611C296.127 27.4127 295.997 28.1265 295.932 29.0024C295.868 29.1647 295.932 29.2458 296.127 29.2458H306.006C306.168 29.2458 306.249 29.1647 306.249 29.0024L306.222 28.6884L306.191 28.3951C306.185 28.3479 306.18 28.3017 306.174 28.2562L306.138 27.9941C306.087 27.6584 306.027 27.3781 305.958 27.1531C305.666 25.9852 305.082 25.0767 304.206 24.4278C303.362 23.779 302.291 23.4545 300.993 23.4545Z" fill="white"/>
<path fill-rule="evenodd" clip-rule="evenodd" d="M1.06176 59.5194C1.91143 49.2205 10.5393 41.127 21.0576 41.127H41.1221C41.1221 52.208 32.1389 61.1915 21.0576 61.1915H2.66513C1.62008 61.1915 0.993064 60.5645 1.06176 59.5194Z" fill="#5656BF"/>
<path fill-rule="evenodd" clip-rule="evenodd" d="M21.0567 41.127C9.97553 41.127 0.992188 32.1438 0.992188 21.0625H21.0567C32.1379 21.0625 41.1212 30.0457 41.1212 41.127H21.0567Z" fill="#177EE5"/>
<path fill-rule="evenodd" clip-rule="evenodd" d="M0.992188 21.0626C0.992188 9.98139 9.97541 0.998047 21.0567 0.998047C28.3174 0.998047 32.6223 0.998047 39.4492 0.998047C40.2852 0.998047 41.1476 1.51735 41.0525 2.67009C40.2029 12.969 31.5749 21.0626 21.0567 21.0626H0.992188Z" fill="#73E6D2"/>
</svg>
