<svg width="128" height="50" viewBox="0 0 128 50" fill="none" xmlns="http://www.w3.org/2000/svg">
<path d="M21.5037 23.8486C21.4596 29.2201 16.5666 34.1747 9.64593 34.1747C9.15214 34.1747 8.67221 34.1482 8.20738 34.0965C8.014 34.075 7.89412 33.8786 7.95747 33.6946L9.2041 30.0742C9.27477 29.8689 9.47805 29.7415 9.69481 29.7534C9.82414 29.7604 9.95485 29.7639 10.0867 29.7639C13.5691 29.7639 16.3022 27.2549 16.3022 24.2416C16.3022 21.2989 14.1801 19.7423 11.8991 18.069C9.23785 16.1168 6.3602 14.0058 6.38393 9.34972C6.42802 4.50222 10.7039 0.226562 17.0515 0.226562C24.0163 0.226562 27.4573 6.091 24.8098 11.8868C24.5303 12.4987 24.1068 13.2374 23.1812 12.9199L21.1824 12.2303C20.2334 11.901 20.0752 10.9181 20.3009 10.0762C21.3796 6.05203 19.0186 4.46267 16.5666 4.46267C13.6132 4.46267 11.5414 6.16173 11.4973 8.95668C11.4775 11.5857 13.513 13.0865 15.753 14.7382C18.4989 16.7629 21.5523 19.0142 21.5037 23.8486Z" fill="#F05A3B"/>
<path d="M4.9007 32.8164C4.84037 32.9916 4.64043 33.0753 4.4765 32.9889C1.67606 31.5136 -0.0078125 28.7622 -0.0078125 25.3095C-0.0078125 23.4549 0.171127 21.9926 1.27317 20.2676C1.60006 19.7559 2.08658 19.6866 2.80421 19.9305L7.31565 21.4877C8.04888 21.7509 8.38337 22.6132 8.15155 23.3752L6.48606 28.2085C6.48237 28.2192 6.47908 28.2299 6.4762 28.2408L4.9007 32.8164Z" fill="#F05A3B"/>
<path fill-rule="evenodd" clip-rule="evenodd" d="M47.1855 34.177C49.5555 34.177 51.8859 32.3148 53.8099 29.9791C53.8415 32.5697 54.9804 34.1771 58.004 34.1771C60.5187 34.1771 62.9888 32.0807 64.9738 29.5465C65.0979 32.3984 66.4122 34.1771 69.6959 34.1771C72.2313 34.1771 74.7372 31.9962 76.7462 29.3943C77.7995 32.53 80.8081 34.177 84.4671 34.177C88.4332 34.177 91.1455 32.9103 93.1949 30.9921C93.3953 30.8285 93.6056 30.6207 93.8232 30.3636L93.84 30.3448C94.0678 30.1002 94.2872 29.8474 94.499 29.5873C97.0357 26.5982 99.1296 23.2575 100.715 19.6676C101.728 19.9251 102.764 20.0799 103.808 20.1298L103.683 20.395C101.933 24.1057 100.574 26.9886 100.574 29.7857C100.535 30.3647 100.619 30.9453 100.821 31.4896C101.022 32.0338 101.336 32.5294 101.741 32.9439C102.147 33.3585 102.636 33.6826 103.176 33.8951C103.715 34.1076 104.294 34.2037 104.873 34.1771C107.285 34.1771 109.697 32.1456 111.664 29.676C112.421 32.3667 114.59 34.1768 117.733 34.1768C123.983 34.1768 128 27.8978 128 21.7473C128 18.3318 125.882 14.9548 121.814 14.9548C116.629 14.9548 112.759 19.2655 111.674 24.467C109.857 27.4792 107.767 29.7216 106.439 29.7216C105.797 29.7216 105.425 29.2593 105.425 28.5146C105.425 26.627 107.62 21.5551 109.339 17.703C109.406 17.5584 109.435 17.3994 109.425 17.2405C109.414 17.0817 109.363 16.9281 109.278 16.7938C109.192 16.6596 109.074 16.5491 108.935 16.4724C108.795 16.3956 108.639 16.3552 108.48 16.3548C106.465 16.3161 104.455 16.1531 102.46 15.8669C102.415 15.8584 102.371 15.8401 102.333 15.8133C102.296 15.7864 102.264 15.7517 102.241 15.7114C102.217 15.6711 102.203 15.6262 102.199 15.5799C102.195 15.5336 102.201 15.4869 102.217 15.4431C102.295 15.2034 102.361 15.0194 102.419 14.8574C102.494 14.6462 102.556 14.4725 102.614 14.2618C102.614 14.2618 102.615 14.2591 102.615 14.256C102.623 14.1996 102.686 13.7739 102.127 13.7739H99.7268C98.571 13.8242 98.2761 14.7849 97.9752 15.7649L97.9557 15.8283C97.2514 18.1382 96.6566 20.029 95.9423 21.7395C92.7355 28.0131 89.8859 30.2478 85.4938 30.2478C82.8115 30.2478 81.4768 29.1436 81.1431 27.2946C85.8146 28.3603 92.0006 25.9078 92.0006 20.3993C92.0192 19.6672 91.8865 18.9392 91.6107 18.2608C91.3348 17.5825 90.9219 16.9684 90.3977 16.4573C89.8735 15.9461 89.2495 15.5488 88.5646 15.2903C87.8797 15.0318 87.1489 14.9177 86.4179 14.9551C81.2392 14.9551 77.5011 19.2506 76.5694 24.3108C74.6189 27.5771 72.5274 29.7343 71.1204 29.7343C68.8103 29.7343 68.8488 27.1919 71.7621 19.0512H73.9824C74.5115 19.05 75.0272 18.8853 75.4591 18.5796C75.891 18.2739 76.2179 17.8421 76.3952 17.3434L76.485 17.1123C76.5529 16.9181 76.5731 16.7105 76.544 16.5069C76.5149 16.3033 76.4374 16.1096 76.3179 15.9422C76.1984 15.7748 76.0404 15.6386 75.8573 15.545C75.6743 15.4515 75.4714 15.4033 75.2658 15.4045H73.2124C73.8027 13.838 74.4701 12.1431 75.2145 10.2684C75.2652 10.1249 75.2813 9.97139 75.2612 9.82047C75.2412 9.66956 75.1857 9.52555 75.0993 9.40025C75.0129 9.27494 74.898 9.1719 74.7641 9.09962C74.6302 9.02733 74.481 8.98783 74.3289 8.98437H72.6733C72.1511 8.98528 71.6415 9.1456 71.2127 9.44386C70.7839 9.74212 70.4562 10.1642 70.2734 10.6536L68.4895 15.4174H68.297C67.7604 15.4151 67.2367 15.5811 66.7993 15.892C66.3619 16.2029 66.0329 16.6431 65.8585 17.1508L65.4145 18.4488C65.3113 18.7504 65.5355 19.064 65.8543 19.064H67.1933C66.858 20.0566 66.547 21.0274 66.2702 21.9675C63.965 26.5125 61.2156 29.7472 59.4928 29.7472C57.3171 29.7472 59.1494 24.8812 61.5627 18.4723C61.726 18.0386 61.892 17.5977 62.0596 17.1509C62.1319 16.9573 62.1564 16.7492 62.1311 16.5441C62.1058 16.3391 62.0314 16.1431 61.9142 15.973C61.7971 15.8028 61.6406 15.6635 61.4581 15.5668C61.2757 15.47 61.0725 15.4188 60.866 15.4174H59.6853C59.163 15.4183 58.6535 15.5786 58.2246 15.8769C57.7958 16.1751 57.4681 16.5972 57.2853 17.0866C56.7426 18.541 56.2189 19.9679 55.7498 21.339C53.6968 26.3902 50.4831 29.67 48.6871 29.67C47.301 29.67 47.4807 28.2833 49.2004 23.2499C50.4197 19.539 52.6656 13.1317 55.3864 5.97968C55.4372 5.83616 55.4532 5.68266 55.4332 5.53175C55.4132 5.38083 55.3577 5.23683 55.2713 5.11152C55.1849 4.98622 55.07 4.88318 54.936 4.81089C54.8021 4.7386 54.653 4.6991 54.5009 4.69565H52.794C52.268 4.69491 51.7545 4.85585 51.3229 5.1567C50.8914 5.45755 50.5626 5.88379 50.3812 6.37772C50.0551 7.27254 49.726 8.17331 49.3976 9.07207C47.7292 13.6389 46.0797 18.1538 44.9356 21.5721C42.5928 27.0109 39.2605 29.9971 36.2125 30.3122C38.8948 28.5145 40.9739 23.7508 40.9739 20.5664C40.9739 16.9582 39.3825 14.9166 36.8157 14.9166C34.2489 14.9166 31.8875 16.7656 30.3988 19.2695L31.4512 16.7014C31.5022 16.5569 31.5181 16.4023 31.4974 16.2504C31.4767 16.0985 31.4201 15.9537 31.3322 15.8281C31.2443 15.7026 31.1278 15.5997 30.9922 15.5283C30.8566 15.4569 30.706 15.4188 30.5528 15.4174H29.1026C28.5676 15.4142 28.0449 15.5783 27.6077 15.8868C27.1705 16.1953 26.8406 16.6327 26.6641 17.138C23.8961 25.2258 19.8152 36.9854 16.7533 45.8088L16.7498 45.8188C16.4198 46.7696 16.1018 47.6862 15.7984 48.5604C15.7569 48.7029 15.7488 48.853 15.7749 48.9992C15.8009 49.1453 15.8604 49.2834 15.9486 49.4027C16.0368 49.5221 16.1514 49.6194 16.2834 49.6871C16.4154 49.7548 16.5613 49.791 16.7097 49.793H18.4423C18.9944 49.7947 19.5323 49.6182 19.9762 49.2897C20.4201 48.9613 20.7463 48.4984 20.9064 47.9697C22.2026 43.6682 24.9572 35.5253 26.0096 32.5207C27.9303 33.7143 30.168 34.2964 32.4265 34.1899C36.2169 34.1899 39.8747 33.6907 43.1251 30.1654C43.2074 32.8976 44.5184 34.177 47.1855 34.177ZM34.2874 19.0127C35.4425 19.0127 35.9944 19.9885 35.9944 21.5165C35.9944 25.1247 33.1324 30.3892 30.0779 30.4406C29.5192 30.4631 28.9618 30.3724 28.439 30.1738C27.9163 29.9752 27.4392 29.6728 27.0363 29.2849C29.7571 21.7862 32.4394 19.0127 34.2874 19.0127ZM81.2458 24.3798C84.1976 24.7008 87.6628 23.0958 87.6628 20.5919C87.6987 20.3663 87.6845 20.1354 87.621 19.9159C87.5576 19.6964 87.4466 19.4935 87.2958 19.3219C87.1451 19.1502 86.9583 19.0139 86.7488 18.9227C86.5394 18.8315 86.3125 18.7877 86.0842 18.7943C83.7869 18.7943 81.8361 21.2853 81.2458 24.3798ZM123.2 22.1197C123.2 20.3092 122.456 19.0123 121.031 19.0123C118.529 19.0123 116.129 23.4037 116.129 26.7807C116.129 28.8609 117.001 29.9266 118.349 29.9266C120.749 29.9266 123.2 25.6251 123.2 22.1197Z" fill="#F05A3B"/>
<path d="M58.9281 10.5638C58.9252 9.51179 59.3208 8.49777 60.0352 7.72585C60.7495 6.95394 61.7297 6.48146 62.7783 6.40354C63.0963 6.3928 63.4132 6.44757 63.7093 6.56444C64.0053 6.6813 64.2741 6.85776 64.4992 7.0829C64.7242 7.30804 64.9006 7.57705 65.0174 7.87323C65.1342 8.16941 65.189 8.48645 65.1782 8.80467C65.1559 9.84397 64.7615 10.8407 64.0667 11.6136C63.3718 12.3866 62.4228 12.8843 61.3922 13.0163C61.0634 13.0411 60.7331 12.9947 60.4238 12.8804C60.1144 12.7661 59.8334 12.5865 59.5996 12.3538C59.3658 12.1211 59.1848 11.8409 59.069 11.532C58.9531 11.2231 58.9051 10.8929 58.9281 10.5638Z" fill="#F05A3B"/>
</svg>
