<svg width="212" height="92" viewBox="0 0 212 92" fill="none" xmlns="http://www.w3.org/2000/svg">
<g clip-path="url(#clip0_53_8)">
<path d="M95.2363 79.4231C95.2363 79.4231 95.4009 79.4231 95.4558 79.4792C95.5106 79.5165 95.5655 79.5539 95.6021 79.5913C95.657 79.7782 95.785 79.9464 95.9862 80.0772C96.2057 80.208 96.4617 80.2827 96.7727 80.2827C96.9373 80.2827 97.0836 80.2641 97.2299 80.2267C97.3762 80.1893 97.5043 80.1332 97.6323 80.0585C97.742 79.9837 97.8518 79.8903 97.9249 79.7969C97.9981 79.6847 98.0347 79.5726 98.0347 79.4418C98.0347 79.1988 97.9432 79.0307 97.7603 78.9185C97.5774 78.8064 97.3397 78.6943 97.0653 78.6195C96.791 78.5448 96.48 78.47 96.1508 78.414C95.8216 78.3579 95.5289 78.2458 95.2363 78.1336C94.9619 78.0028 94.7242 77.8346 94.5413 77.6104C94.3584 77.3861 94.2669 77.0871 94.2669 76.6947C94.2669 76.4331 94.3401 76.1714 94.4681 75.9472C94.5961 75.7229 94.779 75.536 95.0168 75.3679C95.2546 75.1997 95.5106 75.0688 95.8216 74.9941C96.1325 74.9193 96.4434 74.8633 96.7909 74.8633C97.1019 74.8633 97.3945 74.9007 97.6872 74.9941C97.9615 75.0688 98.2176 75.181 98.4371 75.3305C98.6565 75.48 98.8394 75.6482 98.9858 75.8537C99.1321 76.0593 99.2235 76.2649 99.2601 76.5078C99.2601 76.5826 99.2601 76.6573 99.2052 76.7134C99.1504 76.7694 99.0955 76.7881 99.0223 76.7881H98.2542C98.2542 76.7881 98.1078 76.7694 98.0347 76.7321C97.9798 76.6947 97.9249 76.6573 97.8884 76.6199C97.8335 76.4517 97.7055 76.3022 97.5043 76.1901C97.3031 76.078 97.0653 76.0219 96.7909 76.0219C96.6446 76.0219 96.4983 76.0219 96.352 76.078C96.2057 76.1154 96.0776 76.1714 95.9679 76.2275C95.8582 76.2836 95.7667 76.377 95.6935 76.4704C95.6204 76.5639 95.6021 76.676 95.6021 76.7881C95.6021 77.0124 95.6935 77.1806 95.8764 77.2927C96.0593 77.4048 96.2971 77.4983 96.5715 77.573C96.8458 77.6478 97.1568 77.7225 97.486 77.7786C97.8152 77.8346 98.1078 77.9468 98.4005 78.0776C98.6748 78.2084 98.9126 78.3953 99.0955 78.6195C99.2784 78.8438 99.3699 79.1615 99.3699 79.5539C99.3699 79.8529 99.2967 80.1332 99.1321 80.3762C98.9675 80.6191 98.7663 80.806 98.5285 80.9742C98.2907 81.1424 97.9981 81.2545 97.7055 81.3479C97.3945 81.4414 97.1019 81.4788 96.7909 81.4788C96.4617 81.4788 96.1508 81.4414 95.8582 81.3479C95.5655 81.2545 95.3095 81.1424 95.09 80.9929C94.8705 80.8434 94.6693 80.6565 94.523 80.4509C94.3767 80.2454 94.2852 80.0211 94.2303 79.7782C94.2303 79.6847 94.2303 79.6287 94.2852 79.5726C94.3401 79.5165 94.395 79.4979 94.4864 79.4979H95.2546L95.2363 79.4231Z" fill="#F8F3F1"/>
<path d="M112.246 75.1062C112.246 74.9194 112.338 74.8259 112.52 74.8259H116.928C116.928 74.8259 117.075 74.8446 117.129 74.9007C117.184 74.9567 117.203 75.0128 117.203 75.1062V75.6856C117.203 75.6856 117.184 75.8351 117.129 75.8911C117.075 75.9472 117.02 75.9659 116.928 75.9659H113.563V77.5917H116.306C116.306 77.5917 116.453 77.6104 116.508 77.6665C116.563 77.7225 116.581 77.7786 116.581 77.872V78.3766C116.581 78.3766 116.563 78.5261 116.508 78.5822C116.453 78.6382 116.38 78.6569 116.306 78.6569H113.563V80.2641H116.928C116.928 80.2641 117.075 80.2828 117.129 80.3388C117.184 80.3949 117.203 80.4696 117.203 80.5444V81.1237C117.203 81.1237 117.184 81.2732 117.129 81.3293C117.075 81.3853 117.02 81.404 116.928 81.404H112.52C112.338 81.404 112.246 81.3106 112.246 81.1237V75.0876V75.1062Z" fill="#F8F3F1"/>
<path d="M130.006 81.4228C129.896 81.4228 129.805 81.3855 129.75 81.3294C129.695 81.2546 129.695 81.1612 129.75 81.0491L132.018 75.0316C132.054 74.9195 132.127 74.8447 132.274 74.8447H133.353C133.481 74.8447 133.572 74.9008 133.609 75.0316L135.859 81.0491C135.913 81.1612 135.913 81.2546 135.859 81.3294C135.804 81.4041 135.73 81.4228 135.602 81.4228H134.779C134.651 81.4228 134.56 81.3668 134.523 81.236L134.194 80.3016H131.414L131.067 81.236C131.03 81.3668 130.938 81.4228 130.81 81.4228H130.006ZM133.847 79.199L132.804 76.3024L131.78 79.199H133.847Z" fill="#F8F3F1"/>
<path d="M148.881 81.4227C148.881 81.4227 148.735 81.404 148.68 81.348C148.625 81.2919 148.607 81.2358 148.607 81.1424V75.1062C148.607 74.9194 148.698 74.8259 148.881 74.8259H153.49C153.49 74.8259 153.636 74.8446 153.691 74.9007C153.746 74.9567 153.764 75.0128 153.764 75.1062V75.6856C153.764 75.6856 153.746 75.8351 153.691 75.8911C153.636 75.9472 153.582 75.9659 153.49 75.9659H149.924V77.5917H153.069C153.069 77.5917 153.216 77.6104 153.271 77.6665C153.326 77.7225 153.344 77.7973 153.344 77.872V78.3766C153.344 78.3766 153.326 78.5261 153.271 78.5822C153.216 78.6382 153.161 78.6569 153.069 78.6569H149.924V81.1424C149.924 81.1424 149.905 81.2919 149.85 81.348C149.796 81.404 149.741 81.4227 149.649 81.4227H148.881Z" fill="#F8F3F1"/>
<path d="M166.129 78.115C166.129 77.6291 166.22 77.1806 166.403 76.7695C166.586 76.3583 166.842 76.0219 167.153 75.7416C167.464 75.4613 167.811 75.2371 168.214 75.0689C168.616 74.9007 169.037 74.8259 169.457 74.8259C169.878 74.8259 170.299 74.9007 170.701 75.0689C171.103 75.2371 171.451 75.4426 171.762 75.7416C172.073 76.0219 172.311 76.377 172.512 76.7695C172.695 77.1806 172.786 77.6291 172.786 78.115C172.786 78.6009 172.695 79.0494 172.512 79.4605C172.329 79.8716 172.073 80.208 171.762 80.507C171.451 80.7873 171.103 81.0116 170.701 81.1798C170.299 81.348 169.896 81.4227 169.457 81.4227C169.018 81.4227 168.616 81.348 168.214 81.1798C167.811 81.0116 167.464 80.806 167.153 80.507C166.842 80.208 166.604 79.8716 166.403 79.4605C166.22 79.0494 166.129 78.6009 166.129 78.115ZM169.457 75.9659C169.165 75.9659 168.909 76.0219 168.653 76.1341C168.415 76.2462 168.195 76.4144 168.012 76.6013C167.83 76.8068 167.683 77.0311 167.592 77.2927C167.482 77.5543 167.427 77.816 167.427 78.115C167.427 78.414 167.482 78.6943 167.592 78.9746C167.701 79.2362 167.848 79.4605 168.031 79.6474C168.214 79.8343 168.433 79.9838 168.671 80.0959C168.909 80.208 169.165 80.2641 169.439 80.2641C169.713 80.2641 169.969 80.208 170.226 80.0959C170.463 79.9838 170.683 79.8343 170.866 79.6474C171.049 79.4605 171.195 79.2176 171.305 78.9559C171.414 78.6943 171.469 78.414 171.469 78.115C171.469 77.816 171.414 77.5543 171.323 77.2927C171.213 77.0311 171.085 76.8068 170.902 76.62C170.719 76.4331 170.5 76.2649 170.262 76.1528C170.024 76.0406 169.75 75.9846 169.457 75.9846V75.9659Z" fill="#F8F3F1"/>
<path d="M185.406 78.115C185.406 77.6291 185.498 77.1806 185.681 76.7695C185.864 76.3583 186.12 76.0219 186.431 75.7416C186.741 75.4613 187.089 75.2371 187.491 75.0689C187.894 74.9007 188.314 74.8259 188.735 74.8259C189.156 74.8259 189.576 74.9007 189.979 75.0689C190.381 75.2371 190.729 75.4426 191.04 75.7416C191.351 76.0219 191.588 76.377 191.789 76.7695C191.972 77.1806 192.064 77.6291 192.064 78.115C192.064 78.6009 191.972 79.0494 191.789 79.4605C191.607 79.8716 191.351 80.208 191.04 80.507C190.729 80.7873 190.381 81.0116 189.979 81.1798C189.576 81.348 189.174 81.4227 188.735 81.4227C188.296 81.4227 187.894 81.348 187.491 81.1798C187.089 81.0116 186.741 80.806 186.431 80.507C186.12 80.208 185.882 79.8716 185.681 79.4605C185.498 79.0494 185.406 78.6009 185.406 78.115ZM188.735 75.9659C188.442 75.9659 188.186 76.0219 187.93 76.1341C187.693 76.2462 187.473 76.4144 187.29 76.6013C187.107 76.8068 186.961 77.0311 186.869 77.2927C186.76 77.5543 186.705 77.816 186.705 78.115C186.705 78.414 186.76 78.6943 186.869 78.9746C186.979 79.2362 187.126 79.4605 187.308 79.6474C187.491 79.8343 187.711 79.9838 187.949 80.0959C188.186 80.208 188.442 80.2641 188.717 80.2641C188.991 80.2641 189.247 80.208 189.503 80.0959C189.741 79.9838 189.96 79.8343 190.143 79.6474C190.326 79.4605 190.473 79.2176 190.582 78.9559C190.692 78.6943 190.747 78.414 190.747 78.115C190.747 77.816 190.692 77.5543 190.601 77.2927C190.491 77.0311 190.363 76.8068 190.18 76.62C189.997 76.4331 189.778 76.2649 189.54 76.1528C189.302 76.0406 189.028 75.9846 188.735 75.9846V75.9659Z" fill="#F8F3F1"/>
<path d="M204.958 75.1062C204.958 74.9194 205.05 74.8259 205.233 74.8259H207.848C208.251 74.8259 208.616 74.9194 208.946 75.0876C209.293 75.2557 209.586 75.4987 209.842 75.7977C210.098 76.0967 210.299 76.4518 210.445 76.8442C210.592 77.2366 210.665 77.6665 210.665 78.115C210.665 78.5635 210.592 78.9933 210.445 79.4044C210.299 79.7969 210.098 80.1519 209.842 80.4509C209.586 80.75 209.293 80.9929 208.946 81.1611C208.598 81.3293 208.232 81.4227 207.848 81.4227H205.233C205.233 81.4227 205.086 81.404 205.031 81.348C204.977 81.2919 204.958 81.2358 204.958 81.1424V75.1062ZM206.257 80.2641H207.629C207.866 80.2641 208.104 80.208 208.305 80.0959C208.507 79.9838 208.689 79.8343 208.854 79.6287C209 79.4231 209.128 79.1989 209.22 78.9372C209.311 78.6756 209.348 78.3953 209.348 78.115C209.348 77.8347 209.311 77.5543 209.22 77.2927C209.128 77.0311 209.019 76.8068 208.854 76.62C208.708 76.4331 208.525 76.2649 208.305 76.1528C208.104 76.0406 207.866 75.9846 207.629 75.9846H206.257V80.2828V80.2641Z" fill="#F8F3F1"/>
<path d="M100.028 15.0063L103.412 29.6763L106.759 15.0063C106.997 14.0906 107.107 13.3244 107.107 12.6891C107.107 11.4183 106.631 10.6334 105.68 10.3531V10.0541H114.496V10.3531C113.526 10.6334 113.033 11.4183 113.033 12.7264C113.033 13.1376 113.142 13.8664 113.38 14.8755L116.764 29.6763L120.239 14.5765C120.403 13.8664 120.495 13.2684 120.495 12.7451C120.495 11.437 120.001 10.6521 119.032 10.3718V10.0728H127.555V10.3718C126.128 10.8016 125.067 12.4648 124.391 15.3801L119.16 38.1418H113.49L109.649 21.4349L105.808 38.1418H100.138L94.9071 15.3801C94.1572 12.4461 93.0964 10.7829 91.7429 10.3718V10.0728H101.162V10.3718C100.193 10.6521 99.6991 11.437 99.6991 12.7451C99.6991 13.1189 99.8088 13.8664 100.047 15.0063H100.028Z" fill="#F8F3F1"/>
<path d="M129.256 10.0728H138.675V10.3718C138.218 10.5026 137.852 10.7081 137.541 10.9698C137.23 11.2501 137.011 11.5678 136.883 11.9602C136.736 12.3527 136.645 12.7264 136.59 13.1002C136.535 13.4739 136.517 13.8851 136.517 14.3709V33.8436C136.517 34.3295 136.535 34.7593 136.59 35.1331C136.645 35.5068 136.736 35.8806 136.883 36.273C137.029 36.6655 137.249 36.9832 137.559 37.2635C137.87 37.5438 138.236 37.7307 138.693 37.8615V38.1418H129.274V37.8615C129.731 37.7307 130.097 37.5251 130.408 37.2635C130.719 37.0019 130.938 36.6655 131.085 36.273C131.231 35.8806 131.323 35.5068 131.377 35.1331C131.432 34.7593 131.451 34.3295 131.451 33.8436V14.3896C131.451 13.9038 131.432 13.4739 131.377 13.1189C131.323 12.7451 131.231 12.3714 131.085 11.9789C130.938 11.5865 130.719 11.2501 130.426 10.9885C130.134 10.7268 129.75 10.5213 129.292 10.3904V10.0914L129.256 10.0728Z" fill="#F8F3F1"/>
<path d="M142.022 10.0728H151.405V10.3718C150.948 10.5026 150.582 10.7081 150.271 10.9698C149.96 11.2314 149.741 11.5678 149.613 11.9602C149.466 12.3527 149.375 12.7264 149.32 13.1002C149.265 13.4739 149.247 13.8851 149.247 14.3709V33.5633H153.015C154.99 33.5633 156.563 33.3764 157.715 33.0027C158.867 32.6289 159.727 31.8814 160.312 30.7975H160.568L158.776 38.1418H142.041V37.8615C142.498 37.7307 142.864 37.5251 143.175 37.2635C143.485 37.0019 143.705 36.6655 143.851 36.273C143.998 35.8806 144.089 35.5068 144.144 35.1331C144.199 34.7593 144.217 34.3295 144.217 33.8436V14.3896C144.217 13.9038 144.199 13.4739 144.144 13.1189C144.089 12.7451 143.998 12.3714 143.851 11.9789C143.705 11.5865 143.485 11.2501 143.193 10.9885C142.9 10.7268 142.516 10.5213 142.059 10.3904V10.0914L142.022 10.0728Z" fill="#F8F3F1"/>
<path d="M162.818 38.1418V37.8615C163.275 37.7307 163.641 37.5251 163.952 37.2635C164.263 37.0019 164.482 36.6655 164.629 36.273C164.775 35.8806 164.867 35.5068 164.921 35.1331C164.976 34.7593 164.995 34.3295 164.995 33.8436V14.3896C164.995 13.9037 164.976 13.4739 164.921 13.1189C164.867 12.7451 164.775 12.3713 164.629 11.9789C164.482 11.5865 164.263 11.2501 163.97 10.9884C163.678 10.7268 163.294 10.5212 162.836 10.3904V10.0914H172.768C174.743 10.0914 176.517 10.4652 178.09 11.2127C179.663 11.9602 180.943 12.9694 181.913 14.2588C182.901 15.5483 183.65 17.0433 184.163 18.7065C184.675 20.3884 184.931 22.1824 184.931 24.1073C184.931 26.0321 184.675 27.8448 184.163 29.508C183.65 31.1899 182.901 32.6663 181.913 33.9557C180.925 35.2452 179.645 36.273 178.09 37.0019C176.517 37.7494 174.743 38.1231 172.768 38.1231H162.836L162.818 38.1418ZM177.395 31.5637C178.694 29.9566 179.352 27.4711 179.352 24.1073C179.352 20.7435 178.694 18.258 177.395 16.6508C176.097 15.0437 174.341 14.2401 172.146 14.2401H170.043V33.9557H172.146C174.341 33.9557 176.078 33.1522 177.395 31.545V31.5637Z" fill="#F8F3F1"/>
<path d="M93.4073 41.9915V41.6925H102.827L107.911 56.0447L112.941 41.6925H122.36V41.9915C121.903 42.1223 121.537 42.3279 121.226 42.5895C120.916 42.8698 120.696 43.1875 120.568 43.58C120.44 43.9724 120.33 44.3462 120.294 44.7199C120.239 45.0937 120.221 45.5048 120.221 45.9907V65.4634C120.221 65.9679 120.239 66.3978 120.294 66.7528C120.349 67.1266 120.44 67.5003 120.568 67.8741C120.714 68.2665 120.934 68.5842 121.226 68.8646C121.537 69.1449 121.903 69.3317 122.36 69.4626V69.7429H112.941V69.4626C113.398 69.3317 113.764 69.1262 114.075 68.8646C114.386 68.5842 114.605 68.2665 114.752 67.8741C114.898 67.4817 114.99 67.1079 115.044 66.7341C115.099 66.3604 115.118 65.9306 115.118 65.4447V48.3267L107.564 69.7242H107.308L99.7905 48.4949V65.4447C99.7905 65.9306 99.8088 66.3604 99.8637 66.7341C99.9185 67.1079 100.01 67.4817 100.156 67.8741C100.303 68.2665 100.522 68.5842 100.833 68.8646C101.144 69.1449 101.51 69.3317 101.967 69.4626V69.7429H93.4073V69.4626C93.8645 69.3317 94.2303 69.1262 94.5413 68.8646C94.8522 68.6029 95.0717 68.2665 95.218 67.8741C95.3643 67.4817 95.4558 67.1079 95.5106 66.7341C95.5655 66.3604 95.5838 65.9306 95.5838 65.4447V45.972C95.5838 45.4861 95.5655 45.0563 95.5106 44.7012C95.4558 44.3275 95.3643 43.9537 95.218 43.5613C95.0717 43.1688 94.8522 42.8325 94.5596 42.5708C94.2669 42.3092 93.8828 42.1036 93.4256 41.9728L93.4073 41.9915Z" fill="#F8F3F1"/>
<path d="M131.231 41.9915V41.6925H141.803V41.9915C140.833 42.2718 140.34 42.9633 140.34 44.1032C140.34 44.6826 140.486 45.3927 140.76 46.271L146.54 64.9775C146.704 65.5008 146.851 65.9493 147.015 66.3417C147.18 66.7341 147.381 67.164 147.619 67.6499C147.875 68.117 148.168 68.5282 148.497 68.8272C148.826 69.1262 149.192 69.3504 149.594 69.4813V69.7616H140.23V69.4813C141.181 69.2009 141.656 68.4908 141.656 67.3508C141.656 66.7902 141.51 66.0801 141.236 65.2017L141.016 64.3982H131.085L130.865 65.2017C130.591 66.0801 130.445 66.8089 130.445 67.3882C130.445 68.5095 130.92 69.2009 131.871 69.4813V69.7616H123.385V69.4813C124.592 69.1449 125.579 67.7807 126.348 65.3886L132.329 46.1215C132.548 45.3553 132.658 44.6826 132.658 44.1032C132.658 42.9633 132.182 42.2718 131.231 41.9915ZM139.59 59.857L136.041 48.3454L132.511 59.857H139.608H139.59Z" fill="#F8F3F1"/>
<path d="M150.655 41.7112H160.075V42.0102C159.617 42.141 159.251 42.3466 158.941 42.6082C158.63 42.8885 158.41 43.2062 158.282 43.5986C158.136 43.9911 158.044 44.3648 157.989 44.7386C157.935 45.1124 157.916 45.5235 157.916 46.0094V65.4821C157.916 65.9679 157.935 66.3978 157.989 66.7715C158.044 67.1453 158.136 67.519 158.282 67.9115C158.428 68.3039 158.648 68.6216 158.959 68.9019C159.27 69.1822 159.636 69.3691 160.093 69.4999V69.7802H150.673V69.4999C151.131 69.3691 151.496 69.1635 151.807 68.9019C152.118 68.6403 152.338 68.3039 152.484 67.9115C152.63 67.519 152.722 67.1453 152.777 66.7715C152.832 66.3978 152.85 65.9679 152.85 65.4821V46.0094C152.85 45.5235 152.832 45.0937 152.777 44.7386C152.722 44.3648 152.63 43.9911 152.484 43.5986C152.338 43.2062 152.118 42.8698 151.826 42.6082C151.533 42.3466 151.149 42.141 150.692 42.0102V41.7112H150.655Z" fill="#F8F3F1"/>
<path d="M163.403 41.9915V41.6925H171.926L181.858 59.2403V45.9907C181.858 45.5048 181.821 45.075 181.785 44.7199C181.73 44.3462 181.639 43.9724 181.492 43.58C181.346 43.1875 181.126 42.8512 180.834 42.5895C180.541 42.3279 180.157 42.1223 179.7 41.9915V41.6925H188.26V41.9915C187.802 42.1223 187.436 42.3279 187.126 42.5895C186.815 42.8512 186.595 43.1875 186.467 43.58C186.321 43.9724 186.229 44.3462 186.174 44.7199C186.12 45.0937 186.101 45.5048 186.101 45.9907V69.7429H181.895L169.787 48.3827V65.4634C169.787 65.9493 169.805 66.3791 169.86 66.7528C169.915 67.1266 170.006 67.5004 170.152 67.8928C170.299 68.2852 170.518 68.6029 170.829 68.8832C171.14 69.1636 171.506 69.3504 171.963 69.4813V69.7616H163.44V69.4813C163.897 69.3504 164.263 69.1449 164.574 68.8832C164.885 68.6216 165.104 68.2852 165.251 67.8928C165.397 67.5004 165.488 67.1266 165.543 66.7528C165.598 66.3791 165.616 65.9493 165.616 65.4634V45.9907C165.616 45.5048 165.598 45.075 165.543 44.7199C165.488 44.3462 165.397 43.9724 165.251 43.58C165.104 43.1875 164.885 42.8512 164.592 42.5895C164.3 42.3279 163.915 42.1223 163.458 41.9915H163.403Z" fill="#F8F3F1"/>
<path d="M191.607 41.7112H210.208V48.2519H209.952C209.714 47.3175 209.275 46.6821 208.635 46.3644C207.994 46.0467 207.208 45.8786 206.257 45.8786H198.849V52.8678H204.263C204.721 52.8678 205.105 52.8491 205.452 52.793C205.8 52.737 206.147 52.6435 206.513 52.4753C206.879 52.3258 207.171 52.0829 207.409 51.7465C207.647 51.4288 207.83 51.0177 207.958 50.5318H208.232V59.7449H207.958C207.83 59.259 207.647 58.8666 207.409 58.5302C207.171 58.2125 206.86 57.9696 206.513 57.8014C206.147 57.6519 205.8 57.5397 205.452 57.4837C205.105 57.4276 204.702 57.4089 204.263 57.4089H198.849V65.2017H204.428C206.422 65.2017 207.994 65.0149 209.147 64.6411C210.299 64.2673 211.159 63.5198 211.744 62.4359H212L210.208 69.7802H191.607V69.4999C192.064 69.3691 192.43 69.1635 192.741 68.9019C193.051 68.6403 193.271 68.3039 193.417 67.9115C193.564 67.519 193.655 67.1453 193.71 66.7715C193.765 66.3978 193.783 65.9679 193.783 65.4821V46.0094C193.783 45.5235 193.765 45.0937 193.71 44.7386C193.655 44.3648 193.564 43.9911 193.417 43.5986C193.271 43.2062 193.051 42.8698 192.759 42.6082C192.466 42.3466 192.082 42.141 191.625 42.0102V41.7112H191.607Z" fill="#F8F3F1"/>
<path d="M66.3014 10.7455V11.2874C67.2525 11.3809 67.5452 11.6986 67.5452 12.1471C67.5452 12.1844 67.472 12.5208 67.3988 12.689L58.5282 35.9553H58.3818L44.5546 2.82186C44.4082 2.41073 44.1156 1.81272 44.1156 1.36421C44.1156 1.00914 44.4082 0.635385 45.5056 0.541946V0H32.5929V0.541946C33.6171 0.728824 33.9829 1.04652 33.9829 1.45765C33.9829 1.73796 33.9098 1.99959 33.8366 2.18647L20.2288 35.974H20.0825L10.9192 13.287C10.846 12.9693 10.6265 12.5956 10.6265 12.2405C10.6265 11.7359 11.285 11.3809 12.236 11.2874V10.7455H0V11.2874C1.39004 11.5677 1.82901 12.1471 2.12165 12.8385L14.8149 41.4495C15.0344 41.9541 15.8575 43.9163 15.8575 43.9163H24.3989C24.3989 43.9163 25.0757 42.2344 25.1488 42.0102L38.6835 8.40951H38.8298L53.0229 41.6925C53.2423 42.197 53.8459 43.9163 53.8459 43.9163H61.9118C61.9118 43.9163 62.7715 42.1783 62.9178 41.8233L75.099 12.8572C75.5379 11.9041 76.1232 11.6799 77.2206 11.3061V10.7642H66.3014V10.7455Z" fill="#F8F3F1"/>
<path d="M75.1172 79.1615L62.9361 50.1955C62.7897 49.8404 61.9301 48.1024 61.9301 48.1024H53.8642C53.8642 48.1024 53.2606 49.8404 53.0411 50.3263L38.8481 83.6092H38.7017L25.1671 50.0086C25.0939 49.7843 24.4172 48.1024 24.4172 48.1024H15.8758C15.8758 48.1024 15.0527 50.0646 14.8332 50.5692L2.13993 79.1802C1.84729 79.8717 1.40832 80.451 0.01828 80.7313V81.2733H12.2726V80.7313C11.3215 80.6379 10.6631 80.2828 10.6631 79.7782C10.6631 79.4232 10.8826 79.0494 10.9557 78.7317L20.119 56.0447H20.2654L33.8732 89.8323C33.9463 90.0191 34.0195 90.2808 34.0195 90.5611C34.0195 90.9722 33.6537 91.2899 32.6294 91.4768V92.0187H45.5422V91.4768C44.4448 91.3833 44.1522 91.0283 44.1522 90.6545C44.1522 90.206 44.4448 89.608 44.5911 89.1969L58.4184 56.0447H58.5647L67.4354 79.311C67.5086 79.4979 67.5817 79.8156 67.5817 79.853C67.5817 80.3015 67.2891 80.6192 66.338 80.7126V81.2546H77.2572V80.7126C76.1598 80.3575 75.5745 80.1146 75.1355 79.1615H75.1172Z" fill="#F8F3F1"/>
<path d="M43.6584 45.1871L39.598 36.2169L35.5376 45.1871L39.598 54.1759L43.6584 45.1871Z" fill="#F8F3F1"/>
</g>
<defs>
<clipPath id="clip0_53_8">
<rect width="212" height="92" fill="white"/>
</clipPath>
</defs>
</svg>
