<svg width="90" height="56" viewBox="0 0 90 56" fill="none" xmlns="http://www.w3.org/2000/svg">
<path d="M15.4522 27.2034C15.4226 30.8881 12.1353 34.2867 7.48571 34.2867C7.15397 34.2867 6.83153 34.2685 6.51924 34.233C6.38933 34.2182 6.30879 34.0835 6.35135 33.9573L7.18888 31.4739C7.23636 31.3331 7.37293 31.2457 7.51855 31.2538C7.60544 31.2587 7.69326 31.2611 7.78186 31.2611C10.1215 31.2611 11.9576 29.54 11.9576 27.4731C11.9576 25.4545 10.5319 24.3867 8.99949 23.239C7.21155 21.8999 5.27825 20.4519 5.29419 17.258C5.32381 13.9329 8.19647 11 12.4611 11C17.1402 11 19.452 15.0227 17.6733 18.9983C17.4855 19.418 17.201 19.9247 16.5792 19.707L15.2363 19.2339C14.5987 19.0081 14.4925 18.3338 14.6441 17.7564C15.3688 14.996 13.7826 13.9057 12.1353 13.9057C10.1511 13.9057 8.75916 15.0712 8.72955 16.9884C8.71624 18.7918 10.0837 19.8213 11.5886 20.9542C13.4335 22.343 15.4848 23.8874 15.4522 27.2034Z" fill="white"/>
<path d="M4.2977 33.3549C4.25717 33.4751 4.12285 33.5325 4.01271 33.4733C2.13129 32.4612 1 30.574 1 28.2056C1 26.9334 1.12022 25.9304 1.86061 24.7471C2.08022 24.3961 2.40708 24.3485 2.88921 24.5159L5.92015 25.584C6.41276 25.7646 6.63748 26.3561 6.48173 26.8787L5.3628 30.1941C5.36032 30.2014 5.35812 30.2088 5.35618 30.2163L4.2977 33.3549Z" fill="white"/>
<path fill-rule="evenodd" clip-rule="evenodd" d="M32.7061 34.2882C34.2983 34.2882 35.864 33.0109 37.1566 31.4087C37.1778 33.1857 37.943 34.2883 39.9743 34.2883C41.6637 34.2883 43.3232 32.8503 44.6569 31.112C44.7402 33.0682 45.6232 34.2883 47.8293 34.2883C49.5327 34.2883 51.2162 32.7923 52.5659 31.0075C53.2736 33.1585 55.2949 34.2882 57.7531 34.2882C60.4177 34.2882 62.2399 33.4193 63.6167 32.1035C63.7514 31.9913 63.8926 31.8488 64.0389 31.6724L64.0501 31.6595C64.2032 31.4918 64.3506 31.3183 64.4929 31.1399C66.1971 29.0895 67.6039 26.798 68.669 24.3355C69.3495 24.5121 70.0457 24.6184 70.747 24.6526L70.663 24.8345C69.4875 27.3798 68.5742 29.3574 68.5742 31.276C68.5483 31.6732 68.6048 32.0715 68.7399 32.4448C68.8751 32.8181 69.0859 33.158 69.3586 33.4424C69.6312 33.7267 69.9596 33.9491 70.3222 34.0948C70.6848 34.2406 71.0734 34.3066 71.4626 34.2883C73.083 34.2883 74.7033 32.8948 76.0247 31.2007C76.5334 33.0465 77.9908 34.288 80.1022 34.288C84.3012 34.288 87 29.981 87 25.7621C87 23.4192 85.5773 21.1028 82.844 21.1028C79.3609 21.1028 76.7609 24.0597 76.0318 27.6277C74.8111 29.6939 73.4069 31.232 72.5145 31.232C72.0834 31.232 71.8334 30.9149 71.8334 30.4041C71.8334 29.1093 73.3078 25.6303 74.4632 22.9879C74.508 22.8888 74.5277 22.7797 74.5204 22.6707C74.5132 22.5617 74.4792 22.4564 74.4217 22.3643C74.3642 22.2722 74.2849 22.1964 74.1912 22.1438C74.0976 22.0911 73.9924 22.0634 73.8855 22.0631C72.5321 22.0366 71.1816 21.9248 69.8417 21.7284C69.811 21.7226 69.7818 21.7101 69.7564 21.6917C69.7309 21.6733 69.7096 21.6494 69.694 21.6218C69.6784 21.5941 69.6689 21.5634 69.6661 21.5316C69.6633 21.4998 69.6673 21.4678 69.6778 21.4378C69.7302 21.2733 69.7745 21.1471 69.8135 21.036C69.8643 20.8911 69.9061 20.772 69.9451 20.6275C69.9451 20.6275 69.9453 20.6256 69.9456 20.6234C69.9512 20.5848 69.9929 20.2928 69.6175 20.2928H68.0051C67.2286 20.3272 67.0304 20.9863 66.8283 21.6585L66.8152 21.702C66.342 23.2864 65.9424 24.5834 65.4626 25.7568C63.3081 30.0601 61.3937 31.593 58.4429 31.593C56.6408 31.593 55.7441 30.8356 55.5199 29.5672C58.6584 30.2983 62.8144 28.616 62.8144 24.8375C62.8269 24.3353 62.7377 23.8359 62.5524 23.3706C62.3671 22.9052 62.0896 22.4841 61.7375 22.1334C61.3853 21.7828 60.9661 21.5103 60.506 21.3329C60.0458 21.1556 59.5548 21.0773 59.0637 21.103C55.5845 21.103 53.0732 24.0495 52.4471 27.5205C51.1368 29.761 49.7316 31.2408 48.7864 31.2408C47.2344 31.2408 47.2602 29.4968 49.2175 23.9127H50.7092C51.0646 23.9119 51.4111 23.7989 51.7013 23.5892C51.9914 23.3795 52.2111 23.0834 52.3301 22.7413L52.3905 22.5827C52.4361 22.4495 52.4497 22.3071 52.4301 22.1674C52.4106 22.0278 52.3585 21.8949 52.2782 21.7801C52.1979 21.6653 52.0918 21.5719 51.9688 21.5077C51.8458 21.4435 51.7095 21.4104 51.5714 21.4113H50.1918C50.5884 20.3367 51.0368 19.1741 51.5369 17.8882C51.571 17.7897 51.5818 17.6844 51.5683 17.5809C51.5549 17.4774 51.5176 17.3786 51.4595 17.2927C51.4015 17.2067 51.3243 17.136 51.2343 17.0864C51.1443 17.0369 51.0442 17.0098 50.9419 17.0074H49.8297C49.4788 17.008 49.1365 17.118 48.8484 17.3226C48.5603 17.5272 48.3401 17.8167 48.2173 18.1524L47.0188 21.4201H46.8895C46.529 21.4185 46.1771 21.5324 45.8833 21.7457C45.5894 21.9589 45.3684 22.2609 45.2512 22.6092L44.9529 23.4995C44.8836 23.7064 45.0342 23.9215 45.2484 23.9215H46.148C45.9227 24.6023 45.7138 25.2683 45.5278 25.9131C43.9791 29.0308 42.132 31.2496 40.9745 31.2496C39.5128 31.2496 40.7438 27.9118 42.3651 23.5156C42.4749 23.2181 42.5864 22.9157 42.699 22.6092C42.7476 22.4764 42.764 22.3336 42.747 22.193C42.73 22.0523 42.68 21.9179 42.6013 21.8012C42.5226 21.6845 42.4175 21.5889 42.2949 21.5226C42.1723 21.4562 42.0359 21.4211 41.8971 21.4201H41.1039C40.753 21.4208 40.4106 21.5307 40.1225 21.7353C39.8344 21.9399 39.6143 22.2294 39.4915 22.5651C39.1268 23.5627 38.775 24.5416 38.4599 25.482C37.0806 28.9469 34.9215 31.1967 33.7149 31.1967C32.7837 31.1967 32.9044 30.2454 34.0598 26.7928C34.8789 24.2473 36.3878 19.8523 38.2157 14.9463C38.2498 14.8479 38.2606 14.7426 38.2471 14.6391C38.2337 14.5356 38.1964 14.4368 38.1384 14.3508C38.0803 14.2649 38.0031 14.1942 37.9132 14.1446C37.8232 14.095 37.723 14.0679 37.6208 14.0656H36.474C36.1207 14.0651 35.7757 14.1754 35.4857 14.3818C35.1958 14.5882 34.975 14.8806 34.853 15.2194C34.6339 15.8332 34.4129 16.4511 34.1923 17.0676C33.0713 20.2002 31.9632 23.2971 31.1945 25.6419C29.6205 29.3727 27.3818 31.421 25.3341 31.6371C27.1361 30.404 28.5329 27.1364 28.5329 24.952C28.5329 22.4771 27.4638 21.0766 25.7393 21.0766C24.0148 21.0766 22.4284 22.3449 21.4282 24.0624L22.1352 22.3009C22.1695 22.2018 22.1802 22.0957 22.1663 21.9915C22.1524 21.8873 22.1143 21.788 22.0553 21.7019C21.9963 21.6157 21.9179 21.5452 21.8269 21.4962C21.7358 21.4472 21.6346 21.4211 21.5316 21.4201H20.5573C20.1979 21.4179 19.8468 21.5305 19.5531 21.7421C19.2593 21.9537 19.0377 22.2538 18.9191 22.6004C17.0595 28.1481 14.3178 36.2146 12.2607 42.267L12.2583 42.2739C12.0367 42.9261 11.823 43.5548 11.6192 44.1545C11.5913 44.2522 11.5858 44.3552 11.6033 44.4554C11.6208 44.5557 11.6608 44.6504 11.7201 44.7323C11.7793 44.8141 11.8563 44.8809 11.945 44.9273C12.0337 44.9738 12.1317 44.9986 12.2314 45H13.3954C13.7663 45.0011 14.1277 44.8801 14.4259 44.6548C14.7241 44.4295 14.9433 44.1119 15.0509 43.7493C15.9217 40.7987 17.7723 35.2131 18.4794 33.1521C19.7698 33.9708 21.2731 34.3701 22.7905 34.2971C25.337 34.2971 27.7944 33.9546 29.9782 31.5365C30.0335 33.4106 30.9142 34.2882 32.7061 34.2882ZM24.0407 23.8863C24.8167 23.8863 25.1875 24.5557 25.1875 25.6038C25.1875 28.0788 23.2647 31.69 21.2126 31.7252C20.8373 31.7407 20.4627 31.6784 20.1116 31.5422C19.7604 31.406 19.4398 31.1986 19.1691 30.9325C20.9971 25.7888 22.7991 23.8863 24.0407 23.8863ZM55.5889 27.5679C57.572 27.7881 59.9001 26.6871 59.9001 24.9696C59.9242 24.8148 59.9146 24.6564 59.872 24.5059C59.8294 24.3553 59.7548 24.2161 59.6535 24.0984C59.5523 23.9806 59.4268 23.8871 59.2861 23.8246C59.1454 23.762 58.9929 23.7319 58.8395 23.7365C57.2961 23.7365 55.9855 25.4452 55.5889 27.5679ZM83.7752 26.0175C83.7752 24.7756 83.2752 23.886 82.3181 23.886C80.6368 23.886 79.0244 26.8983 79.0244 29.2148C79.0244 30.6416 79.6107 31.3727 80.516 31.3727C82.1284 31.3727 83.7752 28.4221 83.7752 26.0175Z" fill="white"/>
<path d="M40.5951 18.0908C40.5932 17.3692 40.859 16.6736 41.3389 16.1441C41.8189 15.6146 42.4774 15.2905 43.1818 15.2371C43.3955 15.2297 43.6084 15.2673 43.8073 15.3474C44.0062 15.4276 44.1868 15.5487 44.338 15.7031C44.4892 15.8575 44.6077 16.0421 44.6862 16.2452C44.7646 16.4484 44.8014 16.6659 44.7942 16.8841C44.7792 17.597 44.5142 18.2808 44.0474 18.8109C43.5806 19.3411 42.943 19.6825 42.2506 19.7731C42.0297 19.7901 41.8078 19.7583 41.6 19.6799C41.3922 19.6015 41.2033 19.4783 41.0463 19.3187C40.8892 19.1591 40.7676 18.9668 40.6898 18.7549C40.6119 18.5431 40.5797 18.3165 40.5951 18.0908Z" fill="white"/>
</svg>
