<svg width="121" height="56" viewBox="0 0 121 56" fill="none" xmlns="http://www.w3.org/2000/svg">
<path d="M21.2421 22.3042L15.2923 28.2398H29.3803L22.3615 21.239H22.3634L15.2763 14.1519L8.24829 21.1958H20.79C21.3555 21.1958 21.6636 21.898 21.2421 22.3042Z" fill="white"/>
<path d="M9.36666 34.1714L15.2909 28.2422H1.20288L15.2909 42.3302L22.3349 35.2862H9.80953C9.25632 35.2862 8.9276 34.6028 9.36666 34.1714Z" fill="white"/>
<path d="M36.4253 22.4294H46.0808V24.8433L40.5634 31.7401H46.0808V34.4989H36.4253V32.085L42.0037 25.2069H36.4333L36.4253 22.4294Z" fill="white"/>
<path d="M49.1854 21.7382C50.1376 21.7382 50.9096 20.9663 50.9096 20.014C50.9096 19.0617 50.1376 18.2898 49.1854 18.2898C48.2331 18.2898 47.4612 19.0617 47.4612 20.014C47.4612 20.9663 48.2331 21.7382 49.1854 21.7382Z" fill="white"/>
<path d="M47.4612 22.4294H50.9096C50.9096 22.4294 50.9096 29.3504 50.9096 30.3696C50.9096 31.3888 51.2544 31.7401 52.6338 31.7401C52.6338 32.6888 52.6338 34.4989 52.6338 34.4989C52.6338 34.4989 51.5552 34.4989 50.2199 34.4989C48.4957 34.4989 47.4612 33.4643 47.4612 31.7401C47.4612 30.3167 47.4612 22.4294 47.4612 22.4294Z" fill="white"/>
<path d="M54.0139 22.3955H57.4738C57.4738 22.3955 57.4738 23.7002 57.4738 24.4975C58.3466 23.1063 59.7233 22.4285 61.2556 22.4285C63.4346 22.4285 65.0488 23.6105 65.0488 26.0738C65.0488 28.5371 65.0488 34.4979 65.0488 34.4979H61.6031C61.6031 34.4979 61.6031 28.7885 61.6031 27.6011C61.6031 26.4137 60.9107 25.532 59.8762 25.532C59.103 25.532 57.4738 26.0175 57.4738 28.3475C57.4738 30.6774 57.4738 34.4979 57.4738 34.4979H54.0139V22.3955Z" fill="white"/>
<path d="M86.4265 25.5315V22.4279H84.0126C84.0126 19.8343 84.0126 18.2898 84.0126 18.2898H80.5642C80.5642 18.2898 80.5642 29.9703 80.5642 31.3937C80.5642 33.118 81.9436 34.4973 83.6678 34.4973C85.0031 34.4973 86.4265 34.4973 86.4265 34.4973C86.4265 34.4973 86.4265 32.6873 86.4265 31.7386C84.3575 31.7386 84.0126 31.3937 84.0126 29.6695C84.0126 29.2515 84.0126 28.0737 84.0126 25.5315H86.4265Z" fill="white"/>
<path d="M91.6003 24.4387V22.4294H88.1519V34.4989H91.6003V27.9469C91.9451 26.2227 93.6693 25.533 95.7384 25.533C95.7384 24.7364 95.7384 23.5774 95.7384 22.4294C93.6693 22.4294 92.2899 23.2341 91.6003 24.4387Z" fill="white"/>
<path d="M106.427 30.3608C106.427 31.6624 106.427 32.8367 106.427 33.4644C105.148 34.2314 103.695 34.4958 102.23 34.4973C100.565 34.4989 96.4265 33.8 96.4265 28.6607C96.4265 23.5214 100.277 22.4294 102.206 22.4294C104.136 22.4294 107.806 23.464 107.461 29.3263C105.207 29.3263 98.9753 29.3263 98.9753 29.3263V27.2572C98.9753 27.2572 102.695 27.2572 104.391 27.2572C104.391 25.8779 103.404 25.1882 102.288 25.1882C100.909 25.1882 99.8745 26.2185 99.8745 28.3569C99.8745 30.7056 100.873 31.7401 102.826 31.7401C104.779 31.7401 105.683 30.9187 106.427 30.3608Z" fill="white"/>
<path d="M118.475 30.3608C118.475 31.6624 118.475 32.8367 118.475 33.4644C117.196 34.2314 115.743 34.4958 114.278 34.4973C112.613 34.4989 108.475 33.8 108.475 28.6611C108.475 23.5222 112.325 22.4294 114.255 22.4294C116.184 22.4294 119.854 23.464 119.51 29.3263C117.255 29.3263 111.023 29.3263 111.023 29.3263V27.2572C111.023 27.2572 114.743 27.2572 116.439 27.2572C116.439 25.8779 115.452 25.1882 114.337 25.1882C112.957 25.1882 111.923 26.2185 111.923 28.3569C111.923 30.7056 112.921 31.7401 114.874 31.7401C116.827 31.7401 117.731 30.9187 118.475 30.3608Z" fill="white"/>
<path d="M76.7946 32.4555C77.9207 31.3991 78.484 29.8113 78.484 28.4255C78.484 27.2143 78.1859 26.2675 77.4495 25.1882L79.5323 22.4294H72.3604C69.0783 22.4509 66.4146 24.8433 66.4146 28.4255C66.4146 32.085 69.0997 34.4989 72.3998 34.4989C72.4221 34.4989 72.4439 34.4981 72.4661 34.4981C72.4661 34.4985 72.4665 34.4989 72.4665 34.4989C72.891 34.4989 73.2784 34.4724 73.6455 34.405C74.7256 34.705 75.244 35.4073 75.244 36.4196C75.244 38.0795 73.6704 38.6374 72.291 38.6374V42.1087C76.3613 42.1087 78.4982 39.0588 78.4982 36.4124C78.4978 35.364 78.1767 33.6605 76.7946 32.4555ZM69.863 28.4255C69.863 26.9633 70.9373 25.8779 72.3998 25.8779C73.862 25.8779 75.0356 26.963 75.0356 28.4255C75.0356 29.888 73.862 31.0505 72.3998 31.0505C70.9373 31.0505 69.863 29.8876 69.863 28.4255Z" fill="white"/>
</svg>
