<svg width="114" height="56" viewBox="0 0 114 56" fill="none" xmlns="http://www.w3.org/2000/svg">
<path d="M5.77684 21.6769C5.68565 21.8072 5.64657 21.9505 5.63354 22.0807V22.3282V22.3413V33.9089C5.63354 37.6085 8.22585 40.761 11.8473 41.9725C12.0036 41.9855 12.2381 41.9855 12.4074 41.8553C12.6679 41.6468 12.6679 41.1908 12.6679 41.1908C12.6679 41.1908 12.6679 41.2039 12.681 41.2169V19.7229L5.95921 21.5206C5.89408 21.5597 5.82894 21.6118 5.77684 21.6769Z" fill="white"/>
<path d="M16.3305 18.8883C16.2263 19.0186 16.2003 19.1749 16.1872 19.3052V19.5397C16.1872 19.5527 16.1872 19.5657 16.1872 19.5657V41.2161V41.203C16.1872 41.203 16.1742 41.659 16.4478 41.8674C16.6171 41.9977 16.8646 41.9977 17.0079 41.9846C20.6293 40.7732 23.2086 37.6207 23.2086 33.9211V16.8953L16.6562 18.6539C16.539 18.706 16.4217 18.7711 16.3305 18.8883Z" fill="white"/>
<path d="M27.4775 15.749C27.4906 15.749 27.4906 15.749 27.4775 15.749C27.4906 15.749 27.4646 15.749 27.4516 15.7621L27.2561 15.8142C27.1389 15.8533 26.9826 15.9314 26.8913 16.0617C26.8002 16.192 26.7612 16.3352 26.7481 16.4655V16.713V16.726V33.6086C26.7481 36.4745 25.732 39.1971 23.8431 41.4377C23.7259 41.62 23.6086 41.8545 23.6868 42.0109C23.7389 42.102 23.8431 42.1541 23.9603 42.1801C24.0776 42.1801 24.1948 42.1932 24.3251 42.1932C29.5358 42.1932 33.7695 38.3373 33.7695 33.5955V14.0686L27.4775 15.749Z" fill="white"/>
<path d="M43.7893 19.9307H46.0299V27.5382C46.0299 29.5574 47.1502 30.8601 49.2866 30.8601C51.3969 30.8601 52.5171 29.5443 52.5171 27.5382V19.9307H54.7577V27.5904C54.7577 30.7428 52.947 32.8401 49.2866 32.8401C45.6 32.8401 43.7893 30.7298 43.7893 27.6164V19.9307Z" fill="white"/>
<path d="M57.4028 36.1101V23.4352H59.3959V24.6857C60.0863 23.7739 61.1415 23.2007 62.34 23.2007C64.7107 23.2007 66.4042 24.9854 66.4042 28.0075C66.4042 31.0297 64.7107 32.8405 62.34 32.8405C61.1805 32.8405 60.1384 32.3324 59.3959 31.3423V36.1101H57.4028ZM61.7538 24.9723C60.8158 24.9723 59.8388 25.5194 59.3959 26.2098V29.8443C59.8388 30.5086 60.8158 31.0819 61.7538 31.0819C63.3299 31.0819 64.346 29.8052 64.346 28.0206C64.346 26.2489 63.343 24.9723 61.7538 24.9723Z" fill="white"/>
<path d="M74.3121 25.8841L72.1757 32.6188H70.0785L67.2256 23.4351H69.2969L71.2378 30.1047L73.4264 23.4351H75.1719L77.3604 30.1047L79.3013 23.4351H81.3726L78.5197 32.6188H76.4225L74.3121 25.8841Z" fill="white"/>
<path d="M88.3796 31.629C87.6892 32.4105 86.634 32.8404 85.4096 32.8404C83.9115 32.8404 82.218 31.8374 82.218 29.7922C82.218 27.6819 83.9115 26.8091 85.4096 26.8091C86.6471 26.8091 87.7153 27.2129 88.3796 27.9945V26.6267C88.3796 25.5585 87.5069 24.9202 86.2303 24.9202C85.2012 24.9202 84.3153 25.298 83.5077 26.0796L82.687 24.6857C83.7552 23.6827 85.0839 23.2007 86.5429 23.2007C88.5751 23.2007 90.3596 24.0604 90.3596 26.5224V32.6059H88.3666V31.629H88.3796ZM88.3796 29.1408C87.9237 28.5155 87.064 28.1899 86.1911 28.1899C85.0709 28.1899 84.2372 28.8413 84.2372 29.8443C84.2372 30.8343 85.0709 31.4856 86.1911 31.4856C87.064 31.4856 87.9237 31.16 88.3796 30.5347V29.1408Z" fill="white"/>
<path d="M91.6362 23.4351H93.7726L96.4561 30.3262L99.1396 23.4351H101.289L97.5373 32.6188H95.3879L91.6362 23.4351Z" fill="white"/>
<path d="M106.629 23.2007C109.391 23.2007 111.15 25.311 111.15 28.2029V28.6719H104.05C104.207 30.0657 105.249 31.199 106.981 31.199C107.88 31.199 108.936 30.8343 109.586 30.196L110.498 31.5117C109.586 32.3844 108.232 32.8404 106.773 32.8404C104.011 32.8404 101.966 30.9255 101.966 28.0075C101.966 25.35 103.907 23.2007 106.629 23.2007ZM104.038 27.278H109.208C109.17 26.1968 108.427 24.8421 106.617 24.8421C104.91 24.8421 104.129 26.1447 104.038 27.278Z" fill="white"/>
</svg>
