<svg width="1200" height="630" viewBox="0 0 1200 630" xmlns="http://www.w3.org/2000/svg">
  <defs>
    <linearGradient id="bg3" x1="0%" y1="0%" x2="100%" y2="100%">
      <stop offset="0%" style="stop-color:#0e0f14"/>
      <stop offset="100%" style="stop-color:#141620"/>
    </linearGradient>
    <linearGradient id="glow3" x1="0%" y1="0%" x2="100%" y2="100%">
      <stop offset="0%" style="stop-color:#34D399;stop-opacity:0.1"/>
      <stop offset="100%" style="stop-color:#34D399;stop-opacity:0"/>
    </linearGradient>
  </defs>

  <!-- Background -->
  <rect width="1200" height="630" fill="url(#bg3)"/>

  <!-- Subtle grid -->
  <line x1="600" y1="0" x2="600" y2="630" stroke="rgba(255,255,255,0.03)" stroke-width="1"/>
  <line x1="0" y1="315" x2="1200" y2="315" stroke="rgba(255,255,255,0.03)" stroke-width="1"/>

  <!-- Green glow bottom-right -->
  <circle cx="1000" cy="550" r="300" fill="url(#glow3)"/>

  <!-- Left accent bar -->
  <rect x="80" y="200" width="3" height="230" fill="#34D399" rx="2"/>

  <!-- Category badge -->
  <rect x="80" y="160" width="48" height="28" rx="4" fill="rgba(52,211,153,0.15)"/>
  <text x="104" y="179" font-family="system-ui, -apple-system, sans-serif" font-size="11" font-weight="700" fill="#34D399" text-anchor="middle" letter-spacing="1.5">SEO</text>

  <!-- Main title -->
  <text x="108" y="258" font-family="system-ui, -apple-system, sans-serif" font-size="44" font-weight="700" fill="#ffffff" letter-spacing="-1">The Essential Local</text>
  <text x="108" y="318" font-family="system-ui, -apple-system, sans-serif" font-size="44" font-weight="700" fill="#ffffff" letter-spacing="-1">SEO Checklist</text>
  <text x="108" y="378" font-family="system-ui, -apple-system, sans-serif" font-size="44" font-weight="700" fill="rgba(255,255,255,0.35)" letter-spacing="-1">for Maine Businesses</text>

  <!-- Subtitle -->
  <text x="108" y="430" font-family="system-ui, -apple-system, sans-serif" font-size="18" fill="rgba(255,255,255,0.45)">Step-by-step actions to improve visibility in local search</text>

  <!-- Divider -->
  <line x1="108" y1="456" x2="500" y2="456" stroke="rgba(255,255,255,0.1)" stroke-width="1"/>

  <!-- Author + date -->
  <circle cx="120" cy="490" r="16" fill="rgba(255,255,255,0.08)"/>
  <text x="120" y="495" font-family="system-ui, -apple-system, sans-serif" font-size="13" fill="rgba(255,255,255,0.4)" text-anchor="middle">IA</text>
  <text x="146" y="495" font-family="system-ui, -apple-system, sans-serif" font-size="14" fill="rgba(255,255,255,0.45)">Ivan Annikov  ·  March 2026</text>

  <!-- Right side: checklist items -->
  <rect x="700" y="90" width="420" height="440" rx="8" fill="rgba(255,255,255,0.03)" stroke="rgba(255,255,255,0.07)" stroke-width="1"/>
  <text x="910" y="122" font-family="system-ui, -apple-system, sans-serif" font-size="12" fill="rgba(255,255,255,0.25)" text-anchor="middle" letter-spacing="1">LOCAL SEO CHECKLIST</text>

  <!-- Check items -->
  <!-- Item 1 - checked -->
  <circle cx="734" cy="158" r="10" fill="rgba(52,211,153,0.2)" stroke="#34D399" stroke-width="1.5"/>
  <text x="734" y="163" font-family="system-ui, -apple-system, sans-serif" font-size="12" fill="#34D399" text-anchor="middle">✓</text>
  <rect x="756" y="151" width="200" height="14" rx="3" fill="rgba(255,255,255,0.08)"/>
  <rect x="968" y="151" width="120" height="14" rx="3" fill="rgba(255,255,255,0.05)"/>

  <!-- Item 2 - checked -->
  <circle cx="734" cy="196" r="10" fill="rgba(52,211,153,0.2)" stroke="#34D399" stroke-width="1.5"/>
  <text x="734" y="201" font-family="system-ui, -apple-system, sans-serif" font-size="12" fill="#34D399" text-anchor="middle">✓</text>
  <rect x="756" y="189" width="240" height="14" rx="3" fill="rgba(255,255,255,0.08)"/>
  <rect x="1008" y="189" width="80" height="14" rx="3" fill="rgba(255,255,255,0.05)"/>

  <!-- Item 3 - checked -->
  <circle cx="734" cy="234" r="10" fill="rgba(52,211,153,0.2)" stroke="#34D399" stroke-width="1.5"/>
  <text x="734" y="239" font-family="system-ui, -apple-system, sans-serif" font-size="12" fill="#34D399" text-anchor="middle">✓</text>
  <rect x="756" y="227" width="180" height="14" rx="3" fill="rgba(255,255,255,0.08)"/>
  <rect x="948" y="227" width="140" height="14" rx="3" fill="rgba(255,255,255,0.05)"/>

  <!-- Item 4 - unchecked -->
  <circle cx="734" cy="272" r="10" fill="rgba(255,255,255,0.04)" stroke="rgba(255,255,255,0.15)" stroke-width="1.5"/>
  <rect x="756" y="265" width="220" height="14" rx="3" fill="rgba(255,255,255,0.06)"/>
  <rect x="988" y="265" width="100" height="14" rx="3" fill="rgba(255,255,255,0.04)"/>

  <!-- Item 5 - unchecked -->
  <circle cx="734" cy="310" r="10" fill="rgba(255,255,255,0.04)" stroke="rgba(255,255,255,0.15)" stroke-width="1.5"/>
  <rect x="756" y="303" width="190" height="14" rx="3" fill="rgba(255,255,255,0.06)"/>
  <rect x="958" y="303" width="130" height="14" rx="3" fill="rgba(255,255,255,0.04)"/>

  <!-- Item 6 - unchecked -->
  <circle cx="734" cy="348" r="10" fill="rgba(255,255,255,0.04)" stroke="rgba(255,255,255,0.15)" stroke-width="1.5"/>
  <rect x="756" y="341" width="260" height="14" rx="3" fill="rgba(255,255,255,0.06)"/>

  <!-- Item 7 - unchecked -->
  <circle cx="734" cy="386" r="10" fill="rgba(255,255,255,0.04)" stroke="rgba(255,255,255,0.15)" stroke-width="1.5"/>
  <rect x="756" y="379" width="210" height="14" rx="3" fill="rgba(255,255,255,0.06)"/>
  <rect x="978" y="379" width="110" height="14" rx="3" fill="rgba(255,255,255,0.04)"/>

  <!-- Item 8 - unchecked -->
  <circle cx="734" cy="424" r="10" fill="rgba(255,255,255,0.04)" stroke="rgba(255,255,255,0.15)" stroke-width="1.5"/>
  <rect x="756" y="417" width="230" height="14" rx="3" fill="rgba(255,255,255,0.06)"/>

  <!-- Progress bar -->
  <rect x="720" y="470" width="380" height="40" rx="6" fill="rgba(52,211,153,0.06)" stroke="rgba(52,211,153,0.12)" stroke-width="1"/>
  <rect x="730" y="480" width="110" height="20" rx="3" fill="rgba(52,211,153,0.25)"/>
  <rect x="730" y="480" width="360" height="20" rx="3" fill="rgba(255,255,255,0.03)"/>
  <text x="920" y="495" font-family="system-ui, -apple-system, sans-serif" font-size="12" fill="rgba(52,211,153,0.7)" text-anchor="middle">3 of 8 complete</text>

  <!-- Pin icon area -->
  <circle cx="920" cy="545" r="28" fill="rgba(255,255,255,0.04)" stroke="rgba(255,255,255,0.06)" stroke-width="1"/>
  <text x="920" y="552" font-family="system-ui, -apple-system, sans-serif" font-size="20" text-anchor="middle" fill="rgba(255,255,255,0.3)">📍</text>
  <text x="958" y="548" font-family="system-ui, -apple-system, sans-serif" font-size="13" fill="rgba(255,255,255,0.3)">Portland, Maine</text>

  <!-- Branding -->
  <text x="108" y="590" font-family="system-ui, -apple-system, sans-serif" font-size="14" font-weight="600" fill="rgba(255,255,255,0.25)" letter-spacing="2">LUMA STUDIOS</text>
  <text x="1092" y="590" font-family="system-ui, -apple-system, sans-serif" font-size="14" fill="rgba(255,255,255,0.2)" text-anchor="end">lumastudios.co</text>
</svg>
