<svg width="1200" height="630" viewBox="0 0 1200 630" xmlns="http://www.w3.org/2000/svg">
  <defs>
    <linearGradient id="bg4" x1="0%" y1="0%" x2="100%" y2="100%">
      <stop offset="0%" style="stop-color:#0e0f14"/>
      <stop offset="100%" style="stop-color:#141620"/>
    </linearGradient>
    <linearGradient id="rankBar" x1="0%" y1="0%" x2="100%" y2="0%">
      <stop offset="0%" style="stop-color:#FFFC10;stop-opacity:0.9"/>
      <stop offset="100%" style="stop-color:#FFFC10;stop-opacity:0.3"/>
    </linearGradient>
    <linearGradient id="rankBar2" x1="0%" y1="0%" x2="100%" y2="0%">
      <stop offset="0%" style="stop-color:#4FC3F7;stop-opacity:0.6"/>
      <stop offset="100%" style="stop-color:#4FC3F7;stop-opacity:0.2"/>
    </linearGradient>
  </defs>

  <!-- Background -->
  <rect width="1200" height="630" fill="url(#bg4)"/>

  <!-- Grid lines -->
  <line x1="0" y1="210" x2="1200" y2="210" stroke="rgba(255,255,255,0.03)" stroke-width="1"/>
  <line x1="0" y1="420" x2="1200" y2="420" stroke="rgba(255,255,255,0.03)" stroke-width="1"/>
  <line x1="400" y1="0" x2="400" y2="630" stroke="rgba(255,255,255,0.03)" stroke-width="1"/>
  <line x1="800" y1="0" x2="800" y2="630" stroke="rgba(255,255,255,0.03)" stroke-width="1"/>

  <!-- Yellow glow -->
  <circle cx="950" cy="200" r="260" fill="rgba(255,252,16,0.06)"/>

  <!-- Left accent bar -->
  <rect x="80" y="200" width="3" height="230" fill="#FFFC10" rx="2"/>

  <!-- Category badge -->
  <rect x="80" y="160" width="48" height="28" rx="4" fill="rgba(255,252,16,0.12)"/>
  <text x="104" y="179" font-family="system-ui, -apple-system, sans-serif" font-size="11" font-weight="700" fill="#FFFC10" text-anchor="middle" letter-spacing="1.5">SEO</text>

  <!-- Main title -->
  <text x="108" y="255" font-family="system-ui, -apple-system, sans-serif" font-size="43" font-weight="700" fill="#ffffff" letter-spacing="-1">Why Your Maine Business</text>
  <text x="108" y="310" font-family="system-ui, -apple-system, sans-serif" font-size="43" font-weight="700" fill="#ffffff" letter-spacing="-1">Isn't Ranking on Google</text>
  <text x="108" y="365" font-family="system-ui, -apple-system, sans-serif" font-size="43" font-weight="700" fill="rgba(255,252,16,0.7)" letter-spacing="-1">— And How to Fix It</text>

  <!-- Subtitle -->
  <text x="108" y="415" font-family="system-ui, -apple-system, sans-serif" font-size="18" fill="rgba(255,255,255,0.45)">Common, fixable mistakes holding your business back in search</text>

  <!-- Divider -->
  <line x1="108" y1="442" x2="500" y2="442" stroke="rgba(255,255,255,0.1)" stroke-width="1"/>

  <!-- Author + date -->
  <circle cx="120" cy="477" r="16" fill="rgba(255,255,255,0.08)"/>
  <text x="120" y="482" font-family="system-ui, -apple-system, sans-serif" font-size="13" fill="rgba(255,255,255,0.4)" text-anchor="middle">IA</text>
  <text x="146" y="482" font-family="system-ui, -apple-system, sans-serif" font-size="14" fill="rgba(255,255,255,0.45)">Ivan Annikov  ·  April 2026</text>

  <!-- Right side: SERP mockup -->
  <rect x="700" y="80" width="420" height="450" rx="8" fill="rgba(255,255,255,0.03)" stroke="rgba(255,255,255,0.07)" stroke-width="1"/>

  <!-- SERP header -->
  <rect x="700" y="80" width="420" height="50" rx="8" fill="rgba(255,255,255,0.05)"/>
  <rect x="720" y="94" width="220" height="22" rx="4" fill="rgba(255,255,255,0.08)"/>
  <text x="731" y="109" font-family="system-ui, -apple-system, sans-serif" font-size="12" fill="rgba(255,255,255,0.3)">🔍  web designer portland maine</text>

  <!-- Sponsored label -->
  <text x="720" y="152" font-family="system-ui, -apple-system, sans-serif" font-size="10" fill="rgba(255,255,255,0.2)" letter-spacing="1">SPONSORED</text>
  <rect x="720" y="160" width="360" height="50" rx="4" fill="rgba(255,255,255,0.04)" stroke="rgba(255,255,255,0.06)" stroke-width="1"/>
  <rect x="730" y="168" width="200" height="10" rx="2" fill="rgba(255,255,255,0.1)"/>
  <rect x="730" y="186" width="310" height="8" rx="2" fill="rgba(255,255,255,0.06)"/>

  <!-- Map pack -->
  <text x="720" y="232" font-family="system-ui, -apple-system, sans-serif" font-size="10" fill="rgba(255,255,255,0.2)" letter-spacing="1">LOCAL PACK</text>
  <rect x="720" y="238" width="360" height="130" rx="4" fill="rgba(255,255,255,0.04)" stroke="rgba(255,255,255,0.07)" stroke-width="1"/>

  <!-- Ranking result 1 - highlighted -->
  <rect x="730" y="248" width="340" height="32" rx="3" fill="rgba(255,252,16,0.08)" stroke="rgba(255,252,16,0.15)" stroke-width="1"/>
  <rect x="740" y="255" width="180" height="8" rx="2" fill="rgba(255,252,16,0.3)"/>
  <rect x="930" y="255" width="60" height="8" rx="2" fill="rgba(52,211,153,0.4)"/>
  <text x="740" y="270" font-family="system-ui, -apple-system, sans-serif" font-size="10" fill="rgba(255,255,255,0.2)">⭐⭐⭐⭐⭐  4.9 (47)</text>

  <rect x="730" y="288" width="340" height="28" rx="3" fill="rgba(255,255,255,0.03)"/>
  <rect x="740" y="294" width="160" height="8" rx="2" fill="rgba(255,255,255,0.1)"/>
  <rect x="740" y="307" width="220" height="6" rx="2" fill="rgba(255,255,255,0.05)"/>

  <rect x="730" y="324" width="340" height="28" rx="3" fill="rgba(255,255,255,0.03)"/>
  <rect x="740" y="330" width="190" height="8" rx="2" fill="rgba(255,255,255,0.1)"/>
  <rect x="740" y="343" width="180" height="6" rx="2" fill="rgba(255,255,255,0.05)"/>

  <!-- Organic results -->
  <text x="720" y="386" font-family="system-ui, -apple-system, sans-serif" font-size="10" fill="rgba(255,255,255,0.2)" letter-spacing="1">ORGANIC RESULTS</text>
  <rect x="720" y="394" width="360" height="50" rx="4" fill="rgba(255,255,255,0.03)"/>
  <rect x="730" y="402" width="240" height="10" rx="2" fill="rgba(79,195,247,0.3)"/>
  <rect x="730" y="420" width="320" height="7" rx="2" fill="rgba(255,255,255,0.06)"/>
  <rect x="730" y="432" width="280" height="7" rx="2" fill="rgba(255,255,255,0.04)"/>

  <rect x="720" y="452" width="360" height="50" rx="4" fill="rgba(255,255,255,0.03)"/>
  <rect x="730" y="460" width="210" height="10" rx="2" fill="rgba(79,195,247,0.2)"/>
  <rect x="730" y="478" width="300" height="7" rx="2" fill="rgba(255,255,255,0.04)"/>

  <!-- "Not ranked" marker -->
  <rect x="720" y="510" width="360" height="10" rx="2" fill="rgba(255,255,255,0.02)"/>
  <text x="910" y="520" font-family="system-ui, -apple-system, sans-serif" font-size="10" fill="rgba(255,100,100,0.4)" text-anchor="middle">Your business · position 23+</text>

  <!-- Branding -->
  <text x="108" y="590" font-family="system-ui, -apple-system, sans-serif" font-size="14" font-weight="600" fill="rgba(255,255,255,0.25)" letter-spacing="2">LUMA STUDIOS</text>
  <text x="1092" y="590" font-family="system-ui, -apple-system, sans-serif" font-size="14" fill="rgba(255,255,255,0.2)" text-anchor="end">lumastudios.co</text>
</svg>
