<svg width="149" height="56" viewBox="0 0 149 56" fill="none" xmlns="http://www.w3.org/2000/svg">
<g clip-path="url(#clip0_2692_48819)">
<path fill-rule="evenodd" clip-rule="evenodd" d="M45.7489 22.1036C48.6847 22.1036 50.3388 23.637 50.7114 26.7038C50.771 27.076 50.8008 27.4928 50.8008 27.9543L50.7783 28.6466C50.7783 28.8252 50.6891 28.9146 50.5101 28.9146H43.5135C43.439 28.9146 43.4018 28.9518 43.4018 29.0262L43.4151 29.1623C43.4175 29.1843 43.4199 29.2059 43.4223 29.2272L43.4375 29.3505C43.4401 29.3704 43.4428 29.3899 43.4456 29.409L43.4626 29.5196C43.5008 29.75 43.5476 29.9205 43.6029 30.0311C43.9606 31.103 44.8324 31.6464 46.2183 31.6613C47.207 31.6613 47.997 31.2645 48.5885 30.471L48.6325 30.4107C48.6921 30.3214 48.7666 30.2767 48.8561 30.2767C48.9157 30.2767 48.9679 30.2991 49.0125 30.3437L50.3983 31.4826C50.5324 31.5868 50.5549 31.7059 50.4655 31.8399C50.0034 32.495 49.3851 33.0011 48.6102 33.3584C47.8501 33.7157 47.0007 33.8944 46.0618 33.8944C44.8994 33.8944 43.9084 33.6339 43.0888 33.1128C42.3109 32.6091 41.7349 31.9107 41.3609 31.0175L41.3229 30.9244C40.9801 30.1204 40.8088 29.0039 40.8088 27.5747C40.8088 26.7112 40.8982 26.0115 41.077 25.4756C41.375 24.4335 41.9339 23.6147 42.7535 23.0192C43.588 22.4088 44.5865 22.1036 45.7489 22.1036ZM140.65 22.1036C143.586 22.1036 145.24 23.637 145.612 26.7038C145.672 27.076 145.702 27.4928 145.702 27.9543L145.68 28.6466C145.68 28.8252 145.59 28.9146 145.411 28.9146H138.415C138.34 28.9146 138.303 28.9518 138.303 29.0262L138.309 29.0953L138.323 29.2272L138.339 29.3505L138.355 29.4654C138.395 29.7234 138.444 29.912 138.504 30.0311C138.862 31.103 139.734 31.6464 141.119 31.6613C142.108 31.6613 142.898 31.2645 143.49 30.471L143.534 30.4107C143.593 30.3214 143.668 30.2767 143.757 30.2767C143.817 30.2767 143.869 30.2991 143.914 30.3437L145.3 31.4826C145.434 31.5868 145.456 31.7059 145.367 31.8399C144.905 32.495 144.286 33.0011 143.511 33.3584C142.751 33.7157 141.902 33.8944 140.963 33.8944C139.8 33.8944 138.81 33.6339 137.99 33.1128C137.185 32.5917 136.597 31.8623 136.224 30.9244C135.881 30.1204 135.71 29.0039 135.71 27.5747C135.71 26.7112 135.799 26.0115 135.978 25.4756C136.276 24.4335 136.835 23.6147 137.655 23.0192C138.489 22.4088 139.488 22.1036 140.65 22.1036ZM86.4209 22.1036C89.3567 22.1036 91.0108 23.637 91.3834 26.7038C91.4429 27.076 91.4728 27.4928 91.4728 27.9543L91.4505 28.6466C91.4505 28.8252 91.361 28.9146 91.1823 28.9146H84.1856C84.1111 28.9146 84.0738 28.9518 84.0738 29.0262L84.0803 29.0953L84.0943 29.2272L84.1095 29.3505L84.1259 29.4654C84.1657 29.7234 84.2154 29.912 84.2751 30.0311C84.6327 31.103 85.5045 31.6464 86.8903 31.6613C87.879 31.6613 88.669 31.2645 89.2605 30.471L89.3045 30.4107C89.3641 30.3214 89.4386 30.2767 89.5281 30.2767C89.5876 30.2767 89.6399 30.2991 89.6845 30.3437L91.0705 31.4826C91.2046 31.5868 91.2269 31.7059 91.1375 31.8399C90.6756 32.495 90.0571 33.0011 89.2822 33.3584C88.5222 33.7157 87.6728 33.8944 86.7339 33.8944C85.5714 33.8944 84.5805 33.6339 83.7608 33.1128C82.9562 32.5917 82.3676 31.8623 81.9949 30.9244C81.6522 30.1204 81.4809 29.0039 81.4809 27.5747C81.4809 26.7112 81.5701 26.0115 81.7491 25.4756C82.0472 24.4335 82.6059 23.6147 83.4256 23.0192C84.2601 22.4088 85.2586 22.1036 86.4209 22.1036ZM57.0378 22.1036C58.2002 22.1036 59.2134 22.3939 60.0778 22.9745C60.9422 23.5551 61.5159 24.2846 61.799 25.1629C61.8735 25.4012 61.9257 25.6393 61.9556 25.8775V25.9222C61.9556 26.0711 61.8735 26.1604 61.7097 26.1902L59.6978 26.4805H59.6532C59.5189 26.4805 59.4296 26.4061 59.3848 26.2572C59.3848 26.1827 59.3774 26.1232 59.3625 26.0785C59.3328 25.9594 59.3029 25.8552 59.273 25.7659C59.1389 25.349 58.8707 25.0066 58.4684 24.7387C58.0659 24.4707 57.5891 24.3367 57.0378 24.3367C56.4715 24.3367 55.9871 24.4856 55.5848 24.7833C55.1972 25.0662 54.9366 25.4607 54.8025 25.9669C54.6534 26.4433 54.5789 27.1058 54.5789 27.9543C54.5789 28.7731 54.6459 29.4356 54.78 29.9418C54.929 30.4628 55.1972 30.8797 55.5848 31.1923C55.9723 31.4901 56.4565 31.6389 57.0378 31.6389C57.604 31.6389 58.0884 31.4975 58.4907 31.2147C58.908 30.9169 59.1762 30.5224 59.2955 30.0311C59.3103 30.0013 59.3178 29.9641 59.3178 29.9195C59.3328 29.9046 59.3402 29.8822 59.3402 29.8525C59.3822 29.6843 59.4771 29.6085 59.6249 29.625L61.6649 29.9418C61.7394 29.9567 61.799 29.9939 61.8438 30.0534C61.9034 30.0981 61.9257 30.1651 61.9108 30.2544L61.8717 30.4553L61.8451 30.5809L61.8209 30.6852L61.806 30.7428C61.8036 30.7516 61.8013 30.76 61.799 30.768C61.5159 31.7208 60.9422 32.4801 60.0778 33.0458C59.2134 33.5966 58.2002 33.872 57.0378 33.872C55.8902 33.872 54.8993 33.5817 54.0648 33.0011C53.2302 32.4056 52.6491 31.6092 52.3211 30.6117C52.0828 29.9418 51.9635 29.0485 51.9635 27.932C51.9635 26.8601 52.0828 25.9818 52.3211 25.2969C52.6342 24.3144 53.2078 23.5402 54.0423 22.9745C54.8918 22.3939 55.8902 22.1036 57.0378 22.1036ZM112.001 22.1036C112.939 22.1036 113.766 22.2674 114.482 22.5949C115.197 22.9224 115.748 23.3765 116.136 23.9571C116.523 24.5228 116.717 25.1704 116.717 25.8999V33.4254C116.717 33.4999 116.687 33.5668 116.628 33.6264C116.583 33.6711 116.523 33.6934 116.449 33.6934H114.392C114.318 33.6934 114.251 33.6711 114.191 33.6264C114.147 33.5668 114.124 33.4999 114.124 33.4254V32.7108C114.124 32.6662 114.109 32.6438 114.079 32.6438C114.049 32.629 114.02 32.6364 113.99 32.6662C113.26 33.4701 112.202 33.872 110.816 33.872C109.698 33.872 108.774 33.5892 108.044 33.0235C107.329 32.4577 106.971 31.6166 106.971 30.5001C106.971 29.3389 107.373 28.4382 108.178 27.798C108.998 27.143 110.145 26.8155 111.621 26.8155H114.012C114.087 26.8155 114.124 26.7782 114.124 26.7038V26.1678C114.124 25.5872 113.953 25.1406 113.61 24.828C113.267 24.5005 112.753 24.3367 112.067 24.3367C111.501 24.3367 111.039 24.4409 110.682 24.6493C110.339 24.8429 110.123 25.1183 110.033 25.4756C109.989 25.6542 109.884 25.7287 109.72 25.6989L107.552 25.4309C107.478 25.416 107.411 25.3937 107.351 25.3639C107.306 25.3193 107.291 25.2672 107.306 25.2076C107.425 24.2995 107.91 23.5551 108.759 22.9745C109.624 22.3939 110.704 22.1036 112.001 22.1036ZM65.4482 22.2823C65.5227 22.2823 65.5823 22.312 65.6271 22.3716C65.6867 22.4162 65.7166 22.4758 65.7166 22.5502V29.3389C65.7166 30.0386 65.8953 30.5968 66.253 31.0137C66.6256 31.4305 67.1397 31.6389 67.7954 31.6389C68.4659 31.6389 69.0025 31.4305 69.4048 31.0137C69.8071 30.5968 70.0084 30.0386 70.0084 29.3389V22.5502C70.0084 22.4758 70.0307 22.4162 70.0754 22.3716C70.1351 22.312 70.2021 22.2823 70.2766 22.2823H72.3108C72.3853 22.2823 72.4449 22.312 72.4895 22.3716C72.5493 22.4162 72.579 22.4758 72.579 22.5502V33.4254C72.579 33.4999 72.5493 33.5668 72.4895 33.6264C72.4449 33.6711 72.3853 33.6934 72.3108 33.6934H70.2766C70.2021 33.6934 70.1351 33.6711 70.0754 33.6264C70.0307 33.5668 70.0084 33.4999 70.0084 33.4254V32.7108C70.0084 32.6662 69.9934 32.6364 69.9637 32.6215C69.9339 32.6066 69.904 32.6215 69.8743 32.6662C69.2632 33.4552 68.3468 33.8497 67.1247 33.8497C65.9922 33.8497 65.0385 33.5222 64.2636 32.8671C63.5034 32.2121 63.1235 31.2816 63.1235 30.0758V22.5502C63.1235 22.4758 63.1458 22.4162 63.1906 22.3716C63.2502 22.312 63.3171 22.2823 63.3917 22.2823H65.4482ZM35.0826 22.1483C35.9521 22.1483 36.7194 22.2845 37.3844 22.5569L37.4744 22.5949C38.1599 22.8778 38.689 23.2797 39.0615 23.8008C39.4341 24.3069 39.6204 24.8875 39.6204 25.5426C39.6204 25.617 39.5905 25.684 39.5309 25.7436C39.4862 25.7882 39.4266 25.8106 39.3521 25.8106H37.4521C37.3776 25.8106 37.3105 25.7882 37.2509 25.7436C37.2062 25.684 37.1838 25.617 37.1838 25.5426C37.1838 25.1555 36.9901 24.8354 36.6026 24.5824C36.2301 24.3144 35.7159 24.1804 35.0602 24.1804C34.479 24.1804 34.0022 24.2921 33.6296 24.5154C33.2719 24.7238 33.0931 25.0215 33.0931 25.4086C33.0931 25.7659 33.2645 26.0413 33.6073 26.2348C33.6338 26.2481 33.6615 26.2614 33.6905 26.2749L33.7814 26.3157C33.813 26.3294 33.8458 26.3433 33.8799 26.3573L33.986 26.3995L34.0997 26.4425L34.221 26.4863L34.3499 26.5308L34.4864 26.576L34.6306 26.6219C34.6552 26.6296 34.6802 26.6374 34.7055 26.6452L34.861 26.6922L35.0241 26.74L35.1949 26.7885L35.3732 26.8378L35.865 26.9718C36.6548 27.21 37.3179 27.4556 37.8544 27.7087C38.3909 27.9469 38.8454 28.2893 39.218 28.7359C39.5905 29.1676 39.7768 29.7334 39.7768 30.4331C39.7768 31.4901 39.3596 32.3238 38.525 32.9341C37.6905 33.5296 36.5803 33.8274 35.1944 33.8274C34.2555 33.8274 33.4284 33.6934 32.7131 33.4254C32.0127 33.1426 31.4688 32.7629 31.0813 32.2865C30.6939 31.7953 30.5001 31.2519 30.5001 30.6564V30.4554C30.5001 30.381 30.5225 30.3214 30.5672 30.2767C30.6268 30.2172 30.6939 30.1874 30.7684 30.1874H32.7355C32.81 30.1874 32.8696 30.2172 32.9143 30.2767C32.9739 30.3214 33.0037 30.381 33.0037 30.4554V30.5001C33.0037 30.8722 33.2049 31.1998 33.6073 31.4826C34.0245 31.7506 34.5461 31.8846 35.172 31.8846C35.7681 31.8846 36.2524 31.7655 36.625 31.5273C36.9975 31.2742 37.1838 30.9616 37.1838 30.5894C37.1838 30.247 37.0273 29.9939 36.7144 29.8301C36.6026 29.7631 36.4636 29.6951 36.2974 29.626L36.1825 29.5798C36.1429 29.5643 36.1019 29.5488 36.0595 29.5333L35.9285 29.4864C35.906 29.4786 35.8832 29.4708 35.86 29.4629L35.7169 29.4156L35.5657 29.368C35.5398 29.36 35.5136 29.3521 35.4871 29.3441L35.3238 29.296C35.2959 29.288 35.2676 29.2799 35.2391 29.2718L34.3896 29.0039C33.6296 28.7806 32.9888 28.5424 32.4672 28.2893C31.9456 28.0362 31.506 27.6938 31.1484 27.2621C30.7907 26.8155 30.6119 26.2497 30.6119 25.5649C30.6119 24.5228 31.0217 23.6966 31.8413 23.0862C32.661 22.4609 33.7414 22.1483 35.0826 22.1483ZM130.654 22.1036C131.772 22.1036 132.649 22.4358 133.286 23.1L133.336 23.1532C133.992 23.838 134.32 24.7982 134.32 26.0339V33.4254C134.32 33.4999 134.29 33.5668 134.23 33.6264C134.185 33.6711 134.126 33.6934 134.051 33.6934H132.017C131.943 33.6934 131.876 33.6711 131.816 33.6264C131.771 33.5668 131.749 33.4999 131.749 33.4254V26.5698C131.749 25.885 131.563 25.3416 131.19 24.9396C130.832 24.5377 130.348 24.3367 129.737 24.3367C129.126 24.3367 128.627 24.5377 128.239 24.9396C127.852 25.3416 127.658 25.8775 127.658 26.5475V33.4254C127.658 33.4999 127.628 33.5668 127.569 33.6264C127.524 33.6711 127.465 33.6934 127.39 33.6934H125.356C125.281 33.6934 125.214 33.6711 125.155 33.6264C125.11 33.5668 125.088 33.4999 125.088 33.4254V26.5698C125.088 25.885 124.901 25.3416 124.529 24.9396C124.156 24.5377 123.664 24.3367 123.053 24.3367C122.487 24.3367 122.018 24.5005 121.645 24.828C121.288 25.1555 121.079 25.6021 121.019 26.1678V33.4254C121.019 33.4999 120.989 33.5668 120.93 33.6264C120.885 33.6711 120.826 33.6934 120.751 33.6934H118.694C118.62 33.6934 118.553 33.6711 118.493 33.6264C118.449 33.5668 118.426 33.4999 118.426 33.4254V22.5502C118.426 22.4758 118.449 22.4162 118.493 22.3716C118.553 22.312 118.62 22.2823 118.694 22.2823H120.751C120.826 22.2823 120.885 22.312 120.93 22.3716C120.989 22.4162 121.019 22.4758 121.019 22.5502V23.2872C121.019 23.3318 121.034 23.3616 121.064 23.3765C121.094 23.3914 121.124 23.3765 121.153 23.3318C121.481 22.915 121.884 22.6098 122.36 22.4162C122.852 22.2078 123.396 22.1036 123.992 22.1036C124.723 22.1036 125.363 22.2525 125.915 22.5502C126.466 22.848 126.891 23.2797 127.189 23.8454C127.234 23.905 127.286 23.905 127.345 23.8454C127.673 23.2499 128.128 22.8108 128.709 22.5279C129.29 22.245 129.938 22.1036 130.654 22.1036ZM79.7771 22.1483C80.2541 22.1483 80.6714 22.245 81.0291 22.4386C81.1482 22.4981 81.1929 22.6098 81.1632 22.7735L80.7832 24.7833C80.7682 24.962 80.6638 25.0141 80.4701 24.9396C80.2466 24.8652 79.9858 24.828 79.6879 24.828L79.631 24.8282L79.5255 24.83L79.4307 24.8336C79.3562 24.8373 79.2928 24.8429 79.2407 24.8503C78.6149 24.8801 78.0932 25.1034 77.676 25.5203C77.2587 25.9222 77.0501 26.4507 77.0501 27.1058V33.4254C77.0501 33.4999 77.0202 33.5668 76.9606 33.6264C76.916 33.6711 76.8564 33.6934 76.7819 33.6934H74.7254C74.6508 33.6934 74.5837 33.6711 74.5241 33.6264C74.4795 33.5668 74.4572 33.4999 74.4572 33.4254V22.5502C74.4572 22.4758 74.4795 22.4162 74.5241 22.3716C74.5837 22.312 74.6508 22.2823 74.7254 22.2823H76.7819C76.8564 22.2823 76.916 22.312 76.9606 22.3716C77.0202 22.4162 77.0501 22.4758 77.0501 22.5502V23.5551C77.0501 23.6147 77.0575 23.6519 77.0724 23.6668C77.1023 23.6668 77.132 23.6444 77.1619 23.5998C77.7877 22.6321 78.6595 22.1483 79.7771 22.1483ZM97.8491 18.0617H98.6315C98.7061 18.0617 98.7656 18.0915 98.8103 18.151C98.87 18.1957 98.8997 18.2552 98.8997 18.3297V19.8928C98.8997 19.9673 98.87 20.0343 98.8103 20.0938C98.7656 20.1385 98.7061 20.1608 98.6315 20.1608H98.0503C97.4095 20.1608 96.9624 20.2874 96.7091 20.5404C96.4706 20.7935 96.3514 21.255 96.3514 21.925V22.1483C96.3514 22.2227 96.3887 22.2599 96.4632 22.2599H98.6762C98.7507 22.2599 98.8103 22.2897 98.8551 22.3492C98.9147 22.3939 98.9444 22.4535 98.9444 22.5279V24.2921C98.9444 24.3665 98.9147 24.4335 98.8551 24.493C98.8103 24.5377 98.7507 24.56 98.6762 24.56H96.4632C96.3887 24.56 96.3514 24.5972 96.3514 24.6717V33.4254C96.3514 33.4999 96.3217 33.5668 96.262 33.6264C96.2173 33.6711 96.1578 33.6934 96.0832 33.6934H94.0267C93.9522 33.6934 93.885 33.6711 93.8255 33.6264C93.7808 33.5668 93.7585 33.4999 93.7585 33.4254V24.6717C93.7585 24.5972 93.7212 24.56 93.6467 24.56H92.2607C92.1862 24.56 92.1192 24.5377 92.0596 24.493C92.0148 24.4335 91.9925 24.3665 91.9925 24.2921V22.5279C91.9925 22.4535 92.0148 22.3939 92.0596 22.3492C92.1192 22.2897 92.1862 22.2599 92.2607 22.2599H93.6467C93.7212 22.2599 93.7585 22.2227 93.7585 22.1483V21.7463C93.7585 20.7786 93.885 20.0343 94.1385 19.5132C94.3917 18.9773 94.809 18.5976 95.3902 18.3743C95.9715 18.151 96.791 18.0468 97.8491 18.0617ZM105.561 22.1483C106.037 22.1483 106.455 22.245 106.812 22.4386C106.932 22.4981 106.976 22.6098 106.947 22.7735L106.566 24.7833C106.552 24.962 106.447 25.0141 106.254 24.9396C106.03 24.8652 105.769 24.828 105.471 24.828L105.414 24.8282L105.309 24.83L105.214 24.8336C105.14 24.8373 105.076 24.8429 105.024 24.8503C104.398 24.8801 103.877 25.1034 103.459 25.5203C103.042 25.9222 102.834 26.4507 102.834 27.1058V33.4254C102.834 33.4999 102.804 33.5668 102.744 33.6264C102.699 33.6711 102.64 33.6934 102.565 33.6934H100.509C100.434 33.6934 100.367 33.6711 100.308 33.6264C100.263 33.5668 100.24 33.4999 100.24 33.4254V22.5502C100.24 22.4758 100.263 22.4162 100.308 22.3716C100.367 22.312 100.434 22.2823 100.509 22.2823H102.565C102.64 22.2823 102.699 22.312 102.744 22.3716C102.804 22.4162 102.834 22.4758 102.834 22.5502V23.5551C102.834 23.6147 102.841 23.6519 102.856 23.6668C102.886 23.6668 102.915 23.6444 102.945 23.5998C103.571 22.6321 104.443 22.1483 105.561 22.1483ZM114.012 28.6019H112.135C111.345 28.6019 110.719 28.7508 110.257 29.0485C109.81 29.3463 109.586 29.7706 109.586 30.3214C109.586 30.7978 109.758 31.17 110.1 31.438C110.458 31.691 110.913 31.8176 111.464 31.8176C112.194 31.8176 112.82 31.6241 113.342 31.237C113.863 30.8499 114.124 30.3586 114.124 29.7631V28.7136C114.124 28.6391 114.087 28.6019 114.012 28.6019ZM45.7489 24.3367C45.1975 24.3367 44.7355 24.4781 44.363 24.761C44.0053 25.029 43.752 25.4086 43.6029 25.8999C43.5135 26.153 43.4539 26.4805 43.4241 26.8824C43.3943 26.9569 43.4241 26.9941 43.5135 26.9941H48.0513C48.1258 26.9941 48.1631 26.9569 48.1631 26.8824C48.1333 26.5103 48.0886 26.2274 48.0289 26.0339C47.8948 25.4979 47.6266 25.0811 47.2242 24.7833C46.8368 24.4856 46.345 24.3367 45.7489 24.3367ZM86.4209 24.3367C85.8695 24.3367 85.4076 24.4781 85.035 24.761C84.6774 25.029 84.4241 25.4086 84.2751 25.8999C84.1856 26.153 84.126 26.4805 84.0961 26.8824C84.0664 26.9569 84.0961 26.9941 84.1856 26.9941H88.7233C88.7978 26.9941 88.8351 26.9569 88.8351 26.8824L88.8224 26.7383L88.8081 26.6037C88.8056 26.5821 88.803 26.5609 88.8003 26.54L88.7836 26.4197C88.7603 26.2657 88.7327 26.1371 88.701 26.0339C88.5669 25.4979 88.2987 25.0811 87.8962 24.7833C87.5088 24.4856 87.017 24.3367 86.4209 24.3367ZM140.65 24.3367C140.099 24.3367 139.637 24.4781 139.264 24.761C138.906 25.029 138.653 25.4086 138.504 25.8999C138.415 26.153 138.355 26.4805 138.325 26.8824C138.296 26.9569 138.325 26.9941 138.415 26.9941H142.952C143.027 26.9941 143.064 26.9569 143.064 26.8824L143.051 26.7383L143.037 26.6037C143.035 26.5821 143.032 26.5609 143.029 26.54L143.013 26.4197C142.989 26.2657 142.962 26.1371 142.93 26.0339C142.796 25.4979 142.528 25.0811 142.125 24.7833C141.738 24.4856 141.246 24.3367 140.65 24.3367Z" fill="white"/>
<path fill-rule="evenodd" clip-rule="evenodd" d="M4.63697 40.0691C5.00248 35.6387 8.71407 32.157 13.2389 32.157H21.8703C21.8703 36.9239 18.0058 40.7884 13.2388 40.7884H5.32671C4.87715 40.7884 4.60742 40.5187 4.63697 40.0691Z" fill="white"/>
<path opacity="0.6" fill-rule="evenodd" clip-rule="evenodd" d="M13.2388 32.1571C8.47191 32.1571 4.60742 28.2926 4.60742 23.5256H13.2388C18.0058 23.5256 21.8703 27.3901 21.8703 32.1571H13.2388Z" fill="white"/>
<path opacity="0.4" fill-rule="evenodd" clip-rule="evenodd" d="M4.60742 23.5257C4.60742 18.7588 8.47185 14.8943 13.2388 14.8943C16.3623 14.8943 18.2142 14.8943 21.151 14.8943C21.5106 14.8943 21.8816 15.1177 21.8407 15.6136C21.4752 20.044 17.7636 23.5257 13.2388 23.5257H4.60742Z" fill="white"/>
</g>
<defs>
<clipPath id="clip0_2692_48819">
<rect width="148.615" height="56" fill="white" transform="translate(0.286621 0.000244141)"/>
</clipPath>
</defs>
</svg>
