<svg width="580" height="400" viewBox="0 0 580 400" xmlns="http://www.w3.org/2000/svg">
  <defs>
    <linearGradient id="bg" x1="0%" y1="0%" x2="100%" y2="100%">
      <stop offset="0%" style="stop-color:#0f1117"/>
      <stop offset="100%" style="stop-color:#161920"/>
    </linearGradient>
  </defs>

  <rect width="580" height="400" fill="url(#bg)" rx="6"/>

  <!-- Subtle glow -->
  <circle cx="290" cy="200" r="220" fill="rgba(167,139,250,0.04)"/>

  <!-- Color palette swatches -->
  <rect x="40" y="32" width="500" height="56" rx="6" fill="rgba(255,255,255,0.03)" stroke="rgba(255,255,255,0.06)" stroke-width="1"/>
  <text x="56" y="52" font-family="system-ui, sans-serif" font-size="10" fill="rgba(255,255,255,0.25)" letter-spacing="1.2">BRAND PALETTE</text>
  <rect x="56" y="58" width="50" height="22" rx="3" fill="#FFFC10"/>
  <rect x="114" y="58" width="50" height="22" rx="3" fill="#47CAEE"/>
  <rect x="172" y="58" width="50" height="22" rx="3" fill="#A78BFA"/>
  <rect x="230" y="58" width="50" height="22" rx="3" fill="#34D399"/>
  <rect x="288" y="58" width="50" height="22" rx="3" fill="#F87171"/>
  <rect x="346" y="58" width="50" height="22" rx="3" fill="#ffffff" opacity="0.9"/>
  <rect x="404" y="58" width="50" height="22" rx="3" fill="rgba(255,255,255,0.15)" stroke="rgba(255,255,255,0.1)" stroke-width="1"/>
  <rect x="462" y="58" width="50" height="22" rx="3" fill="#111318"/>

  <!-- Logo mark concepts row -->
  <rect x="40" y="108" width="116" height="116" rx="6" fill="rgba(255,255,255,0.03)" stroke="rgba(255,255,255,0.06)" stroke-width="1"/>
  <!-- Logo 1 - geometric -->
  <polygon points="98,126 118,158 78,158" fill="none" stroke="rgba(255,252,16,0.6)" stroke-width="2"/>
  <polygon points="98,134 112,154 84,154" fill="rgba(255,252,16,0.12)"/>
  <rect x="56" y="176" width="84" height="8" rx="2" fill="rgba(255,255,255,0.06)"/>
  <rect x="66" y="190" width="64" height="6" rx="2" fill="rgba(255,255,255,0.04)"/>
  <rect x="56" y="204" width="84" height="14" rx="3" fill="rgba(255,255,255,0.03)"/>
  <rect x="64" y="208" width="50" height="6" rx="2" fill="rgba(255,255,255,0.08)"/>

  <rect x="172" y="108" width="116" height="116" rx="6" fill="rgba(255,255,255,0.03)" stroke="rgba(255,252,16,0.15)" stroke-width="1"/>
  <!-- Logo 2 - circle mark (selected) -->
  <circle cx="230" cy="148" r="22" fill="rgba(255,252,16,0.08)" stroke="rgba(255,252,16,0.4)" stroke-width="2"/>
  <circle cx="230" cy="148" r="12" fill="rgba(255,252,16,0.2)"/>
  <text x="230" y="153" font-family="system-ui, sans-serif" font-size="12" font-weight="700" fill="rgba(255,252,16,0.8)" text-anchor="middle">L</text>
  <rect x="188" y="176" width="84" height="8" rx="2" fill="rgba(255,255,255,0.06)"/>
  <rect x="198" y="190" width="64" height="6" rx="2" fill="rgba(255,255,255,0.04)"/>
  <!-- Selected badge -->
  <rect x="172" y="108" width="116" height="116" rx="6" fill="none" stroke="rgba(255,252,16,0.3)" stroke-width="2"/>
  <rect x="254" y="108" width="34" height="16" rx="8" fill="rgba(255,252,16,0.2)"/>
  <text x="271" y="120" font-family="system-ui, sans-serif" font-size="8" fill="rgba(255,252,16,0.8)" text-anchor="middle">✓</text>

  <rect x="304" y="108" width="116" height="116" rx="6" fill="rgba(255,255,255,0.03)" stroke="rgba(255,255,255,0.06)" stroke-width="1"/>
  <!-- Logo 3 - wordmark style -->
  <rect x="318" y="132" width="88" height="32" rx="3" fill="rgba(79,195,247,0.06)"/>
  <rect x="326" y="140" width="36" height="16" rx="2" fill="rgba(79,195,247,0.2)"/>
  <rect x="370" y="140" width="28" height="16" rx="2" fill="rgba(255,255,255,0.1)"/>
  <rect x="318" y="176" width="84" height="8" rx="2" fill="rgba(255,255,255,0.06)"/>
  <rect x="328" y="190" width="64" height="6" rx="2" fill="rgba(255,255,255,0.04)"/>

  <rect x="436" y="108" width="104" height="116" rx="6" fill="rgba(255,255,255,0.03)" stroke="rgba(255,255,255,0.06)" stroke-width="1"/>
  <!-- Logo 4 - abstract shape -->
  <rect x="452" y="126" width="72" height="30" rx="15" fill="rgba(167,139,250,0.12)" stroke="rgba(167,139,250,0.3)" stroke-width="1.5"/>
  <rect x="460" y="134" width="56" height="14" rx="7" fill="rgba(167,139,250,0.2)"/>
  <rect x="452" y="176" width="72" height="8" rx="2" fill="rgba(255,255,255,0.06)"/>
  <rect x="462" y="190" width="52" height="6" rx="2" fill="rgba(255,255,255,0.04)"/>

  <!-- Typography specimen -->
  <rect x="40" y="240" width="500" height="120" rx="6" fill="rgba(255,255,255,0.03)" stroke="rgba(255,255,255,0.06)" stroke-width="1"/>
  <text x="56" y="264" font-family="system-ui, sans-serif" font-size="10" fill="rgba(255,255,255,0.25)" letter-spacing="1.2">TYPOGRAPHY</text>
  <!-- Display font sample -->
  <text x="56" y="298" font-family="Georgia, serif" font-size="32" font-weight="700" fill="rgba(255,255,255,0.85)" letter-spacing="-0.5">Aa Bb Cc</text>
  <!-- Body font sample -->
  <text x="56" y="320" font-family="system-ui, sans-serif" font-size="14" fill="rgba(255,255,255,0.35)" letter-spacing="0.5">Display  /  Body  /  Caption  /  Label</text>
  <!-- Weight samples -->
  <rect x="56" y="332" width="60" height="14" rx="2" fill="rgba(255,255,255,0.04)"/>
  <rect x="124" y="332" width="60" height="14" rx="2" fill="rgba(255,255,255,0.06)"/>
  <rect x="192" y="332" width="60" height="14" rx="2" fill="rgba(255,255,255,0.08)"/>
  <rect x="260" y="332" width="60" height="14" rx="2" fill="rgba(255,255,255,0.1)"/>
  <text x="86" y="343" font-family="system-ui, sans-serif" font-size="9" fill="rgba(255,255,255,0.2)" text-anchor="middle">Light</text>
  <text x="154" y="343" font-family="system-ui, sans-serif" font-size="9" fill="rgba(255,255,255,0.3)" text-anchor="middle">Regular</text>
  <text x="222" y="343" font-family="system-ui, sans-serif" font-size="9" fill="rgba(255,255,255,0.4)" text-anchor="middle">Medium</text>
  <text x="290" y="343" font-family="system-ui, sans-serif" font-size="9" fill="rgba(255,255,255,0.5)" text-anchor="middle" font-weight="600">Bold</text>
</svg>
