<svg width="580" height="400" viewBox="0 0 580 400" xmlns="http://www.w3.org/2000/svg">
  <defs>
    <linearGradient id="bg" x1="0%" y1="0%" x2="100%" y2="100%">
      <stop offset="0%" style="stop-color:#0f1117"/>
      <stop offset="100%" style="stop-color:#161920"/>
    </linearGradient>
  </defs>

  <rect width="580" height="400" fill="url(#bg)" rx="6"/>

  <!-- Purple glow -->
  <circle cx="180" cy="200" r="180" fill="rgba(167,139,250,0.05)"/>

  <!-- Desktop frame left -->
  <rect x="30" y="40" width="300" height="220" rx="6" fill="rgba(255,255,255,0.04)" stroke="rgba(255,255,255,0.08)" stroke-width="1"/>
  <rect x="30" y="40" width="300" height="28" rx="6" fill="rgba(255,255,255,0.05)"/>
  <rect x="30" y="56" width="300" height="12" fill="rgba(255,255,255,0.05)"/>
  <circle cx="50" cy="54" r="4" fill="rgba(255,90,90,0.4)"/>
  <circle cx="64" cy="54" r="4" fill="rgba(255,200,50,0.4)"/>
  <circle cx="78" cy="54" r="4" fill="rgba(80,200,80,0.4)"/>

  <!-- Desktop content layout -->
  <!-- Nav -->
  <rect x="40" y="76" width="280" height="18" rx="2" fill="rgba(255,255,255,0.03)"/>
  <rect x="48" y="80" width="40" height="10" rx="2" fill="rgba(255,252,16,0.3)"/>
  <rect x="100" y="81" width="28" height="8" rx="2" fill="rgba(255,255,255,0.1)"/>
  <rect x="136" y="81" width="28" height="8" rx="2" fill="rgba(255,255,255,0.1)"/>
  <rect x="172" y="81" width="28" height="8" rx="2" fill="rgba(255,255,255,0.1)"/>
  <rect x="272" y="78" width="40" height="14" rx="2" fill="rgba(255,252,16,0.12)"/>

  <!-- Hero area -->
  <rect x="40" y="100" width="280" height="70" rx="2" fill="rgba(255,255,255,0.02)"/>
  <rect x="100" y="112" width="160" height="10" rx="3" fill="rgba(255,255,255,0.1)"/>
  <rect x="120" y="128" width="120" height="7" rx="2" fill="rgba(255,255,255,0.06)"/>
  <rect x="115" y="143" width="60" height="14" rx="3" fill="rgba(255,252,16,0.2)"/>
  <rect x="183" y="143" width="54" height="14" rx="3" fill="rgba(255,255,255,0.05)"/>

  <!-- Content -->
  <rect x="40" y="178" width="84" height="68" rx="3" fill="rgba(255,255,255,0.03)"/>
  <rect x="134" y="178" width="84" height="68" rx="3" fill="rgba(255,255,255,0.03)"/>
  <rect x="228" y="178" width="84" height="68" rx="3" fill="rgba(255,255,255,0.03)"/>
  <!-- Card content lines -->
  <rect x="48" y="190" width="50" height="7" rx="2" fill="rgba(255,255,255,0.08)"/>
  <rect x="48" y="203" width="66" height="5" rx="2" fill="rgba(255,255,255,0.05)"/>
  <rect x="48" y="213" width="60" height="5" rx="2" fill="rgba(255,255,255,0.04)"/>
  <rect x="142" y="190" width="50" height="7" rx="2" fill="rgba(255,255,255,0.08)"/>
  <rect x="142" y="203" width="66" height="5" rx="2" fill="rgba(255,255,255,0.05)"/>
  <rect x="236" y="190" width="50" height="7" rx="2" fill="rgba(255,255,255,0.08)"/>

  <!-- Annotation overlays on desktop -->
  <!-- Annotation 1 - nav issue -->
  <rect x="96" y="78" width="36" height="12" rx="6" fill="none" stroke="rgba(255,100,100,0.6)" stroke-width="1.5"/>
  <line x1="132" y1="84" x2="158" y2="72" stroke="rgba(255,100,100,0.5)" stroke-width="1" stroke-dasharray="3,2"/>
  <rect x="160" y="62" width="90" height="22" rx="3" fill="rgba(255,100,100,0.12)" stroke="rgba(255,100,100,0.3)" stroke-width="1"/>
  <rect x="168" y="68" width="74" height="8" rx="2" fill="rgba(255,100,100,0.3)"/>

  <!-- Annotation 2 - CTA highlight -->
  <rect x="113" y="141" width="64" height="18" rx="3" fill="none" stroke="rgba(255,252,16,0.6)" stroke-width="1.5"/>
  <line x1="177" y1="150" x2="205" y2="175" stroke="rgba(255,252,16,0.4)" stroke-width="1" stroke-dasharray="3,2"/>
  <rect x="207" y="165" width="100" height="22" rx="3" fill="rgba(255,252,16,0.08)" stroke="rgba(255,252,16,0.25)" stroke-width="1"/>
  <rect x="215" y="170" width="84" height="8" rx="2" fill="rgba(255,252,16,0.25)"/>

  <!-- Mobile frame right -->
  <rect x="370" y="60" width="180" height="300" rx="16" fill="rgba(255,255,255,0.04)" stroke="rgba(255,255,255,0.08)" stroke-width="1"/>
  <!-- Mobile notch -->
  <rect x="430" y="64" width="60" height="12" rx="6" fill="rgba(255,255,255,0.06)"/>
  <!-- Mobile content -->
  <rect x="384" y="88" width="152" height="18" rx="2" fill="rgba(255,255,255,0.04)"/>
  <rect x="394" y="92" width="60" height="10" rx="2" fill="rgba(255,252,16,0.2)"/>
  <!-- Mobile hero -->
  <rect x="384" y="114" width="152" height="60" rx="2" fill="rgba(255,255,255,0.02)"/>
  <rect x="400" y="126" width="120" height="9" rx="2" fill="rgba(255,255,255,0.08)"/>
  <rect x="412" y="142" width="96" height="7" rx="2" fill="rgba(255,255,255,0.05)"/>
  <rect x="424" y="156" width="72" height="14" rx="3" fill="rgba(255,252,16,0.18)"/>
  <!-- Mobile cards -->
  <rect x="384" y="184" width="152" height="44" rx="3" fill="rgba(255,255,255,0.03)"/>
  <rect x="394" y="192" width="80" height="8" rx="2" fill="rgba(255,255,255,0.07)"/>
  <rect x="394" y="206" width="132" height="6" rx="2" fill="rgba(255,255,255,0.04)"/>
  <rect x="394" y="216" width="100" height="6" rx="2" fill="rgba(255,255,255,0.03)"/>
  <rect x="384" y="234" width="152" height="44" rx="3" fill="rgba(255,255,255,0.03)"/>
  <rect x="394" y="242" width="80" height="8" rx="2" fill="rgba(255,255,255,0.07)"/>
  <rect x="394" y="256" width="120" height="6" rx="2" fill="rgba(255,255,255,0.04)"/>

  <!-- Mobile annotation -->
  <circle cx="460" cy="163" r="16" fill="none" stroke="rgba(167,139,250,0.6)" stroke-width="1.5"/>
  <line x1="476" y1="163" x2="510" y2="143" stroke="rgba(167,139,250,0.4)" stroke-width="1" stroke-dasharray="3,2"/>
  <rect x="512" y="132" width="30" height="22" rx="3" fill="rgba(167,139,250,0.12)" stroke="rgba(167,139,250,0.3)" stroke-width="1"/>
  <rect x="518" y="139" width="18" height="8" rx="2" fill="rgba(167,139,250,0.4)"/>

  <!-- Score panel bottom -->
  <rect x="30" y="276" width="300" height="90" rx="6" fill="rgba(255,255,255,0.03)" stroke="rgba(255,255,255,0.06)" stroke-width="1"/>
  <text x="46" y="298" font-family="system-ui, sans-serif" font-size="10" fill="rgba(255,255,255,0.3)" letter-spacing="1.2">UX SCORE</text>
  <!-- Score bars -->
  <rect x="46" y="306" width="80" height="7" rx="3" fill="rgba(255,255,255,0.06)"/>
  <rect x="46" y="306" width="62" height="7" rx="3" fill="rgba(255,252,16,0.5)"/>
  <text x="134" y="313" font-family="system-ui, sans-serif" font-size="10" fill="rgba(255,255,255,0.3)">Performance</text>

  <rect x="46" y="320" width="80" height="7" rx="3" fill="rgba(255,255,255,0.06)"/>
  <rect x="46" y="320" width="48" height="7" rx="3" fill="rgba(79,195,247,0.5)"/>
  <text x="134" y="327" font-family="system-ui, sans-serif" font-size="10" fill="rgba(255,255,255,0.3)">Accessibility</text>

  <rect x="46" y="334" width="80" height="7" rx="3" fill="rgba(255,255,255,0.06)"/>
  <rect x="46" y="334" width="72" height="7" rx="3" fill="rgba(134,239,172,0.5)"/>
  <text x="134" y="341" font-family="system-ui, sans-serif" font-size="10" fill="rgba(255,255,255,0.3)">Usability</text>

  <rect x="46" y="348" width="80" height="7" rx="3" fill="rgba(255,255,255,0.06)"/>
  <rect x="46" y="348" width="38" height="7" rx="3" fill="rgba(255,100,100,0.5)"/>
  <text x="134" y="355" font-family="system-ui, sans-serif" font-size="10" fill="rgba(255,255,255,0.3)">Conversion</text>
</svg>
