<svg width="580" height="400" viewBox="0 0 580 400" xmlns="http://www.w3.org/2000/svg">
  <defs>
    <linearGradient id="bg" x1="0%" y1="0%" x2="100%" y2="100%">
      <stop offset="0%" style="stop-color:#111318"/>
      <stop offset="100%" style="stop-color:#181b22"/>
    </linearGradient>
  </defs>

  <rect width="580" height="400" fill="url(#bg)" rx="6"/>

  <!-- Grid lines -->
  <line x1="0" y1="133" x2="580" y2="133" stroke="rgba(255,255,255,0.03)" stroke-width="1"/>
  <line x1="0" y1="266" x2="580" y2="266" stroke="rgba(255,255,255,0.03)" stroke-width="1"/>
  <line x1="193" y1="0" x2="193" y2="400" stroke="rgba(255,255,255,0.03)" stroke-width="1"/>
  <line x1="386" y1="0" x2="386" y2="400" stroke="rgba(255,255,255,0.03)" stroke-width="1"/>

  <!-- Browser window -->
  <rect x="40" y="30" width="500" height="330" rx="8" fill="rgba(255,255,255,0.04)" stroke="rgba(255,255,255,0.08)" stroke-width="1"/>
  <!-- Browser chrome -->
  <rect x="40" y="30" width="500" height="36" rx="8" fill="rgba(255,255,255,0.06)"/>
  <rect x="40" y="54" width="500" height="12" fill="rgba(255,255,255,0.06)"/>
  <!-- Traffic lights -->
  <circle cx="62" cy="48" r="5" fill="rgba(255,90,90,0.5)"/>
  <circle cx="80" cy="48" r="5" fill="rgba(255,200,50,0.5)"/>
  <circle cx="98" cy="48" r="5" fill="rgba(80,200,80,0.5)"/>
  <!-- URL bar -->
  <rect x="130" y="40" width="260" height="16" rx="3" fill="rgba(255,255,255,0.06)"/>
  <rect x="138" y="45" width="80" height="6" rx="2" fill="rgba(255,255,255,0.15)"/>

  <!-- Nav bar inside browser -->
  <rect x="56" y="80" width="468" height="28" rx="0" fill="rgba(255,255,255,0.03)"/>
  <rect x="68" y="88" width="40" height="12" rx="2" fill="rgba(255,252,16,0.4)"/>
  <rect x="126" y="89" width="36" height="10" rx="2" fill="rgba(255,255,255,0.1)"/>
  <rect x="172" y="89" width="36" height="10" rx="2" fill="rgba(255,255,255,0.1)"/>
  <rect x="218" y="89" width="36" height="10" rx="2" fill="rgba(255,255,255,0.1)"/>
  <rect x="430" y="85" width="80" height="18" rx="3" fill="rgba(255,252,16,0.15)" stroke="rgba(255,252,16,0.3)" stroke-width="1"/>

  <!-- Hero section inside browser -->
  <rect x="56" y="118" width="468" height="100" rx="0" fill="rgba(255,255,255,0.02)"/>
  <!-- Hero text lines -->
  <rect x="130" y="136" width="320" height="16" rx="3" fill="rgba(255,255,255,0.12)"/>
  <rect x="170" y="160" width="240" height="10" rx="2" fill="rgba(255,255,255,0.07)"/>
  <rect x="190" y="178" width="200" height="10" rx="2" fill="rgba(255,255,255,0.05)"/>
  <!-- Hero CTA buttons -->
  <rect x="180" y="197" width="80" height="14" rx="3" fill="rgba(255,252,16,0.25)"/>
  <rect x="270" y="197" width="80" height="14" rx="3" fill="rgba(255,255,255,0.06)"/>

  <!-- Content grid -->
  <rect x="56" y="230" width="148" height="100" rx="3" fill="rgba(255,255,255,0.03)" stroke="rgba(255,255,255,0.05)" stroke-width="1"/>
  <rect x="68" y="244" width="60" height="8" rx="2" fill="rgba(255,252,16,0.2)"/>
  <rect x="68" y="260" width="120" height="6" rx="2" fill="rgba(255,255,255,0.06)"/>
  <rect x="68" y="272" width="100" height="6" rx="2" fill="rgba(255,255,255,0.04)"/>
  <rect x="68" y="284" width="110" height="6" rx="2" fill="rgba(255,255,255,0.04)"/>
  <rect x="68" y="304" width="50" height="10" rx="2" fill="rgba(255,252,16,0.1)"/>

  <rect x="216" y="230" width="148" height="100" rx="3" fill="rgba(255,255,255,0.03)" stroke="rgba(255,255,255,0.05)" stroke-width="1"/>
  <rect x="228" y="244" width="60" height="8" rx="2" fill="rgba(79,195,247,0.3)"/>
  <rect x="228" y="260" width="120" height="6" rx="2" fill="rgba(255,255,255,0.06)"/>
  <rect x="228" y="272" width="100" height="6" rx="2" fill="rgba(255,255,255,0.04)"/>
  <rect x="228" y="284" width="110" height="6" rx="2" fill="rgba(255,255,255,0.04)"/>
  <rect x="228" y="304" width="50" height="10" rx="2" fill="rgba(255,252,16,0.1)"/>

  <rect x="376" y="230" width="148" height="100" rx="3" fill="rgba(255,255,255,0.03)" stroke="rgba(255,255,255,0.05)" stroke-width="1"/>
  <rect x="388" y="244" width="60" height="8" rx="2" fill="rgba(167,139,250,0.3)"/>
  <rect x="388" y="260" width="120" height="6" rx="2" fill="rgba(255,255,255,0.06)"/>
  <rect x="388" y="272" width="100" height="6" rx="2" fill="rgba(255,255,255,0.04)"/>
  <rect x="388" y="284" width="110" height="6" rx="2" fill="rgba(255,255,255,0.04)"/>
  <rect x="388" y="304" width="50" height="10" rx="2" fill="rgba(255,252,16,0.1)"/>

  <!-- Yellow glow -->
  <circle cx="290" cy="148" r="120" fill="rgba(255,252,16,0.04)"/>
</svg>
