<svg width="226" height="162" viewBox="0 0 226 162" fill="none" xmlns="http://www.w3.org/2000/svg">
<g opacity="0.6">
<path fill-rule="evenodd" clip-rule="evenodd" d="M16.203 29.6399C23.5019 29.6399 29.4189 23.723 29.4189 16.4241C29.4189 9.12513 23.5019 3.20817 16.203 3.20817C8.90406 3.20817 2.9871 9.12513 2.9871 16.4241C2.9871 23.723 8.90406 29.6399 16.203 29.6399ZM16.203 30.602C24.0333 30.602 30.381 24.2543 30.381 16.4241C30.381 8.59379 24.0333 2.24609 16.203 2.24609C8.37272 2.24609 2.02502 8.59379 2.02502 16.4241C2.02502 24.2543 8.37272 30.602 16.203 30.602Z" fill="white"/>
<path d="M12.8944 9.96023C12.0054 10.5525 11.3139 11.3964 10.9074 12.3849C10.5009 13.3734 10.3978 14.4619 10.6105 15.5125C10.6632 15.7728 10.917 15.9412 11.1774 15.8885C11.4377 15.8358 11.6061 15.582 11.5534 15.3216C11.3784 14.457 11.4635 13.5623 11.7972 12.7508C11.8821 12.5442 11.9822 12.3453 12.0963 12.1556C12.1262 12.1288 12.1532 12.0979 12.1763 12.0629C12.664 11.3277 13.3567 10.7553 14.1666 10.4174C14.9763 10.0795 15.8672 9.99119 16.7266 10.1634C17.5861 10.3356 18.376 10.7607 18.9964 11.3856C19.6168 12.0105 20.0396 12.8072 20.211 13.6749C20.3824 14.5427 20.2944 15.4421 19.9583 16.2594C19.6223 17.0766 19.0535 17.7744 18.3243 18.2652C17.5953 18.7559 16.7384 19.0176 15.8623 19.0176C15.5966 19.0176 15.3812 19.233 15.3812 19.4987V22.9494C15.3812 23.2151 15.5966 23.4304 15.8623 23.4304C16.1279 23.4304 16.3433 23.2151 16.3433 22.9494V19.9581C17.2415 19.8772 18.1079 19.5706 18.8615 19.0633C19.1706 18.8553 19.4558 18.6168 19.7136 18.3524C19.7289 18.3405 19.7437 18.3274 19.7578 18.3133C20.513 17.5581 21.0254 16.5944 21.2306 15.5445C21.4358 14.4947 21.3244 13.4059 20.9114 12.4158C20.4983 11.4258 19.8019 10.5785 18.9103 9.98093C18.0186 9.38335 16.9713 9.06204 15.9005 9.05814C14.8297 9.05424 13.7835 9.36799 12.8944 9.96023Z" fill="white"/>
<circle cx="15.8639" cy="24.5877" r="0.533058" fill="white"/>
<path d="M73.8087 24.5542H71.4862C71.2122 24.5542 70.9798 24.3219 70.9798 24.0479C70.9798 23.7739 71.2122 23.5415 71.4862 23.5415H73.8087C74.0827 23.5415 74.3151 23.7739 74.3151 24.0479C74.3151 24.3263 74.0918 24.5542 73.8087 24.5542Z" fill="white"/>
<path d="M81.3555 24.5542H76.7105C76.4365 24.5542 76.2041 24.3219 76.2041 24.0479C76.2041 23.7739 76.4365 23.5415 76.7105 23.5415H81.3555C81.6294 23.5415 81.8618 23.7739 81.8618 24.0479C81.8618 24.3263 81.6385 24.5542 81.3555 24.5542Z" fill="white"/>
<path fill-rule="evenodd" clip-rule="evenodd" d="M90.9696 23.9551L90.5657 24.0143L90.5379 24.4216C90.4155 26.2144 89.9769 27.2673 89.1827 27.9023C88.3664 28.555 87.0607 28.8623 84.9617 28.8623H72.2151C69.9222 28.8623 68.5745 28.4906 67.776 27.7006C66.9791 26.9122 66.6046 25.5835 66.6046 23.3194V13.8809C66.6046 12.2207 66.783 10.9827 67.3061 10.1064C67.8051 9.27045 68.6688 8.68486 70.2573 8.45177L70.6614 8.39248L70.689 7.98497C70.8102 6.19329 71.2481 5.14048 72.0422 4.50528C72.8585 3.85232 74.1649 3.54443 76.2659 3.54443H89.0126C91.3055 3.54443 92.6531 3.91613 93.4516 4.70612C94.2485 5.4945 94.623 6.82327 94.623 9.08734V18.5258C94.623 20.1862 94.4446 21.4242 93.9214 22.3005C93.4223 23.1365 92.5584 23.7221 90.9696 23.9551ZM90.5721 13.8809V23.0209L91.1687 22.9129C92.0348 22.7561 92.7152 22.4261 93.1262 21.6487C93.5015 20.9389 93.6103 19.9209 93.6103 18.5258V9.08734C93.6103 8.21715 93.5753 7.4917 93.4567 6.90067C93.3369 6.30381 93.1236 5.80124 92.7352 5.4185C92.3477 5.03654 91.8396 4.82711 91.2357 4.70916C90.6365 4.59214 89.8996 4.55715 89.0126 4.55715H76.2659C75.4896 4.55715 74.8325 4.58319 74.2843 4.66478C73.7367 4.74628 73.2622 4.88793 72.8737 5.14336C72.0558 5.681 71.7998 6.5939 71.7101 7.79385L71.6695 8.33794H84.9617C86.7551 8.33794 87.9773 8.56513 88.8075 9.04855C89.6037 9.51217 90.1026 10.25 90.3614 11.4512C90.5048 12.1169 90.5721 12.9184 90.5721 13.8809ZM71.1804 9.37821L71.1758 9.37841L71.1713 9.37869C69.9793 9.45194 68.9895 9.61352 68.3669 10.3643C68.0596 10.7348 67.8767 11.2068 67.7676 11.7747C67.6588 12.3409 67.6173 13.0356 67.6173 13.8809V16.2033H89.5594V13.8808C89.5594 13.0106 89.5245 12.2852 89.4058 11.6942C89.3161 11.2473 89.174 10.8522 88.9431 10.5198C88.7078 10.1811 88.3983 9.93352 88.0157 9.75838C87.2862 9.42441 86.2738 9.35071 84.9617 9.35071H72.2151C71.8386 9.35071 71.4916 9.36468 71.1804 9.37821ZM89.5594 17.216H67.6173V23.3194C67.6173 24.1896 67.6523 24.915 67.7709 25.5061C67.8907 26.1029 68.104 26.6055 68.4924 26.9882C68.88 27.3702 69.388 27.5796 69.9919 27.6976C70.5911 27.8146 71.328 27.8496 72.2151 27.8496H84.9617C85.8385 27.8496 86.5661 27.8162 87.1583 27.7053C87.7541 27.5936 88.2571 27.3955 88.6447 27.0327C89.035 26.6672 89.2543 26.1853 89.381 25.6126C89.5061 25.0472 89.5492 24.3549 89.5594 23.5282V17.216Z" fill="white"/>
<path fill-rule="evenodd" clip-rule="evenodd" d="M140.797 15.4878C139.403 15.4878 138.266 14.3507 138.266 12.956C138.266 11.5613 139.403 10.4242 140.797 10.4242C142.192 10.4242 143.329 11.5613 143.329 12.956C143.329 14.3507 142.192 15.4878 140.797 15.4878ZM140.797 11.4369C139.964 11.4369 139.278 12.1227 139.278 12.956C139.278 13.7893 139.964 14.4751 140.797 14.4751C141.631 14.4751 142.316 13.7893 142.316 12.956C142.316 12.1227 141.631 11.4369 140.797 11.4369Z" fill="white"/>
<path fill-rule="evenodd" clip-rule="evenodd" d="M132.625 28.1676L132.583 28.1604H131.345C131.072 28.1604 130.839 27.928 130.839 27.6541C130.839 27.3801 131.072 27.1477 131.345 27.1477H132.202L132.196 18.7785L132.192 18.7502C132.19 18.7322 132.189 18.7138 132.189 18.695C132.189 18.6765 132.19 18.6583 132.192 18.6405L132.196 18.6122L132.189 11.3629C132.189 10.3042 132.725 9.30036 133.612 8.70516L133.612 8.70484L139.012 5.10046C140.099 4.37605 141.497 4.37776 142.567 5.09905L147.97 8.70554L147.971 8.70654C148.868 9.30022 149.392 10.2888 149.392 11.3634L149.398 18.6054L149.402 18.6358C149.404 18.6552 149.405 18.6749 149.405 18.695C149.405 18.7149 149.404 18.7345 149.402 18.7536L149.398 18.784L149.405 27.1477H155.118L155.118 22.5558L154.753 22.4498C153.417 22.0621 152.444 20.8305 152.444 19.3698V16.6693C152.444 14.8965 153.878 13.4624 155.65 13.4624C157.423 13.4624 158.857 14.8965 158.857 16.6693V19.3698C158.857 20.8471 157.861 22.09 156.503 22.4627L156.13 22.5648L156.13 27.1477H158.351C158.625 27.1477 158.857 27.3801 158.857 27.6541C158.857 27.928 158.625 28.1604 158.351 28.1604H155.751L155.71 28.1673C155.683 28.1718 155.654 28.1742 155.624 28.1742C155.596 28.1742 155.569 28.1719 155.543 28.1675L155.501 28.1604H141.245L132.709 28.1747H132.709C132.68 28.1746 132.652 28.1722 132.625 28.1676ZM147.422 9.54923C148.028 9.94273 148.393 10.6309 148.393 11.3631L148.399 18.0196H133.208L133.202 11.3631C133.202 10.6267 133.57 9.94134 134.185 9.53669L134.186 9.53564L139.585 5.93217C139.952 5.68703 140.374 5.56362 140.797 5.56362C141.214 5.56362 141.654 5.68397 142.03 5.94998L147.422 9.54923ZM148.407 27.134L148.4 19.0323H133.209L133.216 27.1477H140.291L140.291 22.4077C140.291 22.1337 140.523 21.9013 140.797 21.9013C141.071 21.9013 141.304 22.1337 141.304 22.4077L141.304 27.1475L148.407 27.134ZM155.65 14.4751C154.439 14.4751 153.456 15.4579 153.456 16.6693V19.3698C153.456 20.5812 154.439 21.5641 155.65 21.5641C156.862 21.5641 157.845 20.5812 157.845 19.3698V16.6693C157.845 15.4579 156.862 14.4751 155.65 14.4751Z" fill="white"/>
<g clip-path="url(#clip0_4202_20501)">
<path fill-rule="evenodd" clip-rule="evenodd" d="M201.81 19.8233L198.789 16.8818L204.168 11.6436L205.596 13.0337C205.865 13.2956 206.299 13.2956 206.568 13.0337L206.63 12.9733C207.271 12.3487 208.306 12.3487 208.947 12.9733L209.195 13.215L209.216 13.2956L209.568 12.9531C209.588 12.933 209.609 12.9129 209.63 12.8927C209.692 12.8322 209.774 12.7516 209.878 12.6912C209.899 12.6711 209.94 12.6509 209.961 12.6308C210.064 12.5704 210.168 12.5099 210.312 12.4494C210.354 12.4293 210.374 12.4293 210.416 12.4091C210.602 12.3286 210.83 12.2681 211.098 12.2278C211.14 12.2278 211.161 12.2077 211.202 12.2077C211.409 12.1875 211.636 12.1674 211.885 12.1674H215.753L220.056 16.358L216.519 19.8032L216.953 20.2061C217.408 20.6695 217.408 21.3948 216.953 21.8582L216.87 21.9388C216.395 22.382 215.65 22.382 215.195 21.9388L215.815 22.5432C216.291 23.0066 216.291 23.7319 215.815 24.1952L215.733 24.2759C215.257 24.7392 214.512 24.7392 214.057 24.2759L214.036 24.2557C214.512 24.7191 214.512 25.4444 214.036 25.9078L213.953 25.9884C213.478 26.4517 212.733 26.4517 212.278 25.9884L212.133 25.8473C212.609 26.3107 212.609 27.036 212.133 27.4994C211.657 27.9628 210.912 27.9628 210.436 27.4994L209.299 26.3913" fill="#212121"/>
<path d="M201.81 19.8233L198.789 16.8818L204.168 11.6436L205.596 13.0337C205.865 13.2956 206.299 13.2956 206.568 13.0337L206.63 12.9733C207.271 12.3487 208.306 12.3487 208.947 12.9733L209.195 13.215L209.216 13.2956L209.568 12.9531C209.588 12.933 209.609 12.9129 209.63 12.8927C209.692 12.8322 209.774 12.7516 209.878 12.6912C209.899 12.6711 209.94 12.6509 209.961 12.6308C210.064 12.5704 210.168 12.5099 210.312 12.4494C210.354 12.4293 210.374 12.4293 210.416 12.4091C210.602 12.3286 210.83 12.2681 211.098 12.2278C211.14 12.2278 211.161 12.2077 211.202 12.2077C211.409 12.1875 211.636 12.1674 211.885 12.1674H215.753L220.056 16.358L216.519 19.8032L216.953 20.2061C217.408 20.6695 217.408 21.3948 216.953 21.8582L216.87 21.9388C216.395 22.382 215.65 22.382 215.195 21.9388L215.815 22.5432C216.291 23.0066 216.291 23.7319 215.815 24.1952L215.733 24.2759C215.257 24.7392 214.512 24.7392 214.057 24.2759L214.036 24.2557C214.512 24.7191 214.512 25.4444 214.036 25.9078L213.953 25.9884C213.478 26.4517 212.733 26.4517 212.278 25.9884L212.133 25.8473C212.609 26.3107 212.609 27.036 212.133 27.4994C211.657 27.9628 210.912 27.9628 210.436 27.4994L209.299 26.3913" stroke="white" stroke-width="0.962076" stroke-linecap="round" stroke-linejoin="round"/>
<path fill-rule="evenodd" clip-rule="evenodd" d="M220.056 16.3173L216.563 19.7443L212.436 15.6961C211.885 15.155 210.965 15.155 210.414 15.6961L209.678 16.4175L209.392 16.6981C208.902 17.159 208.269 17.3995 207.635 17.3995C207.002 17.3995 206.369 17.159 205.878 16.6781L209.351 13.2712L209.699 12.9305C209.719 12.9105 209.74 12.8904 209.76 12.8704C209.821 12.8102 209.903 12.7301 210.005 12.67C210.026 12.6499 210.066 12.6299 210.087 12.6098C210.189 12.5497 210.291 12.4896 210.434 12.4295C210.475 12.4095 210.495 12.4095 210.536 12.3894C210.72 12.3092 210.945 12.2491 211.211 12.209C211.251 12.209 211.272 12.189 211.313 12.189C211.517 12.1689 211.742 12.1489 211.987 12.1489H215.807L220.056 16.3173Z" stroke="white" stroke-width="0.962076" stroke-linecap="round" stroke-linejoin="round"/>
<path fill-rule="evenodd" clip-rule="evenodd" d="M204.06 20.9146L202.723 22.4432C202.322 22.9018 201.653 22.9018 201.252 22.4432L201.118 22.2904C200.717 21.8318 200.717 21.0675 201.118 20.6089L202.455 19.0803C202.857 18.6217 203.525 18.6217 203.927 19.0803L204.06 19.2331C204.462 19.7136 204.462 20.456 204.06 20.9146Z" fill="#212121" stroke="white" stroke-width="0.962076" stroke-linecap="round" stroke-linejoin="round"/>
<path fill-rule="evenodd" clip-rule="evenodd" d="M206.582 22.2093L203.781 25.0104C203.37 25.4218 202.684 25.4218 202.273 25.0104L202.136 24.8733C201.724 24.4619 201.724 23.7763 202.136 23.365L204.937 20.5639C205.348 20.1525 206.034 20.1525 206.445 20.5639L206.582 20.701C206.994 21.1124 206.994 21.7784 206.582 22.2093Z" fill="#212121" stroke="white" stroke-width="0.962076" stroke-linecap="round" stroke-linejoin="round"/>
<path fill-rule="evenodd" clip-rule="evenodd" d="M208.393 23.2527C208.46 23.6066 208.349 23.9803 208.06 24.2555L206.085 26.0057C205.597 26.4383 204.798 26.4383 204.309 26.0057L204.221 25.9271C203.732 25.4944 203.732 24.7865 204.221 24.3539L206.196 22.6038C206.684 22.1711 207.483 22.1711 207.971 22.6038L208.06 22.6824C208.238 22.8594 208.349 23.056 208.393 23.2527Z" fill="#212121" stroke="white" stroke-width="0.962076" stroke-linecap="round" stroke-linejoin="round"/>
<path fill-rule="evenodd" clip-rule="evenodd" d="M209.112 26.5296L208.295 27.4822C207.878 27.9696 207.213 27.9696 206.814 27.4822L206.7 27.3493C206.283 26.8619 206.283 26.0866 206.7 25.6214L207.517 24.6688C207.935 24.1814 208.599 24.1814 208.998 24.6688L209.112 24.8017C209.53 25.2669 209.53 26.0423 209.112 26.5296Z" fill="#212121" stroke="white" stroke-width="0.962076" stroke-linecap="round" stroke-linejoin="round"/>
<path fill-rule="evenodd" clip-rule="evenodd" d="M201.869 7.84077L194.993 14.4288C194.653 14.7522 194.653 15.2574 194.993 15.5807L196.521 17.0357L196.988 17.4803C197.327 17.8037 197.858 17.8037 198.198 17.4803L205.117 10.8923C205.456 10.569 205.456 10.0638 205.117 9.74039L203.079 7.82059C202.74 7.51746 202.209 7.51746 201.869 7.84077ZM197.327 15.8434C196.945 15.8434 196.627 15.5403 196.627 15.1765C196.627 14.8128 196.945 14.5096 197.327 14.5096C197.709 14.5096 198.028 14.8128 198.028 15.1765C198.028 15.5605 197.709 15.8434 197.327 15.8434Z" stroke="white" stroke-width="0.962076" stroke-linecap="round" stroke-linejoin="round"/>
<path fill-rule="evenodd" clip-rule="evenodd" d="M216.577 7.84887L214.714 9.75083C214.41 10.0745 214.41 10.5804 214.714 10.8839L221.314 17.48C221.638 17.8038 222.144 17.8038 222.468 17.48L224.371 15.578C224.694 15.2543 224.694 14.7485 224.371 14.4247L217.73 7.82861C217.407 7.5049 216.88 7.52511 216.577 7.84887ZM222.164 15.8411C221.8 15.8411 221.496 15.5376 221.496 15.1734C221.496 14.8092 221.8 14.5057 222.164 14.5057C222.528 14.5057 222.832 14.8092 222.832 15.1734C222.812 15.5578 222.528 15.8411 222.164 15.8411Z" stroke="white" stroke-width="0.962076" stroke-linecap="round" stroke-linejoin="round"/>
<path d="M210.435 3.03613V3.54249" stroke="white" stroke-width="0.962076" stroke-linecap="round" stroke-linejoin="round"/>
<path d="M210.435 5.06348V8.10161" stroke="white" stroke-width="0.962076" stroke-linecap="round" stroke-linejoin="round"/>
<path d="M214.486 5.56791L216.512 3.03613" stroke="white" stroke-width="0.962076" stroke-linecap="round" stroke-linejoin="round"/>
<path d="M213.473 8.10206V7.5957" stroke="white" stroke-width="0.962076" stroke-linecap="round" stroke-linejoin="round"/>
<path d="M207.397 8.10014L205.878 5.56836" stroke="white" stroke-width="0.962076" stroke-linecap="round" stroke-linejoin="round"/>
</g>
<path d="M8.94729 66.4122H26.6191C27.0805 66.4122 27.4546 66.7863 27.4546 67.2477V90.9958C27.4546 91.4292 27.1032 91.7806 26.6697 91.7806H8.16243V67.197C8.16243 66.7636 8.51382 66.4122 8.94729 66.4122Z" stroke="white" stroke-width="0.962076"/>
<path d="M23.6395 69.1882L20.1618 69.1882L8.74567 69.1882L5.26791 69.1882C4.871 69.1882 4.54968 69.5095 4.54968 69.9065L4.54968 94.1373C4.54968 94.5343 4.871 94.8556 5.26791 94.8556L16.4094 94.8556L24.3578 94.7793L24.3578 69.9065C24.3578 69.5095 24.0365 69.1882 23.6395 69.1882Z" fill="#212121"/>
<path d="M20.1618 69.1882L23.6395 69.1882C24.0365 69.1882 24.3578 69.5095 24.3578 69.9065L24.3578 71.8948M20.3919 69.1882L5.26792 69.1882C4.871 69.1882 4.54968 69.5095 4.54968 69.9065L4.54968 71.8948M4.54968 71.8948L4.54968 94.1373C4.54968 94.5343 4.871 94.8556 5.26791 94.8556L16.4094 94.8556L23.5982 94.8556C24.0177 94.8556 24.3578 94.5155 24.3578 94.096L24.3578 71.8948M4.54968 71.8948L24.3578 71.8948" stroke="white" stroke-width="0.962076" stroke-linecap="round" stroke-linejoin="round"/>
<rect x="7.5649" y="77.0438" width="5.62055" height="5.62055" rx="0.531674" stroke="white" stroke-width="0.962076"/>
<path d="M16.2944 78.5867H21.358" stroke="white" stroke-width="0.962076" stroke-linecap="round"/>
<path d="M16.2944 81.1191H21.358" stroke="white" stroke-width="0.962076" stroke-linecap="round"/>
<path d="M7.68652 87.7031H21.3581" stroke="white" stroke-width="0.962076" stroke-linecap="round"/>
<path d="M7.68652 90.2322H21.3581" stroke="white" stroke-width="0.962076" stroke-linecap="round"/>
<g clip-path="url(#clip1_4202_20501)">
<path fill-rule="evenodd" clip-rule="evenodd" d="M67.9532 75.3458V75.3437C67.9532 74.3535 68.4066 73.4341 69.1886 72.8272L78.6412 65.4676C79.7939 64.5713 81.4152 64.5691 82.5842 65.4686L82.5852 65.4693L83.8519 66.4537L84.051 66.4355C84.0657 66.4341 84.0806 66.4334 84.0958 66.4334H90.037C90.3199 66.4334 90.5434 66.6611 90.5433 66.9263L90.5857 71.6868L92.0327 72.8114L92.0339 72.8123C92.8048 73.4203 93.271 74.368 93.271 75.3437V91.2706H93.9862C94.2601 91.2706 94.4925 91.503 94.4925 91.7769C94.4925 92.0509 94.2601 92.2833 93.9862 92.2833H84.1966C83.9227 92.2833 83.6903 92.0509 83.6903 91.7769C83.6903 91.503 83.9227 91.2706 84.1966 91.2706H92.2583V75.3572C92.2583 74.6875 91.9431 74.0434 91.4201 73.625L81.9625 66.2751C81.1701 65.6589 80.066 65.6631 79.2658 66.2719L69.8123 73.6322L69.8107 73.6334C69.2797 74.0413 68.9663 74.6893 68.9659 75.3561L68.9659 75.3572L68.8997 91.2706H73.4155C73.6894 91.2706 73.9218 91.503 73.9218 91.7769C73.9218 92.0509 73.6894 92.2833 73.4155 92.2833H67.1704C66.8965 92.2833 66.6641 92.0509 66.6641 91.7769C66.6641 91.503 66.8965 91.2706 67.1704 91.2706H67.887L67.9532 75.3458ZM89.5268 67.4461H85.1288L89.5529 70.8843L89.5268 67.4461Z" fill="white"/>
<g clip-path="url(#clip2_4202_20501)">
<path fill-rule="evenodd" clip-rule="evenodd" d="M76.5437 81.6228L76.5343 81.6225L76.5249 81.6228C76.5185 81.623 76.512 81.6232 76.5054 81.6232H75.4927C74.3125 81.6232 73.4359 81.2995 72.8539 80.7175C72.2719 80.1355 71.9482 79.2589 71.9482 78.0787C71.9482 76.8984 72.2719 76.0218 72.8539 75.4398C73.4359 74.8578 74.3125 74.5342 75.4927 74.5342H76.5054C76.512 74.5342 76.5185 74.5343 76.5249 74.5345L76.5343 74.5349L76.5437 74.5345C76.5498 74.5343 76.5559 74.5342 76.562 74.5342H81.6238C82.6761 74.5342 83.4868 74.7917 84.0616 75.2586C84.6337 75.7233 85.0005 76.4185 85.123 77.3521L85.1519 77.5723H85.6754C87.4286 77.5723 88.2721 77.9308 88.7032 78.488C89.1485 79.0636 89.2199 79.9222 89.2199 81.1168V83.1422C89.2199 84.3368 89.1485 85.1955 88.7032 85.771C88.2721 86.3282 87.4286 86.6867 85.6754 86.6867H81.6246C80.6783 86.6867 80.0446 86.7888 79.6471 87.0893C79.2258 87.4079 79.1311 87.8973 79.1039 88.4555L79.0919 88.7033L79.3394 88.7204C79.7978 88.752 80.2377 88.8779 80.561 89.1687C80.877 89.4529 81.1182 89.9277 81.1182 90.7376V93.7757C81.1182 94.6573 80.8327 95.1439 80.47 95.4199C80.0942 95.7058 79.5896 95.8011 79.0928 95.8011H78.0801C77.5833 95.8011 77.0788 95.7058 76.7029 95.4199C76.3402 95.1439 76.0547 94.6573 76.0547 93.7757V90.7376C76.0547 89.9217 76.2996 89.4457 76.6194 89.1621C76.9469 88.8716 77.3922 88.748 77.8543 88.719L78.0811 88.7048L78.0913 88.4778C78.1247 87.7395 78.2562 87.0563 78.7244 86.5517C79.1886 86.0514 80.035 85.674 81.6246 85.674H85.6754C86.246 85.674 86.6936 85.6554 87.0389 85.5915C87.386 85.5272 87.6635 85.4112 87.8591 85.1896C88.0523 84.9706 88.1322 84.6855 88.1699 84.3606C88.2072 84.0398 88.2072 83.6385 88.2072 83.1572V81.1018C88.2072 80.6206 88.2072 80.2192 88.1699 79.8984C88.1322 79.5735 88.0523 79.2885 87.8591 79.0695C87.6635 78.8478 87.386 78.7319 87.0389 78.6676C86.6936 78.6037 86.246 78.585 85.6754 78.585H85.1519L85.123 78.8053C85.0005 79.7388 84.6337 80.434 84.0616 80.8988C83.4868 81.3656 82.6761 81.6232 81.6238 81.6232H76.562C76.5559 81.6232 76.5498 81.623 76.5437 81.6228ZM75.7392 75.8816L75.8563 75.5372L75.4927 75.547C74.707 75.5681 73.9599 75.7562 73.5431 76.1955C73.1278 76.6333 72.961 77.2706 72.961 78.0787C72.961 78.8821 73.128 79.5187 73.5413 79.9574C73.9562 80.398 74.7006 80.5892 75.4826 80.6104L75.8439 80.6201L75.7296 80.2772C75.2406 78.8102 75.2407 77.3478 75.7392 75.8816ZM76.9343 80.6105H80.2506L80.3005 80.4222C80.7068 78.891 80.7068 77.2664 80.3005 75.7351L80.2506 75.5469H76.9343L76.8844 75.7351C76.4782 77.2664 76.4782 78.891 76.8844 80.4222L76.9343 80.6105ZM83.5724 76.1958C83.9866 76.634 84.1505 77.2716 84.1454 78.0794C84.1453 78.8863 83.9813 79.5233 83.5689 79.9612C83.1546 80.4011 82.4095 80.5795 81.6238 80.6006L81.2625 80.6103L81.3768 80.2675C81.8658 78.8004 81.8658 77.3375 81.3768 75.8704L81.2625 75.5275L81.6238 75.5372C82.4093 75.5583 83.1568 75.7561 83.5724 76.1958ZM78.0801 89.7249C77.8814 89.7249 77.7129 89.739 77.5741 89.7771C77.4308 89.8163 77.3054 89.885 77.2152 90.0017C77.1281 90.1144 77.0956 90.2442 77.0812 90.3615C77.0674 90.4735 77.0674 90.6013 77.0674 90.727V93.7862C77.0674 93.9119 77.0674 94.0398 77.0812 94.1518C77.0956 94.2691 77.1281 94.3989 77.2152 94.5116C77.3054 94.6283 77.4308 94.6969 77.5741 94.7362C77.7129 94.7743 77.8814 94.7884 78.0801 94.7884H79.0928C79.2915 94.7884 79.46 94.7743 79.5988 94.7362C79.7422 94.6969 79.8675 94.6283 79.9577 94.5116C80.0449 94.3989 80.0773 94.2691 80.0918 94.1518C80.1056 94.0398 80.1055 93.912 80.1055 93.7863V90.727C80.1055 90.6013 80.1056 90.4735 80.0918 90.3615C80.0773 90.2442 80.0449 90.1144 79.9577 90.0017C79.8675 89.885 79.7422 89.8163 79.5988 89.7771C79.46 89.739 79.2915 89.7249 79.0928 89.7249H78.0801Z" fill="white"/>
</g>
</g>
<path fill-rule="evenodd" clip-rule="evenodd" d="M154.182 75.5701C153.145 75.128 152.012 74.9595 150.892 75.0806C149.772 75.2018 148.701 75.6086 147.783 76.2621C147.555 76.4242 147.239 76.371 147.077 76.1431C146.914 75.9153 146.968 75.5991 147.196 75.437C148.255 74.683 149.49 74.2136 150.783 74.0738C152.076 73.934 153.383 74.1285 154.579 74.6386C155.775 75.1487 156.82 75.9573 157.614 76.9871C158.409 78.0169 158.925 79.2332 159.114 80.5198C159.303 81.8063 159.159 83.1198 158.695 84.3346C158.231 85.5494 157.463 86.6248 156.465 87.4577C155.466 88.2907 154.271 88.8533 152.992 89.0917C152.717 89.143 152.453 88.9617 152.402 88.6868C152.35 88.4119 152.532 88.1474 152.807 88.0962C153.914 87.8895 154.951 87.4019 155.816 86.6801C156.682 85.9582 157.347 85.0262 157.749 83.9734C158.151 82.9205 158.276 81.7821 158.112 80.6671C157.948 79.5522 157.501 78.498 156.812 77.6055C156.124 76.713 155.219 76.0122 154.182 75.5701Z" fill="white"/>
<path fill-rule="evenodd" clip-rule="evenodd" d="M136.278 79.6111C135.405 79.5387 134.529 79.7195 133.756 80.1319C132.983 80.5443 132.346 81.1708 131.919 81.9363C131.493 82.7019 131.297 83.574 131.354 84.4483C131.411 85.3226 131.718 86.162 132.24 86.8659C132.762 87.5699 133.475 88.1085 134.295 88.4174C135.115 88.7262 136.006 88.7922 136.863 88.6073C137.136 88.5483 137.406 88.7221 137.465 88.9954C137.524 89.2688 137.35 89.5382 137.076 89.5972C136.03 89.8231 134.94 89.7425 133.938 89.3651C132.936 88.9876 132.064 88.3293 131.426 87.4689C130.789 86.6085 130.413 85.5826 130.343 84.514C130.274 83.4454 130.514 82.3795 131.035 81.4438C131.555 80.5081 132.335 79.7424 133.28 79.2384C134.224 78.7343 135.294 78.5133 136.362 78.6018C137.429 78.6903 138.448 79.0846 139.297 79.7374C139.518 79.9079 139.56 80.2258 139.389 80.4474C139.219 80.6691 138.901 80.7106 138.679 80.5402C137.985 80.0061 137.151 79.6835 136.278 79.6111Z" fill="white"/>
<path fill-rule="evenodd" clip-rule="evenodd" d="M144.757 68.5201C143.705 68.3839 142.637 68.4623 141.616 68.7505C140.596 69.0387 139.644 69.5308 138.819 70.197C137.994 70.8633 137.312 71.6898 136.815 72.6268C136.318 73.5637 136.017 74.5917 135.928 75.6485C135.84 76.7053 135.966 77.7691 136.3 78.7757L135.339 79.0947C134.962 77.9582 134.819 76.7572 134.919 75.564C135.019 74.3708 135.36 73.2102 135.92 72.1523C136.481 71.0945 137.251 70.1613 138.183 69.4091C139.114 68.6569 140.189 68.1013 141.341 67.7759C142.493 67.4505 143.7 67.362 144.887 67.5157C146.074 67.6695 147.218 68.0623 148.25 68.6705C149.281 69.2786 150.179 70.0895 150.888 71.0542C151.597 72.0188 152.104 73.1172 152.377 74.2831L151.391 74.514C151.149 73.4814 150.701 72.5085 150.072 71.6541C149.444 70.7997 148.649 70.0815 147.736 69.5428C146.822 69.0042 145.809 68.6562 144.757 68.5201Z" fill="white"/>
<path fill-rule="evenodd" clip-rule="evenodd" d="M143.513 83.6285C143.319 83.4347 142.992 83.4347 142.798 83.6285L140.097 86.3291C139.904 86.5229 139.904 86.8505 140.097 87.0443C140.2 87.1469 140.326 87.1931 140.455 87.1931C140.605 87.1931 140.72 87.1427 140.8 87.0569L140.806 87.0505L143.513 84.3438C143.513 84.3438 143.513 84.3438 143.513 84.3438C143.707 84.1499 143.707 83.8224 143.513 83.6285ZM142.082 82.9125C142.671 82.3231 143.64 82.3231 144.229 82.9125C144.819 83.5018 144.819 84.4705 144.229 85.0598L141.534 87.7549C141.237 88.0691 140.842 88.2058 140.455 88.2058C140.071 88.2058 139.684 88.0629 139.381 87.7604C138.792 87.1711 138.792 86.2023 139.381 85.613L142.082 82.9125ZM148.914 89.0293C148.721 88.8355 148.393 88.8355 148.199 89.0293L145.499 91.7299C145.305 91.9238 145.305 92.2513 145.499 92.4451C145.601 92.5477 145.727 92.5939 145.856 92.5939C146.007 92.5939 146.122 92.5435 146.202 92.4577L146.208 92.4513L148.914 89.7446C149.108 89.5507 149.108 89.2232 148.914 89.0293ZM147.483 88.3133C148.073 87.7239 149.041 87.7239 149.631 88.3133C150.22 88.9026 150.22 89.8713 149.631 90.4606L146.936 93.1557C146.638 93.4699 146.243 93.6066 145.856 93.6066C145.473 93.6066 145.085 93.4637 144.783 93.1612C144.193 92.5719 144.193 91.6031 144.783 91.0138L147.483 88.3133Z" fill="white"/>
<path fill-rule="evenodd" clip-rule="evenodd" d="M147.483 82.9125C148.073 82.3231 149.041 82.3231 149.631 82.9125C150.22 83.5018 150.22 84.4705 149.631 85.0598L146.936 87.7549C146.638 88.0691 146.243 88.2058 145.856 88.2058C145.473 88.2058 145.085 88.0629 144.783 87.7604C144.193 87.1711 144.193 86.2023 144.783 85.613L147.483 82.9125ZM148.914 83.6285C148.721 83.4347 148.393 83.4347 148.199 83.6285L145.499 86.3291C145.305 86.523 145.305 86.8505 145.499 87.0443C145.601 87.1469 145.727 87.1931 145.856 87.1931C146.007 87.1931 146.122 87.1427 146.202 87.0569L146.208 87.0505L148.914 84.3438C149.108 84.1499 149.108 83.8224 148.914 83.6285ZM142.082 88.3133C142.671 87.7239 143.64 87.7239 144.229 88.3133C144.819 88.9026 144.819 89.8713 144.229 90.4606L141.534 93.1557C141.237 93.4699 140.842 93.6066 140.455 93.6066C140.071 93.6066 139.684 93.4637 139.381 93.1612C138.792 92.5719 138.792 91.6031 139.381 91.0138L142.082 88.3133ZM143.513 89.0293C143.319 88.8355 142.992 88.8355 142.798 89.0293L140.097 91.7299C139.904 91.9238 139.904 92.2513 140.097 92.4451C140.2 92.5477 140.326 92.5939 140.455 92.5939C140.605 92.5939 140.72 92.5435 140.8 92.4577L140.806 92.4513L143.513 89.7446C143.513 89.7446 143.513 89.7446 143.513 89.7446C143.707 89.5507 143.707 89.2232 143.513 89.0293Z" fill="white"/>
<path d="M218.293 67.6628L214.815 67.6628L203.399 67.6628L199.921 67.6628C199.524 67.6628 199.203 67.9842 199.203 68.3811L199.203 92.612C199.203 93.0089 199.524 93.3302 199.921 93.3302L211.063 93.3302L219.011 84.7991L219.011 68.3811C219.011 67.9842 218.69 67.6628 218.293 67.6628Z" fill="#212121"/>
<path d="M214.815 67.6628L218.293 67.6628C218.69 67.6628 219.011 67.9842 219.011 68.3811L219.011 84.7991M203.399 67.6628L199.921 67.6628C199.524 67.6628 199.203 67.9842 199.203 68.3811L199.203 92.612C199.203 93.0089 199.524 93.3302 199.921 93.3302L211.063 93.3302" stroke="white" stroke-width="0.962076" stroke-linecap="round" stroke-linejoin="round"/>
<path fill-rule="evenodd" clip-rule="evenodd" d="M214.739 67.4933C214.55 67.0775 214.134 66.7751 213.643 66.7751L210.127 66.7751C210.052 66.3026 209.636 65.9246 209.125 65.9246C208.615 65.9246 208.199 66.2837 208.124 66.7751L204.57 66.7751C204.249 66.7751 203.947 66.9074 203.72 67.1342C203.606 67.2476 203.531 67.361 203.474 67.4933C203.417 67.6445 203.38 67.7957 203.38 67.9659C203.38 68.6274 203.909 69.1566 204.57 69.1566L213.662 69.1566C214.002 69.1566 214.285 69.0243 214.512 68.7975C214.72 68.5896 214.871 68.2872 214.871 67.947C214.852 67.7957 214.815 67.6445 214.739 67.4933Z" stroke="white" stroke-width="0.962076" stroke-linecap="round" stroke-linejoin="round"/>
<path d="M214.29 85.7563L215.16 85.7563" stroke="white" stroke-width="0.962076" stroke-linecap="round" stroke-linejoin="round"/>
<path d="M209.166 85.7563L212.171 85.7563" stroke="white" stroke-width="0.962076" stroke-linecap="round" stroke-linejoin="round"/>
<path d="M204.612 87.19C205.591 87.19 206.384 86.3965 206.384 85.4178C206.384 84.439 205.591 83.6455 204.612 83.6455C203.633 83.6455 202.84 84.439 202.84 85.4178C202.84 86.3965 203.633 87.19 204.612 87.19Z" stroke="white" stroke-width="0.962076" stroke-linecap="round" stroke-linejoin="round"/>
<path d="M214.29 79.5312L215.16 79.5312" stroke="white" stroke-width="0.962076" stroke-linecap="round" stroke-linejoin="round"/>
<path d="M209.166 79.5312L212.171 79.5312" stroke="white" stroke-width="0.962076" stroke-linecap="round" stroke-linejoin="round"/>
<path d="M206.387 78.5837L204.64 80.4471C204.526 80.5687 204.412 80.6092 204.26 80.6092C204.108 80.6092 203.994 80.5687 203.88 80.4471L203.348 79.88" stroke="white" stroke-width="0.911441" stroke-linecap="round" stroke-linejoin="round"/>
<path d="M206.387 72.5049L204.64 74.3683C204.526 74.4898 204.412 74.5303 204.26 74.5303C204.108 74.5303 203.994 74.4898 203.88 74.3683L203.348 73.8012" stroke="white" stroke-width="0.911441" stroke-linecap="round" stroke-linejoin="round"/>
<path d="M214.287 73.3098L215.156 73.3098" stroke="white" stroke-width="0.962076" stroke-linecap="round" stroke-linejoin="round"/>
<path d="M209.162 73.3098L212.168 73.3098" stroke="white" stroke-width="0.962076" stroke-linecap="round" stroke-linejoin="round"/>
<path fill-rule="evenodd" clip-rule="evenodd" d="M215.093 94.5784L212.977 95.4067C212.701 95.5172 212.425 95.2411 212.535 94.965L213.363 92.8482C213.455 92.6273 213.584 92.4248 213.75 92.2408L221.517 84.4731C221.72 84.2707 222.033 84.2707 222.235 84.4731L223.45 85.688C223.653 85.8905 223.653 86.2034 223.45 86.4058L215.682 94.1735C215.535 94.3575 215.314 94.4864 215.093 94.5784Z" stroke="white" stroke-width="0.962076" stroke-linecap="round" stroke-linejoin="round"/>
<g clip-path="url(#clip3_4202_20501)">
<path d="M2.27752 144.925H10.8123V145.702H2.27752V144.925Z" fill="white" stroke="white" stroke-width="0.0850678"/>
<path d="M25.5943 157.208L23.7842 152.812C23.6549 152.511 23.3963 152.252 23.0946 152.123C22.9222 152.036 22.7067 152.036 22.5343 152.036L21.8016 150.269C22.2326 149.968 22.6205 149.623 23.0084 149.235H23.3532C24.0858 149.235 24.6461 148.675 24.6461 147.942V134.969C24.6461 134.236 24.0858 133.676 23.3532 133.676H1.80359C1.07091 133.676 0.51062 134.236 0.51062 134.969V147.899C0.51062 148.631 1.07091 149.192 1.80359 149.192H13.3975C14.5612 150.528 16.2851 151.347 18.1815 151.347C18.6125 151.347 19.0004 151.304 19.3883 151.217L20.121 152.984C19.9917 153.114 19.8624 153.243 19.8193 153.459C19.69 153.76 19.69 154.148 19.8193 154.45L21.6294 158.846C21.7587 159.148 22.0173 159.406 22.319 159.536C22.4914 159.622 22.6638 159.622 22.8362 159.622C22.979 159.622 23.0923 159.592 23.2249 159.557C23.2524 159.55 23.2807 159.543 23.3103 159.536L24.905 158.889C25.5946 158.587 25.8529 157.898 25.5943 157.208ZM23.7842 141.649L23.7841 141.649C23.741 141.563 23.698 141.477 23.6549 141.434H23.7842V141.649ZM1.3726 134.969C1.3726 134.711 1.545 134.538 1.80359 134.538H23.3532C23.6118 134.538 23.7842 134.711 23.7842 134.969V137.124H1.3726V134.969ZM1.3726 137.986H23.7842V140.572H22.9653C21.8016 139.236 20.0776 138.417 18.1813 138.417C16.2849 138.417 14.5609 139.236 13.3973 140.572H1.37285L1.3726 137.986ZM1.80359 148.33C1.545 148.33 1.3726 148.158 1.3726 147.899V141.434H12.7074C12.3626 141.951 12.104 142.555 11.9316 143.158H2.23409V143.884H11.7592C11.7161 144.186 11.7161 144.58 11.7161 144.882C11.7161 146.132 12.104 147.339 12.7074 148.33H1.80359ZM18.1813 150.485C15.0781 150.485 12.5784 147.985 12.5784 144.882C12.5784 141.779 15.0781 139.279 18.1813 139.279C21.2844 139.279 23.7842 141.779 23.7842 144.882C23.7842 147.985 21.2844 150.485 18.1813 150.485ZM20.6379 150.873C20.6595 150.873 20.6702 150.862 20.681 150.851C20.6918 150.84 20.7026 150.83 20.7241 150.83L21.0258 150.7L21.6723 152.295L20.8534 152.64L20.2069 151.045L20.6379 150.873ZM24.5599 158.113L22.9653 158.76C22.8791 158.803 22.7498 158.803 22.6205 158.76C22.4912 158.717 22.4481 158.631 22.405 158.544L20.5948 154.148C20.5517 154.062 20.5517 153.933 20.5948 153.804C20.6379 153.717 20.681 153.674 20.7672 153.631L22.4481 152.942C22.4696 152.942 22.4912 152.931 22.5127 152.92C22.5343 152.909 22.5558 152.898 22.5774 152.898C22.6205 152.898 22.7067 152.898 22.7498 152.942C22.8791 152.985 22.9222 153.071 22.9653 153.157L24.7754 157.553C24.9047 157.769 24.8185 157.984 24.5599 158.113Z" fill="white"/>
<path d="M25.5943 157.208L23.7842 152.812C23.6549 152.511 23.3963 152.252 23.0946 152.123C22.9222 152.036 22.7067 152.036 22.5343 152.036L21.8016 150.269C22.2326 149.968 22.6205 149.623 23.0084 149.235H23.3532C24.0858 149.235 24.6461 148.675 24.6461 147.942V134.969C24.6461 134.236 24.0858 133.676 23.3532 133.676H1.80359C1.07091 133.676 0.51062 134.236 0.51062 134.969V147.899C0.51062 148.631 1.07091 149.192 1.80359 149.192H13.3975C14.5612 150.528 16.2851 151.347 18.1815 151.347C18.6125 151.347 19.0004 151.304 19.3883 151.217L20.121 152.984C19.9917 153.114 19.8624 153.243 19.8193 153.459C19.69 153.76 19.69 154.148 19.8193 154.45L21.6294 158.846C21.7587 159.148 22.0173 159.406 22.319 159.536C22.4914 159.622 22.6638 159.622 22.8362 159.622C22.979 159.622 23.0923 159.592 23.2249 159.557C23.2524 159.55 23.2807 159.543 23.3103 159.536L24.905 158.889C25.5946 158.587 25.8529 157.898 25.5943 157.208ZM23.7842 141.649L23.7841 141.649C23.741 141.563 23.698 141.477 23.6549 141.434H23.7842V141.649ZM1.3726 134.969C1.3726 134.711 1.545 134.538 1.80359 134.538H23.3532C23.6118 134.538 23.7842 134.711 23.7842 134.969V137.124H1.3726V134.969ZM1.3726 137.986H23.7842V140.572H22.9653C21.8016 139.236 20.0776 138.417 18.1813 138.417C16.2849 138.417 14.5609 139.236 13.3973 140.572H1.37285L1.3726 137.986ZM1.80359 148.33C1.545 148.33 1.3726 148.158 1.3726 147.899V141.434H12.7074C12.3626 141.951 12.104 142.555 11.9316 143.158H2.23409V143.884H11.7592C11.7161 144.186 11.7161 144.58 11.7161 144.882C11.7161 146.132 12.104 147.339 12.7074 148.33H1.80359ZM18.1813 150.485C15.0781 150.485 12.5784 147.985 12.5784 144.882C12.5784 141.779 15.0781 139.279 18.1813 139.279C21.2844 139.279 23.7842 141.779 23.7842 144.882C23.7842 147.985 21.2844 150.485 18.1813 150.485ZM20.6379 150.873C20.6595 150.873 20.6702 150.862 20.681 150.851C20.6918 150.84 20.7026 150.83 20.7241 150.83L21.0258 150.7L21.6723 152.295L20.8534 152.64L20.2069 151.045L20.6379 150.873ZM24.5599 158.113L22.9653 158.76C22.8791 158.803 22.7498 158.803 22.6205 158.76C22.4912 158.717 22.4481 158.631 22.405 158.544L20.5948 154.148C20.5517 154.062 20.5517 153.933 20.5948 153.804C20.6379 153.717 20.681 153.674 20.7672 153.631L22.4481 152.942C22.4696 152.942 22.4912 152.931 22.5127 152.92C22.5343 152.909 22.5558 152.898 22.5774 152.898C22.6205 152.898 22.7067 152.898 22.7498 152.942C22.8791 152.985 22.9222 153.071 22.9653 153.157L24.7754 157.553C24.9047 157.769 24.8185 157.984 24.5599 158.113Z" stroke="white"/>
<path d="M1.78479 160.046L31.9839 129.847" stroke="white" stroke-width="0.850678"/>
<g style="mix-blend-mode:darken">
<rect x="0.934814" y="134.104" width="22.9683" height="14.4615" fill="#FEF8F2"/>
<circle cx="18.3749" cy="144.737" r="5.95475" fill="white"/>
<g style="mix-blend-mode:darken">
<rect x="20.0735" y="153.792" width="3.14838" height="6.00843" transform="rotate(-24.2177 20.0735 153.792)" fill="#FFE2D2"/>
</g>
</g>
</g>
<path fill-rule="evenodd" clip-rule="evenodd" d="M71.4906 152.81V146.412L69.5581 145.159C68.1886 144.267 67.371 142.765 67.371 141.127C67.371 139.49 68.1884 137.989 69.5576 137.096L69.5581 137.096L77.6996 131.803C78.5076 131.278 79.5652 131.004 80.6418 131.005C81.7186 131.007 82.7715 131.285 83.5717 131.814L91.6481 137.116C93.0074 138.01 93.8365 139.519 93.8365 141.141C93.8365 141.303 93.8283 141.464 93.8123 141.623L93.8098 141.649V149.067C93.8098 149.341 93.5774 149.573 93.3034 149.573C93.0295 149.573 92.7971 149.341 92.7971 149.067V144.295L91.9795 144.932C91.8771 145.012 91.7708 145.088 91.6611 145.16L89.733 146.425V152.82C89.733 154.749 88.2797 156.77 86.4463 157.39L86.4451 157.391L82.146 158.819C81.7173 158.949 81.1632 159.025 80.6119 159.025C80.0571 159.025 79.5056 158.948 79.0837 158.808L74.7757 157.376C72.9439 156.77 71.4785 154.736 71.4906 152.81ZM72.5155 147.09L77.6838 150.464L77.6854 150.465C78.4952 150.984 79.5571 151.261 80.624 151.261C81.7101 151.261 82.769 150.995 83.5734 150.467L88.7203 147.09V152.82C88.7203 153.581 88.406 154.361 87.9475 154.995C87.4888 155.63 86.8453 156.175 86.1207 156.419L86.1186 156.42L81.8081 157.852C81.4675 157.963 81.0237 158.009 80.6119 158.009C80.2 158.009 79.7562 157.963 79.4156 157.852L79.4125 157.851L75.1029 156.419C74.3782 156.175 73.7346 155.63 73.2757 154.993C72.8169 154.356 72.5033 153.573 72.5033 152.807V152.806L72.5155 147.09ZM92.7971 141.559C92.7971 140.199 92.4589 138.836 91.1102 137.95L83.0161 132.639L83.0104 132.636C82.3463 132.225 81.4792 132.02 80.624 132.02C79.7928 132.02 78.9144 132.207 78.2503 132.658L70.126 137.949L70.1243 137.95C69.0402 138.662 68.3972 139.818 68.3972 141.127C68.3972 142.433 69.0237 143.592 70.1263 144.306L70.127 144.307L78.2549 149.613C78.9197 150.046 79.7968 150.242 80.6375 150.242C81.4782 150.242 82.3553 150.046 83.0201 149.613L91.1102 144.305C92.0555 143.684 92.6549 142.726 92.7931 141.622L92.7971 141.591V141.559Z" fill="white"/>
<path fill-rule="evenodd" clip-rule="evenodd" d="M144.712 153.963V150.932L144.245 150.896C140.562 150.612 137.427 148.31 135.955 145.095L135.872 144.914L135.688 144.838C134.853 144.493 134.067 143.964 133.392 143.291C131.917 141.658 131.209 139.902 131.209 138.063C131.209 135.886 132.913 134.181 135.091 134.181H135.72L135.867 133.932C136.895 132.183 138.796 131.009 140.964 131.009H149.066C151.214 131.009 153.099 132.161 154.134 133.882L154.281 134.128H154.941C157.064 134.128 158.823 135.913 158.823 138.145C158.823 140.074 158.028 141.984 156.651 143.362L156.65 143.363C156.647 143.365 156.643 143.369 156.637 143.374C156.625 143.385 156.612 143.396 156.597 143.409L156.595 143.411L156.594 143.412C156.585 143.419 156.569 143.434 156.552 143.448C155.873 144.012 155.177 144.578 154.308 144.924L154.122 144.998L154.037 145.179C152.601 148.237 149.655 150.453 146.173 150.858L145.725 150.911V153.963H149.269C151.042 153.963 152.476 155.397 152.476 157.17V158.014H153.32C153.594 158.014 153.827 158.246 153.827 158.52C153.827 158.794 153.594 159.026 153.32 159.026H137.117C136.843 159.026 136.611 158.794 136.611 158.52C136.611 158.246 136.843 158.014 137.117 158.014H137.96V157.17C137.96 155.397 139.395 153.963 141.167 153.963H144.712ZM153.145 144.702L153.18 144.627L153.189 144.545C153.194 144.497 153.207 144.451 153.227 144.407L153.229 144.402L153.231 144.397C153.697 143.327 153.94 142.193 153.961 141.009L153.961 141.002L153.961 140.967V136.916C153.961 134.22 151.763 132.022 149.066 132.022H140.964C138.297 132.022 136.117 134.172 136.07 136.829L136.07 136.833V140.764C136.07 141.993 136.257 143.192 136.758 144.338C136.81 144.455 136.822 144.51 136.857 144.642L136.904 144.742C138.327 147.794 141.424 149.913 145.015 149.913C148.621 149.913 151.73 147.776 153.145 144.702ZM154.873 142.382L154.687 143.682L155.698 142.843C155.731 142.816 155.762 142.791 155.794 142.764L155.796 142.763C155.832 142.733 155.871 142.701 155.913 142.666L155.931 142.651L155.947 142.635C157.121 141.461 157.81 139.82 157.81 138.145C157.81 136.707 156.834 135.457 155.485 135.191L154.753 135.046L154.889 135.78C154.949 136.108 154.975 136.454 154.975 136.795V140.846C154.975 140.903 154.974 140.96 154.973 141.016L154.973 141.022C154.971 141.483 154.937 141.937 154.873 142.382ZM135.057 136.829L135.058 136.825V136.713C135.058 136.417 135.082 136.115 135.121 135.804L135.208 135.108L134.521 135.244C133.19 135.507 132.222 136.66 132.222 138.063C132.222 139.679 132.875 141.21 134.113 142.579C134.189 142.671 134.271 142.74 134.328 142.787L135.324 143.596L135.149 142.325C135.088 141.881 135.057 141.428 135.057 140.967V136.916C135.057 136.887 135.057 136.858 135.057 136.829ZM138.973 158.014H151.463V157.17C151.463 155.959 150.48 154.976 149.269 154.976H141.167C139.956 154.976 138.973 155.959 138.973 157.17V158.014Z" fill="white"/>
<path d="M147.082 138.394C147.082 138.514 147.18 138.612 147.301 138.612C147.422 138.612 147.52 138.514 147.52 138.394C147.519 137.737 147.271 137.105 146.825 136.622C146.378 136.138 145.766 135.84 145.109 135.784V135.118C145.109 134.998 145.011 134.9 144.89 134.9C144.769 134.9 144.67 134.998 144.67 135.118V135.784C143.786 135.858 142.998 136.37 142.576 137.148C142.154 137.925 142.154 138.862 142.576 139.64C142.998 140.417 143.786 140.93 144.67 141.003V145.36C144.131 145.307 143.631 145.056 143.267 144.657C142.902 144.258 142.699 143.738 142.698 143.198C142.698 143.077 142.599 142.98 142.478 142.98C142.357 142.98 142.259 143.077 142.259 143.198C142.26 143.855 142.508 144.487 142.955 144.97C143.401 145.454 144.014 145.752 144.67 145.808V146.474C144.67 146.594 144.769 146.692 144.89 146.692C145.011 146.692 145.109 146.594 145.109 146.474V145.808C145.993 145.734 146.781 145.222 147.203 144.444C147.626 143.667 147.626 142.729 147.203 141.952C146.781 141.174 145.993 140.662 145.109 140.589V136.232C145.648 136.285 146.148 136.536 146.513 136.935C146.877 137.334 147.08 137.854 147.082 138.394V138.394ZM142.698 138.394C142.699 137.854 142.902 137.334 143.267 136.935C143.631 136.536 144.131 136.285 144.67 136.232V140.556C144.131 140.503 143.631 140.252 143.267 139.853C142.902 139.453 142.699 138.934 142.698 138.394V138.394ZM147.082 143.198C147.08 143.738 146.877 144.258 146.513 144.657C146.148 145.056 145.648 145.307 145.109 145.36V141.037C145.648 141.09 146.148 141.34 146.513 141.739C146.877 142.139 147.08 142.658 147.082 143.198V143.198Z" fill="white" stroke="white" stroke-width="0.405085"/>
<g clip-path="url(#clip4_4202_20501)">
<path d="M213.237 137.317H217.093C218.128 137.317 218.972 138.161 218.972 139.196V139.983" stroke="white" stroke-width="0.962076" stroke-linecap="round" stroke-linejoin="round"/>
<path d="M197.262 145.777V139.198C197.262 138.143 198.106 137.299 199.161 137.299H205.221" stroke="white" stroke-width="0.962076" stroke-linecap="round" stroke-linejoin="round"/>
<path fill-rule="evenodd" clip-rule="evenodd" d="M215.847 139.925L210.304 134.382C210.265 134.343 210.227 134.305 210.189 134.286C210.131 134.248 210.093 134.209 210.035 134.171C210.016 134.171 210.016 134.152 209.997 134.152C209.978 134.132 209.958 134.132 209.939 134.113C209.901 134.094 209.843 134.075 209.805 134.056C209.441 133.902 209.038 133.902 208.673 134.056C208.635 134.075 208.577 134.094 208.539 134.113C208.52 134.132 208.501 134.132 208.482 134.152C208.366 134.209 208.271 134.286 208.175 134.382L202.593 139.963" fill="#212121"/>
<path d="M215.847 139.925L210.304 134.382C210.265 134.343 210.227 134.305 210.189 134.286C210.131 134.248 210.093 134.209 210.035 134.171C210.016 134.171 210.016 134.152 209.997 134.152C209.978 134.132 209.958 134.132 209.939 134.113C209.901 134.094 209.843 134.075 209.805 134.056C209.441 133.902 209.038 133.902 208.673 134.056C208.635 134.075 208.577 134.094 208.539 134.113C208.52 134.132 208.501 134.132 208.482 134.152C208.366 134.209 208.271 134.286 208.175 134.382L202.593 139.963" stroke="white" stroke-width="0.962076" stroke-linecap="round" stroke-linejoin="round"/>
<path d="M221.074 143.828L221.061 155.809C221.061 156.94 220.14 157.842 219.027 157.842H199.329C198.198 157.842 197.296 156.921 197.296 155.809V139.985" stroke="white" stroke-width="0.962076" stroke-linecap="round" stroke-linejoin="round"/>
<path d="M199.561 139.985H219.009C220.141 139.985 221.043 140.906 221.043 142.018V146.737" stroke="white" stroke-width="0.962076" stroke-linecap="round" stroke-linejoin="round"/>
<path fill-rule="evenodd" clip-rule="evenodd" d="M221.066 151.601H215.751C214.482 151.601 213.471 150.458 213.471 149.069C213.471 147.661 214.501 146.538 215.751 146.538H221.066V151.601Z" stroke="white" stroke-width="0.962076" stroke-linecap="round" stroke-linejoin="round"/>
<path d="M216.056 149.974C216.565 149.974 216.977 149.562 216.977 149.054C216.977 148.545 216.565 148.133 216.056 148.133C215.548 148.133 215.136 148.545 215.136 149.054C215.136 149.562 215.548 149.974 216.056 149.974Z" stroke="white" stroke-width="0.962076" stroke-linecap="round" stroke-linejoin="round"/>
<path d="M212.586 133.407V131.22" stroke="white" stroke-width="0.962076" stroke-linecap="round" stroke-linejoin="round"/>
<path d="M215.233 135.188L217.938 133.366" stroke="white" stroke-width="0.962076" stroke-linecap="round" stroke-linejoin="round"/>
<path d="M214.272 133.54L216.305 130.241" stroke="white" stroke-width="0.962076" stroke-linecap="round" stroke-linejoin="round"/>
</g>
</g>
<defs>
<clipPath id="clip0_4202_20501">
<rect width="32.4068" height="32.4068" fill="white" transform="translate(193.22)"/>
</clipPath>
<clipPath id="clip1_4202_20501">
<rect width="32.4068" height="32.4068" fill="white" transform="translate(64.4067 64.4067)"/>
</clipPath>
<clipPath id="clip2_4202_20501">
<rect width="24.3051" height="24.3051" fill="white" transform="translate(68.4613 74.5349)"/>
</clipPath>
<clipPath id="clip3_4202_20501">
<rect width="32.4068" height="32.4068" fill="white" transform="translate(0 128.813)"/>
</clipPath>
<clipPath id="clip4_4202_20501">
<rect width="25.3178" height="28.5784" fill="white" transform="translate(196.765 129.762)"/>
</clipPath>
</defs>
</svg>
