<svg width="364" height="55" viewBox="0 0 364 55" fill="none" xmlns="http://www.w3.org/2000/svg">
<path fill-rule="evenodd" clip-rule="evenodd" d="M336.817 26.717C337.034 26.8746 337.296 26.9595 337.563 26.9595C337.628 26.9595 337.694 26.9526 337.76 26.9422L362.246 23.0331C362.938 22.9222 363.407 22.2724 363.298 21.581L362.659 17.5765C362.607 17.2456 362.425 16.9458 362.153 16.75C361.879 16.5507 361.539 16.4797 361.208 16.5247L336.724 20.4339C336.031 20.5465 335.563 21.1963 335.672 21.886L336.31 25.8922C336.362 26.2214 336.545 26.5212 336.817 26.717Z" fill="#3AC6F3"/>
<mask id="mask0_2221_24899" style="mask-type:alpha" maskUnits="userSpaceOnUse" x="335" y="43" width="29" height="12">
<path d="M335.672 43.6855H363.334V54.1325H335.672V43.6855Z" fill="white"/>
</mask>
<g mask="url(#mask0_2221_24899)">
<path fill-rule="evenodd" clip-rule="evenodd" d="M363.09 48.1173C362.895 47.8453 362.598 47.6616 362.266 47.6079L337.781 43.697C337.107 43.6069 336.44 44.0574 336.329 44.7471L335.688 48.7515C335.634 49.0825 335.714 49.4221 335.913 49.6941C336.109 49.9679 336.406 50.1499 336.738 50.2036L361.223 54.1145C361.292 54.1249 361.358 54.1318 361.425 54.1318C362.037 54.1318 362.576 53.6882 362.675 53.0644L363.316 49.0582C363.369 48.729 363.29 48.3859 363.09 48.1156" fill="#3AC6F3"/>
</g>
<path fill-rule="evenodd" clip-rule="evenodd" d="M337.675 32.0234C336.976 32.0234 336.406 32.5918 336.406 33.2918V37.3465C336.406 38.0466 336.976 38.6167 337.675 38.6167H356.181C356.879 38.6167 357.448 38.0466 357.448 37.3483V33.2918C357.448 32.5918 356.879 32.0234 356.179 32.0234H337.675Z" fill="#3AC6F3"/>
<path fill-rule="evenodd" clip-rule="evenodd" d="M96.0093 42.9895C91.7051 42.9895 87.4719 39.8532 87.4719 33.4315C87.4719 27.0844 91.7051 23.9446 96.0093 23.9446C100.241 23.9446 104.474 27.1554 104.474 33.4315C104.474 39.7787 100.315 42.9895 96.0093 42.9895ZM95.9383 14.9688C86.5968 14.9688 77.3281 21.1721 77.3281 33.4315C77.3281 45.7655 86.5968 51.9653 95.9383 51.9653C105.278 51.9653 114.618 45.7655 114.618 33.4315C114.618 21.1721 105.278 14.9688 95.9383 14.9688ZM309.411 22.9222C312.183 22.9222 315.758 23.9446 315.758 27.1554C315.685 29.7823 313.277 30.9502 310.359 31.023C307.146 31.243 303.133 30.1479 301.674 29.1983C302.769 24.8196 305.833 23.1423 309.411 22.9222ZM312.622 43.7936C306.198 44.0119 301.31 41.7489 301.09 35.6945C304.23 37.4446 308.388 38.1741 312.4 37.9558C318.822 37.7375 325.245 34.3811 325.609 27.1554C325.827 18.034 317.217 14.8232 309.264 15.0415C299.997 15.2616 291.385 21.4649 291.385 33.4315C291.385 46.2732 299.633 52.2582 311.963 51.8926C316.416 51.6742 320.501 51.2376 324.516 48.9763L324.15 41.0939C321.305 42.4801 316.706 43.7208 312.622 43.7936Z" fill="white"/>
<mask id="mask1_2221_24899" style="mask-type:alpha" maskUnits="userSpaceOnUse" x="0" y="0" width="364" height="55">
<path d="M0 54.1348H363.322V0.300781H0V54.1348Z" fill="white"/>
</mask>
<g mask="url(#mask1_2221_24899)">
<path fill-rule="evenodd" clip-rule="evenodd" d="M237.148 51.1642H247.362V15.9905H237.148V51.1642ZM10.2893 29.1994C11.3844 24.8207 14.448 23.1434 18.0262 22.9233C20.7987 22.9233 24.3734 23.9457 24.3734 27.1565C24.3006 29.7834 21.892 30.9513 18.974 31.0241C15.7614 31.2441 11.7483 30.149 10.2893 29.1994ZM34.2243 27.1548C34.4426 18.0351 25.8324 14.8243 17.8789 15.0426C8.61196 15.2627 0 21.4643 0 33.4326C0 46.2743 8.24807 52.261 20.5786 51.8937C25.0319 51.6753 29.1178 51.2387 33.1292 48.9774L32.7653 41.095C29.9183 42.4812 25.323 43.7219 21.2353 43.7947C14.8153 44.013 9.92541 41.7517 9.70535 35.6939C12.8434 37.444 17.0039 38.1752 21.0153 37.9569C27.437 37.7386 33.8604 34.3805 34.2243 27.1565V27.1548ZM141.165 43.1362C136.715 43.2835 132.044 39.8543 132.044 33.4326C132.044 27.0855 136.715 23.8729 141.092 23.8729C144.158 23.8729 147.148 25.4792 148.318 28.69H158.022C156.415 19.6397 148.902 15.0426 141.092 14.8971C131.678 14.6787 121.9 20.9549 121.9 33.4326C121.9 45.9832 131.678 52.1882 141.092 51.8937C149.046 51.6753 156.708 46.9327 158.169 37.6658H148.465C147.297 41.2405 144.232 43.0652 141.167 43.1379L141.165 43.1362ZM190.595 33.5054C190.375 38.832 188.186 42.6995 183.298 42.6995C178.044 42.7723 175.415 38.6864 175.415 33.1415C175.635 26.427 179.21 23.3634 184.755 23.3634C186.509 23.3634 188.624 23.5818 190.595 24.3823V33.5054ZM200.52 39.8543V18.4718C195.85 16.5016 190.742 15.2627 185.561 15.1899C173.665 14.9699 165.564 21.246 165.201 33.1415C165.201 43.1397 170.234 51.528 181.108 51.7498C185.779 51.7498 190.302 49.3413 192.272 44.9625C192.272 52.1882 199.134 51.8226 203.875 50.802V44.233C200.374 44.4514 200.52 42.8468 200.52 39.8543ZM256.933 24.4568H271.381L255.838 49.998V51.1659H285.903V42.3356H270.578L285.903 17.1601V15.9922H256.933V24.4568ZM236.332 6.15866C236.332 14.0393 248.298 14.0393 248.298 6.15866C248.298 -1.64924 236.332 -1.64924 236.332 6.15866ZM56.4854 35.4444H56.6344L65.7766 15.9905H75.4785V17.3351L58.4262 51.1642H54.6452L37.4438 17.3351V15.9905H47.144L56.4854 35.4444ZM229.373 43.5087C224.521 44.2954 222.417 43.1916 222.417 37.8114V1.46976H212.346V37.8114C212.346 50.27 218.752 53.0529 229.373 51.23V43.5087Z" fill="white"/>
</g>
</svg>
