<svg width="290" height="290" viewBox="0 0 290 290" fill="none" xmlns="http://www.w3.org/2000/svg">
<circle cx="145" cy="145" r="145" fill="#171717"/>
<path d="M195.635 224.765C209.384 216.075 220.633 203.953 228.274 189.594C235.915 175.234 239.683 159.132 239.209 142.873C238.734 126.614 234.033 110.76 225.568 96.8701C217.103 82.9805 205.167 71.5353 190.933 63.6617C176.7 55.788 160.662 51.7574 144.397 51.9667C128.133 52.1761 112.204 56.6182 98.178 64.8557C84.1523 73.0931 72.5141 84.8418 64.4095 98.9446C56.3048 113.047 52.0133 129.018 51.9576 145.284L145.603 145.605L195.635 224.765Z" fill="url(#paint0_radial_2277_34884)" fill-opacity="0.13"/>
<rect x="143.789" y="12.082" width="1.20833" height="13.2917" fill="#7B7B7B"/>
<rect x="143.789" y="264.623" width="1.20833" height="13.2917" fill="#7B7B7B"/>
<rect x="277.914" y="143.793" width="1.20833" height="13.2917" transform="rotate(90 277.914 143.793)" fill="#7B7B7B"/>
<rect x="25.3711" y="143.793" width="1.20833" height="13.2917" transform="rotate(90 25.3711 143.793)" fill="#7B7B7B"/>
<rect x="212.504" y="259.504" width="1.20833" height="13.2917" transform="rotate(150 212.504 259.504)" fill="#7B7B7B"/>
<rect x="86.2344" y="40.7949" width="1.20833" height="13.2917" transform="rotate(150 86.2344 40.7949)" fill="#7B7B7B"/>
<rect x="260.715" y="210.41" width="1.20833" height="13.2917" transform="rotate(120 260.715 210.41)" fill="#7B7B7B"/>
<rect x="42.0078" y="84.1387" width="1.20833" height="13.2917" transform="rotate(120 42.0078 84.1387)" fill="#7B7B7B"/>
<rect x="139.609" y="138.682" width="6.39897" height="41.6479" transform="rotate(120 139.609 138.682)" fill="white"/>
<rect x="259.504" y="77.4922" width="1.20833" height="13.2917" transform="rotate(60 259.504 77.4922)" fill="#7B7B7B"/>
<rect x="40.7969" y="203.764" width="1.20833" height="13.2917" transform="rotate(60 40.7969 203.764)" fill="#7B7B7B"/>
<rect x="79.5898" y="260.711" width="1.20833" height="13.2917" transform="rotate(-150 79.5898 260.711)" fill="#7B7B7B"/>
<rect x="205.859" y="42.002" width="1.20833" height="13.2917" transform="rotate(-150 205.859 42.002)" fill="#7B7B7B"/>
<g filter="url(#filter0_d_2277_34884)">
<circle cx="145" cy="145" r="18.125" fill="white"/>
</g>
<circle cx="145.191" cy="145.191" r="54.5662" fill="#FFFC10"/>
<path d="M137 169V121L169 145L137 169Z" fill="#212121"/>
<path d="M197.507 231.384C184.131 238.953 169.228 243.351 153.943 244.278L153.89 241.968L153.87 241.102L153.13 241.552L147.249 245.131L146.509 245.581L147.269 245.997L153.309 249.3L154.069 249.716L154.049 248.85L153.994 246.471C169.639 245.535 184.896 241.039 198.587 233.292C214.164 224.478 227.177 211.757 236.344 196.385C245.511 181.012 250.516 163.516 250.865 145.621C251.215 127.726 246.897 110.048 238.337 94.3289C229.778 78.6097 217.271 65.391 202.05 55.9748C186.828 46.5585 169.417 41.2694 151.53 40.6282C151.415 40.6241 151.303 40.6201 151.195 40.6162C148.625 40.5237 147.694 40.4902 144.978 40.617L144.501 40.6393L144.501 41.1165L144.501 42.3102L144.501 42.8344L145.025 42.8096C147.688 42.6838 148.574 42.7157 151.121 42.8073C151.228 42.8112 151.338 42.8151 151.451 42.8192C168.958 43.4467 185.999 48.6233 200.897 57.8393C215.794 67.0552 228.034 79.9926 236.412 95.3773C244.789 110.762 249.015 128.064 248.673 145.578C248.331 163.092 243.433 180.216 234.461 195.262C225.489 210.308 212.753 222.757 197.507 231.384Z" fill="white" stroke="white"/>
<defs>
<filter id="filter0_d_2277_34884" x="117.208" y="122.042" width="55.5833" height="55.5833" filterUnits="userSpaceOnUse" color-interpolation-filters="sRGB">
<feFlood flood-opacity="0" result="BackgroundImageFix"/>
<feColorMatrix in="SourceAlpha" type="matrix" values="0 0 0 0 0 0 0 0 0 0 0 0 0 0 0 0 0 0 127 0" result="hardAlpha"/>
<feOffset dy="4.83333"/>
<feGaussianBlur stdDeviation="4.83333"/>
<feComposite in2="hardAlpha" operator="out"/>
<feColorMatrix type="matrix" values="0 0 0 0 0.172177 0 0 0 0 0.170503 0 0 0 0 0.254167 0 0 0 0.7 0"/>
<feBlend mode="normal" in2="BackgroundImageFix" result="effect1_dropShadow_2277_34884"/>
<feBlend mode="normal" in="SourceGraphic" in2="effect1_dropShadow_2277_34884" result="shape"/>
</filter>
<radialGradient id="paint0_radial_2277_34884" cx="0" cy="0" r="1" gradientUnits="userSpaceOnUse" gradientTransform="translate(145.603 145.605) rotate(90) scale(93.6458)">
<stop offset="0.532795" stop-color="white"/>
<stop offset="1" stop-color="white" stop-opacity="0"/>
</radialGradient>
</defs>
</svg>
