<svg width="688" height="288" viewBox="0 0 688 288" fill="none" xmlns="http://www.w3.org/2000/svg">
<path fill-rule="evenodd" clip-rule="evenodd" d="M244.946 124.053C255.14 124.053 260.883 129.383 262.177 140.042C262.384 141.336 262.488 142.784 262.488 144.388L262.409 146.794C262.409 147.415 262.099 147.726 261.478 147.726H237.185C236.926 147.726 236.797 147.855 236.797 148.114L236.843 148.587C236.851 148.663 236.86 148.739 236.868 148.812L236.921 149.241C236.93 149.31 236.939 149.378 236.949 149.444L237.008 149.829C237.141 150.63 237.303 151.222 237.495 151.607C238.737 155.332 241.764 157.221 246.576 157.273C250.009 157.273 252.752 155.894 254.806 153.135L254.959 152.926C255.166 152.616 255.424 152.46 255.735 152.46C255.942 152.46 256.123 152.538 256.278 152.693L261.09 156.652C261.556 157.014 261.634 157.428 261.323 157.893C259.719 160.17 257.572 161.929 254.881 163.171C252.242 164.413 249.293 165.034 246.033 165.034C241.997 165.034 238.556 164.129 235.71 162.317C233.009 160.567 231.009 158.139 229.71 155.035L229.578 154.711C228.388 151.917 227.793 148.036 227.793 143.069C227.793 140.068 228.104 137.636 228.725 135.773C229.76 132.151 231.7 129.305 234.546 127.235C237.443 125.114 240.91 124.053 244.946 124.053ZM574.459 124.053C584.652 124.053 590.396 129.383 591.689 140.042C591.896 141.336 592 142.784 592 144.388L591.922 146.794C591.922 147.415 591.612 147.726 590.991 147.726H566.697C566.439 147.726 566.309 147.855 566.309 148.114L566.332 148.354L566.381 148.812L566.433 149.241L566.49 149.64C566.628 150.537 566.801 151.193 567.008 151.607C568.25 155.332 571.277 157.221 576.089 157.273C579.522 157.273 582.265 155.894 584.319 153.135L584.471 152.926C584.678 152.616 584.937 152.46 585.247 152.46C585.454 152.46 585.636 152.538 585.791 152.693L590.603 156.652C591.069 157.014 591.146 157.428 590.836 157.893C589.232 160.17 587.084 161.929 584.394 163.171C581.755 164.413 578.806 165.034 575.546 165.034C571.509 165.034 568.069 164.129 565.223 162.317C562.429 160.506 560.385 157.971 559.091 154.711C557.901 151.917 557.306 148.036 557.306 143.069C557.306 140.068 557.616 137.636 558.237 135.773C559.272 132.151 561.212 129.305 564.059 127.235C566.956 125.114 570.423 124.053 574.459 124.053ZM386.166 124.053C396.36 124.053 402.103 129.383 403.397 140.042C403.604 141.336 403.707 142.784 403.707 144.388L403.63 146.794C403.63 147.415 403.319 147.726 402.699 147.726H378.405C378.146 147.726 378.017 147.855 378.017 148.114L378.04 148.354L378.088 148.812L378.141 149.241L378.198 149.64C378.336 150.537 378.509 151.193 378.716 151.607C379.958 155.332 382.984 157.221 387.796 157.273C391.229 157.273 393.972 155.894 396.026 153.135L396.179 152.926C396.386 152.616 396.644 152.46 396.955 152.46C397.162 152.46 397.343 152.538 397.498 152.693L402.311 156.652C402.776 157.014 402.854 157.428 402.543 157.893C400.939 160.17 398.792 161.929 396.101 163.171C393.462 164.413 390.513 165.034 387.253 165.034C383.217 165.034 379.776 164.129 376.93 162.317C374.136 160.506 372.092 157.971 370.799 154.711C369.609 151.917 369.014 148.036 369.014 143.069C369.014 140.068 369.324 137.636 369.945 135.773C370.98 132.151 372.92 129.305 375.766 127.235C378.664 125.114 382.131 124.053 386.166 124.053ZM284.143 124.053C288.179 124.053 291.698 125.062 294.699 127.08C297.7 129.098 299.692 131.634 300.675 134.686C300.934 135.514 301.115 136.342 301.219 137.17V137.325C301.219 137.843 300.934 138.153 300.365 138.257L293.379 139.266H293.224C292.758 139.266 292.448 139.007 292.293 138.49C292.293 138.231 292.267 138.024 292.215 137.869C292.112 137.455 292.008 137.093 291.904 136.782C291.439 135.333 290.507 134.143 289.111 133.212C287.713 132.28 286.058 131.815 284.143 131.815C282.177 131.815 280.495 132.332 279.098 133.367C277.753 134.35 276.848 135.721 276.382 137.481C275.864 139.136 275.606 141.439 275.606 144.388C275.606 147.234 275.838 149.537 276.304 151.296C276.821 153.107 277.753 154.556 279.098 155.643C280.444 156.677 282.125 157.195 284.143 157.195C286.109 157.195 287.791 156.703 289.188 155.72C290.637 154.685 291.568 153.314 291.982 151.607C292.034 151.503 292.06 151.374 292.06 151.219C292.112 151.167 292.137 151.089 292.137 150.986C292.283 150.401 292.613 150.138 293.126 150.195L300.209 151.296C300.468 151.348 300.675 151.477 300.831 151.684C301.038 151.839 301.115 152.072 301.063 152.383L300.927 153.081L300.835 153.518L300.751 153.88L300.699 154.08C300.691 154.111 300.683 154.14 300.675 154.168C299.692 157.479 297.7 160.118 294.699 162.085C291.698 163.999 288.179 164.956 284.143 164.956C280.159 164.956 276.718 163.947 273.821 161.929C270.923 159.86 268.905 157.091 267.766 153.625C266.939 151.296 266.524 148.192 266.524 144.311C266.524 140.585 266.939 137.532 267.766 135.152C268.853 131.737 270.845 129.046 273.743 127.08C276.692 125.062 280.159 124.053 284.143 124.053ZM474.983 124.053C478.243 124.053 481.114 124.622 483.598 125.761C486.082 126.899 487.996 128.477 489.342 130.495C490.687 132.462 491.36 134.712 491.36 137.248V163.404C491.36 163.663 491.256 163.896 491.049 164.103C490.894 164.258 490.687 164.335 490.429 164.335H483.288C483.029 164.335 482.796 164.258 482.589 164.103C482.434 163.896 482.356 163.663 482.356 163.404V160.92C482.356 160.765 482.305 160.688 482.201 160.688C482.098 160.636 481.994 160.662 481.891 160.765C479.356 163.559 475.681 164.956 470.869 164.956C466.989 164.956 463.781 163.973 461.245 162.007C458.761 160.041 457.519 157.117 457.519 153.237C457.519 149.201 458.917 146.07 461.711 143.845C464.557 141.568 468.541 140.43 473.664 140.43H481.968C482.227 140.43 482.356 140.301 482.356 140.042V138.179C482.356 136.161 481.761 134.609 480.571 133.522C479.381 132.384 477.596 131.815 475.216 131.815C473.249 131.815 471.646 132.177 470.404 132.901C469.214 133.574 468.463 134.531 468.153 135.773C467.997 136.394 467.636 136.653 467.066 136.549L459.538 135.618C459.279 135.566 459.046 135.489 458.839 135.385C458.684 135.23 458.632 135.049 458.684 134.842C459.098 131.685 460.779 129.098 463.729 127.08C466.73 125.062 470.481 124.053 474.983 124.053ZM313.346 124.674C313.604 124.674 313.811 124.778 313.967 124.985C314.174 125.14 314.277 125.347 314.277 125.606V149.201C314.277 151.633 314.898 153.573 316.14 155.022C317.434 156.471 319.219 157.195 321.496 157.195C323.824 157.195 325.687 156.471 327.084 155.022C328.481 153.573 329.179 151.633 329.179 149.201V125.606C329.179 125.347 329.257 125.14 329.412 124.985C329.619 124.778 329.852 124.674 330.111 124.674H337.174C337.432 124.674 337.639 124.778 337.794 124.985C338.002 125.14 338.105 125.347 338.105 125.606V163.404C338.105 163.663 338.002 163.896 337.794 164.103C337.639 164.258 337.432 164.336 337.174 164.336H330.111C329.852 164.336 329.619 164.258 329.412 164.103C329.257 163.896 329.179 163.663 329.179 163.404V160.921C329.179 160.765 329.128 160.662 329.024 160.61C328.921 160.558 328.817 160.61 328.714 160.765C326.592 163.508 323.41 164.879 319.167 164.879C315.234 164.879 311.923 163.741 309.232 161.464C306.593 159.187 305.274 155.953 305.274 151.762V125.606C305.274 125.347 305.351 125.14 305.507 124.985C305.714 124.778 305.946 124.674 306.205 124.674H313.346ZM207.911 124.208C210.93 124.208 213.594 124.682 215.903 125.629L216.216 125.761C218.596 126.744 220.433 128.141 221.727 129.952C223.02 131.711 223.667 133.729 223.667 136.006C223.667 136.265 223.564 136.498 223.357 136.704C223.201 136.86 222.994 136.937 222.736 136.937H216.138C215.88 136.937 215.647 136.86 215.44 136.704C215.285 136.498 215.207 136.265 215.207 136.006C215.207 134.661 214.534 133.548 213.189 132.669C211.895 131.737 210.11 131.271 207.833 131.271C205.816 131.271 204.16 131.66 202.866 132.436C201.624 133.16 201.003 134.195 201.003 135.54C201.003 136.782 201.598 137.739 202.788 138.412C202.88 138.458 202.977 138.504 203.078 138.551L203.393 138.693C203.503 138.741 203.617 138.789 203.735 138.838L204.104 138.984L204.498 139.134L204.92 139.286L205.367 139.441L205.841 139.598L206.342 139.757C206.427 139.784 206.514 139.811 206.602 139.838L207.142 140.002L207.708 140.168L208.301 140.336L208.92 140.508L210.628 140.973C213.37 141.801 215.673 142.655 217.535 143.535C219.398 144.363 220.976 145.553 222.27 147.105C223.563 148.605 224.21 150.572 224.21 153.004C224.21 156.677 222.762 159.575 219.864 161.697C216.966 163.766 213.111 164.801 208.299 164.801C205.039 164.801 202.168 164.335 199.684 163.404C197.252 162.421 195.363 161.102 194.018 159.446C192.673 157.738 192 155.85 192 153.78V153.081C192 152.823 192.078 152.616 192.233 152.46C192.44 152.253 192.673 152.15 192.931 152.15H199.761C200.02 152.15 200.227 152.253 200.382 152.46C200.589 152.616 200.693 152.823 200.693 153.081V153.237C200.693 154.53 201.391 155.668 202.788 156.652C204.237 157.583 206.048 158.049 208.222 158.049C210.291 158.049 211.973 157.635 213.267 156.807C214.56 155.927 215.207 154.841 215.207 153.547C215.207 152.357 214.664 151.477 213.577 150.908C213.189 150.675 212.706 150.439 212.129 150.199L211.73 150.038C211.593 149.984 211.45 149.93 211.303 149.876L210.848 149.714C210.77 149.686 210.691 149.659 210.61 149.632L210.113 149.467L209.588 149.302C209.499 149.274 209.408 149.246 209.315 149.219L208.748 149.052C208.652 149.024 208.554 148.996 208.454 148.968L205.505 148.036C202.866 147.26 200.641 146.432 198.83 145.553C197.019 144.673 195.493 143.483 194.251 141.982C193.009 140.43 192.388 138.464 192.388 136.084C192.388 132.462 193.811 129.59 196.657 127.468C199.503 125.295 203.254 124.208 207.911 124.208ZM539.75 124.053C543.632 124.053 546.679 125.208 548.891 127.516L549.064 127.701C551.341 130.081 552.479 133.419 552.479 137.713V163.404C552.479 163.663 552.375 163.896 552.168 164.103C552.013 164.258 551.806 164.335 551.547 164.335H544.484C544.226 164.335 543.992 164.258 543.786 164.103C543.631 163.896 543.553 163.663 543.553 163.404V139.576C543.553 137.196 542.906 135.307 541.612 133.91C540.371 132.513 538.689 131.815 536.568 131.815C534.446 131.815 532.712 132.513 531.367 133.91C530.022 135.307 529.349 137.17 529.349 139.499V163.404C529.349 163.663 529.246 163.896 529.039 164.103C528.884 164.258 528.677 164.335 528.418 164.335H521.355C521.096 164.335 520.864 164.258 520.656 164.103C520.501 163.896 520.424 163.663 520.424 163.404V139.576C520.424 137.196 519.777 135.307 518.483 133.91C517.189 132.513 515.482 131.815 513.361 131.815C511.394 131.815 509.764 132.384 508.471 133.522C507.229 134.661 506.504 136.213 506.297 138.179V163.404C506.297 163.663 506.194 163.896 505.987 164.103C505.832 164.258 505.625 164.335 505.366 164.335H498.226C497.967 164.335 497.734 164.258 497.527 164.103C497.372 163.896 497.294 163.663 497.294 163.404V125.606C497.294 125.347 497.372 125.14 497.527 124.985C497.734 124.778 497.967 124.674 498.226 124.674H505.366C505.625 124.674 505.832 124.778 505.987 124.985C506.194 125.14 506.297 125.347 506.297 125.606V128.167C506.297 128.322 506.349 128.426 506.453 128.477C506.556 128.529 506.66 128.477 506.763 128.322C507.902 126.873 509.299 125.813 510.954 125.14C512.662 124.415 514.551 124.053 516.621 124.053C519.156 124.053 521.381 124.571 523.296 125.606C525.21 126.64 526.684 128.141 527.719 130.107C527.875 130.314 528.056 130.314 528.263 130.107C529.401 128.037 530.979 126.511 532.997 125.528C535.015 124.545 537.266 124.053 539.75 124.053ZM363.098 124.208C364.754 124.208 366.203 124.545 367.445 125.217C367.859 125.424 368.014 125.813 367.911 126.382L366.591 133.367C366.539 133.988 366.177 134.169 365.504 133.91C364.728 133.652 363.822 133.522 362.788 133.522L362.591 133.523L362.224 133.529L361.895 133.542C361.636 133.555 361.417 133.574 361.236 133.6C359.062 133.703 357.251 134.48 355.803 135.928C354.354 137.325 353.629 139.162 353.629 141.439V163.404C353.629 163.663 353.526 163.896 353.319 164.103C353.164 164.258 352.957 164.335 352.698 164.335H345.557C345.299 164.335 345.066 164.258 344.859 164.103C344.704 163.896 344.626 163.663 344.626 163.404V125.606C344.626 125.347 344.704 125.14 344.859 124.985C345.066 124.778 345.299 124.674 345.557 124.674H352.698C352.957 124.674 353.164 124.778 353.319 124.985C353.526 125.14 353.629 125.347 353.629 125.606V129.098C353.629 129.305 353.655 129.435 353.707 129.486C353.811 129.486 353.914 129.409 354.018 129.253C356.191 125.89 359.217 124.208 363.098 124.208ZM425.847 110.005H428.564C428.822 110.005 429.029 110.108 429.184 110.315C429.392 110.471 429.495 110.678 429.495 110.936V116.369C429.495 116.628 429.392 116.861 429.184 117.068C429.029 117.223 428.822 117.301 428.564 117.301H426.546C424.321 117.301 422.768 117.74 421.889 118.62C421.061 119.5 420.647 121.104 420.647 123.432V124.208C420.647 124.467 420.776 124.597 421.035 124.597H428.719C428.977 124.597 429.184 124.7 429.34 124.907C429.547 125.062 429.65 125.269 429.65 125.528V131.66C429.65 131.918 429.547 132.151 429.34 132.358C429.184 132.513 428.977 132.591 428.719 132.591H421.035C420.776 132.591 420.647 132.72 420.647 132.979V163.404C420.647 163.663 420.544 163.896 420.336 164.103C420.181 164.258 419.974 164.335 419.716 164.335H412.575C412.316 164.335 412.083 164.258 411.876 164.103C411.721 163.896 411.644 163.663 411.644 163.404V132.979C411.644 132.72 411.514 132.591 411.256 132.591H406.443C406.184 132.591 405.952 132.513 405.745 132.358C405.589 132.151 405.512 131.918 405.512 131.66V125.528C405.512 125.269 405.589 125.062 405.745 124.907C405.952 124.7 406.184 124.597 406.443 124.597H411.256C411.514 124.597 411.644 124.467 411.644 124.208V122.811C411.644 119.448 412.083 116.861 412.963 115.05C413.842 113.187 415.291 111.868 417.309 111.091C419.327 110.315 422.173 109.953 425.847 110.005ZM452.622 124.208C454.278 124.208 455.727 124.545 456.969 125.217C457.383 125.424 457.538 125.813 457.435 126.382L456.115 133.367C456.064 133.988 455.701 134.169 455.029 133.91C454.253 133.652 453.347 133.522 452.312 133.522L452.115 133.523L451.748 133.529L451.419 133.542C451.161 133.555 450.941 133.574 450.76 133.6C448.587 133.703 446.776 134.48 445.327 135.928C443.878 137.325 443.154 139.162 443.154 141.439V163.404C443.154 163.663 443.05 163.896 442.843 164.103C442.688 164.258 442.481 164.335 442.222 164.335H435.082C434.823 164.335 434.59 164.258 434.383 164.103C434.227 163.896 434.15 163.663 434.15 163.404V125.606C434.15 125.347 434.227 125.14 434.383 124.985C434.59 124.778 434.823 124.674 435.082 124.674H442.222C442.481 124.674 442.688 124.778 442.843 124.985C443.05 125.14 443.154 125.347 443.154 125.606V129.098C443.154 129.305 443.179 129.435 443.231 129.486C443.334 129.486 443.438 129.409 443.542 129.253C445.715 125.89 448.742 124.208 452.622 124.208ZM481.968 146.639H475.449C472.706 146.639 470.533 147.157 468.929 148.191C467.377 149.226 466.601 150.701 466.601 152.616C466.601 154.271 467.196 155.565 468.386 156.496C469.628 157.376 471.206 157.816 473.12 157.816C475.656 157.816 477.829 157.143 479.64 155.798C481.451 154.452 482.356 152.745 482.356 150.675V147.027C482.356 146.769 482.227 146.639 481.968 146.639ZM244.946 131.814C243.032 131.814 241.428 132.306 240.134 133.289C238.892 134.221 238.013 135.54 237.495 137.248C237.185 138.127 236.978 139.266 236.874 140.663C236.771 140.921 236.874 141.051 237.185 141.051H252.941C253.199 141.051 253.329 140.921 253.329 140.663C253.225 139.369 253.07 138.386 252.863 137.713C252.397 135.85 251.466 134.402 250.069 133.367C248.724 132.332 247.016 131.814 244.946 131.814ZM386.166 131.814C384.252 131.814 382.648 132.306 381.354 133.289C380.113 134.221 379.233 135.54 378.716 137.248C378.405 138.127 378.198 139.266 378.094 140.663C377.991 140.921 378.094 141.051 378.405 141.051H394.161C394.419 141.051 394.549 140.921 394.549 140.663L394.505 140.162L394.455 139.694C394.446 139.619 394.437 139.545 394.428 139.472L394.37 139.054C394.289 138.519 394.193 138.072 394.083 137.713C393.618 135.85 392.686 134.402 391.289 133.367C389.944 132.332 388.236 131.814 386.166 131.814ZM574.459 131.814C572.544 131.814 570.941 132.306 569.647 133.289C568.405 134.221 567.526 135.54 567.008 137.248C566.698 138.127 566.491 139.266 566.387 140.663C566.284 140.921 566.387 141.051 566.698 141.051H582.453C582.712 141.051 582.841 140.921 582.841 140.663L582.797 140.162L582.748 139.694C582.739 139.619 582.73 139.545 582.721 139.472L582.663 139.054C582.582 138.519 582.486 138.072 582.376 137.713C581.91 135.85 580.979 134.402 579.582 133.367C578.236 132.332 576.529 131.814 574.459 131.814Z" fill="white"/>
<path fill-rule="evenodd" clip-rule="evenodd" d="M96.1097 189.333C97.4648 172.908 111.225 160 128 160H160C160 177.673 145.673 192 128 192H98.6669C97.0002 192 96.0002 191 96.1097 189.333Z" fill="#5656BF"/>
<path fill-rule="evenodd" clip-rule="evenodd" d="M128 160C110.327 160 96 145.673 96 128H128C145.673 128 160 142.327 160 160H128Z" fill="#177EE5"/>
<path fill-rule="evenodd" clip-rule="evenodd" d="M96 128C96 110.327 110.327 96 128 96C139.58 96 146.445 96 157.333 96C158.667 96 160.042 96.8282 159.89 98.6667C158.535 115.092 144.775 128 128 128H96Z" fill="#73E6D2"/>
<rect x="32" y="224" width="624" height="32" fill="#404040"/>
<rect x="32" y="32" width="624" height="32" fill="#404040"/>
<path fill-rule="evenodd" clip-rule="evenodd" d="M624 64H656V224H624V64Z" fill="#404040"/>
<path fill-rule="evenodd" clip-rule="evenodd" d="M32 64H64V224H32V64Z" fill="#404040"/>
<g clip-path="url(#clip0_890_137791)">
<rect x="592" y="192" width="32" height="32" fill="#FFCCCC"/>
<rect x="160" y="192" width="32" height="32" fill="#FFCCCC"/>
<rect x="64" y="192" width="32" height="32" fill="#FFCCCC"/>
<rect x="592" y="64" width="32" height="32" fill="#FFCCCC"/>
<rect x="160" y="64" width="32" height="32" fill="#FFCCCC"/>
<rect x="64" y="64" width="32" height="32" fill="#FFCCCC"/>
<path d="M172.232 212.121C171.67 212.118 171.191 211.97 170.793 211.677C170.396 211.383 170.091 210.956 169.881 210.395C169.67 209.834 169.565 209.158 169.565 208.367C169.565 207.579 169.67 206.905 169.881 206.347C170.094 205.788 170.399 205.362 170.797 205.068C171.197 204.775 171.675 204.628 172.232 204.628C172.788 204.628 173.265 204.776 173.663 205.072C174.06 205.365 174.365 205.791 174.575 206.35C174.788 206.906 174.895 207.579 174.895 208.367C174.895 209.16 174.79 209.837 174.579 210.398C174.368 210.957 174.064 211.384 173.666 211.68C173.268 211.974 172.79 212.121 172.232 212.121ZM172.232 211.173C172.724 211.173 173.109 210.932 173.386 210.452C173.665 209.971 173.805 209.276 173.805 208.367C173.805 207.763 173.741 207.253 173.613 206.837C173.487 206.418 173.306 206.1 173.07 205.885C172.835 205.667 172.556 205.558 172.232 205.558C171.741 205.558 171.357 205.8 171.077 206.283C170.798 206.766 170.657 207.46 170.655 208.367C170.655 208.973 170.718 209.486 170.843 209.905C170.971 210.321 171.152 210.638 171.386 210.853C171.621 211.066 171.902 211.173 172.232 211.173ZM176.605 212.067C176.411 212.067 176.244 211.999 176.104 211.862C175.964 211.722 175.895 211.554 175.895 211.357C175.895 211.163 175.964 210.997 176.104 210.86C176.244 210.72 176.411 210.651 176.605 210.651C176.799 210.651 176.966 210.72 177.105 210.86C177.245 210.997 177.315 211.163 177.315 211.357C177.315 211.487 177.282 211.607 177.216 211.716C177.152 211.822 177.066 211.908 176.96 211.972C176.853 212.036 176.735 212.067 176.605 212.067ZM181.006 212.099C180.561 212.099 180.161 212.014 179.806 211.844C179.453 211.671 179.172 211.434 178.961 211.134C178.75 210.833 178.638 210.49 178.624 210.104H179.689C179.715 210.416 179.853 210.673 180.104 210.874C180.355 211.076 180.656 211.176 181.006 211.176C181.286 211.176 181.533 211.112 181.749 210.984C181.966 210.854 182.137 210.675 182.26 210.448C182.385 210.221 182.448 209.962 182.448 209.67C182.448 209.375 182.384 209.111 182.256 208.879C182.129 208.647 181.952 208.464 181.727 208.332C181.505 208.199 181.249 208.132 180.96 208.129C180.74 208.129 180.519 208.167 180.296 208.243C180.074 208.319 179.894 208.418 179.756 208.541L178.751 208.392L179.16 204.727H183.158V205.668H180.072L179.842 207.703H179.884C180.026 207.566 180.214 207.451 180.449 207.359C180.686 207.266 180.939 207.22 181.209 207.22C181.652 207.22 182.046 207.326 182.391 207.536C182.739 207.747 183.013 208.035 183.212 208.399C183.413 208.761 183.512 209.178 183.51 209.649C183.512 210.12 183.406 210.54 183.19 210.91C182.977 211.279 182.681 211.57 182.303 211.783C181.926 211.994 181.494 212.099 181.006 212.099Z" fill="#212121"/>
<path d="M127.459 204.727V212H126.358V205.828H126.315L124.575 206.964V205.913L126.39 204.727H127.459Z" fill="#212121"/>
<path d="M75.2315 212.121C74.6705 212.118 74.1911 211.97 73.7933 211.677C73.3956 211.383 73.0914 210.956 72.8807 210.395C72.67 209.834 72.5646 209.158 72.5646 208.367C72.5646 207.579 72.67 206.905 72.8807 206.347C73.0938 205.788 73.3991 205.362 73.7969 205.068C74.197 204.775 74.6752 204.628 75.2315 204.628C75.7879 204.628 76.2649 204.776 76.6626 205.072C77.0604 205.365 77.3646 205.791 77.5753 206.35C77.7884 206.906 77.8949 207.579 77.8949 208.367C77.8949 209.16 77.7895 209.837 77.5788 210.398C77.3681 210.957 77.0639 211.384 76.6662 211.68C76.2685 211.974 75.7902 212.121 75.2315 212.121ZM75.2315 211.173C75.724 211.173 76.1087 210.932 76.3857 210.452C76.665 209.971 76.8047 209.276 76.8047 208.367C76.8047 207.763 76.7408 207.253 76.6129 206.837C76.4875 206.418 76.3063 206.1 76.0696 205.885C75.8352 205.667 75.5559 205.558 75.2315 205.558C74.7415 205.558 74.3568 205.8 74.0774 206.283C73.7981 206.766 73.6572 207.46 73.6548 208.367C73.6548 208.973 73.7176 209.486 73.843 209.905C73.9709 210.321 74.152 210.638 74.3864 210.853C74.6207 211.066 74.9025 211.173 75.2315 211.173ZM79.6048 212.067C79.4106 212.067 79.2437 211.999 79.104 211.862C78.9644 211.722 78.8945 211.554 78.8945 211.357C78.8945 211.163 78.9644 210.997 79.104 210.86C79.2437 210.72 79.4106 210.651 79.6048 210.651C79.7989 210.651 79.9658 210.72 80.1055 210.86C80.2451 210.997 80.315 211.163 80.315 211.357C80.315 211.487 80.2818 211.607 80.2156 211.716C80.1516 211.822 80.0664 211.908 79.9599 211.972C79.8533 212.036 79.735 212.067 79.6048 212.067ZM84.0064 212.099C83.5613 212.099 83.1612 212.014 82.8061 211.844C82.4534 211.671 82.1716 211.434 81.9609 211.134C81.7502 210.833 81.6378 210.49 81.6236 210.104H82.6889C82.715 210.416 82.8535 210.673 83.1044 210.874C83.3554 211.076 83.656 211.176 84.0064 211.176C84.2857 211.176 84.5331 211.112 84.7486 210.984C84.9664 210.854 85.1368 210.675 85.2599 210.448C85.3854 210.221 85.4482 209.962 85.4482 209.67C85.4482 209.375 85.3842 209.111 85.2564 208.879C85.1286 208.647 84.9522 208.464 84.7273 208.332C84.5047 208.199 84.2491 208.132 83.9602 208.129C83.7401 208.129 83.5187 208.167 83.2962 208.243C83.0736 208.319 82.8937 208.418 82.7564 208.541L81.7514 208.392L82.1598 204.727H86.1584V205.668H83.0724L82.8416 207.703H82.8842C83.0263 207.566 83.2145 207.451 83.4489 207.359C83.6856 207.266 83.9389 207.22 84.2088 207.22C84.6515 207.22 85.0457 207.326 85.3913 207.536C85.7393 207.747 86.0128 208.035 86.2116 208.399C86.4129 208.761 86.5123 209.178 86.5099 209.649C86.5123 210.12 86.4058 210.54 86.1903 210.91C85.9773 211.279 85.6813 211.57 85.3026 211.783C84.9261 211.994 84.4941 212.099 84.0064 212.099Z" fill="#212121"/>
<path d="M172.232 84.1207C171.67 84.1184 171.191 83.9704 170.793 83.6768C170.396 83.3833 170.091 82.956 169.881 82.3949C169.67 81.8338 169.565 81.1579 169.565 80.3672C169.565 79.5788 169.67 78.9053 169.881 78.3466C170.094 77.7879 170.399 77.3617 170.797 77.0682C171.197 76.7746 171.675 76.6278 172.232 76.6278C172.788 76.6278 173.265 76.7758 173.663 77.0717C174.06 77.3653 174.365 77.7914 174.575 78.3501C174.788 78.9065 174.895 79.5788 174.895 80.3672C174.895 81.1603 174.79 81.8374 174.579 82.3984C174.368 82.9571 174.064 83.3845 173.666 83.6804C173.268 83.974 172.79 84.1207 172.232 84.1207ZM172.232 83.1726C172.724 83.1726 173.109 82.9323 173.386 82.4517C173.665 81.9711 173.805 81.2763 173.805 80.3672C173.805 79.7635 173.741 79.2533 173.613 78.8366C173.487 78.4176 173.306 78.1004 173.07 77.8849C172.835 77.6671 172.556 77.5582 172.232 77.5582C171.741 77.5582 171.357 77.7997 171.077 78.2827C170.798 78.7656 170.657 79.4605 170.655 80.3672C170.655 80.9732 170.718 81.4858 170.843 81.9048C170.971 82.3215 171.152 82.6375 171.386 82.853C171.621 83.0661 171.902 83.1726 172.232 83.1726ZM176.605 84.0675C176.411 84.0675 176.244 83.9988 176.104 83.8615C175.964 83.7218 175.895 83.5537 175.895 83.3572C175.895 83.1631 175.964 82.9974 176.104 82.8601C176.244 82.7204 176.411 82.6506 176.605 82.6506C176.799 82.6506 176.966 82.7204 177.105 82.8601C177.245 82.9974 177.315 83.1631 177.315 83.3572C177.315 83.4875 177.282 83.607 177.216 83.7159C177.152 83.8224 177.066 83.9077 176.96 83.9716C176.853 84.0355 176.735 84.0675 176.605 84.0675ZM181.006 84.0994C180.561 84.0994 180.161 84.0142 179.806 83.8438C179.453 83.6709 179.172 83.4342 178.961 83.1335C178.75 82.8329 178.638 82.4896 178.624 82.1037H179.689C179.715 82.4162 179.853 82.6731 180.104 82.8743C180.355 83.0755 180.656 83.1761 181.006 83.1761C181.286 83.1761 181.533 83.1122 181.749 82.9844C181.966 82.8542 182.137 82.6754 182.26 82.4482C182.385 82.2209 182.448 81.9616 182.448 81.6705C182.448 81.3745 182.384 81.1106 182.256 80.8786C182.129 80.6465 181.952 80.4643 181.727 80.3317C181.505 80.1991 181.249 80.1316 180.96 80.1293C180.74 80.1293 180.519 80.1671 180.296 80.2429C180.074 80.3187 179.894 80.4181 179.756 80.5412L178.751 80.392L179.16 76.7273H183.158V77.6683H180.072L179.842 79.7031H179.884C180.026 79.5658 180.214 79.451 180.449 79.3587C180.686 79.2663 180.939 79.2202 181.209 79.2202C181.652 79.2202 182.046 79.3255 182.391 79.5362C182.739 79.7469 183.013 80.0346 183.212 80.3991C183.413 80.7614 183.512 81.178 183.51 81.6491C183.512 82.1203 183.406 82.5405 183.19 82.9098C182.977 83.2791 182.681 83.5703 182.303 83.7834C181.926 83.9941 181.494 84.0994 181.006 84.0994Z" fill="#212121"/>
<path d="M604.232 212.121C603.67 212.118 603.191 211.97 602.793 211.677C602.396 211.383 602.091 210.956 601.881 210.395C601.67 209.834 601.565 209.158 601.565 208.367C601.565 207.579 601.67 206.905 601.881 206.347C602.094 205.788 602.399 205.362 602.797 205.068C603.197 204.775 603.675 204.628 604.232 204.628C604.788 204.628 605.265 204.776 605.663 205.072C606.06 205.365 606.365 205.791 606.575 206.35C606.788 206.906 606.895 207.579 606.895 208.367C606.895 209.16 606.79 209.837 606.579 210.398C606.368 210.957 606.064 211.384 605.666 211.68C605.268 211.974 604.79 212.121 604.232 212.121ZM604.232 211.173C604.724 211.173 605.109 210.932 605.386 210.452C605.665 209.971 605.805 209.276 605.805 208.367C605.805 207.763 605.741 207.253 605.613 206.837C605.487 206.418 605.306 206.1 605.07 205.885C604.835 205.667 604.556 205.558 604.232 205.558C603.741 205.558 603.357 205.8 603.077 206.283C602.798 206.766 602.657 207.46 602.655 208.367C602.655 208.973 602.718 209.486 602.843 209.905C602.971 210.321 603.152 210.638 603.386 210.853C603.621 211.066 603.902 211.173 604.232 211.173ZM608.605 212.067C608.411 212.067 608.244 211.999 608.104 211.862C607.964 211.722 607.895 211.554 607.895 211.357C607.895 211.163 607.964 210.997 608.104 210.86C608.244 210.72 608.411 210.651 608.605 210.651C608.799 210.651 608.966 210.72 609.105 210.86C609.245 210.997 609.315 211.163 609.315 211.357C609.315 211.487 609.282 211.607 609.216 211.716C609.152 211.822 609.066 211.908 608.96 211.972C608.853 212.036 608.735 212.067 608.605 212.067ZM613.006 212.099C612.561 212.099 612.161 212.014 611.806 211.844C611.453 211.671 611.172 211.434 610.961 211.134C610.75 210.833 610.638 210.49 610.624 210.104H611.689C611.715 210.416 611.853 210.673 612.104 210.874C612.355 211.076 612.656 211.176 613.006 211.176C613.286 211.176 613.533 211.112 613.749 210.984C613.966 210.854 614.137 210.675 614.26 210.448C614.385 210.221 614.448 209.962 614.448 209.67C614.448 209.375 614.384 209.111 614.256 208.879C614.129 208.647 613.952 208.464 613.727 208.332C613.505 208.199 613.249 208.132 612.96 208.129C612.74 208.129 612.519 208.167 612.296 208.243C612.074 208.319 611.894 208.418 611.756 208.541L610.751 208.392L611.16 204.727H615.158V205.668H612.072L611.842 207.703H611.884C612.026 207.566 612.214 207.451 612.449 207.359C612.686 207.266 612.939 207.22 613.209 207.22C613.652 207.22 614.046 207.326 614.391 207.536C614.739 207.747 615.013 208.035 615.212 208.399C615.413 208.761 615.512 209.178 615.51 209.649C615.512 210.12 615.406 210.54 615.19 210.91C614.977 211.279 614.681 211.57 614.303 211.783C613.926 211.994 613.494 212.099 613.006 212.099Z" fill="#212121"/>
<path d="M604.232 84.1207C603.67 84.1184 603.191 83.9704 602.793 83.6768C602.396 83.3833 602.091 82.956 601.881 82.3949C601.67 81.8338 601.565 81.1579 601.565 80.3672C601.565 79.5788 601.67 78.9053 601.881 78.3466C602.094 77.7879 602.399 77.3617 602.797 77.0682C603.197 76.7746 603.675 76.6278 604.232 76.6278C604.788 76.6278 605.265 76.7758 605.663 77.0717C606.06 77.3653 606.365 77.7914 606.575 78.3501C606.788 78.9065 606.895 79.5788 606.895 80.3672C606.895 81.1603 606.79 81.8374 606.579 82.3984C606.368 82.9571 606.064 83.3845 605.666 83.6804C605.268 83.974 604.79 84.1207 604.232 84.1207ZM604.232 83.1726C604.724 83.1726 605.109 82.9323 605.386 82.4517C605.665 81.9711 605.805 81.2763 605.805 80.3672C605.805 79.7635 605.741 79.2533 605.613 78.8366C605.487 78.4176 605.306 78.1004 605.07 77.8849C604.835 77.6671 604.556 77.5582 604.232 77.5582C603.741 77.5582 603.357 77.7997 603.077 78.2827C602.798 78.7656 602.657 79.4605 602.655 80.3672C602.655 80.9732 602.718 81.4858 602.843 81.9048C602.971 82.3215 603.152 82.6375 603.386 82.853C603.621 83.0661 603.902 83.1726 604.232 83.1726ZM608.605 84.0675C608.411 84.0675 608.244 83.9988 608.104 83.8615C607.964 83.7218 607.895 83.5537 607.895 83.3572C607.895 83.1631 607.964 82.9974 608.104 82.8601C608.244 82.7204 608.411 82.6506 608.605 82.6506C608.799 82.6506 608.966 82.7204 609.105 82.8601C609.245 82.9974 609.315 83.1631 609.315 83.3572C609.315 83.4875 609.282 83.607 609.216 83.7159C609.152 83.8224 609.066 83.9077 608.96 83.9716C608.853 84.0355 608.735 84.0675 608.605 84.0675ZM613.006 84.0994C612.561 84.0994 612.161 84.0142 611.806 83.8438C611.453 83.6709 611.172 83.4342 610.961 83.1335C610.75 82.8329 610.638 82.4896 610.624 82.1037H611.689C611.715 82.4162 611.853 82.6731 612.104 82.8743C612.355 83.0755 612.656 83.1761 613.006 83.1761C613.286 83.1761 613.533 83.1122 613.749 82.9844C613.966 82.8542 614.137 82.6754 614.26 82.4482C614.385 82.2209 614.448 81.9616 614.448 81.6705C614.448 81.3745 614.384 81.1106 614.256 80.8786C614.129 80.6465 613.952 80.4643 613.727 80.3317C613.505 80.1991 613.249 80.1316 612.96 80.1293C612.74 80.1293 612.519 80.1671 612.296 80.2429C612.074 80.3187 611.894 80.4181 611.756 80.5412L610.751 80.392L611.16 76.7273H615.158V77.6683H612.072L611.842 79.7031H611.884C612.026 79.5658 612.214 79.451 612.449 79.3587C612.686 79.2663 612.939 79.2202 613.209 79.2202C613.652 79.2202 614.046 79.3255 614.391 79.5362C614.739 79.7469 615.013 80.0346 615.212 80.3991C615.413 80.7614 615.512 81.178 615.51 81.6491C615.512 82.1203 615.406 82.5405 615.19 82.9098C614.977 83.2791 614.681 83.5703 614.303 83.7834C613.926 83.9941 613.494 84.0994 613.006 84.0994Z" fill="#212121"/>
<path d="M127.459 76.7273V84H126.358V77.8281H126.315L124.575 78.9645V77.9134L126.39 76.7273H127.459Z" fill="#212121"/>
<path d="M75.2315 84.1207C74.6705 84.1184 74.1911 83.9704 73.7933 83.6768C73.3956 83.3833 73.0914 82.956 72.8807 82.3949C72.67 81.8338 72.5646 81.1579 72.5646 80.3672C72.5646 79.5788 72.67 78.9053 72.8807 78.3466C73.0938 77.7879 73.3991 77.3617 73.7969 77.0682C74.197 76.7746 74.6752 76.6278 75.2315 76.6278C75.7879 76.6278 76.2649 76.7758 76.6626 77.0717C77.0604 77.3653 77.3646 77.7914 77.5753 78.3501C77.7884 78.9065 77.8949 79.5788 77.8949 80.3672C77.8949 81.1603 77.7895 81.8374 77.5788 82.3984C77.3681 82.9571 77.0639 83.3845 76.6662 83.6804C76.2685 83.974 75.7902 84.1207 75.2315 84.1207ZM75.2315 83.1726C75.724 83.1726 76.1087 82.9323 76.3857 82.4517C76.665 81.9711 76.8047 81.2763 76.8047 80.3672C76.8047 79.7635 76.7408 79.2533 76.6129 78.8366C76.4875 78.4176 76.3063 78.1004 76.0696 77.8849C75.8352 77.6671 75.5559 77.5582 75.2315 77.5582C74.7415 77.5582 74.3568 77.7997 74.0774 78.2827C73.7981 78.7656 73.6572 79.4605 73.6548 80.3672C73.6548 80.9732 73.7176 81.4858 73.843 81.9048C73.9709 82.3215 74.152 82.6375 74.3864 82.853C74.6207 83.0661 74.9025 83.1726 75.2315 83.1726ZM79.6048 84.0675C79.4106 84.0675 79.2437 83.9988 79.104 83.8615C78.9644 83.7218 78.8945 83.5537 78.8945 83.3572C78.8945 83.1631 78.9644 82.9974 79.104 82.8601C79.2437 82.7204 79.4106 82.6506 79.6048 82.6506C79.7989 82.6506 79.9658 82.7204 80.1055 82.8601C80.2451 82.9974 80.315 83.1631 80.315 83.3572C80.315 83.4875 80.2818 83.607 80.2156 83.7159C80.1516 83.8224 80.0664 83.9077 79.9599 83.9716C79.8533 84.0355 79.735 84.0675 79.6048 84.0675ZM84.0064 84.0994C83.5613 84.0994 83.1612 84.0142 82.8061 83.8438C82.4534 83.6709 82.1716 83.4342 81.9609 83.1335C81.7502 82.8329 81.6378 82.4896 81.6236 82.1037H82.6889C82.715 82.4162 82.8535 82.6731 83.1044 82.8743C83.3554 83.0755 83.656 83.1761 84.0064 83.1761C84.2857 83.1761 84.5331 83.1122 84.7486 82.9844C84.9664 82.8542 85.1368 82.6754 85.2599 82.4482C85.3854 82.2209 85.4482 81.9616 85.4482 81.6705C85.4482 81.3745 85.3842 81.1106 85.2564 80.8786C85.1286 80.6465 84.9522 80.4643 84.7273 80.3317C84.5047 80.1991 84.2491 80.1316 83.9602 80.1293C83.7401 80.1293 83.5187 80.1671 83.2962 80.2429C83.0736 80.3187 82.8937 80.4181 82.7564 80.5412L81.7514 80.392L82.1598 76.7273H86.1584V77.6683H83.0724L82.8416 79.7031H82.8842C83.0263 79.5658 83.2145 79.451 83.4489 79.3587C83.6856 79.2663 83.9389 79.2202 84.2088 79.2202C84.6515 79.2202 85.0457 79.3255 85.3913 79.5362C85.7393 79.7469 86.0128 80.0346 86.2116 80.3991C86.4129 80.7614 86.5123 81.178 86.5099 81.6491C86.5123 82.1203 86.4058 82.5405 86.1903 82.9098C85.9773 83.2791 85.6813 83.5703 85.3026 83.7834C84.9261 83.9941 84.4941 84.0994 84.0064 84.0994Z" fill="#212121"/>
</g>
<path d="M688 64H0" stroke="#FF7C7C" stroke-width="0.5"/>
<path d="M688 192L0.000799374 192" stroke="#FF7C7C" stroke-width="0.5"/>
<path d="M688 96L0.000799374 96" stroke="#FF7C7C" stroke-width="0.5"/>
<path d="M688 224H0" stroke="#FF7C7C" stroke-width="0.5"/>
<path d="M624 0V288" stroke="#FF7C7C" stroke-width="0.5"/>
<path d="M592 0V288" stroke="#FF7C7C" stroke-width="0.5"/>
<path d="M192 0V288" stroke="#FF7C7C" stroke-width="0.5"/>
<path d="M160 0V288" stroke="#FF7C7C" stroke-width="0.5"/>
<path d="M96 0V288" stroke="#FF7C7C" stroke-width="0.5"/>
<path d="M64 0V288" stroke="#FF7C7C" stroke-width="0.5"/>
<defs>
<clipPath id="clip0_890_137791">
<rect width="560" height="160" fill="white" transform="translate(64 64)"/>
</clipPath>
</defs>
</svg>
