<svg width="239" height="74" viewBox="0 0 239 74" fill="none" xmlns="http://www.w3.org/2000/svg">
<path d="M87.6 44H108.144V38.48H93.6V10.4H87.6V44ZM119.415 32.96C119.415 40.4 124.023 44.72 131.943 44.72C139.959 44.72 144.567 40.4 144.567 32.96V10.4H138.567V32.672C138.567 37.04 136.359 39.2 131.943 39.2C127.575 39.2 125.415 36.992 125.415 32.576V10.4H119.415V32.96ZM159.21 44H165.114V21.056H165.21L174.858 44H177.402L187.05 21.056H187.146V44H193.05V10.4H186.138L176.154 34.4H176.058L166.122 10.4H159.21V44ZM227.873 44H233.921L221.873 10.4H216.353L204.257 44H210.305L212.273 38.24H225.905L227.873 44ZM214.097 32.96L219.041 18.704H219.137L224.081 32.96H214.097Z" fill="white"/>
<path d="M87.7377 67.1102C88.0504 69.1118 89.3515 70.1877 91.4407 70.1877C93.3547 70.1877 94.6682 69.1743 94.6682 67.6606C94.6682 66.9476 94.4305 66.3721 93.9677 65.9092C93.5048 65.4464 92.7292 65.0335 91.6408 64.6582C90.3398 64.2204 89.9645 63.9702 89.9645 63.5198C89.9645 63.0319 90.4148 62.7192 91.1029 62.7192C91.9035 62.7192 92.3914 63.132 92.6291 64.0202L94.4305 63.6324C94.1553 62.0937 92.8168 61.0553 91.1029 61.0553C89.364 61.0553 88.138 62.0687 88.138 63.5323C88.138 64.1703 88.3507 64.7083 88.776 65.1211C89.2014 65.5339 89.9269 65.9092 90.9403 66.247C92.4039 66.7474 92.8168 67.0476 92.8168 67.6606C92.8168 68.2111 92.3289 68.5238 91.4657 68.5238C90.3022 68.5238 89.7893 68.0234 89.5516 66.7224L87.7377 67.1102ZM113.389 70H115.241V62.9444H117.768V61.243H110.85V62.9444H113.389V70ZM134.876 67.1102C134.876 69.0492 136.127 70.1877 138.242 70.1877C140.356 70.1877 141.607 69.0492 141.607 67.1102V61.243H139.755V67.0101C139.755 68.0109 139.255 68.4988 138.242 68.4988C137.228 68.4988 136.728 67.9984 136.728 66.9851V61.243H134.876V67.1102ZM159.284 70H162.311C164.638 70 166.164 68.3487 166.164 65.6215C166.164 62.9068 164.65 61.243 162.324 61.243H159.284V70ZM161.135 68.2986V62.9444H162.311C163.562 62.9444 164.313 63.8701 164.313 65.6215C164.313 67.3729 163.562 68.2986 162.311 68.2986H161.135ZM183.396 70H185.248V61.243H183.396V70ZM202.5 65.6215C202.5 68.3737 204.027 70.1877 206.366 70.1877C208.693 70.1877 210.244 68.3737 210.244 65.6215C210.244 62.8693 208.693 61.0553 206.366 61.0553C204.027 61.0553 202.5 62.8693 202.5 65.6215ZM208.393 65.6215C208.393 67.4229 207.629 68.4988 206.366 68.4988C205.115 68.4988 204.352 67.4229 204.352 65.6215C204.352 63.8201 205.115 62.7442 206.366 62.7442C207.617 62.7442 208.393 63.8201 208.393 65.6215ZM226.854 67.1102C227.167 69.1118 228.468 70.1877 230.557 70.1877C232.471 70.1877 233.785 69.1743 233.785 67.6606C233.785 66.9476 233.547 66.3721 233.084 65.9092C232.621 65.4464 231.846 65.0335 230.757 64.6582C229.456 64.2204 229.081 63.9702 229.081 63.5198C229.081 63.0319 229.531 62.7192 230.219 62.7192C231.02 62.7192 231.508 63.132 231.746 64.0202L233.547 63.6324C233.272 62.0937 231.933 61.0553 230.219 61.0553C228.481 61.0553 227.255 62.0687 227.255 63.5323C227.255 64.1703 227.467 64.7083 227.893 65.1211C228.318 65.5339 229.044 65.9092 230.057 66.247C231.52 66.7474 231.933 67.0476 231.933 67.6606C231.933 68.2111 231.445 68.5238 230.582 68.5238C229.419 68.5238 228.906 68.0234 228.668 66.7224L226.854 67.1102Z" fill="white"/>
<path d="M0.00117188 64.6L30.2144 10H55.8615L0.00117188 70V64.6Z" fill="white"/>
<path d="M60 39.8065L5.40117 70L0.00117188 70L60 14.3467V39.8065Z" fill="white"/>
<path d="M5.40117 70L60 46.8117V70H5.40117Z" fill="white"/>
<path d="M23.2093 10L0.00117188 64.6L0 10H23.2093Z" fill="white"/>
</svg>
