<svg width="303" height="74" viewBox="0 0 303 74" fill="none" xmlns="http://www.w3.org/2000/svg">
<g clip-path="url(#clip0_2221_58129)">
<path d="M37.1354 -0.00585937C57.347 -0.00585937 73.7318 16.3789 73.7318 36.5905C73.7318 56.8021 57.347 73.1869 37.1354 73.1869C16.9238 73.1869 0.539062 56.8021 0.539062 36.5905C0.539062 16.3789 16.9238 -0.00585937 37.1354 -0.00585937ZM36.1418 26.5415L39.138 31.1552L14.8327 46.2334H14.7185L14.7173 46.3044L14.6492 46.3488L14.7173 46.4006L14.7185 51.2944C14.7185 55.8059 18.3211 59.4632 22.7651 59.4632H27.593L27.5915 54.5613L22.7651 54.5619C20.9875 54.5619 19.5464 53.099 19.5464 51.2944L19.545 49.6936L41.7948 35.2463L44.8187 39.9027L47.2624 28.8178L36.1418 26.5415ZM42.0748 54.5613H34.028L34.0295 59.4631H42.0763L42.0748 54.5613ZM59.7786 46.2334H54.9508L54.9515 51.2944C54.9515 53.099 53.5104 54.5619 51.7328 54.5619L48.5128 54.5613V59.4631L51.7328 59.4632C56.1768 59.4632 59.7794 55.8059 59.7794 51.2944L59.7786 46.2334ZM19.5462 31.7486L14.7185 31.7501V39.7969L19.5462 39.7954V31.7486ZM54.9508 31.7486V39.7954L59.7786 39.7969V31.7501L54.9508 31.7486ZM51.7328 13.7178H48.5128V18.6181L51.7328 18.6191C53.5104 18.6191 54.9515 20.082 54.9515 21.8866L54.9508 25.3121H59.7786L59.7794 21.8866C59.7794 17.3751 56.1768 13.7178 51.7328 13.7178ZM27.593 13.7178H22.7651C18.3211 13.7178 14.7185 17.3751 14.7185 21.8866V25.3121H19.5462L19.5464 21.8866C19.5464 20.082 20.9875 18.6191 22.7651 18.6191L27.5915 18.6181L27.593 13.7178ZM42.0763 13.7178H34.0295L34.028 18.6181H42.0748L42.0763 13.7178Z" fill="#3EA9FC"/>
<path d="M99.775 49.0814C102.562 49.0814 104.735 48.427 106.293 47.118C107.851 45.809 108.63 43.978 108.63 41.6251C108.63 40.3108 108.328 39.1449 107.724 38.1274C107.12 37.1099 106.193 36.1401 104.942 35.218C103.946 34.4655 103.27 33.864 102.915 33.4135C102.56 32.9631 102.382 32.4782 102.382 31.9588C102.382 31.3865 102.565 30.9519 102.931 30.6552C103.296 30.3584 103.818 30.21 104.497 30.21C105.769 30.21 107.311 30.6764 109.123 31.6091L111.27 26.8872C109.245 25.7531 106.966 25.1861 104.433 25.1861C102.865 25.1861 101.447 25.4908 100.18 26.1003C98.9138 26.7097 97.9334 27.5682 97.2392 28.6758C96.5449 29.7834 96.1978 31.0314 96.1978 32.4199C96.1978 33.66 96.4787 34.7993 97.0404 35.838C97.6022 36.8767 98.5031 37.8942 99.7432 38.8905C100.761 39.7385 101.386 40.287 101.619 40.536C101.852 40.7851 102.033 41.0342 102.16 41.2833C102.287 41.5323 102.351 41.8 102.351 42.0861C102.351 42.6903 102.149 43.1566 101.746 43.4852C101.344 43.8138 100.75 43.978 99.9657 43.978C99.033 43.978 97.9917 43.7873 96.8417 43.4057C95.6917 43.0241 94.6716 42.5525 93.7812 41.9907V47.5552C94.5338 48.0533 95.4294 48.4323 96.4681 48.6919C97.5068 48.9516 98.6091 49.0814 99.775 49.0814ZM121.19 49.0814C123.702 49.0814 126.034 48.6045 128.185 47.6506V42.5154C126.967 43.0347 125.907 43.4031 125.006 43.6203C124.105 43.8376 123.215 43.9463 122.335 43.9463C121.222 43.9463 120.369 43.5965 119.775 42.897C119.182 42.1974 118.885 41.1375 118.885 39.7173C118.885 38.0214 119.147 36.4475 119.672 34.9954C120.197 33.5434 120.92 32.404 121.842 31.5773C122.764 30.7505 123.798 30.3372 124.942 30.3372C125.833 30.3372 126.691 30.4829 127.518 30.7744C128.344 31.0659 129.251 31.5031 130.236 32.086L132.589 27.237C130.3 25.8485 127.751 25.1543 124.942 25.1543C122.557 25.1543 120.44 25.7531 118.591 26.9508C116.741 28.1485 115.279 29.9238 114.203 32.2768C113.127 34.6298 112.589 37.2159 112.589 40.0352C112.589 42.9182 113.334 45.1466 114.823 46.7205C116.312 48.2945 118.434 49.0814 121.19 49.0814ZM138.186 48.7635L139.982 40.3055H141.143L144.243 48.7635H151.016L150.38 47.2372L146.818 39.0336C148.302 38.3871 149.42 37.4491 150.173 36.2196C150.926 34.9901 151.302 33.5487 151.302 31.8952C151.302 29.7648 150.592 28.1697 149.171 27.1098C147.751 26.0499 145.706 25.52 143.035 25.52H136.882L131.969 48.7635H138.186ZM141.795 35.5837H140.984L142.097 30.2736H142.939C143.639 30.2736 144.171 30.4458 144.537 30.7903C144.903 31.1348 145.086 31.6356 145.086 32.2927C145.086 33.3314 144.789 34.1396 144.195 34.7172C143.602 35.2949 142.801 35.5837 141.795 35.5837ZM166.93 48.7635L168.011 43.6442H160.427L161.334 39.2562H168.393L169.537 34.2164H162.478L163.226 30.5598H170.809L171.843 25.52H158.043L153.13 48.7635H166.93ZM185.229 48.7635L186.31 43.6442H178.727L179.633 39.2562H186.692L187.836 34.2164H180.778L181.525 30.5598H189.108L190.142 25.52H176.342L171.429 48.7635H185.229ZM195.261 48.7635L197.312 39.0654C197.609 37.7194 197.911 35.5042 198.218 32.4199H198.345L202.94 48.7635H210.174L215.086 25.52H209.554L207.471 35.2498C207.174 36.6807 206.872 38.6468 206.565 41.1481H206.422L201.875 25.52H194.641L189.728 48.7635H195.261ZM221.08 49.0814C223.772 49.0814 225.884 48.4508 227.416 47.1895C228.947 45.9283 229.713 44.1847 229.713 41.9589C229.713 40.7189 229.4 39.6192 228.775 38.66C228.15 37.7008 227.015 36.7072 225.373 35.6791C224.281 34.9901 223.568 34.484 223.234 34.1608C222.9 33.8375 222.654 33.4877 222.495 33.1115C222.336 32.7352 222.257 32.298 222.257 31.7998C222.257 30.8035 222.606 29.9954 223.306 29.3753C224.005 28.7553 224.933 28.4453 226.088 28.4453C227.508 28.4453 229.072 28.8586 230.778 29.6854L232.145 26.6488C230.28 25.6736 228.261 25.1861 226.088 25.1861C224.594 25.1861 223.25 25.4723 222.058 26.0446C220.865 26.617 219.943 27.4278 219.291 28.4771C218.64 29.5264 218.314 30.7293 218.314 32.086C218.314 32.9233 218.454 33.6891 218.735 34.3833C219.016 35.0776 219.421 35.7162 219.951 36.2991C220.481 36.882 221.303 37.5286 222.416 38.2387C223.804 39.1184 224.715 39.8418 225.15 40.4088C225.585 40.9759 225.802 41.6251 225.802 42.3564C225.802 43.4587 225.383 44.3199 224.546 44.9399C223.709 45.5599 222.564 45.87 221.112 45.87C219.236 45.87 217.381 45.3559 215.547 44.3278V47.8891C217.01 48.684 218.854 49.0814 221.08 49.0814ZM240.126 48.7635L244.371 28.7791H250.429L251.112 25.52H235.246L234.53 28.7791L240.556 28.7791L236.358 48.7635H240.126ZM261.923 48.7635L262.607 45.5361H254.038L255.564 38.2864H263.577L264.228 35.059H256.247L257.583 28.7791H266.152L266.836 25.52H254.499L249.586 48.7635H261.923ZM270.476 48.7635L272.305 40.067H274.054C277.265 40.067 279.769 39.3622 281.566 37.9525C283.362 36.5429 284.26 34.5238 284.26 31.8952C284.26 29.7754 283.646 28.1829 282.416 27.1178C281.187 26.0526 279.358 25.52 276.931 25.52H271.621L266.709 48.7635H270.476ZM274.483 36.8714H272.988L274.737 28.6996H276.629C277.912 28.6996 278.863 28.9646 279.483 29.4946C280.103 30.0245 280.413 30.8671 280.413 32.0224C280.413 33.5699 279.896 34.7649 278.863 35.6075C277.83 36.4501 276.37 36.8714 274.483 36.8714ZM290.413 49.0814C293.105 49.0814 295.217 48.4508 296.749 47.1895C298.28 45.9283 299.046 44.1847 299.046 41.9589C299.046 40.7189 298.733 39.6192 298.108 38.66C297.483 37.7008 296.349 36.7072 294.706 35.6791C293.614 34.9901 292.901 34.484 292.567 34.1608C292.234 33.8375 291.987 33.4877 291.828 33.1115C291.669 32.7352 291.59 32.298 291.59 31.7998C291.59 30.8035 291.939 29.9954 292.639 29.3753C293.338 28.7553 294.266 28.4453 295.421 28.4453C296.841 28.4453 298.405 28.8586 300.111 29.6854L301.478 26.6488C299.613 25.6736 297.594 25.1861 295.421 25.1861C293.927 25.1861 292.583 25.4723 291.391 26.0446C290.199 26.617 289.276 27.4278 288.625 28.4771C287.973 29.5264 287.647 30.7293 287.647 32.086C287.647 32.9233 287.787 33.6891 288.068 34.3833C288.349 35.0776 288.754 35.7162 289.284 36.2991C289.814 36.882 290.636 37.5286 291.749 38.2387C293.137 39.1184 294.049 39.8418 294.483 40.4088C294.918 40.9759 295.135 41.6251 295.135 42.3564C295.135 43.4587 294.716 44.3199 293.879 44.9399C293.042 45.5599 291.897 45.87 290.445 45.87C288.569 45.87 286.714 45.3559 284.88 44.3278V47.8891C286.343 48.684 288.187 49.0814 290.413 49.0814Z" fill="white"/>
</g>
<defs>
<clipPath id="clip0_2221_58129">
<rect width="301.92" height="74" fill="white" transform="translate(0.539062)"/>
</clipPath>
</defs>
</svg>
