<svg width="177" height="74" viewBox="0 0 177 74" fill="none" xmlns="http://www.w3.org/2000/svg">
<path d="M30.1065 38.2924C30.0458 45.6853 23.3116 52.5044 13.7865 52.5044C13.1069 52.5044 12.4464 52.4679 11.8066 52.3967C11.5405 52.3671 11.3755 52.0969 11.4627 51.8437L13.1784 46.8607C13.2757 46.5783 13.5555 46.403 13.8538 46.4192C14.0318 46.4289 14.2117 46.4338 14.3932 46.4338C19.1861 46.4338 22.9476 42.9806 22.9476 38.8333C22.9476 34.7833 20.027 32.6409 16.8876 30.3379C13.2249 27.6511 9.26435 24.7458 9.29702 18.3375C9.35768 11.6659 15.2426 5.78125 23.9789 5.78125C33.5646 5.78125 38.3004 13.8525 34.6567 21.8293C34.272 22.6715 33.6891 23.6881 32.4152 23.2512L29.6642 22.3021C28.3581 21.8489 28.1405 20.4961 28.4511 19.3374C29.9357 13.7989 26.6862 11.6114 23.3116 11.6114C19.2467 11.6114 16.3953 13.9499 16.3346 17.7966C16.3074 21.415 19.1088 23.4805 22.1917 25.7537C25.971 28.5403 30.1733 31.6389 30.1065 38.2924Z" fill="#F05A3B"/>
<path d="M7.25562 50.6349C7.1726 50.876 6.89741 50.9913 6.6718 50.8724C2.81753 48.8418 0.5 45.0551 0.5 40.3031C0.5 37.7506 0.746276 35.7381 2.26302 33.3638C2.71292 32.6596 3.38253 32.5642 4.37021 32.9L10.5793 35.0431C11.5885 35.4054 12.0489 36.5922 11.7298 37.6409L9.43757 44.293C9.43249 44.3077 9.42797 44.3225 9.424 44.3374L7.25562 50.6349Z" fill="#F05A3B"/>
<path fill-rule="evenodd" clip-rule="evenodd" d="M65.4526 52.5075C68.7144 52.5075 71.9218 49.9446 74.5698 46.7299C74.6132 50.2954 76.1808 52.5077 80.3422 52.5077C83.8031 52.5077 87.2027 49.6224 89.9348 46.1346C90.1055 50.0596 91.9145 52.5076 96.4338 52.5076C99.9233 52.5076 103.372 49.506 106.137 45.9251C107.587 50.2407 111.728 52.5075 116.763 52.5075C122.222 52.5075 125.955 50.7641 128.776 48.1241C129.052 47.899 129.341 47.6129 129.64 47.2591L129.663 47.2332C129.977 46.8966 130.279 46.5486 130.571 46.1906C134.062 42.0767 136.944 37.4789 139.126 32.5381C140.52 32.8924 141.946 33.1056 143.383 33.1743L143.211 33.5392C140.802 38.6463 138.931 42.6141 138.931 46.4638C138.878 47.2607 138.994 48.0597 139.271 48.8088C139.548 49.5578 139.98 50.2399 140.538 50.8104C141.097 51.381 141.77 51.827 142.512 52.1195C143.255 52.412 144.051 52.5443 144.849 52.5077C148.168 52.5077 151.488 49.7116 154.194 46.3127C155.236 50.016 158.222 52.5072 162.547 52.5072C171.15 52.5072 176.678 43.8654 176.678 35.4004C176.678 30.6996 173.764 26.0519 168.164 26.0519C161.029 26.0519 155.703 31.9847 154.209 39.1436C151.708 43.2893 148.832 46.3755 147.004 46.3755C146.12 46.3755 145.608 45.7392 145.608 44.7143C145.608 42.1164 148.629 35.1359 150.996 29.8342C151.087 29.6352 151.128 29.4164 151.113 29.1977C151.098 28.9791 151.028 28.7677 150.911 28.5829C150.793 28.3982 150.63 28.2461 150.438 28.1405C150.246 28.0349 150.031 27.9792 149.812 27.9787C147.04 27.9254 144.273 27.7011 141.528 27.3071C141.465 27.2955 141.405 27.2703 141.353 27.2334C141.301 27.1964 141.257 27.1486 141.225 27.0931C141.194 27.0377 141.174 26.9759 141.168 26.9122C141.163 26.8484 141.171 26.7842 141.192 26.7239C141.3 26.394 141.39 26.1407 141.47 25.9178C141.574 25.6272 141.66 25.3881 141.74 25.0981C141.74 25.0981 141.74 25.0944 141.741 25.09C141.752 25.0125 141.838 24.4265 141.069 24.4265H137.766C136.175 24.4957 135.769 25.8181 135.355 27.1668L135.328 27.2541C134.359 30.4331 133.54 33.0355 132.557 35.3898C128.143 44.0241 124.222 47.0998 118.177 47.0998C114.485 47.0998 112.648 45.58 112.189 43.0352C118.618 44.502 127.132 41.1266 127.132 33.5452C127.158 32.5376 126.975 31.5356 126.595 30.602C126.216 29.6683 125.647 28.8232 124.926 28.1197C124.204 27.4162 123.346 26.8694 122.403 26.5136C121.46 26.1578 120.454 26.0008 119.448 26.0522C112.321 26.0522 107.176 31.9641 105.894 38.9285C103.209 43.424 100.331 46.393 98.3944 46.393C95.215 46.393 95.268 42.8939 99.2776 31.6897H102.333C103.062 31.6881 103.771 31.4614 104.366 31.0407C104.96 30.62 105.41 30.0257 105.654 29.3393L105.778 29.0212C105.871 28.754 105.899 28.4682 105.859 28.188C105.819 27.9077 105.712 27.6412 105.548 27.4108C105.383 27.1805 105.166 26.993 104.914 26.8642C104.662 26.7354 104.383 26.6691 104.1 26.6708H101.274C102.086 24.5148 103.005 22.1821 104.029 19.6019C104.099 19.4044 104.121 19.1931 104.093 18.9854C104.066 18.7777 103.99 18.5795 103.871 18.4071C103.752 18.2346 103.594 18.0928 103.409 17.9933C103.225 17.8938 103.02 17.8395 102.81 17.8347H100.532C99.8129 17.836 99.1116 18.0566 98.5214 18.4671C97.9312 18.8776 97.4802 19.4584 97.2286 20.1321L94.7734 26.6885H94.5084C93.77 26.6853 93.0491 26.9138 92.4472 27.3417C91.8452 27.7696 91.3924 28.3755 91.1524 29.0742L90.5413 30.8606C90.3992 31.2757 90.7078 31.7074 91.1465 31.7074H92.9894C92.528 33.0734 92.0999 34.4095 91.7189 35.7034C88.5464 41.9588 84.7623 46.4107 82.3912 46.4107C79.3968 46.4107 81.9186 39.7136 85.24 30.893C85.4647 30.2961 85.6932 29.6893 85.9239 29.0743C86.0234 28.8079 86.0571 28.5215 86.0223 28.2392C85.9875 27.957 85.8851 27.6874 85.7238 27.4532C85.5626 27.219 85.3473 27.0272 85.0961 26.8941C84.845 26.761 84.5654 26.6905 84.2812 26.6885H82.6561C81.9373 26.6898 81.236 26.9104 80.6458 27.3209C80.0556 27.7314 79.6046 28.3122 79.3531 28.9859C78.606 30.9875 77.8853 32.9515 77.2397 34.8385C74.4142 41.7905 69.9911 46.3046 67.5192 46.3046C65.6116 46.3046 65.8588 44.396 68.2257 37.4684C69.9038 32.3612 72.9949 23.5427 76.7395 13.6993C76.8094 13.5018 76.8315 13.2905 76.8039 13.0828C76.7764 12.8751 76.7 12.6769 76.5811 12.5045C76.4621 12.332 76.304 12.1902 76.1197 12.0907C75.9354 11.9912 75.7301 11.9368 75.5208 11.9321H73.1715C72.4476 11.9311 71.7409 12.1526 71.1469 12.5666C70.553 12.9807 70.1005 13.5673 69.8508 14.2471C69.402 15.4787 68.949 16.7184 68.4971 17.9554C66.2008 24.2408 63.9306 30.4547 62.3561 35.1593C59.1315 42.6448 54.5453 46.7547 50.3504 47.1883C54.042 44.7142 56.9035 38.1578 56.9035 33.7751C56.9035 28.8092 54.7132 25.9993 51.1805 25.9993C47.6478 25.9993 44.3978 28.5441 42.3488 31.9902L43.7972 28.4557C43.8675 28.2568 43.8894 28.044 43.8609 27.8349C43.8324 27.6259 43.7545 27.4267 43.6335 27.2538C43.5126 27.081 43.3522 26.9395 43.1656 26.8411C42.979 26.7428 42.7716 26.6905 42.5608 26.6885H40.5648C39.8285 26.6841 39.1092 26.9099 38.5075 27.3345C37.9058 27.7591 37.4517 28.3612 37.2087 29.0566C33.3992 40.1878 27.7826 56.3727 23.5684 68.5164L23.5636 68.5302C23.1095 69.8388 22.6717 71.1003 22.2543 72.3035C22.1971 72.4996 22.186 72.7063 22.2218 72.9074C22.2577 73.1085 22.3395 73.2986 22.4609 73.4628C22.5823 73.6271 22.7401 73.761 22.9218 73.8542C23.1035 73.9474 23.3042 73.9973 23.5084 74H25.893C26.6529 74.0023 27.3932 73.7594 28.0041 73.3073C28.615 72.8552 29.064 72.2181 29.2843 71.4906C31.0684 65.5704 34.8595 54.3632 36.3079 50.2279C38.9514 51.8707 42.0312 52.6718 45.1397 52.5253C50.3564 52.5253 55.3906 51.8382 59.8642 46.9863C59.9775 50.7467 61.7818 52.5075 65.4526 52.5075ZM47.7009 31.6367C49.2906 31.6367 50.0501 32.9798 50.0501 35.0828C50.0501 40.0487 46.1111 47.2943 41.9072 47.365C41.1383 47.3961 40.3711 47.2712 39.6516 46.9979C38.9322 46.7245 38.2755 46.3084 37.721 45.7745C41.4656 35.4539 45.1573 31.6367 47.7009 31.6367ZM112.33 39.0236C116.393 39.4654 121.162 37.2564 121.162 33.8103C121.211 33.4997 121.192 33.182 121.104 32.8799C121.017 32.5777 120.864 32.2985 120.657 32.0623C120.449 31.826 120.192 31.6384 119.904 31.5129C119.616 31.3874 119.303 31.3271 118.989 31.3362C115.827 31.3362 113.143 34.7646 112.33 39.0236ZM170.072 35.9129C170.072 33.4212 169.048 31.6362 167.087 31.6362C163.643 31.6362 160.34 37.6802 160.34 42.328C160.34 45.1909 161.541 46.6576 163.395 46.6576C166.698 46.6576 170.072 40.7375 170.072 35.9129Z" fill="#F05A3B"/>
<path d="M81.614 20.0085C81.61 18.5606 82.1544 17.165 83.1376 16.1026C84.1209 15.0402 85.4698 14.3899 86.913 14.2827C87.3508 14.2679 87.7869 14.3433 88.1944 14.5041C88.6018 14.665 88.9718 14.9078 89.2815 15.2177C89.5912 15.5275 89.834 15.8978 89.9948 16.3054C90.1555 16.7131 90.2309 17.1494 90.2161 17.5874C90.1854 19.0178 89.6425 20.3896 88.6862 21.4534C87.73 22.5172 86.4238 23.2022 85.0054 23.3839C84.5528 23.4179 84.0982 23.3541 83.6725 23.1968C83.2468 23.0395 82.8599 22.7923 82.5382 22.4721C82.2164 22.1519 81.9673 21.7661 81.8079 21.341C81.6484 20.9159 81.5823 20.4614 81.614 20.0085Z" fill="#F05A3B"/>
</svg>
